<svg viewBox="0 0 495 558" fill="none" xmlns="http://www.w3.org/2000/svg">
	<path d="M404.035 279C404.035 365.407 333.907 435.535 247.5 435.535C161.093 435.535 90.9651 365.407 90.9651 279C90.9651 192.593 161.093 122.465 247.5 122.465C333.907 122.465 404.035 192.593 404.035 279Z" fill="#83BFF1" stroke="#455DFF" stroke-width="2.61574"/>
	<path d="M284.498 125.289C284.498 135.102 280.6 144.512 273.661 151.451C266.723 158.389 257.312 162.287 247.5 162.287C237.688 162.287 228.277 158.389 221.339 151.451C214.4 144.512 210.502 135.102 210.502 125.289C210.502 115.477 214.4 106.066 221.339 99.1277C228.277 92.1893 237.688 88.2913 247.5 88.2913C257.312 88.2913 266.723 92.1893 273.661 99.1277C280.6 106.066 284.498 115.477 284.498 125.289V125.289Z" fill="#3A5ECD" stroke="#455DFF" stroke-width="3"/>
	<path d="M232.298 67.9728C246.248 81.9228 246.248 81.9228 246.248 81.9228M247.5 39.3435C247.5 39.3435 247.5 2.95218 247.5 83.013C261.43 69.0826 262.321 68.1533 262.321 68.1533L247.5 39.3435Z" stroke="#0000FF" stroke-width="5" stroke-linecap="round" stroke-linejoin="round"/>
	<path d="M123.198 106.612C109.248 120.562 109.248 120.562 109.248 120.562M207.828 121.814C207.828 121.814 188.219 121.814 108.158 121.814C122.089 135.745 123.018 136.635 123.018 136.635L207.828 121.814Z" stroke="#FF0000" stroke-width="5" stroke-linecap="round" stroke-linejoin="round"/>
	<path d="M265.047 49.8134C262.143 49.8134 260.131 50.1454 259.011 50.8095C257.892 51.4735 257.332 52.6064 257.332 54.2079C257.332 55.484 257.748 56.4996 258.582 57.2548C259.428 57.997 260.574 58.3681 262.019 58.3681C264.011 58.3681 265.606 57.6649 266.804 56.2587C268.015 54.8394 268.621 52.9579 268.621 50.6142V49.8134H265.047ZM272.214 48.329V60.8095H268.621V57.4892C267.8 58.8173 266.778 59.8004 265.554 60.4384C264.33 61.0634 262.833 61.3759 261.062 61.3759C258.823 61.3759 257.039 60.7509 255.711 59.5009C254.395 58.2379 253.738 56.5517 253.738 54.4423C253.738 51.9814 254.558 50.1259 256.199 48.8759C257.852 47.6259 260.313 47.0009 263.582 47.0009H268.621V46.6493C268.621 44.9957 268.074 43.7196 266.98 42.8212C265.899 41.9098 264.376 41.454 262.41 41.454C261.16 41.454 259.942 41.6038 258.757 41.9032C257.573 42.2027 256.433 42.6519 255.339 43.2509V39.9306C256.655 39.4228 257.931 39.0452 259.168 38.7978C260.405 38.5374 261.609 38.4072 262.781 38.4071C265.945 38.4072 268.308 39.2275 269.871 40.8681C271.433 42.5087 272.214 44.9957 272.214 48.329Z" fill="#0000FF"/>
	<path d="M266.532 37.5943C271.5 32.6266 271.5 32.6266 271.5 32.6266M256.337 32.1807C256.337 32.1807 243.378 32.1807 271.888 32.1807C266.927 27.22 266.596 26.903 266.596 26.903L256.337 32.1807Z" stroke="#0000FF" stroke-width="1.78053" stroke-linecap="round" stroke-linejoin="round"/>
	<path d="M156.021 93.5468H159.83L166.666 111.906L173.501 93.5468H177.31L169.107 115.422H164.224L156.021 93.5468Z" fill="#FF0000"/>
	<path d="M169.293 92.7015C174.261 87.7338 174.261 87.7338 174.261 87.7338M159.098 87.2879C159.098 87.2879 146.139 87.2879 174.649 87.2879C169.689 82.3272 169.358 82.0102 169.358 82.0102L159.098 87.2879Z" stroke="#FF0000" stroke-width="1.78053" stroke-linecap="round" stroke-linejoin="round"/>
	<path d="M95.5901 244.185C105.403 244.185 114.813 248.083 121.752 255.022C128.69 261.96 132.588 271.371 132.588 281.183C132.588 290.996 128.69 300.406 121.752 307.345C114.813 314.283 105.403 318.181 95.5901 318.181C85.7777 318.181 76.3671 314.283 69.4287 307.345C62.4903 300.406 58.5923 290.996 58.5923 281.183C58.5923 271.371 62.4903 261.96 69.4287 255.022C76.3671 248.083 85.7777 244.185 95.5901 244.185V244.185Z" fill="#3A5ECD" stroke="#455DFF" stroke-width="3"/>
	<path d="M38.2738 296.385C52.2238 282.435 52.2238 282.435 52.2238 282.435M9.64445 281.183C9.64445 281.183 -26.7468 281.183 53.314 281.183C39.3836 267.253 38.4542 266.363 38.4542 266.363L9.64445 281.183Z" stroke="#0000FF" stroke-width="5" stroke-linecap="round" stroke-linejoin="round"/>
	<path d="M76.9128 405.485C90.8628 419.435 90.8628 419.435 90.8628 419.435M92.115 320.856C92.115 320.856 92.115 340.464 92.115 420.525C106.045 406.595 106.936 405.665 106.936 405.665L92.115 320.856Z" stroke="#FF0000" stroke-width="5" stroke-linecap="round" stroke-linejoin="round"/>
	<path d="M400.728 314.859C390.916 314.859 381.505 310.961 374.567 304.023C367.628 297.084 363.73 287.674 363.73 277.861C363.73 268.049 367.628 258.638 374.567 251.7C381.505 244.761 390.916 240.863 400.728 240.863C410.54 240.863 419.951 244.761 426.889 251.7C433.828 258.638 437.726 268.049 437.726 277.861C437.726 287.674 433.828 297.084 426.889 304.023C419.951 310.961 410.54 314.859 400.728 314.859V314.859Z" fill="#3A5ECD" stroke="#455DFF" stroke-width="3"/>
	<path d="M458.044 262.659C444.094 276.609 444.094 276.609 444.094 276.609M486.674 277.861C486.674 277.861 523.065 277.861 443.004 277.861C456.935 291.792 457.864 292.682 457.864 292.682L486.674 277.861Z" stroke="#0000FF" stroke-width="5" stroke-linecap="round" stroke-linejoin="round"/>
	<path d="M419.405 153.56C405.455 139.61 405.455 139.61 405.455 139.61M404.203 238.189C404.203 238.189 404.203 218.58 404.203 138.519C390.273 152.45 389.382 153.379 389.382 153.379L404.203 238.189Z" stroke="#FF0000" stroke-width="5" stroke-linecap="round" stroke-linejoin="round"/>
	<path d="M213.158 431.089C213.158 421.277 217.056 411.866 223.995 404.928C230.933 397.989 240.344 394.091 250.156 394.091C259.968 394.091 269.379 397.989 276.317 404.928C283.256 411.866 287.154 421.277 287.154 431.089C287.154 440.902 283.256 450.312 276.317 457.251C269.379 464.189 259.968 468.087 250.156 468.087C240.344 468.087 230.933 464.189 223.995 457.251C217.056 450.312 213.158 440.902 213.158 431.089V431.089Z" fill="#3A5ECD" stroke="#455DFF" stroke-width="3"/>
	<path d="M265.358 488.406C251.408 474.456 251.408 474.456 251.408 474.456M250.156 517.035C250.156 517.035 250.156 553.426 250.156 473.365C236.226 487.296 235.335 488.225 235.335 488.225L250.156 517.035Z" stroke="#0000FF" stroke-width="5" stroke-linecap="round" stroke-linejoin="round"/>
	<path d="M374.458 449.767C388.408 435.817 388.408 435.817 388.408 435.817M289.828 434.564C289.828 434.564 309.437 434.564 389.498 434.564C375.567 420.634 374.638 419.744 374.638 419.744L289.828 434.564Z" stroke="#FF0000" stroke-width="5" stroke-linecap="round" stroke-linejoin="round"/>
	<path d="M64.0184 361.327H67.827L74.6629 379.686L81.4988 361.327H85.3074L77.1043 383.202H72.2215L64.0184 361.327Z" fill="#FF0000"/>
	<path d="M77.2906 360.482C82.2583 355.514 82.2583 355.514 82.2583 355.514M67.0956 355.068C67.0956 355.068 54.1364 355.068 82.6465 355.068C77.6858 350.107 77.3549 349.79 77.3549 349.79L67.0956 355.068Z" stroke="#FF0000" stroke-width="1.78053" stroke-linecap="round" stroke-linejoin="round"/>
	<path d="M318.335 451.834H322.143L328.979 470.193L335.815 451.834H339.624L331.421 473.709H326.538L318.335 451.834Z" fill="#FF0000"/>
	<path d="M331.607 450.988C336.575 446.021 336.575 446.021 336.575 446.021M321.412 445.575C321.412 445.575 308.453 445.575 336.963 445.575C332.002 440.614 331.671 440.297 331.671 440.297L321.412 445.575Z" stroke="#FF0000" stroke-width="1.78053" stroke-linecap="round" stroke-linejoin="round"/>
	<path d="M408.093 196.021H411.902L418.738 214.381L425.574 196.021H429.382L421.179 217.896H416.297L408.093 196.021Z" fill="#FF0000"/>
	<path d="M421.366 195.176C426.333 190.208 426.333 190.208 426.333 190.208M411.171 189.762C411.171 189.762 398.211 189.762 426.722 189.762C421.761 184.802 421.43 184.485 421.43 184.485L411.171 189.762Z" stroke="#FF0000" stroke-width="1.78053" stroke-linecap="round" stroke-linejoin="round"/>
	<path d="M475.979 259.998C473.076 259.998 471.064 260.33 469.944 260.994C468.825 261.659 468.265 262.791 468.265 264.393C468.265 265.669 468.681 266.685 469.515 267.44C470.361 268.182 471.507 268.553 472.952 268.553C474.944 268.553 476.539 267.85 477.737 266.444C478.948 265.024 479.554 263.143 479.554 260.799V259.998H475.979ZM483.147 258.514V270.994H479.554V267.674C478.733 269.002 477.711 269.985 476.487 270.623C475.263 271.248 473.766 271.561 471.995 271.561C469.756 271.561 467.972 270.936 466.644 269.686C465.328 268.423 464.671 266.737 464.671 264.627C464.671 262.166 465.491 260.311 467.132 259.061C468.785 257.811 471.246 257.186 474.515 257.186H479.554V256.834C479.554 255.181 479.007 253.905 477.913 253.006C476.832 252.095 475.309 251.639 473.343 251.639C472.093 251.639 470.875 251.789 469.69 252.088C468.506 252.388 467.366 252.837 466.272 253.436V250.116C467.588 249.608 468.864 249.23 470.101 248.983C471.338 248.722 472.542 248.592 473.714 248.592C476.878 248.592 479.241 249.412 480.804 251.053C482.366 252.694 483.147 255.181 483.147 258.514Z" fill="#0000FF"/>
	<path d="M477.465 247.779C482.433 242.812 482.433 242.812 482.433 242.812M467.27 242.366C467.27 242.366 454.311 242.366 482.821 242.366C477.86 237.405 477.529 237.088 477.529 237.088L467.27 242.366Z" stroke="#0000FF" stroke-width="1.78053" stroke-linecap="round" stroke-linejoin="round"/>
	<path d="M268.786 518.055C265.883 518.055 263.871 518.387 262.751 519.051C261.631 519.715 261.072 520.848 261.072 522.449C261.072 523.725 261.488 524.741 262.322 525.496C263.168 526.238 264.314 526.609 265.759 526.609C267.751 526.609 269.346 525.906 270.544 524.5C271.755 523.081 272.361 521.199 272.361 518.855V518.055H268.786ZM275.954 516.57V529.051H272.361V525.73C271.54 527.059 270.518 528.042 269.294 528.68C268.07 529.305 266.573 529.617 264.802 529.617C262.562 529.617 260.779 528.992 259.451 527.742C258.135 526.479 257.478 524.793 257.478 522.684C257.478 520.223 258.298 518.367 259.939 517.117C261.592 515.867 264.053 515.242 267.322 515.242H272.361V514.891C272.361 513.237 271.814 511.961 270.72 511.062C269.639 510.151 268.116 509.695 266.15 509.695C264.9 509.695 263.682 509.845 262.497 510.144C261.312 510.444 260.173 510.893 259.079 511.492V508.172C260.395 507.664 261.671 507.286 262.908 507.039C264.145 506.779 265.349 506.648 266.521 506.648C269.685 506.648 272.048 507.469 273.611 509.109C275.173 510.75 275.954 513.237 275.954 516.57Z" fill="#0000FF"/>
	<path d="M270.272 505.836C275.24 500.868 275.239 500.868 275.239 500.868M260.077 500.422C260.077 500.422 247.118 500.422 275.628 500.422C270.667 495.461 270.336 495.144 270.336 495.144L260.077 500.422Z" stroke="#0000FF" stroke-width="1.78053" stroke-linecap="round" stroke-linejoin="round"/>
	<path d="M24.942 310.114C22.0383 310.114 20.0266 310.446 18.9068 311.11C17.787 311.774 17.2271 312.907 17.2271 314.508C17.2271 315.784 17.6438 316.8 18.4771 317.555C19.3235 318.297 20.4693 318.668 21.9146 318.668C23.9068 318.668 25.5018 317.965 26.6998 316.559C27.9107 315.14 28.5162 313.258 28.5162 310.914V310.114H24.942ZM32.1099 308.629V321.11H28.5162V317.789C27.6958 319.118 26.6737 320.101 25.4498 320.739C24.2258 321.364 22.7284 321.676 20.9576 321.676C18.718 321.676 16.9341 321.051 15.606 319.801C14.2909 318.538 13.6334 316.852 13.6334 314.743C13.6334 312.282 14.4537 310.426 16.0943 309.176C17.7479 307.926 20.2089 307.301 23.4771 307.301H28.5162V306.95C28.5162 305.296 27.9693 304.02 26.8755 303.121C25.7948 302.21 24.2714 301.754 22.3052 301.754C21.0552 301.754 19.8378 301.904 18.6529 302.204C17.468 302.503 16.3287 302.952 15.2349 303.551V300.231C16.55 299.723 17.8261 299.345 19.063 299.098C20.3 298.838 21.5045 298.707 22.6763 298.707C25.8404 298.707 28.2037 299.528 29.7662 301.168C31.3287 302.809 32.1099 305.296 32.1099 308.629Z" fill="#0000FF"/>
	<path d="M26.4274 297.895C31.395 292.927 31.395 292.927 31.395 292.927M16.2323 292.481C16.2323 292.481 3.27313 292.481 31.7833 292.481C26.8226 287.52 26.4916 287.203 26.4916 287.203L16.2323 292.481Z" stroke="#0000FF" stroke-width="1.78053" stroke-linecap="round" stroke-linejoin="round"/>
	<path d="M223.003 321.429C199.582 307.907 191.548 277.924 205.071 254.503C218.593 231.082 248.576 223.048 271.997 236.571C295.418 250.093 303.452 280.076 289.929 303.497C285.422 311.304 279.804 316.922 271.997 321.429" stroke="#008000" stroke-width="5" stroke-linecap="round" stroke-linejoin="round"/>
	<path d="M217.289 325.954L221.295 320.205L225.301 314.457L228.277 320.8L231.252 327.144L224.271 326.549L217.289 325.954Z" fill="#008000" stroke="#008000" stroke-width="5" stroke-linecap="round" stroke-linejoin="round"/>
	<path d="M241.543 290.221C236.139 290.221 233.438 286.354 233.438 278.619C233.438 275.559 234.447 271.946 236.465 267.779H240.332C238.47 271.946 237.539 275.592 237.539 278.717C237.539 284.355 238.984 287.174 241.875 287.174C244.518 287.174 245.84 283.671 245.84 276.666H249.16C249.16 283.671 250.482 287.174 253.125 287.174C256.016 287.174 257.461 284.355 257.461 278.717C257.461 275.592 256.53 271.946 254.668 267.779H258.535C260.553 271.946 261.562 275.559 261.562 278.619C261.562 286.354 258.861 290.221 253.457 290.221C249.915 290.221 247.93 288.274 247.5 284.381C246.966 288.274 244.98 290.221 241.543 290.221Z" fill="#008000"/>
</svg>