<?xml version="1.0" encoding="UTF-8"?>
<!-- Created with EazyDraw for Mac ( http://www.eazydraw.com/ ) -->

<svg
    version="1.1"
    xmlns:dc="http://purl.org/dc/elements/1.1/"
    xmlns:cc="http://creativecommons.org/ns#"
    xmlns:rdf="http://www.w3.org/1999/02/22-rdf-syntax-ns#"
    xmlns:svg="http://www.w3.org/2000/svg"
    xmlns:xlink="http://www.w3.org/1999/xlink"
    xmlns="http://www.w3.org/2000/svg"
    width="485.55625"
    height="427.73046875"
    viewBox="0, 0, 485.55625, 427.73046875"
    preserveAspectRatio="none"
    id="svg2">
   <defs
       id="defs_CCA28F9A">
      <linearGradient id="linearStops_2ECED6E2">
         <stop id="stop_2ECED6E2_0" offset="0" style="stop-color:#D4D4FF;stop-opacity:1;"/>
         <stop id="stop_2ECED6E2_1" offset="1" style="stop-color:#3232CD;stop-opacity:1;"/>
      </linearGradient>
      <linearGradient id="horizontalGradient_2ECED6E2" x1="1" y1="0.5" x2="0" y2="0.5" gradientUnits="objectBoundingBox" xlink:href="#linearStops_2ECED6E2"/>
      <linearGradient id="linearStops_4D85A133">
         <stop id="stop_4D85A133_0" offset="0" style="stop-color:#4441FF;stop-opacity:1;"/>
         <stop id="stop_4D85A133_1" offset="1" style="stop-color:#BEBFFF;stop-opacity:1;"/>
      </linearGradient>
      <linearGradient id="horizontalGradient_4D85A133" x1="1" y1="0.5" x2="0" y2="0.5" gradientUnits="objectBoundingBox" xlink:href="#linearStops_4D85A133"/>
   </defs>
   <metadata
       id="metadata7">
      <rdf:RDF>
         <cc:Work
             rdf:about="">
            <dc:format>image/svg+xml</dc:format>
            <dc:type rdf:resource="http://purl.org/dc/dcmitype/StillImage"/>
            <dc:title></dc:title>
         </cc:Work>
      </rdf:RDF>
   </metadata>
   <g
       id="layer_Paper"
       style="fill:#ffffff;fill-opacity:1;stroke:#ffffff;stroke-opacity:1;fill-rule:nonzero;stroke-linecap:square;stroke-linejoin:miter;stroke-width:1;stroke-miterlimit:10">
      <ellipse
          style="fill:none;stroke:#A0A0A0;stroke-width:3"
          id="97C572D2"
          cx="242.8203125"
          cy="213.865234375"
          rx="233.34765625"
          ry="212.365234375"/>
      <g
          id="vectorGradient_997AB0E2">
         <g
             id="gradientWithClip_997AB0E2">
            <clipPath
                id="gradientClip_997AB0E2_clip">
               <path
                   d="M211.076289062,213.6015625 C211.077736102,210.98346728 210.557192605,208.366518396 209.553954049,205.948267567 C208.553389275,203.528909221 207.07100681,201.310367082 205.218710715,199.46011741 C203.368461043,197.607821315 201.149918904,196.12543885 198.730560558,195.124874076
C196.312309729,194.12163552 193.695360845,193.601092023 191.077265625,193.602539062 C188.459170405,193.601092023 185.842221521,194.12163552 183.423970692,195.124874076 C181.004612346,196.12543885 178.786070207,197.607821315 176.935820535,199.46011741
C175.08352444,201.310367082 173.601141975,203.528909221 172.600577201,205.948267567 C171.597338645,208.366518396 171.076795148,210.98346728 171.078242187,213.6015625 C171.076795148,216.21965772 171.597338645,218.836606604 172.600577201,221.254857433
C173.601141975,223.674215779 175.08352444,225.892757918 176.935820535,227.74300759 C178.786070207,229.595303685 181.004612346,231.07768615 183.423970692,232.078250924 C185.842221521,233.08148948 188.459170405,233.602032977 191.077265625,233.600585937
C193.695360845,233.602032977 196.312309729,233.08148948 198.730560558,232.078250924 C201.149918904,231.07768615 203.368461043,229.595303685 205.218710715,227.74300759 C207.07100681,225.892757918 208.553389275,223.674215779 209.553954049,221.254857433
C210.557192605,218.836606604 211.077736102,216.21965772 211.076289062,213.6015625 z"
                   clip-rule="nonzero"/>
            </clipPath>
            <g
                id="gradientVectors_997AB0E2"
                clip-path="url(#gradientClip_997AB0E2_clip)"
                style="fill:none;stroke-linecap:round;stroke-linejoin:bevel;stroke-width:0.195492737072">
               <path id="gv_997AB0E2_0" d="M205.14816781,199.530660315 C212.919312503,207.301805008 212.919312503,219.901319992 205.14816781,227.672464685 C197.377023117,235.443609378 184.777508133,235.443609378 177.00636344,227.672464685 C169.235218747,219.901319992 169.235218747,207.301805008 177.00636344,199.530660315
C184.777508133,191.759515622 197.377023117,191.759515622 205.14816781,199.530660315" style="stroke:#ECD918"/>
               <path id="gv_997AB0E2_1" d="M205.006751707,199.672076418 C212.699794444,207.365119154 212.699794444,219.838005846 205.006751707,227.531048582 C197.313708971,235.224091319 184.840822279,235.224091319 177.147779543,227.531048582 C169.454736806,219.838005846 169.454736806,207.365119154 177.147779543,199.672076418
C184.840822279,191.979033681 197.313708971,191.979033681 205.006751707,199.672076418" style="stroke:#ECD918"/>
               <path id="gv_997AB0E2_2" d="M204.865335605,199.81349252 C212.480276385,207.4284333 212.480276385,219.7746917 204.865335605,227.38963248 C197.250394825,235.00457326 184.904136425,235.00457326 177.289195645,227.38963248 C169.674254865,219.7746917 169.674254865,207.4284333 177.289195645,199.81349252
C184.904136425,192.19855174 197.250394825,192.19855174 204.865335605,199.81349252" style="stroke:#EDDA1B"/>
               <path id="gv_997AB0E2_3" d="M204.723919503,199.954908622 C212.260758326,207.491747445 212.260758326,219.711377555 204.723919503,227.248216378 C197.18708068,234.785055201 184.96745057,234.785055201 177.430611747,227.248216378 C169.893772924,219.711377555 169.893772924,207.491747445 177.430611747,199.954908622
C184.96745057,192.418069799 197.18708068,192.418069799 204.723919503,199.954908622" style="stroke:#EDDA1D"/>
               <path id="gv_997AB0E2_4" d="M204.5825034,200.096324725 C212.041240266,207.555061591 212.041240266,219.648063409 204.5825034,227.106800275 C197.123766534,234.565537141 185.030764716,234.565537141 177.57202785,227.106800275 C170.113290984,219.648063409 170.113290984,207.555061591 177.57202785,200.096324725
C185.030764716,192.637587859 197.123766534,192.637587859 204.5825034,200.096324725" style="stroke:#EDDA1F"/>
               <path id="gv_997AB0E2_5" d="M204.441087298,200.237740827 C211.821722207,207.618375736 211.821722207,219.584749264 204.441087298,226.965384173 C197.060452389,234.346019082 185.094078861,234.346019082 177.713443952,226.965384173 C170.332809043,219.584749264 170.332809043,207.618375736 177.713443952,200.237740827
C185.094078861,192.857105918 197.060452389,192.857105918 204.441087298,200.237740827" style="stroke:#EDDB21"/>
               <path id="gv_997AB0E2_6" d="M204.299671196,200.379156929 C211.602204148,207.681689882 211.602204148,219.521435118 204.299671196,226.823968071 C196.997138243,234.126501023 185.157393007,234.126501023 177.854860054,226.823968071 C170.552327102,219.521435118 170.552327102,207.681689882 177.854860054,200.379156929
C185.157393007,193.076623977 196.997138243,193.076623977 204.299671196,200.379156929" style="stroke:#EEDB23"/>
               <path id="gv_997AB0E2_7" d="M204.158255093,200.520573032 C211.382686089,207.745004028 211.382686089,219.458120972 204.158255093,226.682551968 C196.933824097,233.906982964 185.220707153,233.906982964 177.996276157,226.682551968 C170.771845161,219.458120972 170.771845161,207.745004028 177.996276157,200.520573032
C185.220707153,193.296142036 196.933824097,193.296142036 204.158255093,200.520573032" style="stroke:#EEDB24"/>
               <path id="gv_997AB0E2_8" d="M204.016838991,200.661989134 C211.16316803,207.808318173 211.16316803,219.394806827 204.016838991,226.541135866 C196.870509952,233.687464905 185.284021298,233.687464905 178.137692259,226.541135866 C170.99136322,219.394806827 170.99136322,207.808318173 178.137692259,200.661989134
C185.284021298,193.515660095 196.870509952,193.515660095 204.016838991,200.661989134" style="stroke:#EEDB26"/>
               <path id="gv_997AB0E2_9" d="M203.875422889,200.803405236 C210.943649971,207.871632319 210.943649971,219.331492681 203.875422889,226.399719764 C196.807195806,233.467946846 185.347335444,233.467946846 178.279108361,226.399719764 C171.210881279,219.331492681 171.210881279,207.871632319 178.279108361,200.803405236
C185.347335444,193.735178154 196.807195806,193.735178154 203.875422889,200.803405236" style="stroke:#EEDC28"/>
               <path id="gv_997AB0E2_10" d="M203.734006786,200.944821339 C210.724131912,207.934946465 210.724131912,219.268178535 203.734006786,226.258303661 C196.74388166,233.248428787 185.41064959,233.248428787 178.420524464,226.258303661 C171.430399338,219.268178535 171.430399338,207.934946465 178.420524464,200.944821339
C185.41064959,193.954696213 196.74388166,193.954696213 203.734006786,200.944821339" style="stroke:#EEDC2A"/>
               <path id="gv_997AB0E2_11" d="M203.592590684,201.086237441 C210.504613853,207.99826061 210.504613853,219.20486439 203.592590684,226.116887559 C196.680567515,233.028910728 185.473963735,233.028910728 178.561940566,226.116887559 C171.649917397,219.20486439 171.649917397,207.99826061 178.561940566,201.086237441
C185.473963735,194.174214272 196.680567515,194.174214272 203.592590684,201.086237441" style="stroke:#EFDC2B"/>
               <path id="gv_997AB0E2_12" d="M203.451174581,201.227653544 C210.285095794,208.061574756 210.285095794,219.141550244 203.451174581,225.975471456 C196.617253369,232.809392669 185.537277881,232.809392669 178.703356669,225.975471456 C171.869435456,219.141550244 171.869435456,208.061574756 178.703356669,201.227653544
C185.537277881,194.393732331 196.617253369,194.393732331 203.451174581,201.227653544" style="stroke:#EFDD2D"/>
               <path id="gv_997AB0E2_13" d="M203.309758479,201.369069646 C210.065577735,208.124888902 210.065577735,219.078236098 203.309758479,225.834055354 C196.553939223,232.58987461 185.600592027,232.58987461 178.844772771,225.834055354 C172.088953515,219.078236098 172.088953515,208.124888902 178.844772771,201.369069646
C185.600592027,194.61325039 196.553939223,194.61325039 203.309758479,201.369069646" style="stroke:#EFDD2F"/>
               <path id="gv_997AB0E2_14" d="M203.168342377,201.510485748 C209.846059676,208.188203047 209.846059676,219.014921953 203.168342377,225.692639252 C196.490625078,232.370356551 185.663906172,232.370356551 178.986188873,225.692639252 C172.308471574,219.014921953 172.308471574,208.188203047 178.986188873,201.510485748
C185.663906172,194.832768449 196.490625078,194.832768449 203.168342377,201.510485748" style="stroke:#EFDD31"/>
               <path id="gv_997AB0E2_15" d="M203.026926274,201.651901851 C209.626541617,208.251517193 209.626541617,218.951607807 203.026926274,225.551223149 C196.427310932,232.150838492 185.727220318,232.150838492 179.127604976,225.551223149 C172.527989633,218.951607807 172.527989633,208.251517193 179.127604976,201.651901851
C185.727220318,195.052286508 196.427310932,195.052286508 203.026926274,201.651901851" style="stroke:#EFDD33"/>
               <path id="gv_997AB0E2_16" d="M202.885510172,201.793317953 C209.407023558,208.314831339 209.407023558,218.888293661 202.885510172,225.409807047 C196.363996786,231.931320433 185.790534464,231.931320433 179.269021078,225.409807047 C172.747507692,218.888293661 172.747507692,208.314831339 179.269021078,201.793317953
C185.790534464,195.271804567 196.363996786,195.271804567 202.885510172,201.793317953" style="stroke:#EFDE34"/>
               <path id="gv_997AB0E2_17" d="M202.74409407,201.934734055 C209.187505498,208.378145484 209.187505498,218.824979516 202.74409407,225.268390945 C196.300682641,231.711802373 185.853848609,231.711802373 179.41043718,225.268390945 C172.967025752,218.824979516 172.967025752,208.378145484 179.41043718,201.934734055
C185.853848609,195.491322627 196.300682641,195.491322627 202.74409407,201.934734055" style="stroke:#F0DE36"/>
               <path id="gv_997AB0E2_18" d="M202.602677967,202.076150158 C208.967987439,208.44145963 208.967987439,218.76166537 202.602677967,225.126974842 C196.237368495,231.492284314 185.917162755,231.492284314 179.551853283,225.126974842 C173.186543811,218.76166537 173.186543811,208.44145963 179.551853283,202.076150158
C185.917162755,195.710840686 196.237368495,195.710840686 202.602677967,202.076150158" style="stroke:#F0DE38"/>
               <path id="gv_997AB0E2_19" d="M202.461261865,202.21756626 C208.74846938,208.504773776 208.74846938,218.698351224 202.461261865,224.98555874 C196.174054349,231.272766255 185.980476901,231.272766255 179.693269385,224.98555874 C173.40606187,218.698351224 173.40606187,208.504773776 179.693269385,202.21756626
C185.980476901,195.930358745 196.174054349,195.930358745 202.461261865,202.21756626" style="stroke:#F0DE3A"/>
               <path id="gv_997AB0E2_20" d="M202.319845763,202.358982362 C208.528951321,208.568087921 208.528951321,218.635037079 202.319845763,224.844142638 C196.110740204,231.053248196 186.043791046,231.053248196 179.834685487,224.844142638 C173.625579929,218.635037079 173.625579929,208.568087921 179.834685487,202.358982362
C186.043791046,196.149876804 196.110740204,196.149876804 202.319845763,202.358982362" style="stroke:#F0DF3B"/>
               <path id="gv_997AB0E2_21" d="M202.17842966,202.500398465 C208.309433262,208.631402067 208.309433262,218.571722933 202.17842966,224.702726535 C196.047426058,230.833730137 186.107105192,230.833730137 179.97610159,224.702726535 C173.845097988,218.571722933 173.845097988,208.631402067 179.97610159,202.500398465
C186.107105192,196.369394863 196.047426058,196.369394863 202.17842966,202.500398465" style="stroke:#F0DF3D"/>
               <path id="gv_997AB0E2_22" d="M202.037013558,202.641814567 C208.089915203,208.694716212 208.089915203,218.508408788 202.037013558,224.561310433 C195.984111913,230.614212078 186.170419337,230.614212078 180.117517692,224.561310433 C174.064616047,218.508408788 174.064616047,208.694716212 180.117517692,202.641814567
C186.170419337,196.588912922 195.984111913,196.588912922 202.037013558,202.641814567" style="stroke:#F1DF3F"/>
               <path id="gv_997AB0E2_23" d="M201.895597455,202.78323067 C207.870397144,208.758030358 207.870397144,218.445094642 201.895597455,224.41989433 C195.920797767,230.394694019 186.233733483,230.394694019 180.258933795,224.41989433 C174.284134106,218.445094642 174.284134106,208.758030358 180.258933795,202.78323067
C186.233733483,196.808430981 195.920797767,196.808430981 201.895597455,202.78323067" style="stroke:#F1DF41"/>
               <path id="gv_997AB0E2_24" d="M201.754181353,202.924646772 C207.650879085,208.821344504 207.650879085,218.381780496 201.754181353,224.278478228 C195.857483621,230.17517596 186.297047629,230.17517596 180.400349897,224.278478228 C174.503652165,218.381780496 174.503652165,208.821344504 180.400349897,202.924646772
C186.297047629,197.02794904 195.857483621,197.02794904 201.754181353,202.924646772" style="stroke:#F1E043"/>
               <path id="gv_997AB0E2_25" d="M201.612765251,203.066062874 C207.431361026,208.884658649 207.431361026,218.318466351 201.612765251,224.137062126 C195.794169476,229.955657901 186.360361774,229.955657901 180.541765999,224.137062126 C174.723170224,218.318466351 174.723170224,208.884658649 180.541765999,203.066062874
C186.360361774,197.247467099 195.794169476,197.247467099 201.612765251,203.066062874" style="stroke:#F1E044"/>
               <path id="gv_997AB0E2_26" d="M201.471349148,203.207478977 C207.211842967,208.947972795 207.211842967,218.255152205 201.471349148,223.995646023 C195.73085533,229.736139842 186.42367592,229.736139842 180.683182102,223.995646023 C174.942688283,218.255152205 174.942688283,208.947972795 180.683182102,203.207478977
C186.42367592,197.466985158 195.73085533,197.466985158 201.471349148,203.207478977" style="stroke:#F1E046"/>
               <path id="gv_997AB0E2_27" d="M201.329933046,203.348895079 C206.992324908,209.011286941 206.992324908,218.191838059 201.329933046,223.854229921 C195.667541184,229.516621783 186.486990066,229.516621783 180.824598204,223.854229921 C175.162206342,218.191838059 175.162206342,209.011286941 180.824598204,203.348895079
C186.486990066,197.686503217 195.667541184,197.686503217 201.329933046,203.348895079" style="stroke:#F2E148"/>
               <path id="gv_997AB0E2_28" d="M201.188516944,203.490311181 C206.772806849,209.074601086 206.772806849,218.128523914 201.188516944,223.712813819 C195.604227039,229.297103724 186.550304211,229.297103724 180.966014306,223.712813819 C175.381724401,218.128523914 175.381724401,209.074601086 180.966014306,203.490311181
C186.550304211,197.906021276 195.604227039,197.906021276 201.188516944,203.490311181" style="stroke:#F2E14A"/>
               <path id="gv_997AB0E2_29" d="M201.047100841,203.631727284 C206.55328879,209.137915232 206.55328879,218.065209768 201.047100841,223.571397716 C195.540912893,229.077585665 186.613618357,229.077585665 181.107430409,223.571397716 C175.60124246,218.065209768 175.60124246,209.137915232 181.107430409,203.631727284
C186.613618357,198.125539335 195.540912893,198.125539335 201.047100841,203.631727284" style="stroke:#F2E14B"/>
               <path id="gv_997AB0E2_30" d="M200.905684739,203.773143386 C206.333770731,209.201229378 206.333770731,218.001895622 200.905684739,223.429981614 C195.477598747,228.858067606 186.676932503,228.858067606 181.248846511,223.429981614 C175.820760519,218.001895622 175.820760519,209.201229378 181.248846511,203.773143386
C186.676932503,198.345057394 195.477598747,198.345057394 200.905684739,203.773143386" style="stroke:#F2E14D"/>
               <path id="gv_997AB0E2_31" d="M200.764268637,203.914559488 C206.114252671,209.264543523 206.114252671,217.938581477 200.764268637,223.288565512 C195.414284602,228.638549546 186.740246648,228.638549546 181.390262613,223.288565512 C176.040278579,217.938581477 176.040278579,209.264543523 181.390262613,203.914559488
C186.740246648,198.564575454 195.414284602,198.564575454 200.764268637,203.914559488" style="stroke:#F2E24F"/>
               <path id="gv_997AB0E2_32" d="M200.622852534,204.055975591 C205.894734612,209.327857669 205.894734612,217.875267331 200.622852534,223.147149409 C195.350970456,228.419031487 186.803560794,228.419031487 181.531678716,223.147149409 C176.259796638,217.875267331 176.259796638,209.327857669 181.531678716,204.055975591
C186.803560794,198.784093513 195.350970456,198.784093513 200.622852534,204.055975591" style="stroke:#F2E251"/>
               <path id="gv_997AB0E2_33" d="M200.481436432,204.197391693 C205.675216553,209.391171815 205.675216553,217.811953185 200.481436432,223.005733307 C195.28765631,228.199513428 186.86687494,228.199513428 181.673094818,223.005733307 C176.479314697,217.811953185 176.479314697,209.391171815 181.673094818,204.197391693
C186.86687494,199.003611572 195.28765631,199.003611572 200.481436432,204.197391693" style="stroke:#F3E253"/>
               <path id="gv_997AB0E2_34" d="M200.34002033,204.338807795 C205.455698494,209.45448596 205.455698494,217.74863904 200.34002033,222.864317205 C195.224342165,227.979995369 186.930189085,227.979995369 181.81451092,222.864317205 C176.698832756,217.74863904 176.698832756,209.45448596 181.81451092,204.338807795
C186.930189085,199.223129631 195.224342165,199.223129631 200.34002033,204.338807795" style="stroke:#F3E254"/>
               <path id="gv_997AB0E2_35" d="M200.198604227,204.480223898 C205.236180435,209.517800106 205.236180435,217.685324894 200.198604227,222.722901102 C195.161028019,227.76047731 186.993503231,227.76047731 181.955927023,222.722901102 C176.918350815,217.685324894 176.918350815,209.517800106 181.955927023,204.480223898
C186.993503231,199.44264769 195.161028019,199.44264769 200.198604227,204.480223898" style="stroke:#F3E356"/>
               <path id="gv_997AB0E2_36" d="M200.057188125,204.62164 C205.016662376,209.581114251 205.016662376,217.622010749 200.057188125,222.581485 C195.097713874,227.540959251 187.056817376,227.540959251 182.097343125,222.581485 C177.137868874,217.622010749 177.137868874,209.581114251 182.097343125,204.62164
C187.056817376,199.662165749 195.097713874,199.662165749 200.057188125,204.62164" style="stroke:#F3E358"/>
               <path id="gv_997AB0E2_37" d="M199.915772022,204.763056103 C204.797144317,209.644428397 204.797144317,217.558696603 199.915772022,222.440068897 C195.034399728,227.321441192 187.120131522,227.321441192 182.238759228,222.440068897 C177.357386933,217.558696603 177.357386933,209.644428397 182.238759228,204.763056103
C187.120131522,199.881683808 195.034399728,199.881683808 199.915772022,204.763056103" style="stroke:#F3E35A"/>
               <path id="gv_997AB0E2_38" d="M199.77435592,204.904472205 C204.577626258,209.707742543 204.577626258,217.495382457 199.77435592,222.298652795 C194.971085582,227.101923133 187.183445668,227.101923133 182.38017533,222.298652795 C177.576904992,217.495382457 177.576904992,209.707742543 182.38017533,204.904472205
C187.183445668,200.101201867 194.971085582,200.101201867 199.77435592,204.904472205" style="stroke:#F4E35B"/>
               <path id="gv_997AB0E2_39" d="M199.632939818,205.045888307 C204.358108199,209.771056688 204.358108199,217.432068312 199.632939818,222.157236693 C194.907771437,226.882405074 187.246759813,226.882405074 182.521591432,222.157236693 C177.796423051,217.432068312 177.796423051,209.771056688 182.521591432,205.045888307
C187.246759813,200.320719926 194.907771437,200.320719926 199.632939818,205.045888307" style="stroke:#F4E45D"/>
               <path id="gv_997AB0E2_40" d="M199.491523715,205.18730441 C204.13859014,209.834370834 204.13859014,217.368754166 199.491523715,222.01582059 C194.844457291,226.662887015 187.310073959,226.662887015 182.663007535,222.01582059 C178.01594111,217.368754166 178.01594111,209.834370834 182.663007535,205.18730441
C187.310073959,200.540237985 194.844457291,200.540237985 199.491523715,205.18730441" style="stroke:#F4E45F"/>
               <path id="gv_997AB0E2_41" d="M199.350107613,205.328720512 C203.919072081,209.89768498 203.919072081,217.30544002 199.350107613,221.874404488 C194.781143145,226.443368956 187.373388105,226.443368956 182.804423637,221.874404488 C178.235459169,217.30544002 178.235459169,209.89768498 182.804423637,205.328720512
C187.373388105,200.759756044 194.781143145,200.759756044 199.350107613,205.328720512" style="stroke:#F4E461"/>
               <path id="gv_997AB0E2_42" d="M199.208691511,205.470136614 C203.699554022,209.960999125 203.699554022,217.242125875 199.208691511,221.732988386 C194.717829,226.223850897 187.43670225,226.223850897 182.945839739,221.732988386 C178.454977228,217.242125875 178.454977228,209.960999125 182.945839739,205.470136614
C187.43670225,200.979274103 194.717829,200.979274103 199.208691511,205.470136614" style="stroke:#F4E462"/>
               <path id="gv_997AB0E2_43" d="M199.067275408,205.611552717 C203.480035963,210.024313271 203.480035963,217.178811729 199.067275408,221.591572283 C194.654514854,226.004332838 187.500016396,226.004332838 183.087255842,221.591572283 C178.674495287,217.178811729 178.674495287,210.024313271 183.087255842,205.611552717
C187.500016396,201.198792162 194.654514854,201.198792162 199.067275408,205.611552717" style="stroke:#F5E564"/>
               <path id="gv_997AB0E2_44" d="M198.925859306,205.752968819 C203.260517904,210.087627417 203.260517904,217.115497583 198.925859306,221.450156181 C194.591200708,225.784814779 187.563330542,225.784814779 183.228671944,221.450156181 C178.894013346,217.115497583 178.894013346,210.087627417 183.228671944,205.752968819
C187.563330542,201.418310221 194.591200708,201.418310221 198.925859306,205.752968819" style="stroke:#F5E566"/>
               <path id="gv_997AB0E2_45" d="M198.784443204,205.894384921 C203.040999844,210.150941562 203.040999844,217.052183438 198.784443204,221.308740079 C194.527886563,225.565296719 187.626644687,225.565296719 183.370088046,221.308740079 C179.113531406,217.052183438 179.113531406,210.150941562 183.370088046,205.894384921
C187.626644687,201.637828281 194.527886563,201.637828281 198.784443204,205.894384921" style="stroke:#F5E568"/>
               <path id="gv_997AB0E2_46" d="M198.643027101,206.035801024 C202.821481785,210.214255708 202.821481785,216.988869292 198.643027101,221.167323976 C194.464572417,225.34577866 187.689958833,225.34577866 183.511504149,221.167323976 C179.333049465,216.988869292 179.333049465,210.214255708 183.511504149,206.035801024
C187.689958833,201.85734634 194.464572417,201.85734634 198.643027101,206.035801024" style="stroke:#F5E66A"/>
               <path id="gv_997AB0E2_47" d="M198.501610999,206.177217126 C202.601963726,210.277569854 202.601963726,216.925555146 198.501610999,221.025907874 C194.401258271,225.126260601 187.753272979,225.126260601 183.652920251,221.025907874 C179.552567524,216.925555146 179.552567524,210.277569854 183.652920251,206.177217126
C187.753272979,202.076864399 194.401258271,202.076864399 198.501610999,206.177217126" style="stroke:#F5E66B"/>
               <path id="gv_997AB0E2_48" d="M198.360194896,206.318633229 C202.382445667,210.340883999 202.382445667,216.862241001 198.360194896,220.884491771 C194.337944126,224.906742542 187.816587124,224.906742542 183.794336354,220.884491771 C179.772085583,216.862241001 179.772085583,210.340883999 183.794336354,206.318633229
C187.816587124,202.296382458 194.337944126,202.296382458 198.360194896,206.318633229" style="stroke:#F5E66D"/>
               <path id="gv_997AB0E2_49" d="M198.218778794,206.460049331 C202.162927608,210.404198145 202.162927608,216.798926855 198.218778794,220.743075669 C194.27462998,224.687224483 187.87990127,224.687224483 183.935752456,220.743075669 C179.991603642,216.798926855 179.991603642,210.404198145 183.935752456,206.460049331
C187.87990127,202.515900517 194.27462998,202.515900517 198.218778794,206.460049331" style="stroke:#F6E66F"/>
               <path id="gv_997AB0E2_50" d="M198.077362692,206.601465433 C201.943409549,210.467512291 201.943409549,216.735612709 198.077362692,220.601659567 C194.211315834,224.467706424 187.943215416,224.467706424 184.077168558,220.601659567 C180.211121701,216.735612709 180.211121701,210.467512291 184.077168558,206.601465433
C187.943215416,202.735418576 194.211315834,202.735418576 198.077362692,206.601465433" style="stroke:#F6E771"/>
               <path id="gv_997AB0E2_51" d="M197.935946589,206.742881536 C201.72389149,210.530826436 201.72389149,216.672298564 197.935946589,220.460243464 C194.148001689,224.248188365 188.006529561,224.248188365 184.218584661,220.460243464 C180.43063976,216.672298564 180.43063976,210.530826436 184.218584661,206.742881536
C188.006529561,202.954936635 194.148001689,202.954936635 197.935946589,206.742881536" style="stroke:#F6E772"/>
               <path id="gv_997AB0E2_52" d="M197.794530487,206.884297638 C201.504373431,210.594140582 201.504373431,216.608984418 197.794530487,220.318827362 C194.084687543,224.028670306 188.069843707,224.028670306 184.360000763,220.318827362 C180.650157819,216.608984418 180.650157819,210.594140582 184.360000763,206.884297638
C188.069843707,203.174454694 194.084687543,203.174454694 197.794530487,206.884297638" style="stroke:#F6E774"/>
               <path id="gv_997AB0E2_53" d="M197.653114385,207.02571374 C201.284855372,210.657454727 201.284855372,216.545670273 197.653114385,220.17741126 C194.021373398,223.809152247 188.133157852,223.809152247 184.501416865,220.17741126 C180.869675878,216.545670273 180.869675878,210.657454727 184.501416865,207.02571374
C188.133157852,203.393972753 194.021373398,203.393972753 197.653114385,207.02571374" style="stroke:#F6E776"/>
               <path id="gv_997AB0E2_54" d="M197.511698282,207.167129843 C201.065337313,210.720768873 201.065337313,216.482356127 197.511698282,220.035995157 C193.958059252,223.589634188 188.196471998,223.589634188 184.642832968,220.035995157 C181.089193937,216.482356127 181.089193937,210.720768873 184.642832968,207.167129843
C188.196471998,203.613490812 193.958059252,203.613490812 197.511698282,207.167129843" style="stroke:#F7E878"/>
               <path id="gv_997AB0E2_55" d="M197.37028218,207.308545945 C200.845819254,210.784083019 200.845819254,216.419041981 197.37028218,219.894579055 C193.894745106,223.370116129 188.259786144,223.370116129 184.78424907,219.894579055 C181.308711996,216.419041981 181.308711996,210.784083019 184.78424907,207.308545945
C188.259786144,203.833008871 193.894745106,203.833008871 197.37028218,207.308545945" style="stroke:#F7E87A"/>
               <path id="gv_997AB0E2_56" d="M197.228866078,207.449962047 C200.626301195,210.847397164 200.626301195,216.355727836 197.228866078,219.753162953 C193.831430961,223.15059807 188.323100289,223.15059807 184.925665172,219.753162953 C181.528230055,216.355727836 181.528230055,210.847397164 184.925665172,207.449962047
C188.323100289,204.05252693 193.831430961,204.05252693 197.228866078,207.449962047" style="stroke:#F7E87B"/>
               <path id="gv_997AB0E2_57" d="M197.087449975,207.59137815 C200.406783136,210.91071131 200.406783136,216.29241369 197.087449975,219.61174685 C193.768116815,222.931080011 188.386414435,222.931080011 185.067081275,219.61174685 C181.747748114,216.29241369 181.747748114,210.91071131 185.067081275,207.59137815
C188.386414435,204.272044989 193.768116815,204.272044989 197.087449975,207.59137815" style="stroke:#F7E87D"/>
               <path id="gv_997AB0E2_58" d="M196.946033873,207.732794252 C200.187265077,210.974025456 200.187265077,216.229099544 196.946033873,219.470330748 C193.704802669,222.711561952 188.449728581,222.711561952 185.208497377,219.470330748 C181.967266173,216.229099544 181.967266173,210.974025456 185.208497377,207.732794252
C188.449728581,204.491563048 193.704802669,204.491563048 196.946033873,207.732794252" style="stroke:#F7E97F"/>
               <path id="gv_997AB0E2_59" d="M196.804617771,207.874210354 C199.967747017,211.037339601 199.967747017,216.165785399 196.804617771,219.328914646 C193.641488524,222.492043892 188.513042726,222.492043892 185.349913479,219.328914646 C182.186784233,216.165785399 182.186784233,211.037339601 185.349913479,207.874210354
C188.513042726,204.711081108 193.641488524,204.711081108 196.804617771,207.874210354" style="stroke:#F8E981"/>
               <path id="gv_997AB0E2_60" d="M196.663201668,208.015626457 C199.748228958,211.100653747 199.748228958,216.102471253 196.663201668,219.187498543 C193.578174378,222.272525833 188.576356872,222.272525833 185.491329582,219.187498543 C182.406302292,216.102471253 182.406302292,211.100653747 185.491329582,208.015626457
C188.576356872,204.930599167 193.578174378,204.930599167 196.663201668,208.015626457" style="stroke:#F8E982"/>
               <path id="gv_997AB0E2_61" d="M196.521785566,208.157042559 C199.528710899,211.163967893 199.528710899,216.039157107 196.521785566,219.046082441 C193.514860232,222.053007774 188.639671018,222.053007774 185.632745684,219.046082441 C182.625820351,216.039157107 182.625820351,211.163967893 185.632745684,208.157042559
C188.639671018,205.150117226 193.514860232,205.150117226 196.521785566,208.157042559" style="stroke:#F8EA84"/>
               <path id="gv_997AB0E2_62" d="M196.380369463,208.298458662 C199.30919284,211.227282038 199.30919284,215.975842962 196.380369463,218.904666338 C193.451546087,221.833489715 188.702985163,221.833489715 185.774161787,218.904666338 C182.84533841,215.975842962 182.84533841,211.227282038 185.774161787,208.298458662
C188.702985163,205.369635285 193.451546087,205.369635285 196.380369463,208.298458662" style="stroke:#F8EA86"/>
               <path id="gv_997AB0E2_63" d="M196.238953361,208.439874764 C199.089674781,211.290596184 199.089674781,215.912528816 196.238953361,218.763250236 C193.388231941,221.613971656 188.766299309,221.613971656 185.915577889,218.763250236 C183.064856469,215.912528816 183.064856469,211.290596184 185.915577889,208.439874764
C188.766299309,205.589153344 193.388231941,205.589153344 196.238953361,208.439874764" style="stroke:#F8EA88"/>
               <path id="gv_997AB0E2_64" d="M196.097537259,208.581290866 C198.870156722,211.35391033 198.870156722,215.84921467 196.097537259,218.621834134 C193.324917795,221.394453597 188.829613455,221.394453597 186.056993991,218.621834134 C183.284374528,215.84921467 183.284374528,211.35391033 186.056993991,208.581290866
C188.829613455,205.808671403 193.324917795,205.808671403 196.097537259,208.581290866" style="stroke:#F8EA8A"/>
               <path id="gv_997AB0E2_65" d="M195.956121156,208.722706969 C198.650638663,211.417224475 198.650638663,215.785900525 195.956121156,218.480418031 C193.26160365,221.174935538 188.8929276,221.174935538 186.198410094,218.480418031 C183.503892587,215.785900525 183.503892587,211.417224475 186.198410094,208.722706969
C188.8929276,206.028189462 193.26160365,206.028189462 195.956121156,208.722706969" style="stroke:#F9EB8B"/>
               <path id="gv_997AB0E2_66" d="M195.814705054,208.864123071 C198.431120604,211.480538621 198.431120604,215.722586379 195.814705054,218.339001929 C193.198289504,220.955417479 188.956241746,220.955417479 186.339826196,218.339001929 C183.723410646,215.722586379 183.723410646,211.480538621 186.339826196,208.864123071
C188.956241746,206.247707521 193.198289504,206.247707521 195.814705054,208.864123071" style="stroke:#F9EB8D"/>
               <path id="gv_997AB0E2_67" d="M195.673288952,209.005539173 C198.211602545,211.543852767 198.211602545,215.659272233 195.673288952,218.197585827 C193.134975358,220.73589942 189.019555892,220.73589942 186.481242298,218.197585827 C183.942928705,215.659272233 183.942928705,211.543852767 186.481242298,209.005539173
C189.019555892,206.46722558 193.134975358,206.46722558 195.673288952,209.005539173" style="stroke:#F9EB8F"/>
               <path id="gv_997AB0E2_68" d="M195.531872849,209.146955276 C197.992084486,211.607166912 197.992084486,215.595958088 195.531872849,218.056169724 C193.071661213,220.516381361 189.082870037,220.516381361 186.622658401,218.056169724 C184.162446764,215.595958088 184.162446764,211.607166912 186.622658401,209.146955276
C189.082870037,206.686743639 193.071661213,206.686743639 195.531872849,209.146955276" style="stroke:#F9EB91"/>
               <path id="gv_997AB0E2_69" d="M195.390456747,209.288371378 C197.772566427,211.670481058 197.772566427,215.532643942 195.390456747,217.914753622 C193.008347067,220.296863302 189.146184183,220.296863302 186.764074503,217.914753622 C184.381964823,215.532643942 184.381964823,211.670481058 186.764074503,209.288371378
C189.146184183,206.906261698 193.008347067,206.906261698 195.390456747,209.288371378" style="stroke:#F9EC92"/>
               <path id="gv_997AB0E2_70" d="M195.249040645,209.42978748 C197.553048368,211.733795203 197.553048368,215.469329797 195.249040645,217.77333752 C192.945032922,220.077345243 189.209498328,220.077345243 186.905490605,217.77333752 C184.601482882,215.469329797 184.601482882,211.733795203 186.905490605,209.42978748
C189.209498328,207.125779757 192.945032922,207.125779757 195.249040645,209.42978748" style="stroke:#FAEC94"/>
               <path id="gv_997AB0E2_71" d="M195.107624542,209.571203583 C197.333530309,211.797109349 197.333530309,215.406015651 195.107624542,217.631921417 C192.881718776,219.857827184 189.272812474,219.857827184 187.046906708,217.631921417 C184.821000941,215.406015651 184.821000941,211.797109349 187.046906708,209.571203583
C189.272812474,207.345297816 192.881718776,207.345297816 195.107624542,209.571203583" style="stroke:#FAEC96"/>
               <path id="gv_997AB0E2_72" d="M194.96620844,209.712619685 C197.114012249,211.860423495 197.114012249,215.342701505 194.96620844,217.490505315 C192.81840463,219.638309124 189.33612662,219.638309124 187.18832281,217.490505315 C185.040519001,215.342701505 185.040519001,211.860423495 187.18832281,209.712619685
C189.33612662,207.564815876 192.81840463,207.564815876 194.96620844,209.712619685" style="stroke:#FAEC98"/>
               <path id="gv_997AB0E2_73" d="M194.824792338,209.854035787 C196.89449419,211.92373764 196.89449419,215.27938736 194.824792338,217.349089213 C192.755090485,219.418791065 189.399440765,219.418791065 187.329738912,217.349089213 C185.26003706,215.27938736 185.26003706,211.92373764 187.329738912,209.854035787
C189.399440765,207.784333935 192.755090485,207.784333935 194.824792338,209.854035787" style="stroke:#FAED9A"/>
               <path id="gv_997AB0E2_74" d="M194.683376235,209.99545189 C196.674976131,211.987051786 196.674976131,215.216073214 194.683376235,217.20767311 C192.691776339,219.199273006 189.462754911,219.199273006 187.471155015,217.20767311 C185.479555119,215.216073214 185.479555119,211.987051786 187.471155015,209.99545189
C189.462754911,208.003851994 192.691776339,208.003851994 194.683376235,209.99545189" style="stroke:#FAED9B"/>
               <path id="gv_997AB0E2_75" d="M194.541960133,210.136867992 C196.455458072,212.050365932 196.455458072,215.152759068 194.541960133,217.066257008 C192.628462193,218.979754947 189.526069057,218.979754947 187.612571117,217.066257008 C185.699073178,215.152759068 185.699073178,212.050365932 187.612571117,210.136867992
C189.526069057,208.223370053 192.628462193,208.223370053 194.541960133,210.136867992" style="stroke:#FBED9D"/>
               <path id="gv_997AB0E2_76" d="M194.40054403,210.278284095 C196.235940013,212.113680077 196.235940013,215.089444923 194.40054403,216.924840905 C192.565148048,218.760236888 189.589383202,218.760236888 187.75398722,216.924840905 C185.918591237,215.089444923 185.918591237,212.113680077 187.75398722,210.278284095
C189.589383202,208.442888112 192.565148048,208.442888112 194.40054403,210.278284095" style="stroke:#FBEE9F"/>
               <path id="gv_997AB0E2_77" d="M194.259127928,210.419700197 C196.016421954,212.176994223 196.016421954,215.026130777 194.259127928,216.783424803 C192.501833902,218.540718829 189.652697348,218.540718829 187.895403322,216.783424803 C186.138109296,215.026130777 186.138109296,212.176994223 187.895403322,210.419700197
C189.652697348,208.662406171 192.501833902,208.662406171 194.259127928,210.419700197" style="stroke:#FBEEA1"/>
               <path id="gv_997AB0E2_78" d="M194.117711826,210.561116299 C195.796903895,212.240308369 195.796903895,214.962816631 194.117711826,216.642008701 C192.438519756,218.32120077 189.716011494,218.32120077 188.036819424,216.642008701 C186.357627355,214.962816631 186.357627355,212.240308369 188.036819424,210.561116299
C189.716011494,208.88192423 192.438519756,208.88192423 194.117711826,210.561116299" style="stroke:#FBEEA2"/>
               <path id="gv_997AB0E2_79" d="M193.976295723,210.702532402 C195.577385836,212.303622514 195.577385836,214.899502486 193.976295723,216.500592598 C192.375205611,218.101682711 189.779325639,218.101682711 188.178235527,216.500592598 C186.577145414,214.899502486 186.577145414,212.303622514 188.178235527,210.702532402
C189.779325639,209.101442289 192.375205611,209.101442289 193.976295723,210.702532402" style="stroke:#FBEEA4"/>
               <path id="gv_997AB0E2_80" d="M193.834879621,210.843948504 C195.357867777,212.36693666 195.357867777,214.83618834 193.834879621,216.359176496 C192.311891465,217.882164652 189.842639785,217.882164652 188.319651629,216.359176496 C186.796663473,214.83618834 186.796663473,212.36693666 188.319651629,210.843948504
C189.842639785,209.320960348 192.311891465,209.320960348 193.834879621,210.843948504" style="stroke:#FBEFA6"/>
               <path id="gv_997AB0E2_81" d="M193.693463519,210.985364606 C195.138349718,212.430250806 195.138349718,214.772874194 193.693463519,216.217760394 C192.248577319,217.662646593 189.905953931,217.662646593 188.461067731,216.217760394 C187.016181532,214.772874194 187.016181532,212.430250806 188.461067731,210.985364606
C189.905953931,209.540478407 192.248577319,209.540478407 193.693463519,210.985364606" style="stroke:#FCEFA8"/>
               <path id="gv_997AB0E2_82" d="M193.552047416,211.126780709 C194.918831659,212.493564951 194.918831659,214.709560049 193.552047416,216.076344291 C192.185263174,217.443128534 189.969268076,217.443128534 188.602483834,216.076344291 C187.235699591,214.709560049 187.235699591,212.493564951 188.602483834,211.126780709
C189.969268076,209.759996466 192.185263174,209.759996466 193.552047416,211.126780709" style="stroke:#FCEFAA"/>
               <path id="gv_997AB0E2_83" d="M193.410631314,211.268196811 C194.6993136,212.556879097 194.6993136,214.646245903 193.410631314,215.934928189 C192.121949028,217.223610475 190.032582222,217.223610475 188.743899936,215.934928189 C187.45521765,214.646245903 187.45521765,212.556879097 188.743899936,211.268196811
C190.032582222,209.979514525 192.121949028,209.979514525 193.410631314,211.268196811" style="stroke:#FCEFAB"/>
               <path id="gv_997AB0E2_84" d="M193.269215212,211.409612913 C194.479795541,212.620193242 194.479795541,214.582931758 193.269215212,215.793512087 C192.058634883,217.004092416 190.095896367,217.004092416 188.885316038,215.793512087 C187.674735709,214.582931758 187.674735709,212.620193242 188.885316038,211.409612913
C190.095896367,210.199032584 192.058634883,210.199032584 193.269215212,211.409612913" style="stroke:#FCF0AD"/>
               <path id="gv_997AB0E2_85" d="M193.127799109,211.551029016 C194.260277482,212.683507388 194.260277482,214.519617612 193.127799109,215.652095984 C191.995320737,216.784574357 190.159210513,216.784574357 189.026732141,215.652095984 C187.894253768,214.519617612 187.894253768,212.683507388 189.026732141,211.551029016
C190.159210513,210.418550643 191.995320737,210.418550643 193.127799109,211.551029016" style="stroke:#FCF0AF"/>
               <path id="gv_997AB0E2_86" d="M192.986383007,211.692445118 C194.040759422,212.746821534 194.040759422,214.456303466 192.986383007,215.510679882 C191.932006591,216.565056297 190.222524659,216.565056297 189.168148243,215.510679882 C188.113771828,214.456303466 188.113771828,212.746821534 189.168148243,211.692445118
C190.222524659,210.638068703 191.932006591,210.638068703 192.986383007,211.692445118" style="stroke:#FDF0B1"/>
               <path id="gv_997AB0E2_87" d="M192.844966904,211.833861221 C193.821241363,212.810135679 193.821241363,214.392989321 192.844966904,215.369263779 C191.868692446,216.345538238 190.285838804,216.345538238 189.309564346,215.369263779 C188.333289887,214.392989321 188.333289887,212.810135679 189.309564346,211.833861221
C190.285838804,210.857586762 191.868692446,210.857586762 192.844966904,211.833861221" style="stroke:#FDF0B2"/>
               <path id="gv_997AB0E2_88" d="M192.703550802,211.975277323 C193.601723304,212.873449825 193.601723304,214.329675175 192.703550802,215.227847677 C191.8053783,216.126020179 190.34915295,216.126020179 189.450980448,215.227847677 C188.552807946,214.329675175 188.552807946,212.873449825 189.450980448,211.975277323
C190.34915295,211.077104821 191.8053783,211.077104821 192.703550802,211.975277323" style="stroke:#FDF1B4"/>
               <path id="gv_997AB0E2_89" d="M192.5621347,212.116693425 C193.382205245,212.936763971 193.382205245,214.266361029 192.5621347,215.086431575 C191.742064154,215.90650212 190.412467096,215.90650212 189.59239655,215.086431575 C188.772326005,214.266361029 188.772326005,212.936763971 189.59239655,212.116693425
C190.412467096,211.29662288 191.742064154,211.29662288 192.5621347,212.116693425" style="stroke:#FDF1B6"/>
               <path id="gv_997AB0E2_90" d="M192.420718597,212.258109528 C193.162687186,213.000078116 193.162687186,214.203046884 192.420718597,214.945015472 C191.678750009,215.686984061 190.475781241,215.686984061 189.733812653,214.945015472 C188.991844064,214.203046884 188.991844064,213.000078116 189.733812653,212.258109528
C190.475781241,211.516140939 191.678750009,211.516140939 192.420718597,212.258109528" style="stroke:#FDF1B8"/>
               <path id="gv_997AB0E2_91" d="M192.279302495,212.39952563 C192.943169127,213.063392262 192.943169127,214.139732738 192.279302495,214.80359937 C191.615435863,215.467466002 190.539095387,215.467466002 189.875228755,214.80359937 C189.211362123,214.139732738 189.211362123,213.063392262 189.875228755,212.39952563
C190.539095387,211.735658998 191.615435863,211.735658998 192.279302495,212.39952563" style="stroke:#FEF2BA"/>
               <path id="gv_997AB0E2_92" d="M192.137886393,212.540941732 C192.723651068,213.126706408 192.723651068,214.076418592 192.137886393,214.662183268 C191.552121717,215.247947943 190.602409533,215.247947943 190.016644857,214.662183268 C189.430880182,214.076418592 189.430880182,213.126706408 190.016644857,212.540941732
C190.602409533,211.955177057 191.552121717,211.955177057 192.137886393,212.540941732" style="stroke:#FEF2BB"/>
               <path id="gv_997AB0E2_93" d="M191.99647029,212.682357835 C192.504133009,213.190020553 192.504133009,214.013104447 191.99647029,214.520767165 C191.488807572,215.028429884 190.665723678,215.028429884 190.15806096,214.520767165 C189.650398241,214.013104447 189.650398241,213.190020553 190.15806096,212.682357835
C190.665723678,212.174695116 191.488807572,212.174695116 191.99647029,212.682357835" style="stroke:#FEF2BD"/>
               <path id="gv_997AB0E2_94" d="M191.855054188,212.823773937 C192.28461495,213.253334699 192.28461495,213.949790301 191.855054188,214.379351063 C191.425493426,214.808911825 190.729037824,214.808911825 190.299477062,214.379351063 C189.8699163,213.949790301 189.8699163,213.253334699 190.299477062,212.823773937
C190.729037824,212.394213175 191.425493426,212.394213175 191.855054188,212.823773937" style="stroke:#FEF2BF"/>
               <path id="gv_997AB0E2_95" d="M191.713638086,212.965190039 C192.065096891,213.316648845 192.065096891,213.886476155 191.713638086,214.237934961 C191.36217928,214.589393766 190.79235197,214.589393766 190.440893164,214.237934961 C190.089434359,213.886476155 190.089434359,213.316648845 190.440893164,212.965190039
C190.79235197,212.613731234 191.36217928,212.613731234 191.713638086,212.965190039" style="stroke:#FEF3C1"/>
               <path id="gv_997AB0E2_96" d="M191.572221983,213.106606142 C191.845578832,213.37996299 191.845578832,213.82316201 191.572221983,214.096518858 C191.298865135,214.369875707 190.855666115,214.369875707 190.582309267,214.096518858 C190.308952418,213.82316201 190.308952418,213.37996299 190.582309267,213.106606142
C190.855666115,212.833249293 191.298865135,212.833249293 191.572221983,213.106606142" style="stroke:#FEF3C2"/>
               <path id="gv_997AB0E2_97" d="M191.430805881,213.248022244 C191.626060773,213.443277136 191.626060773,213.759847864 191.430805881,213.955102756 C191.235550989,214.150357648 190.918980261,214.150357648 190.723725369,213.955102756 C190.528470477,213.759847864 190.528470477,213.443277136 190.723725369,213.248022244
C190.918980261,213.052767352 191.235550989,213.052767352 191.430805881,213.248022244" style="stroke:#FFF3C4"/>
               <path id="gv_997AB0E2_98" d="M191.289389779,213.389438346 C191.406542714,213.506591282 191.406542714,213.696533718 191.289389779,213.813686654 C191.172236843,213.930839589 190.982294407,213.930839589 190.865141471,213.813686654 C190.747988536,213.696533718 190.747988536,213.506591282 190.865141471,213.389438346
C190.982294407,213.272285411 191.172236843,213.272285411 191.289389779,213.389438346" style="stroke:#FFF4C8"/>
               <path id="gv_997AB0E2_99" d="M191.147973676,213.530854449 C191.187024655,213.569905427 191.187024655,213.633219573 191.147973676,213.672270551 C191.108922698,213.71132153 191.045608552,213.71132153 191.006557574,213.672270551 C190.967506595,213.633219573 190.967506595,213.569905427 191.006557574,213.530854449
C191.045608552,213.49180347 191.108922698,213.49180347 191.147973676,213.530854449" style="stroke:#FFF4C8"/>
            </g>
         </g>
         <circle
             style="fill:none;stroke:none"
             id="997AB0E2"
             cx="191.077265625"
             cy="213.6015625"
             r="19.9990234375"/>
      </g>
      <circle
          style="fill:url(#horizontalGradient_2ECED6E2);stroke:#A0A0A0;stroke-width:0.25"
          id="2ECED6E2"
          cx="9.798828125"
          cy="213.287109375"
          r="9.673828125"/>
      <text
          id="630D9FE2"
          style="stroke:none"
          font-family="Helvetica"
          font-size="24"
          font-weight="normal"
          font-style="normal">
         <tspan x="16.375" y="242.69921875">Perihelion</tspan>
      </text>
      <text
          id="678013F2"
          style="stroke:none"
          font-family="Helvetica"
          font-size="24"
          font-weight="normal"
          font-style="normal">
         <tspan x="369.19921875" y="232.5625">Aphelion</tspan>
      </text>
      <text
          id="86A105F2"
          style="stroke:none"
          font-family="Helvetica"
          font-size="36"
          font-weight="normal"
          font-style="normal">
         <tspan x="158.90625" y="178.24609375">Sun</tspan>
      </text>
      <circle
          style="fill:url(#horizontalGradient_4D85A133);stroke:#A0A0A0;stroke-width:0.25"
          id="4D85A133"
          cx="475.757421875"
          cy="212.291328125"
          r="9.673828125"/>
   </g>
</svg>
