<?xml version="1.0" encoding="UTF-8" standalone="no"?>
<!-- Created with Inkscape (http://www.inkscape.org/) -->
<svg xmlns:dc="http://purl.org/dc/elements/1.1/" xmlns:cc="http://creativecommons.org/ns#" xmlns:rdf="http://www.w3.org/1999/02/22-rdf-syntax-ns#" xmlns:svg="http://www.w3.org/2000/svg" xmlns="http://www.w3.org/2000/svg" xmlns:xlink="http://www.w3.org/1999/xlink" xmlns:sodipodi="http://sodipodi.sourceforge.net/DTD/sodipodi-0.dtd" xmlns:inkscape="http://www.inkscape.org/namespaces/inkscape" width="745" height="674.71698" id="svg2" version="1.1" inkscape:version="0.47 r22583" sodipodi:docname="Horizon_problem.svg">
  <defs id="defs4">
    <marker inkscape:stockid="Arrow1Mend" orient="auto" refY="0.0" refX="0.0" id="Arrow1Mend" style="overflow:visible;">
      <path id="path3846" d="M 0.0,0.0 L 5.0,-5.0 L -12.5,0.0 L 5.0,5.0 L 0.0,0.0 z " style="fill-rule:evenodd;stroke:#000000;stroke-width:1.0pt;marker-start:none;" transform="scale(0.4) rotate(180) translate(10,0)"/>
    </marker>
    <linearGradient id="linearGradient3796">
      <stop style="stop-color:#deffff;stop-opacity:1;" offset="0" id="stop3798"/>
      <stop style="stop-color:#ffffff;stop-opacity:1;" offset="1" id="stop3800"/>
    </linearGradient>
    <linearGradient id="linearGradient3768">
      <stop style="stop-color:#427b00;stop-opacity:1;" offset="0" id="stop3770"/>
      <stop style="stop-color:#112a00;stop-opacity:1;" offset="1" id="stop3772"/>
    </linearGradient>
    <linearGradient id="linearGradient3712">
      <stop style="stop-color:#1859ff;stop-opacity:1;" offset="0" id="stop3714"/>
      <stop style="stop-color:#051a80;stop-opacity:1;" offset="1" id="stop3716"/>
    </linearGradient>
    <inkscape:perspective sodipodi:type="inkscape:persp3d" inkscape:vp_x="0 : 526.18109 : 1" inkscape:vp_y="0 : 1000 : 0" inkscape:vp_z="744.09448 : 526.18109 : 1" inkscape:persp3d-origin="372.04724 : 350.78739 : 1" id="perspective10"/>
    <inkscape:perspective id="perspective2824" inkscape:persp3d-origin="0.5 : 0.33333333 : 1" inkscape:vp_z="1 : 0.5 : 1" inkscape:vp_y="0 : 1000 : 0" inkscape:vp_x="0 : 0.5 : 1" sodipodi:type="inkscape:persp3d"/>
    <radialGradient inkscape:collect="always" xlink:href="#linearGradient3712" id="radialGradient3782" gradientUnits="userSpaceOnUse" gradientTransform="matrix(1.25118,0.00819589,-0.00777231,1.1865154,-63.121246,-82.522582)" cx="264.6297" cy="430.81531" fx="264.6297" fy="430.81531" r="22.958233"/>
    <radialGradient inkscape:collect="always" xlink:href="#linearGradient3768" id="radialGradient3784" gradientUnits="userSpaceOnUse" gradientTransform="matrix(1.5911661,0.03111401,-0.01752012,0.89597643,-231.11457,23.299304)" cx="400.87338" cy="334.93982" fx="400.87338" fy="334.93982" r="22.9375"/>
    <linearGradient inkscape:collect="always" xlink:href="#linearGradient3796" id="linearGradient3802" x1="123.21937" y1="233.40871" x2="371.6581" y2="233.40871" gradientUnits="userSpaceOnUse"/>
    <linearGradient inkscape:collect="always" xlink:href="#linearGradient3796" id="linearGradient4311" gradientUnits="userSpaceOnUse" x1="123.21937" y1="233.40871" x2="371.6581" y2="233.40871"/>
  </defs>
  <sodipodi:namedview id="base" pagecolor="#ffffff" bordercolor="#666666" borderopacity="1.0" inkscape:pageopacity="0.0" inkscape:pageshadow="2" inkscape:zoom="0.78403244" inkscape:cx="372.5" inkscape:cy="337.35849" inkscape:document-units="px" inkscape:current-layer="layer1" showgrid="false" showguides="true" inkscape:guide-bbox="true" inkscape:window-width="1366" inkscape:window-height="749" inkscape:window-x="-4" inkscape:window-y="-4" inkscape:window-maximized="1"/>
  <metadata id="metadata7">
    <rdf:RDF>
      <cc:Work rdf:about="">
        <dc:format>image/svg+xml</dc:format>
        <dc:type rdf:resource="http://purl.org/dc/dcmitype/StillImage"/>
        <dc:title/>
      </cc:Work>
    </rdf:RDF>
  </metadata>
  <g inkscape:label="Ebene 1" inkscape:groupmode="layer" id="layer1" transform="translate(0.45275879,-188.8226)">
    <path sodipodi:type="arc" style="fill:url(#linearGradient3802);fill-opacity:1;stroke:#b7c8b7;stroke-width:1.22049201000000010;stroke-miterlimit:4;stroke-dasharray:none" id="path3786" sodipodi:cx="247.43874" sodipodi:cy="233.40871" sodipodi:rx="123.71937" sodipodi:ry="123.71937" d="m 371.1581,233.40871 c 0,68.32832 -55.39104,123.71936 -123.71936,123.71936 -68.32832,0 -123.71937,-55.39104 -123.71937,-123.71936 0,-68.32832 55.39105,-123.71937 123.71937,-123.71937 68.32832,0 123.71936,55.39105 123.71936,123.71937 z" transform="matrix(2.4580251,0,0,2.4580251,-253.3026,-38.003928)"/>
    <g id="g3658" transform="translate(0,7.6527446)" style="stroke:#ff0000">
      <path transform="matrix(0.87281682,0,0,0.87281682,255.91076,69.054129)" d="m -161.98309,422.17642 c 0,32.40312 -26.26792,58.67105 -58.67104,58.67105 -32.40312,0 -58.67104,-26.26793 -58.67104,-58.67105 0,-32.40312 26.26792,-58.67104 58.67104,-58.67104 32.40312,0 58.67104,26.26792 58.67104,58.67104 z" sodipodi:ry="58.671043" sodipodi:rx="58.671043" sodipodi:cy="422.17642" sodipodi:cx="-220.65413" id="path2852" style="fill:#ffffff;stroke:#000000;stroke-width:3.43714737999999990;stroke-linecap:round;stroke-linejoin:round;stroke-miterlimit:4;stroke-opacity:1;stroke-dasharray:none;stroke-dashoffset:0" sodipodi:type="arc"/>
      <g inkscape:transform-center-x="28.404847" style="stroke-width:32.98994064000000000;stroke-miterlimit:4;stroke-dasharray:none;stroke:#ff0000" id="g3626" transform="matrix(0.02809965,0,0,0.0587789,22.988448,409.86973)">
        <path sodipodi:nodetypes="csccc" id="path3628" transform="translate(-0.45275879,188.8226)" d="m -327.78125,281.875 c 0,52.12676 42.24824,94.375 94.375,94.375 52.12676,0 94.375,-42.24824 94.375,-94.375 0,-52.12677 42.24824,-94.375 94.375,-94.375 52.1267595,0 94.40625,42.24823 94.40625,94.375" style="fill:none;stroke:#ff0000;stroke-width:32.98994064000000000;stroke-linecap:round;stroke-linejoin:round;stroke-miterlimit:4;stroke-opacity:1;stroke-dasharray:none;stroke-dashoffset:0"/>
        <path style="fill:none;stroke:#ff0000;stroke-width:32.98994064000000000;stroke-linecap:round;stroke-linejoin:round;stroke-miterlimit:4;stroke-opacity:1;stroke-dasharray:none;stroke-dashoffset:0" d="m 49.30139,470.6976 c 0,52.12676 42.24824,94.375 94.375,94.375 52.12676,0 94.375,-42.24824 94.375,-94.375 0,-52.12677 42.24824,-94.375 94.375,-94.375 52.12676,0 94.40625,42.24823 94.40625,94.375" id="path3630" sodipodi:nodetypes="csccc"/>
        <path style="fill:none;stroke:#ff0000;stroke-width:32.98994064000000000;stroke-linecap:round;stroke-linejoin:round;stroke-miterlimit:4;stroke-opacity:1;stroke-dasharray:none;stroke-dashoffset:0" d="m 426.83679,470.6976 c 0,52.12676 42.24824,94.375 94.375,94.375 52.12676,0 94.375,-42.24824 94.375,-94.375 0,-52.12677 42.24824,-94.375 94.375,-94.375 52.12676,0 94.40625,42.24823 94.40625,94.375" id="path3632" sodipodi:nodetypes="csccc"/>
        <path sodipodi:nodetypes="csccc" id="path3634" d="m 804.37219,470.6976 c 0,52.12676 42.24824,94.375 94.375,94.375 52.12676,0 94.375,-42.24824 94.375,-94.375 0,-52.12677 42.24821,-94.375 94.37501,-94.375 52.1267,0 94.4062,42.24823 94.4062,94.375" style="fill:none;stroke:#ff0000;stroke-width:32.98994064000000000;stroke-linecap:round;stroke-linejoin:round;stroke-miterlimit:4;stroke-opacity:1;stroke-dasharray:none;stroke-dashoffset:0"/>
      </g>
      <g inkscape:transform-center-y="-20.085513" transform="matrix(-0.01986945,0.01986945,-0.04156296,-0.04156296,111.51702,428.53417)" id="g3638" style="stroke-width:32.98994064000000000;stroke-miterlimit:4;stroke-dasharray:none;stroke:#ff0000" inkscape:transform-center-x="-20.085263">
        <path style="fill:none;stroke:#ff0000;stroke-width:32.98994064000000000;stroke-linecap:round;stroke-linejoin:round;stroke-miterlimit:4;stroke-opacity:1;stroke-dasharray:none;stroke-dashoffset:0" d="m -327.78125,281.875 c 0,52.12676 42.24824,94.375 94.375,94.375 52.12676,0 94.375,-42.24824 94.375,-94.375 0,-52.12677 42.24824,-94.375 94.375,-94.375 52.1267595,0 94.40625,42.24823 94.40625,94.375" transform="translate(-0.45275879,188.8226)" id="path3640" sodipodi:nodetypes="csccc"/>
        <path sodipodi:nodetypes="csccc" id="path3642" d="m 49.30139,470.6976 c 0,52.12676 42.24824,94.375 94.375,94.375 52.12676,0 94.375,-42.24824 94.375,-94.375 0,-52.12677 42.24824,-94.375 94.375,-94.375 52.12676,0 94.40625,42.24823 94.40625,94.375" style="fill:none;stroke:#ff0000;stroke-width:32.98994064000000000;stroke-linecap:round;stroke-linejoin:round;stroke-miterlimit:4;stroke-opacity:1;stroke-dasharray:none;stroke-dashoffset:0"/>
        <path sodipodi:nodetypes="csccc" id="path3644" d="m 426.83679,470.6976 c 0,52.12676 42.24824,94.375 94.375,94.375 52.12676,0 94.375,-42.24824 94.375,-94.375 0,-52.12677 42.24824,-94.375 94.375,-94.375 52.12676,0 94.40625,42.24823 94.40625,94.375" style="fill:none;stroke:#ff0000;stroke-width:32.98994064000000000;stroke-linecap:round;stroke-linejoin:round;stroke-miterlimit:4;stroke-opacity:1;stroke-dasharray:none;stroke-dashoffset:0"/>
        <path style="fill:none;stroke:#ff0000;stroke-width:32.98994064000000000;stroke-linecap:round;stroke-linejoin:round;stroke-miterlimit:4;stroke-opacity:1;stroke-dasharray:none;stroke-dashoffset:0" d="m 804.37219,470.6976 c 0,52.12676 42.24824,94.375 94.375,94.375 52.12676,0 94.375,-42.24824 94.375,-94.375 0,-52.12677 42.24821,-94.375 94.37501,-94.375 52.1267,0 94.4062,42.24823 94.4062,94.375" id="path3646" sodipodi:nodetypes="csccc"/>
      </g>
      <g inkscape:transform-center-x="-7.3518286" style="stroke-width:32.98994064000000000;stroke-miterlimit:4;stroke-dasharray:none;stroke:#ff0000" id="g3648" transform="matrix(-0.00727272,-0.02714217,0.05677606,-0.0152131,47.118812,483.71979)" inkscape:transform-center-y="27.436983">
        <path sodipodi:nodetypes="csccc" id="path3650" transform="translate(-0.45275879,188.8226)" d="m -327.78125,281.875 c 0,52.12676 42.24824,94.375 94.375,94.375 52.12676,0 94.375,-42.24824 94.375,-94.375 0,-52.12677 42.24824,-94.375 94.375,-94.375 52.1267595,0 94.40625,42.24823 94.40625,94.375" style="fill:none;stroke:#ff0000;stroke-width:32.98994064000000000;stroke-linecap:round;stroke-linejoin:round;stroke-miterlimit:4;stroke-opacity:1;stroke-dasharray:none;stroke-dashoffset:0"/>
        <path style="fill:none;stroke:#ff0000;stroke-width:32.98994064000000000;stroke-linecap:round;stroke-linejoin:round;stroke-miterlimit:4;stroke-opacity:1;stroke-dasharray:none;stroke-dashoffset:0" d="m 49.30139,470.6976 c 0,52.12676 42.24824,94.375 94.375,94.375 52.12676,0 94.375,-42.24824 94.375,-94.375 0,-52.12677 42.24824,-94.375 94.375,-94.375 52.12676,0 94.40625,42.24823 94.40625,94.375" id="path3652" sodipodi:nodetypes="csccc"/>
        <path style="fill:none;stroke:#ff0000;stroke-width:32.98994064000000000;stroke-linecap:round;stroke-linejoin:round;stroke-miterlimit:4;stroke-opacity:1;stroke-dasharray:none;stroke-dashoffset:0" d="m 426.83679,470.6976 c 0,52.12676 42.24824,94.375 94.375,94.375 52.12676,0 94.375,-42.24824 94.375,-94.375 0,-52.12677 42.24824,-94.375 94.375,-94.375 52.12676,0 94.40625,42.24823 94.40625,94.375" id="path3654" sodipodi:nodetypes="csccc"/>
        <path sodipodi:nodetypes="csccc" id="path3656" d="m 804.37219,470.6976 c 0,52.12676 42.24824,94.375 94.375,94.375 52.12676,0 94.375,-42.24824 94.375,-94.375 0,-52.12677 42.24821,-94.375 94.37501,-94.375 52.1267,0 94.4062,42.24823 94.4062,94.375" style="fill:none;stroke:#ff0000;stroke-width:32.98994064000000000;stroke-linecap:round;stroke-linejoin:round;stroke-miterlimit:4;stroke-opacity:1;stroke-dasharray:none;stroke-dashoffset:0"/>
      </g>
    </g>
    <g id="g3676" transform="translate(571.40493,7.6527446)" style="stroke:#ff0000">
      <path sodipodi:type="arc" style="fill:#ffffff;stroke:#000000;stroke-width:3.43714737999999990;stroke-linecap:round;stroke-linejoin:round;stroke-miterlimit:4;stroke-opacity:1;stroke-dasharray:none;stroke-dashoffset:0" id="path3678" sodipodi:cx="-220.65413" sodipodi:cy="422.17642" sodipodi:rx="58.671043" sodipodi:ry="58.671043" d="m -161.98309,422.17642 c 0,32.40312 -26.26792,58.67105 -58.67104,58.67105 -32.40312,0 -58.67104,-26.26793 -58.67104,-58.67105 0,-32.40312 26.26792,-58.67104 58.67104,-58.67104 32.40312,0 58.67104,26.26792 58.67104,58.67104 z" transform="matrix(0.87281682,0,0,0.87281682,255.91076,69.054129)"/>
      <g transform="matrix(0.02809965,0,0,0.0587789,22.988448,409.86973)" id="g3680" style="stroke-width:32.98994064000000000;stroke-miterlimit:4;stroke-dasharray:none;stroke:#ff0000" inkscape:transform-center-x="28.404847">
        <path style="fill:none;stroke:#ff0000;stroke-width:32.98994064000000000;stroke-linecap:round;stroke-linejoin:round;stroke-miterlimit:4;stroke-opacity:1;stroke-dasharray:none;stroke-dashoffset:0" d="m -327.78125,281.875 c 0,52.12676 42.24824,94.375 94.375,94.375 52.12676,0 94.375,-42.24824 94.375,-94.375 0,-52.12677 42.24824,-94.375 94.375,-94.375 52.1267595,0 94.40625,42.24823 94.40625,94.375" transform="translate(-0.45275879,188.8226)" id="path3682" sodipodi:nodetypes="csccc"/>
        <path sodipodi:nodetypes="csccc" id="path3684" d="m 49.30139,470.6976 c 0,52.12676 42.24824,94.375 94.375,94.375 52.12676,0 94.375,-42.24824 94.375,-94.375 0,-52.12677 42.24824,-94.375 94.375,-94.375 52.12676,0 94.40625,42.24823 94.40625,94.375" style="fill:none;stroke:#ff0000;stroke-width:32.98994064000000000;stroke-linecap:round;stroke-linejoin:round;stroke-miterlimit:4;stroke-opacity:1;stroke-dasharray:none;stroke-dashoffset:0"/>
        <path sodipodi:nodetypes="csccc" id="path3686" d="m 426.83679,470.6976 c 0,52.12676 42.24824,94.375 94.375,94.375 52.12676,0 94.375,-42.24824 94.375,-94.375 0,-52.12677 42.24824,-94.375 94.375,-94.375 52.12676,0 94.40625,42.24823 94.40625,94.375" style="fill:none;stroke:#ff0000;stroke-width:32.98994064000000000;stroke-linecap:round;stroke-linejoin:round;stroke-miterlimit:4;stroke-opacity:1;stroke-dasharray:none;stroke-dashoffset:0"/>
        <path style="fill:none;stroke:#ff0000;stroke-width:32.98994064000000000;stroke-linecap:round;stroke-linejoin:round;stroke-miterlimit:4;stroke-opacity:1;stroke-dasharray:none;stroke-dashoffset:0" d="m 804.37219,470.6976 c 0,52.12676 42.24824,94.375 94.375,94.375 52.12676,0 94.375,-42.24824 94.375,-94.375 0,-52.12677 42.24821,-94.375 94.37501,-94.375 52.1267,0 94.4062,42.24823 94.4062,94.375" id="path3688" sodipodi:nodetypes="csccc"/>
      </g>
      <g inkscape:transform-center-x="-20.085263" style="stroke-width:32.98994064000000000;stroke-miterlimit:4;stroke-dasharray:none;stroke:#ff0000" id="g3690" transform="matrix(-0.01986945,0.01986945,-0.04156296,-0.04156296,111.51702,428.53417)" inkscape:transform-center-y="-20.085513">
        <path sodipodi:nodetypes="csccc" id="path3692" transform="translate(-0.45275879,188.8226)" d="m -327.78125,281.875 c 0,52.12676 42.24824,94.375 94.375,94.375 52.12676,0 94.375,-42.24824 94.375,-94.375 0,-52.12677 42.24824,-94.375 94.375,-94.375 52.1267595,0 94.40625,42.24823 94.40625,94.375" style="fill:none;stroke:#ff0000;stroke-width:32.98994064000000000;stroke-linecap:round;stroke-linejoin:round;stroke-miterlimit:4;stroke-opacity:1;stroke-dasharray:none;stroke-dashoffset:0"/>
        <path style="fill:none;stroke:#ff0000;stroke-width:32.98994064000000000;stroke-linecap:round;stroke-linejoin:round;stroke-miterlimit:4;stroke-opacity:1;stroke-dasharray:none;stroke-dashoffset:0" d="m 49.30139,470.6976 c 0,52.12676 42.24824,94.375 94.375,94.375 52.12676,0 94.375,-42.24824 94.375,-94.375 0,-52.12677 42.24824,-94.375 94.375,-94.375 52.12676,0 94.40625,42.24823 94.40625,94.375" id="path3694" sodipodi:nodetypes="csccc"/>
        <path style="fill:none;stroke:#ff0000;stroke-width:32.98994064000000000;stroke-linecap:round;stroke-linejoin:round;stroke-miterlimit:4;stroke-opacity:1;stroke-dasharray:none;stroke-dashoffset:0" d="m 426.83679,470.6976 c 0,52.12676 42.24824,94.375 94.375,94.375 52.12676,0 94.375,-42.24824 94.375,-94.375 0,-52.12677 42.24824,-94.375 94.375,-94.375 52.12676,0 94.40625,42.24823 94.40625,94.375" id="path3696" sodipodi:nodetypes="csccc"/>
        <path sodipodi:nodetypes="csccc" id="path3698" d="m 804.37219,470.6976 c 0,52.12676 42.24824,94.375 94.375,94.375 52.12676,0 94.375,-42.24824 94.375,-94.375 0,-52.12677 42.24821,-94.375 94.37501,-94.375 52.1267,0 94.4062,42.24823 94.4062,94.375" style="fill:none;stroke:#ff0000;stroke-width:32.98994064000000000;stroke-linecap:round;stroke-linejoin:round;stroke-miterlimit:4;stroke-opacity:1;stroke-dasharray:none;stroke-dashoffset:0"/>
      </g>
      <g inkscape:transform-center-y="27.436983" transform="matrix(-0.00727272,-0.02714217,0.05677606,-0.0152131,47.118812,483.71979)" id="g3700" style="stroke-width:32.98994064000000000;stroke-miterlimit:4;stroke-dasharray:none;stroke:#ff0000" inkscape:transform-center-x="-7.3518286">
        <path style="fill:none;stroke:#ff0000;stroke-width:32.98994064000000000;stroke-linecap:round;stroke-linejoin:round;stroke-miterlimit:4;stroke-opacity:1;stroke-dasharray:none;stroke-dashoffset:0" d="m -327.78125,281.875 c 0,52.12676 42.24824,94.375 94.375,94.375 52.12676,0 94.375,-42.24824 94.375,-94.375 0,-52.12677 42.24824,-94.375 94.375,-94.375 52.1267595,0 94.40625,42.24823 94.40625,94.375" transform="translate(-0.45275879,188.8226)" id="path3702" sodipodi:nodetypes="csccc"/>
        <path sodipodi:nodetypes="csccc" id="path3704" d="m 49.30139,470.6976 c 0,52.12676 42.24824,94.375 94.375,94.375 52.12676,0 94.375,-42.24824 94.375,-94.375 0,-52.12677 42.24824,-94.375 94.375,-94.375 52.12676,0 94.40625,42.24823 94.40625,94.375" style="fill:none;stroke:#ff0000;stroke-width:32.98994064000000000;stroke-linecap:round;stroke-linejoin:round;stroke-miterlimit:4;stroke-opacity:1;stroke-dasharray:none;stroke-dashoffset:0"/>
        <path sodipodi:nodetypes="csccc" id="path3706" d="m 426.83679,470.6976 c 0,52.12676 42.24824,94.375 94.375,94.375 52.12676,0 94.375,-42.24824 94.375,-94.375 0,-52.12677 42.24824,-94.375 94.375,-94.375 52.12676,0 94.40625,42.24823 94.40625,94.375" style="fill:none;stroke:#ff0000;stroke-width:32.98994064000000000;stroke-linecap:round;stroke-linejoin:round;stroke-miterlimit:4;stroke-opacity:1;stroke-dasharray:none;stroke-dashoffset:0"/>
        <path style="fill:none;stroke:#ff0000;stroke-width:32.98994064000000000;stroke-linecap:round;stroke-linejoin:round;stroke-miterlimit:4;stroke-opacity:1;stroke-dasharray:none;stroke-dashoffset:0" d="m 804.37219,470.6976 c 0,52.12676 42.24824,94.375 94.375,94.375 52.12676,0 94.375,-42.24824 94.375,-94.375 0,-52.12677 42.24821,-94.375 94.37501,-94.375 52.1267,0 94.4062,42.24823 94.4062,94.375" id="path3708" sodipodi:nodetypes="csccc"/>
      </g>
    </g>
    <g id="g3778" transform="matrix(1.1476581,0,0,1.1476581,-114.44865,-77.6701)">
      <path transform="translate(138.5721,98.265123)" d="m 293.35521,436.20645 c 0,12.67948 -10.27876,22.95823 -22.95824,22.95823 -12.67948,0 -22.95823,-10.27875 -22.95823,-22.95823 0,-12.67948 10.27875,-22.95823 22.95823,-22.95823 12.67948,0 22.95824,10.27875 22.95824,22.95823 z" sodipodi:ry="22.958233" sodipodi:rx="22.958233" sodipodi:cy="436.20645" sodipodi:cx="270.39697" id="path3710" style="fill:url(#radialGradient3782);fill-opacity:1;stroke:none" sodipodi:type="arc"/>
      <path id="path3740" transform="translate(-0.45275879,188.8226)" d="m 414.8125,323.34375 c -0.0625,0.23329 -0.19392,0.31718 -0.15625,0.5625 -0.42275,0.16653 -0.3722,0.75262 -0.375,1.09375 -0.32395,0.016 -0.19565,0.44237 0.0625,0.46875 -0.11281,0.44782 0.45581,0.78689 0.3125,1.28125 -7.9e-4,0.43049 -7.6e-4,0.882 0,1.3125 0.3757,-0.11352 0.4037,0.324 0.78125,0.15625 0.39263,-0.0716 0.77361,0.15995 0.96875,0.40625 0.44517,0.0502 0.90643,-0.11156 1.21875,-0.40625 0.39078,-0.0947 0.37342,-0.4755 0.8125,-0.375 0.34878,-0.161 0.55183,-1.02355 -0.0312,-0.90625 -0.39414,0.11012 0.007,-0.62754 -0.375,-0.6875 -0.18476,-0.52332 0.34362,-0.83655 0.8125,-0.6875 0.44957,-0.0491 1.02382,6.1e-4 1.3125,0.3125 5.1e-4,0.46057 0.43853,0.11146 0.65625,0.40625 0.33057,0.0963 0.58212,0.25025 0.4375,0.625 -0.0627,0.36148 0.22528,1.07451 -0.34375,1 -0.0677,0.16974 -0.38788,0.21959 -0.0312,0.34375 0.3599,-0.14367 0.68982,0.29375 1.03125,0.1875 0.31441,0.36093 0.95558,0.0482 1.40625,0.15625 0.42089,0.16663 0.0609,-0.44584 0.4375,-0.40625 -0.009,-0.15572 0.001,-0.31238 0,-0.46875 -2.58128,-2.06467 -5.6202,-3.57618 -8.9375,-4.375 z M 392,330.71875 c -0.33267,0.38574 -0.66374,0.77989 -0.96875,1.1875 -0.0837,0.11193 -0.1683,0.23026 -0.25,0.34375 -0.35242,0.49008 -0.68803,0.98325 -1,1.5 -0.024,0.0398 -0.0387,0.0851 -0.0625,0.125 -0.16587,0.27678 -0.31437,0.55957 -0.46875,0.84375 -1.08126,2.00472 -1.86415,4.17316 -2.3125,6.40625 -0.12798,0.63741 -0.23985,1.29145 -0.3125,1.9375 -0.009,0.0833 -0.0228,0.16641 -0.0312,0.25 -0.0569,0.56306 -0.0801,1.12146 -0.0937,1.6875 1.76139,-0.13561 2.51712,2.24332 4.3125,1.96875 0.84378,1.63471 -1.16303,2.83465 -1.21875,4.40625 -0.23596,1.58389 0.35257,3.54813 2,4.125 2.16929,1.16875 3.62548,3.24566 5.71875,4.53125 1.47799,1.04445 3.11821,2.23757 3.5625,4.09375 1.15994,1.10012 2.2612,-0.81681 1.8125,-1.90625 0.2202,-1.94292 -0.56561,-3.78266 -1.65625,-5.34375 -1.25743,-1.81713 -2.20825,-4.16196 -1.3125,-6.34375 0.6277,-1.74475 1.41148,-3.8819 0.28125,-5.59375 -1.41097,-1.40606 -3.65719,-0.8559 -5.25,-0.0937 -0.3684,0.16583 -0.74522,0.36466 -1.15625,0.53125 0.003,-0.0156 -0.003,-0.0112 0,-0.0312 -0.0692,-0.16675 -0.0717,-0.0374 -0.0625,0.0625 -0.88299,0.34953 -1.83599,0.53903 -2.65625,-0.0312 -1.37748,-1.30036 0.52317,-2.7694 1.6875,-3.3125 1.62329,-1.08996 1.25504,-3.61011 -0.15625,-4.71875 -0.94414,-1.62633 0.4666,-3.26464 0.59375,-4.875 -0.0425,-0.6927 -0.40303,-1.3806 -1,-1.75 z m 29.34375,1.21875 c -0.23267,-0.004 -0.46207,0.0144 -0.6875,0.0312 -0.30057,0.0224 -0.5947,0.0685 -0.875,0.15625 -1.05957,0.19162 -2.08791,0.31103 -3.09375,0.6875 -1.05822,0.46703 -2.06518,0.85056 -2.6875,1.8125 -0.58629,0.83244 -0.62735,2.33037 0.0937,3.21875 0.51125,1.37306 1.67135,2.10443 1.9375,3.53125 -0.20268,1.39589 1.06415,3.33753 2.5625,2.375 0.87386,-0.44263 2.03008,-0.0651 3.03125,-0.1875 0.86766,0.68308 2.84173,0.73659 2.65625,2.25 -0.29986,1.0786 1.74915,1.59364 0.6875,2.59375 -0.59373,0.95362 -0.94563,2.19747 -0.5,3.34375 0.0161,1.37451 -0.009,2.74391 0,4.125 -0.86824,0.54022 -1.33716,2.31013 -0.40625,3.375 0.45079,0.92479 0.96076,1.88641 1.875,2.3125 3.9783,-4.12831 6.4375,-9.72025 6.4375,-15.90625 0,-4.51945 -1.30746,-8.72857 -3.5625,-12.28125 -0.57212,0.15037 -1.14684,0.26009 -1.75,0.21875 -1.23908,-0.41246 -2.23484,-1.56976 -3.625,-1.625 -0.67526,0.0664 -1.39574,-0.02 -2.09375,-0.0312 z" style="fill:url(#radialGradient3784);fill-opacity:1;stroke:none"/>
    </g>
    <g id="g3822" transform="matrix(0.35374909,0.31720225,-0.31720225,0.35374909,396.48705,165.57667)" style="stroke-width:6.31396102999999980;stroke-miterlimit:4;stroke-dasharray:none;stroke:#ff0000" inkscape:transform-center-y="-109.84305" inkscape:transform-center-x="122.49923">
      <path sodipodi:nodetypes="csccc" id="path2835" d="m -179.40716,603.34517 c 0,9.97749 8.08665,18.06415 18.06414,18.06415 9.97748,0 18.06414,-8.08666 18.06414,-18.06415 0,-9.97748 8.08666,-18.06414 18.06414,-18.06414 9.97749,0 18.07012,8.08666 18.07012,18.06414" style="fill:none;stroke:#ff0000;stroke-width:6.31396102999999980;stroke-linecap:round;stroke-linejoin:round;stroke-miterlimit:4;stroke-opacity:1;stroke-dasharray:none;stroke-dashoffset:0"/>
      <path style="fill:none;stroke:#ff0000;stroke-width:6.31396102999999980;stroke-linecap:round;stroke-linejoin:round;stroke-miterlimit:4;stroke-opacity:1;stroke-dasharray:none;stroke-dashoffset:0" d="m -107.14382,603.34517 c 0,9.97749 8.086653,18.06414 18.064138,18.06414 9.977485,0 18.064141,-8.08665 18.064141,-18.06414 0,-9.97748 8.086656,-18.06414 18.064141,-18.06414 9.977485,0 18.070123,8.08666 18.070123,18.06414" id="path2839" sodipodi:nodetypes="csccc"/>
      <path style="fill:none;stroke:#ff0000;stroke-width:6.31396102999999980;stroke-linecap:round;stroke-linejoin:round;stroke-miterlimit:4;stroke-opacity:1;stroke-dasharray:none;stroke-dashoffset:0" d="m -34.880482,603.34517 c 0,9.97749 8.086656,18.06414 18.064141,18.06414 9.977485,0 18.0641412,-8.08665 18.0641412,-18.06414 0,-9.97748 8.0866562,-18.06414 18.0641408,-18.06414 9.977486,0 18.070123,8.08666 18.070123,18.06414" id="path2842" sodipodi:nodetypes="csccc"/>
      <path sodipodi:nodetypes="csccc" id="path2844" d="m 37.382859,603.34517 c 0,9.97749 8.086656,18.06414 18.064141,18.06414 9.977485,0 18.064141,-8.08665 18.064141,-18.06414 0,-9.97748 8.086651,-18.06414 18.064144,-18.06414 9.977475,0 18.070115,8.08666 18.070115,18.06414" style="fill:none;stroke:#ff0000;stroke-width:6.31396102999999980;stroke-linecap:round;stroke-linejoin:round;stroke-miterlimit:4;stroke-opacity:1;stroke-dasharray:none;stroke-dashoffset:0"/>
      <path style="fill:none;stroke:#ff0000;stroke-width:6.31396102999999980;stroke-linecap:round;stroke-linejoin:round;stroke-miterlimit:4;stroke-opacity:1;stroke-dasharray:none;stroke-dashoffset:0" d="m 109.62741,603.34517 c 0,9.97749 8.08665,18.06415 18.06414,18.06415 9.97748,0 18.06414,-8.08666 18.06414,-18.06415 0,-9.97748 8.08666,-18.06414 18.06414,-18.06414 9.97749,0 18.07012,8.08666 18.07012,18.06414" id="path3806" sodipodi:nodetypes="csccc"/>
      <path sodipodi:nodetypes="csccc" id="path3808" d="m 181.89075,603.34517 c 0,9.97749 8.08665,18.06414 18.06414,18.06414 9.97748,0 18.06414,-8.08665 18.06414,-18.06414 0,-9.97748 8.08666,-18.06414 18.06414,-18.06414 9.97749,0 18.07012,8.08666 18.07012,18.06414" style="fill:none;stroke:#ff0000;stroke-width:6.31396102999999980;stroke-linecap:round;stroke-linejoin:round;stroke-miterlimit:4;stroke-opacity:1;stroke-dasharray:none;stroke-dashoffset:0"/>
      <path sodipodi:nodetypes="csccc" id="path3810" d="m 254.15409,603.34517 c 0,9.97749 8.08665,18.06414 18.06414,18.06414 9.97748,0 18.06414,-8.08665 18.06414,-18.06414 0,-9.97748 8.08666,-18.06414 18.06414,-18.06414 9.97749,0 18.07012,8.08666 18.07012,18.06414" style="fill:none;stroke:#ff0000;stroke-width:6.31396102999999980;stroke-linecap:round;stroke-linejoin:round;stroke-miterlimit:4;stroke-opacity:1;stroke-dasharray:none;stroke-dashoffset:0"/>
      <path style="fill:none;stroke:#ff0000;stroke-width:6.31396102999999980;stroke-linecap:round;stroke-linejoin:round;stroke-miterlimit:4;stroke-opacity:1;stroke-dasharray:none;stroke-dashoffset:0" d="m 326.41743,603.34517 c 0,9.97749 8.08665,18.06414 18.06414,18.06414 9.97749,0 18.06414,-8.08665 18.06414,-18.06414 0,-9.97748 8.08665,-18.06414 18.06414,-18.06414 9.97748,0 18.07012,8.08666 18.07012,18.06414" id="path3812" sodipodi:nodetypes="csccc"/>
    </g>
    <path style="fill:none;stroke:#000000;stroke-width:2.93009806;stroke-linecap:butt;stroke-linejoin:miter;stroke-miterlimit:4;stroke-opacity:1;stroke-dasharray:none;marker-end:url(#Arrow1Mend)" d="M 336.01973,517.20442 132.83244,338.01609" id="path3832" sodipodi:nodetypes="cc" inkscape:transform-center-y="-109.8511" inkscape:transform-center-x="120.57027"/>
    <switch style="font-size:32px;font-style:normal;font-weight:normal;text-align:start;text-anchor:start;fill:#000000;fill-opacity:1;stroke:none;font-family:DejaVu Sans;-inkscape-font-specification:DejaVu Sans"><text xml:space="preserve" style="font-size:32px;font-style:normal;font-weight:normal;text-align:start;text-anchor:start;fill:#000000;fill-opacity:1;stroke:none;font-family:DejaVu Sans;-inkscape-font-specification:DejaVu Sans" x="283.96271" y="788.2876" id="text4282-fr" systemLanguage="fr"><tspan sodipodi:role="line" id="tspan4284-fr" x="283.96271" y="788.2876">Univers</tspan></text><text xml:space="preserve" style="font-size:32px;font-style:normal;font-weight:normal;text-align:start;text-anchor:start;fill:#000000;fill-opacity:1;stroke:none;font-family:DejaVu Sans;-inkscape-font-specification:DejaVu Sans" x="283.96271" y="788.2876" id="text4282-ko" systemLanguage="ko"><tspan sodipodi:role="line" id="tspan4284-ko" x="283.96271" y="788.2876">우주</tspan></text><text xml:space="preserve" style="font-size:32px;font-style:normal;font-weight:normal;text-align:start;text-anchor:start;fill:#000000;fill-opacity:1;stroke:none;font-family:DejaVu Sans;-inkscape-font-specification:DejaVu Sans" x="283.96271" y="788.2876" id="text4282"><tspan sodipodi:role="line" id="tspan4284" x="283.96271" y="788.2876">Universe</tspan></text></switch>
    <switch style="font-size:22.47728729px;font-style:normal;font-weight:normal;text-align:start;text-anchor:start;fill:#000000;fill-opacity:1;stroke:none;font-family:DejaVu Sans;-inkscape-font-specification:DejaVu Sans"><text id="text4290-fr" y="193.68066" x="333.83212" style="font-size:22.47728729px;font-style:normal;font-weight:normal;text-align:start;text-anchor:start;fill:#000000;fill-opacity:1;stroke:none;font-family:DejaVu Sans;-inkscape-font-specification:DejaVu Sans" xml:space="preserve" transform="matrix(0.7537972,0.65710713,-0.65710713,0.7537972,0,0)" systemLanguage="fr"><tspan y="193.68066" x="333.83212" id="tspan4292-fr" sodipodi:role="line">15 000 000 000 années</tspan></text><text id="text4290-ko" y="193.68066" x="333.83212" style="font-size:22.47728729px;font-style:normal;font-weight:normal;text-align:start;text-anchor:start;fill:#000000;fill-opacity:1;stroke:none;font-family:DejaVu Sans;-inkscape-font-specification:DejaVu Sans" xml:space="preserve" transform="matrix(0.7537972,0.65710713,-0.65710713,0.7537972,0,0)" systemLanguage="ko"><tspan y="193.68066" x="333.83212" id="tspan4292-ko" sodipodi:role="line">15 000 000 000 년</tspan></text><text id="text4290" y="193.68066" x="333.83212" style="font-size:22.47728729px;font-style:normal;font-weight:normal;text-align:start;text-anchor:start;fill:#000000;fill-opacity:1;stroke:none;font-family:DejaVu Sans;-inkscape-font-specification:DejaVu Sans" xml:space="preserve" transform="matrix(0.7537972,0.65710713,-0.65710713,0.7537972,0,0)"><tspan y="193.68066" x="333.83212" id="tspan4292" sodipodi:role="line">15 000 000 000 years</tspan></text></switch>
    <switch style="font-size:22.47728729px;font-style:normal;font-weight:normal;text-align:start;text-anchor:start;fill:#000000;fill-opacity:1;stroke:none;font-family:DejaVu Sans;-inkscape-font-specification:DejaVu Sans"><text xml:space="preserve" style="font-size:22.47728729px;font-style:normal;font-weight:normal;text-align:start;text-anchor:start;fill:#000000;fill-opacity:1;stroke:none;font-family:DejaVu Sans;-inkscape-font-specification:DejaVu Sans" x="575.37732" y="542.70947" id="text4294-fr" systemLanguage="fr"><tspan sodipodi:role="line" id="tspan4296-fr" x="575.37732" y="542.70947">300 000 ans</tspan></text><text xml:space="preserve" style="font-size:22.47728729px;font-style:normal;font-weight:normal;text-align:start;text-anchor:start;fill:#000000;fill-opacity:1;stroke:none;font-family:DejaVu Sans;-inkscape-font-specification:DejaVu Sans" x="575.37732" y="542.70947" id="text4294-ko" systemLanguage="ko"><tspan sodipodi:role="line" id="tspan4296-ko" x="575.37732" y="542.70947">300 000 년</tspan></text><text xml:space="preserve" style="font-size:22.47728729px;font-style:normal;font-weight:normal;text-align:start;text-anchor:start;fill:#000000;fill-opacity:1;stroke:none;font-family:DejaVu Sans;-inkscape-font-specification:DejaVu Sans" x="575.37732" y="542.70947" id="text4294"><tspan sodipodi:role="line" id="tspan4296" x="525.37732" y="522.70947">300 000 years</tspan></text></switch>
    <g id="g4305" transform="matrix(0,1,-1.0083188,0,896.62933,173.26832)">
      <g style="font-size:31.36775017px;font-style:normal;font-weight:normal;text-align:center;text-anchor:middle;fill:#000000;fill-opacity:1;stroke:none;font-family:DejaVu Sans;-inkscape-font-specification:DejaVu Sans" id="text4286">
        <path d="m 177.56696,805.97208 1.4016,-2.2306 c 0.44079,0.79551 0.94212,1.49943 1.50399,2.11178 0.5619,0.61233 1.18868,1.1358 1.88032,1.57042 1.5476,0.97242 3.05765,1.2369 4.53016,0.79345 1.47254,-0.44347 2.76564,-1.55139 3.87931,-3.32376 1.11369,-1.77238 1.55086,-3.41812 1.31153,-4.93724 -0.23933,-1.51911 -1.13278,-2.76488 -2.68038,-3.73732 -0.69164,-0.4346 -1.43522,-0.77219 -2.23072,-1.01277 -0.79548,-0.24057 -1.6472,-0.38684 -2.55519,-0.43882 l 1.38531,-2.20467 c 0.86131,0.10707 1.69748,0.30689 2.50853,0.59945 0.81107,0.29257 1.61863,0.69146 2.42267,1.19669 2.18738,1.37445 3.49328,3.15373 3.9177,5.33785 0.42444,2.18413 -0.0967,4.44336 -1.56354,6.77771 -1.48852,2.36892 -3.30983,3.82327 -5.46394,4.36306 -2.15408,0.53976 -4.36372,0.098 -6.62892,-1.32534 -0.73487,-0.46178 -1.40493,-0.98833 -2.01018,-1.57967 -0.60521,-0.59134 -1.1413,-1.24475 -1.60825,-1.96022 z" style="" id="path4318"/>
        <path d="m 168.013,797.74174 c 1.22966,0.87847 2.54452,1.09313 3.9446,0.64399 1.4001,-0.44916 2.69668,-1.50873 3.88974,-3.17871 1.19308,-1.66999 1.77722,-3.23854 1.75241,-4.70565 -0.0248,-1.46712 -0.65616,-2.64289 -1.89412,-3.52731 -1.22132,-0.87254 -2.53352,-1.08216 -3.93659,-0.62886 -1.40304,0.45331 -2.69814,1.51081 -3.88529,3.17248 -1.18118,1.65337 -1.76027,3.21925 -1.73727,4.69765 0.023,1.47839 0.6452,2.65386 1.86652,3.52641 z m -1.38895,1.94416 c -1.99399,-1.42457 -3.09714,-3.1915 -3.30945,-5.30079 -0.21226,-2.10929 0.50072,-4.3105 2.13895,-6.60361 1.63232,-2.28481 3.48207,-3.67075 5.54924,-4.15783 2.06719,-0.48707 4.09779,-0.0183 6.09179,1.40623 2.00233,1.4305 3.10607,3.20099 3.31123,5.31147 0.20516,2.11048 -0.50841,4.30812 -2.14072,6.59293 -1.63824,2.29311 -3.48739,3.68261 -5.54746,4.16851 -2.06005,0.48588 -4.09124,0.0136 -6.09358,-1.41691 z" style="" id="path4320"/>
        <path d="m 147.80571,784.04305 1.67171,-2.07551 c 0.36409,0.81767 0.81607,1.57505 1.35593,2.27212 0.5399,0.69706 1.16769,1.33382 1.88337,1.91027 1.08946,0.87749 2.04105,1.36861 2.85477,1.47337 0.81375,0.10474 1.48963,-0.17687 2.02764,-0.84485 0.40993,-0.50894 0.53696,-1.06546 0.38107,-1.66956 -0.15586,-0.6041 -0.71657,-1.51134 -1.68214,-2.7217 l -0.61698,-0.77227 c -1.2896,-1.58938 -2.01744,-2.95244 -2.18352,-4.0892 -0.16606,-1.13676 0.18965,-2.24986 1.06713,-3.33931 0.9992,-1.24053 2.28126,-1.82712 3.8462,-1.75975 1.56496,0.0674 3.20627,0.79281 4.92394,2.17629 0.7157,0.57646 1.40517,1.24651 2.06841,2.01016 0.66326,0.76366 1.31221,1.63052 1.94687,2.60059 l -1.82544,2.26637 c -0.47165,-1.07478 -1.01624,-2.03459 -1.63378,-2.87942 -0.61753,-0.84483 -1.31197,-1.57788 -2.08334,-2.19918 -1.03377,-0.83265 -1.9715,-1.29621 -2.81319,-1.3907 -0.84166,-0.0945 -1.52191,0.18035 -2.04073,0.82447 -0.48036,0.59642 -0.64786,1.21539 -0.50249,1.85693 0.1454,0.64155 0.77951,1.65706 1.90233,3.04655 l 0.6193,0.79381 c 1.12925,1.38154 1.75746,2.61191 1.88465,3.69114 0.1272,1.07921 -0.22554,2.13571 -1.0582,3.1695 -1.01198,1.25644 -2.23872,1.86792 -3.68021,1.83445 -1.44146,-0.0335 -2.98127,-0.70994 -4.61943,-2.02937 -0.81111,-0.65332 -1.52648,-1.32784 -2.14612,-2.02357 -0.6196,-0.69574 -1.13552,-1.40628 -1.54775,-2.13163 z" style="" id="path4322"/>
        <path d="m 134.7635,768.6612 c -1.38038,0.44046 -2.63404,0.54467 -3.76099,0.31262 -1.1269,-0.23204 -2.17411,-0.80248 -3.14163,-1.71131 -1.30237,-1.22343 -1.87887,-2.62305 -1.72951,-4.19888 0.14941,-1.57582 1.01409,-3.2047 2.59403,-4.88666 l 7.0889,-7.54645 2.06523,1.94001 -7.02598,7.47947 c -1.12553,1.19821 -1.74885,2.2868 -1.86997,3.26578 -0.12107,0.97899 0.25376,1.87745 1.12448,2.6954 1.06426,0.99972 2.23731,1.4362 3.51914,1.30943 1.28188,-0.12675 2.49607,-0.8004 3.64258,-2.02093 l 6.63797,-7.06642 2.06523,1.94001 -7.02598,7.47946 c -1.13253,1.20565 -1.7576,2.2961 -1.87521,3.27137 -0.11758,0.97526 0.26644,1.87885 1.15205,2.71079 1.04937,0.98573 2.21672,1.41336 3.50206,1.28288 1.28536,-0.13048 2.4978,-0.80227 3.63733,-2.01535 l 6.63798,-7.06642 2.06522,1.94001 -11.74492,12.50299 -2.06522,-1.94001 1.82465,-1.94243 c -1.18892,0.32611 -2.28213,0.3639 -3.27962,0.11336 -0.99746,-0.25054 -1.94646,-0.79877 -2.84699,-1.64468 -0.90793,-0.8529 -1.46334,-1.80893 -1.66624,-2.86808 -0.20284,-1.05915 -0.0444,-2.17114 0.47541,-3.33596 z" style="" id="path4324"/>
        <path d="m 119.56442,758.11865 -1.9272,-2.05625 12.5163,-11.73074 1.9272,2.05625 z m -4.87242,4.56661 -1.92719,-2.05625 2.60383,-2.44042 1.9272,2.05625 z" style="" id="path4326"/>
        <path d="m 105.60042,741.42517 1.99629,-1.71899 c 0.187,0.89003 0.45882,1.71036 0.81547,2.461 0.35669,0.75065 0.80154,1.43547 1.33454,2.05447 1.19265,1.38502 2.55787,2.08242 4.09568,2.09222 1.53783,0.01 3.09984,-0.66825 4.68602,-2.03411 1.5862,-1.36587 2.48859,-2.80992 2.70718,-4.33216 0.21861,-1.52223 -0.26841,-2.97586 -1.46105,-4.36088 -0.53302,-0.61899 -1.14422,-1.16057 -1.83361,-1.62472 -0.68937,-0.46414 -1.46027,-0.85473 -2.31269,-1.17176 l 1.97307,-1.69901 c 0.79159,0.35595 1.53186,0.79312 2.22081,1.31152 0.68896,0.51843 1.34325,1.13743 1.96288,1.85701 1.68568,1.9576 2.40976,4.04253 2.17224,6.2548 -0.23751,2.21226 -1.40083,4.21787 -3.48997,6.01682 -2.12007,1.82558 -4.28888,2.67916 -6.50642,2.56072 -2.21752,-0.11845 -4.19911,-1.19129 -5.94477,-3.21851 -0.56631,-0.65769 -1.05162,-1.35821 -1.45592,-2.10154 -0.40425,-0.74334 -0.72417,-1.52563 -0.95975,-2.34688 z" style="" id="path4328"/>
        <path d="m 89.763864,715.83797 c -1.442691,0.13452 -2.689574,-0.0323 -3.740652,-0.50034 -1.05103,-0.46806 -1.951726,-1.2496 -2.702091,-2.3446 -1.010043,-1.47402 -1.273329,-2.96465 -0.789861,-4.4719 0.483525,-1.50722 1.677075,-2.91306 3.580655,-4.21751 l 8.540956,-5.85264 1.601685,2.33739 -8.465149,5.8007 c -1.356085,0.92927 -2.198139,1.85906 -2.526166,2.78937 -0.327977,0.93032 -0.154326,1.88823 0.520954,2.87371 0.825396,1.20451 1.877706,1.88215 3.156934,2.03293 1.279271,0.15079 2.609584,-0.24711 3.990942,-1.19369 l 7.997669,-5.48036 1.60169,2.33739 -8.465153,5.80069 c -1.364513,0.93505 -2.208674,1.86628 -2.532483,2.79371 -0.323771,0.92743 -0.142242,1.89231 0.544587,2.89465 0.813846,1.18765 1.862491,1.85542 3.145936,2.00333 1.283476,0.1479 2.611683,-0.24856 3.984625,-1.18936 l 7.997668,-5.48036 1.60169,2.33739 -14.1507,9.69668 -1.601684,-2.33739 2.198412,-1.50645 c -1.231182,0.0639 -2.307105,-0.13343 -3.227773,-0.59184 -0.92063,-0.45841 -1.730151,-1.1972 -2.428563,-2.21639 -0.704142,-1.02761 -1.041856,-2.08042 -1.013141,-3.15845 0.02876,-1.07802 0.421762,-2.13024 1.179013,-3.15666 z" style="" id="path4330"/>
        <path d="m 77.175189,702.2783 -1.441177,-2.42182 14.741546,-8.77239 1.441178,2.42183 z m -5.738674,3.41497 -1.441177,-2.42183 3.066768,-1.82497 1.441178,2.42183 z" style="" id="path4332"/>
        <path d="m 67.118775,682.97123 2.318977,-1.24997 c -0.0086,0.90942 0.08065,1.769 0.267707,2.57874 0.18709,0.80974 0.474419,1.57415 0.861987,2.29321 0.867242,1.6089 2.050757,2.58332 3.550549,2.92328 1.499821,0.33995 3.171022,0.0133 5.013608,-0.97986 1.842606,-0.99319 3.03417,-2.20965 3.574695,-3.64938 0.540537,-1.43972 0.377191,-2.96404 -0.49004,-4.57294 -0.387579,-0.71906 -0.868155,-1.3793 -1.44173,-1.98072 -0.573559,-0.60141 -1.242538,-1.14849 -2.00694,-1.64126 l 2.292012,-1.23544 c 0.696637,0.5177 1.325695,1.1037 1.887176,1.75802 0.561493,0.65434 1.067521,1.39945 1.518085,2.23535 1.225745,2.27405 1.484988,4.46585 0.777728,6.57543 -0.707253,2.10958 -2.274298,3.81842 -4.70114,5.12653 -2.462778,1.32748 -4.764324,1.69517 -6.904644,1.10308 -2.14029,-0.5921 -3.845115,-2.06562 -5.114479,-4.42054 -0.41179,-0.76401 -0.735263,-1.55243 -0.970421,-2.36526 -0.235114,-0.81283 -0.379491,-1.64559 -0.43313,-2.49827 z" style="" id="path4334"/>
        <path d="m 62.091403,667.98719 c -0.02964,0.36483 -0.0034,0.73412 0.07862,1.10788 0.08209,0.37377 0.219815,0.76342 0.413173,1.16895 0.685624,1.43779 1.679657,2.31844 2.982104,2.64195 1.302478,0.3235 2.829288,0.0677 4.580436,-0.7673 l 8.156721,-3.88949 1.219588,2.55761 -15.483945,7.38346 -1.219588,-2.55762 2.405542,-1.14707 c -1.194985,-0.0863 -2.22496,-0.44923 -3.089928,-1.08883 -0.86493,-0.63959 -1.589666,-1.5723 -2.17421,-2.79811 -0.08348,-0.17512 -0.164254,-0.37416 -0.242317,-0.59713 -0.07802,-0.22297 -0.155528,-0.47447 -0.232523,-0.75452 z" style="" id="path4336"/>
        <path d="m 57.410553,658.66949 c 0.577795,1.3964 1.579428,2.27485 3.004902,2.63537 1.425503,0.36052 3.086474,0.14844 4.982917,-0.63625 1.896463,-0.78468 3.222675,-1.80582 3.978639,-3.06343 0.755975,-1.2576 0.843119,-2.58931 0.261433,-3.99515 -0.573868,-1.38695 -1.575908,-2.25971 -3.006122,-2.61829 -1.430198,-0.35855 -3.08881,-0.14744 -4.975841,0.63333 -1.87757,0.77688 -3.198088,1.79843 -3.961558,3.06465 -0.763435,1.26623 -0.858225,2.59282 -0.28437,3.97977 z m -2.207813,0.91352 c -0.936916,-2.26442 -0.936864,-4.34744 1.56e-4,-6.24907 0.93706,-1.9016 2.707622,-3.39115 5.311693,-4.46864 2.594664,-1.07356 4.897702,-1.26952 6.909121,-0.58789 2.011433,0.68166 3.485614,2.1547 4.422547,4.41911 0.940843,2.27387 0.939408,4.36022 -0.0043,6.25907 -0.943706,1.89885 -2.712886,3.38506 -5.307545,4.45864 -2.604076,1.07747 -4.908497,1.27677 -6.913269,0.59789 -2.004741,-0.67889 -3.477539,-2.15526 -4.418399,-4.42911 z" style="" id="path4338"/>
        <path d="m 50.956721,648.17654 -0.882916,-2.67632 11.608877,-7.53925 -13.811368,0.863 -1.041264,-3.15632 11.608876,-7.53925 -13.811367,0.863 -0.882916,-2.67632 17.696592,-1.11252 1.041265,3.15631 -12.196083,7.91038 14.513737,-0.88504 1.041265,3.15631 z" style="" id="path4340"/>
        <path d="m 48.756604,611.29163 c 0.552024,2.2091 1.187082,3.67649 1.905176,4.40218 0.718111,0.7257 1.686397,0.93631 2.90486,0.63183 0.970818,-0.24259 1.661198,-0.75452 2.07114,-1.53582 0.409951,-0.78128 0.47754,-1.72172 0.202767,-2.82132 -0.378731,-1.51565 -1.22,-2.59735 -2.523808,-3.24511 -1.303796,-0.64774 -2.84726,-0.74883 -4.630396,-0.30327 l -0.609235,0.15224 z m -2.492019,-5.17121 9.495151,-2.37266 0.683209,2.73413 -2.526096,0.63122 c 1.166393,0.37162 2.106157,0.96298 2.819294,1.77411 0.713143,0.81114 1.23804,1.89033 1.574692,3.23757 0.425769,1.70388 0.286303,3.178 -0.4184,4.42236 -0.704699,1.24436 -1.859455,2.06705 -3.464273,2.46806 -1.872276,0.46785 -3.440486,0.19402 -4.704633,-0.82148 -1.264127,-1.0155 -2.206858,-2.76649 -2.828195,-5.25296 l -0.957978,-3.83373 -0.267469,0.0668 c -1.25808,0.31438 -2.128021,0.97118 -2.609827,1.97038 -0.481772,0.99922 -0.535775,2.24675 -0.162007,3.74259 0.237655,0.951 0.583026,1.84877 1.036115,2.6933 0.45312,0.84454 1.011483,1.62594 1.675089,2.34419 l -2.526096,0.63123 c -0.636342,-0.90399 -1.168689,-1.8024 -1.597041,-2.69523 -0.428316,-0.89282 -0.753876,-1.78501 -0.976681,-2.67658 -0.601501,-2.40721 -0.426691,-4.36115 0.52443,-5.86181 0.951159,-1.50064 2.694729,-2.56781 5.230716,-3.20153 z" style="" id="path4342"/>
        <path d="m 38.036597,603.16158 -0.543134,-2.93688 13.18239,-7.8895 -15.1321,-2.65313 -0.543133,-2.93687 18.038032,3.20604 0.696325,3.76522 z" style="" id="path4344"/>
        <path d="m 40.345344,566.32328 1.368381,-0.16643 1.564483,12.86278 c 1.911082,-0.35587 3.307709,-1.11462 4.189885,-2.27625 0.882184,-1.16162 1.210468,-2.66989 0.984854,-4.52481 -0.130678,-1.07442 -0.389123,-2.09988 -0.775335,-3.07639 -0.386204,-0.97648 -0.903257,-1.92934 -1.551161,-2.85859 l 2.645536,-0.32178 c 0.547773,0.95172 0.997264,1.94109 1.348474,2.96811 0.351212,1.02705 0.592775,2.08285 0.724689,3.16741 0.330404,2.7165 -0.198544,4.96406 -1.586845,6.74268 -1.388296,1.77864 -3.430553,2.83192 -6.126776,3.15986 -2.787432,0.33903 -5.091185,-0.14451 -6.911266,-1.45062 -1.820049,-1.30611 -2.885421,-3.23632 -3.196117,-5.79064 -0.278604,-2.29076 0.238429,-4.19229 1.551102,-5.70458 1.312707,-1.51227 3.236071,-2.42252 5.770096,-2.73075 z m -0.480763,2.89744 c -1.528081,0.20645 -2.697398,0.78326 -3.507957,1.73043 -0.810528,0.9472 -1.131966,2.11006 -0.964316,3.48856 0.189875,1.56098 0.782746,2.75663 1.778614,3.58696 0.995898,0.83034 2.303225,1.21907 3.921985,1.16618 z" style="" id="path4346"/>
        <path d="m 39.670541,538.52668 c -2.072128,0.0525 -3.686889,0.51984 -4.844288,1.40202 -1.157371,0.88221 -1.717189,2.06846 -1.679455,3.55876 0.03777,1.49031 0.656921,2.6467 1.857472,3.46916 1.200578,0.82248 2.836928,1.20747 4.909057,1.15498 2.072145,-0.0525 3.686906,-0.51982 4.844288,-1.40203 1.157388,-0.88219 1.717206,-2.06844 1.679455,-3.55875 -0.03775,-1.4903 -0.656904,-2.64668 -1.857472,-3.46917 -1.20056,-0.82245 -2.836911,-1.20744 -4.909057,-1.15497 z m -5.743961,9.73656 c -1.035739,-0.56618 -1.812591,-1.29468 -2.330557,-2.18552 -0.517933,-0.89082 -0.792809,-1.964 -0.824629,-3.21955 -0.05273,-2.08233 0.73123,-3.79518 2.351875,-5.13855 1.620676,-1.34333 3.778406,-2.04914 6.473196,-2.11741 2.694808,-0.0682 4.885503,0.52742 6.572094,1.78698 1.686595,1.25959 2.556264,2.93056 2.60901,5.01289 0.0318,1.25554 -0.188389,2.34126 -0.660575,3.25716 -0.472184,0.91592 -1.211157,1.68283 -2.216921,2.30071 l 2.572311,-0.0652 0.07175,2.8326 -23.824497,0.60347 -0.07175,-2.8326 z" style="" id="path4348"/>
        <path d="m 39.907613,522.59686 c -0.08519,2.27543 0.115978,3.86165 0.603503,4.75864 0.48754,0.89701 1.358833,1.36901 2.613883,1.416 0.999967,0.0374 1.805626,-0.26192 2.416978,-0.8981 0.611357,-0.63616 0.938238,-1.52056 0.980644,-2.65317 0.05846,-1.56116 -0.448199,-2.83439 -1.519963,-3.8197 -1.071759,-0.98528 -2.525972,-1.51231 -4.362645,-1.58109 l -0.627528,-0.0235 z m -0.952905,-5.6607 9.780253,0.3662 -0.105446,2.81622 -2.601945,-0.0974 c 1.01671,0.68181 1.754547,1.51155 2.213514,2.48922 0.458967,0.97769 0.662471,2.16038 0.610513,3.54807 -0.06571,1.75505 -0.610287,3.13197 -1.633723,4.13077 -1.023434,0.99881 -2.36165,1.46727 -4.014654,1.40538 -1.928494,-0.0722 -3.358356,-0.77204 -4.28959,-2.09948 -0.931217,-1.32744 -1.348882,-3.27173 -1.252999,-5.83287 l 0.147854,-3.94883 -0.2755,-0.0103 c -1.295859,-0.0485 -2.314323,0.33996 -3.055395,1.16541 -0.741044,0.82547 -1.140418,2.00857 -1.198122,3.54932 -0.03666,0.97957 0.04496,1.93801 0.244863,2.87532 0.199933,0.93733 0.518531,1.84334 0.955796,2.71802 l -2.601946,-0.0974 c -0.35934,-1.04547 -0.620358,-2.05661 -0.783052,-3.03342 -0.162661,-0.97679 -0.226807,-1.92436 -0.19244,-2.8427 0.09286,-2.47949 0.80503,-4.30739 2.136527,-5.48371 1.331526,-1.17629 3.303355,-1.71554 5.915492,-1.61776 z" style="" id="path4350"/>
        <path d="m 33.924187,497.6186 2.622163,0.25363 c -0.513694,0.75049 -0.91839,1.51407 -1.214088,2.29075 -0.295671,0.77671 -0.482837,1.57159 -0.561497,2.38465 -0.175956,1.81926 0.26417,3.28777 1.32038,4.40552 1.056235,1.11776 2.626096,1.77741 4.709588,1.97893 2.083507,0.20154 3.750693,-0.145 5.001561,-1.0396 1.250875,-0.8946 1.964296,-2.25152 2.140266,-4.07078 0.07865,-0.81306 0.0473,-1.62908 -0.09404,-2.44806 -0.141341,-0.81895 -0.392185,-1.64594 -0.752534,-2.48098 l 2.591673,0.25069 c 0.290185,0.81799 0.486197,1.65506 0.588036,2.51123 0.101836,0.85619 0.107042,1.75687 0.01562,2.70206 -0.248719,2.57135 -1.254309,4.53605 -3.016771,5.89408 -1.762459,1.35804 -4.01575,1.90435 -6.759879,1.63892 -2.784767,-0.26936 -4.901006,-1.24601 -6.348723,-2.92996 -1.447688,-1.68393 -2.042757,-3.8573 -1.785208,-6.52013 0.08358,-0.86388 0.254103,-1.69884 0.511576,-2.50488 0.257505,-0.80602 0.601466,-1.57804 1.031884,-2.31607 z" style="" id="path4352"/>
        <path d="m 27.408299,490.75781 0.435226,-2.79989 13.908632,2.16201 -6.018417,-9.44515 0.552854,-3.55661 6.533067,10.22266 10.47642,-7.96615 -0.564617,3.63229 -9.617199,7.32469 8.278588,1.28686 -0.435226,2.79989 z" style="" id="path4354"/>
        <path d="m 47.779373,463.44505 c -1.994441,-0.43889 -3.630661,-0.36769 -4.908666,0.21361 -1.277983,0.58133 -2.080472,1.61491 -2.407469,3.10076 -0.324777,1.47591 -0.02922,2.74591 0.886663,3.81 0.91591,1.06412 2.371082,1.81563 4.365521,2.25452 1.984482,0.43672 3.615716,0.36442 4.893707,-0.2169 1.277997,-0.5813 2.079388,-1.6099 2.404178,-3.08581 0.326984,-1.48585 0.03253,-2.76083 -0.883372,-3.82495 -0.915896,-1.0641 -2.366082,-1.81451 -4.350562,-2.25123 z m 7.09762,-1.3237 c 2.852057,0.62765 4.834297,1.72777 5.946727,3.30036 1.112415,1.57263 1.381143,3.66529 0.806186,6.27801 -0.212877,0.96732 -0.485974,1.86387 -0.819293,2.68965 -0.333334,0.8258 -0.738459,1.60965 -1.215376,2.35156 l -2.677548,-0.58923 c 0.616532,-0.71118 1.116191,-1.43764 1.49898,-2.17937 0.382779,-0.74171 0.664147,-1.52144 0.844104,-2.33917 0.397203,-1.80496 0.223373,-3.25989 -0.521491,-4.36479 -0.744874,-1.10487 -2.069657,-1.86689 -3.974352,-2.28606 l -1.361212,-0.29955 c 0.862164,0.78569 1.439909,1.67606 1.733237,2.67111 0.293325,0.99507 0.303928,2.11088 0.03181,3.34743 -0.452073,2.05429 -1.599184,3.53741 -3.441337,4.44936 -1.842149,0.91197 -4.054628,1.08376 -6.637445,0.51537 -2.592772,-0.57057 -4.533728,-1.65638 -5.822873,-3.25743 -1.289117,-1.60103 -1.707646,-3.42869 -1.25559,-5.48298 0.272137,-1.23655 0.750173,-2.24483 1.434111,-3.02484 0.683966,-0.77998 1.582112,-1.34556 2.694439,-1.69674 l -2.542922,-0.5596 0.605689,-2.75234 z" style="" id="path4356"/>
        <path d="m 47.115248,443.50804 c -0.261692,0.25592 -0.484161,0.55184 -0.667408,0.88777 -0.183224,0.33597 -0.334875,0.72041 -0.454952,1.15333 -0.425676,1.53497 -0.253093,2.85173 0.51775,3.95029 0.770865,1.09858 2.091042,1.90709 3.960534,2.42555 l 8.707941,2.41496 -0.757234,2.73046 -16.530328,-4.58434 0.757234,-2.73045 2.568104,0.71221 c -0.845345,-0.84902 -1.384663,-1.7986 -1.617955,-2.84876 -0.233264,-1.05013 -0.168441,-2.22953 0.194472,-3.5382 0.05186,-0.18693 0.121464,-0.39015 0.20881,-0.60965 0.08737,-0.21947 0.193856,-0.46014 0.319446,-0.72202 z" style="" id="path4358"/>
        <path d="m 49.696222,433.40316 c -0.480079,1.43293 -0.300481,2.75304 0.538794,3.96034 0.839297,1.20731 2.231969,2.13697 4.17802,2.78898 1.946065,0.65202 3.616897,0.75146 5.012502,0.29832 1.395608,-0.45313 2.335078,-1.401 2.818413,-2.84361 0.476845,-1.42323 0.293205,-2.73931 -0.550921,-3.94825 -0.844128,-1.20891 -2.234379,-2.13776 -4.170759,-2.78655 -1.92669,-0.64551 -3.593493,-0.74091 -5.000411,-0.28619 -1.406902,0.45475 -2.34878,1.39373 -2.825638,2.81696 z m -2.265562,-0.75907 c 0.778538,-2.32363 2.145191,-3.89565 4.099962,-4.71604 1.954791,-0.82036 4.26828,-0.7829 6.940477,0.11239 2.662519,0.89207 4.529181,2.25514 5.599991,4.08921 1.070803,1.8341 1.216944,3.91296 0.438423,6.2366 -0.781771,2.33335 -2.151656,3.90697 -4.109656,4.72088 -1.958,0.81392 -4.268258,0.77484 -6.930783,-0.11722 -2.672191,-0.8953 -4.542084,-2.25676 -5.609685,-4.08438 -1.067574,-1.82761 -1.210484,-3.90809 -0.428729,-6.24144 z" style="" id="path4360"/>
        <path d="m 61.86004,424.11264 -9.614547,-3.92391 1.064896,-2.60926 9.515282,3.8834 c 1.503163,0.61348 2.750139,0.78051 3.740933,0.5011 0.990795,-0.27939 1.725408,-1.00523 2.203841,-2.17751 0.574887,-1.40861 0.580147,-2.70507 0.01578,-3.88938 -0.564371,-1.18428 -1.621769,-2.09281 -3.172197,-2.72559 l -9.004776,-3.67505 1.064896,-2.60926 15.882439,6.48198 -1.064896,2.60926 -2.439089,-0.99545 c 0.70578,1.02697 1.121923,2.05427 1.248431,3.08191 0.126499,1.02766 -0.03596,2.09454 -0.48738,3.20063 -0.744659,1.82459 -1.877132,2.97808 -3.397422,3.46046 -1.52029,0.48239 -3.372352,0.27794 -5.556191,-0.61333 z" style="" id="path4362"/>
        <path d="m 72.868502,390.68656 9.310524,4.52941 -1.232856,2.53422 -9.227885,-4.4892 c -1.45993,-0.71021 -2.691057,-0.95713 -3.693384,-0.74075 -1.002315,0.21642 -1.780421,0.8939 -2.334321,2.03245 -0.665553,1.36813 -0.754266,2.65919 -0.266139,3.87317 0.488146,1.21402 1.485136,2.1873 2.990972,2.91986 l 8.718286,4.24129 -1.239556,2.548 -15.425719,-7.50434 1.239556,-2.548 2.396495,1.16585 c -0.632555,-1.05715 -0.978495,-2.10829 -1.03782,-3.15344 -0.0593,-1.04511 0.172351,-2.10482 0.694964,-3.17913 0.862115,-1.7721 2.062899,-2.84577 3.602357,-3.22102 1.539471,-0.3752 3.374312,-0.0447 5.504526,0.99163 z" style="" id="path4364"/>
        <path d="m 77.771079,373.2065 -8.064528,-4.59487 1.39514,-2.44863 20.706939,11.79803 -1.39514,2.44863 -2.235711,-1.27382 c 0.594,1.02007 0.882468,2.04525 0.865405,3.07556 -0.01707,1.03033 -0.33901,2.09555 -0.965807,3.19565 -1.026139,1.801 -2.580073,2.85763 -4.661808,3.1699 -2.081734,0.31228 -4.293687,-0.19882 -6.635864,-1.53331 -2.342164,-1.33447 -3.909623,-2.97674 -4.702382,-4.92679 -0.792737,-1.95004 -0.676044,-3.82556 0.35008,-5.62656 0.626812,-1.1001 1.379032,-1.92015 2.256663,-2.46017 0.877648,-0.53998 1.906651,-0.81452 3.087013,-0.82362 z m 0.44926,11.30866 c 1.800992,1.02614 3.424875,1.46073 4.871655,1.30376 1.44678,-0.15696 2.539173,-0.88309 3.277184,-2.17839 0.738005,-1.29528 0.806963,-2.60747 0.206874,-3.93655 -0.600096,-1.32906 -1.800635,-2.50666 -3.601623,-3.53281 -1.800987,-1.02612 -3.426134,-1.45849 -4.875446,-1.2971 -1.449302,0.16142 -2.54296,0.88976 -3.280976,2.18504 -0.738,1.29531 -0.805694,2.60527 -0.203083,3.92989 0.602629,1.32465 1.804432,2.50003 3.605415,3.52616 z" style="" id="path4366"/>
        <path d="m 94.035649,348.24343 c -0.331038,0.15618 -0.638107,0.363 -0.921206,0.62045 -0.283088,0.2575 -0.552208,0.57113 -0.80736,0.94091 -0.904603,1.31112 -1.172478,2.61185 -0.803627,3.90219 0.368866,1.29036 1.351722,2.48642 2.948573,3.58818 l 7.437991,5.13192 -1.60917,2.33225 -14.119565,-9.74195 1.609162,-2.33225 2.193576,1.51348 c -0.520921,-1.07893 -0.719754,-2.15272 -0.5965,-3.2214 0.123273,-1.06864 0.570523,-2.16187 1.341753,-3.27968 0.110184,-0.15967 0.242464,-0.32891 0.39684,-0.50774 0.154391,-0.17879 0.333776,-0.37136 0.538157,-0.57771 z" style="" id="path4368"/>
        <path d="m 105.66803,342.63262 c -1.38928,1.80409 -2.14551,3.21287 -2.2687,4.22633 -0.12318,1.01349 0.31277,1.90337 1.30784,2.66964 0.79283,0.61055 1.62275,0.83402 2.48976,0.67043 0.86701,-0.16358 1.64628,-0.69437 2.33781,-1.59238 0.95318,-1.23777 1.27902,-2.5688 0.97752,-3.99309 -0.3015,-1.42427 -1.18036,-2.69711 -2.63657,-3.81851 l -0.49754,-0.38315 z m 2.50732,-5.1638 7.75433,5.97142 -1.71947,2.23286 -2.06296,-1.58864 c 0.43269,1.14514 0.55241,2.24901 0.35917,3.31162 -0.19325,1.06263 -0.71351,2.14406 -1.56078,3.2443 -1.07156,1.3915 -2.31385,2.19722 -3.72688,2.41717 -1.41303,0.21995 -2.77484,-0.1747 -4.08543,-1.18396 -1.52902,-1.17746 -2.28781,-2.57692 -2.27637,-4.1984 0.0114,-1.62146 0.79903,-3.44749 2.36274,-5.47811 l 2.411,-3.13086 -0.21843,-0.16821 c -1.02744,-0.79118 -2.08239,-1.06552 -3.16485,-0.823 -1.08246,0.24256 -2.09405,0.97463 -3.034781,2.19621 -0.598069,0.77666 -1.087534,1.60473 -1.468397,2.4842 -0.380846,0.8795 -0.64686,1.80231 -0.798043,2.76844 l -2.062966,-1.58864 c 0.313724,-1.06005 0.687625,-2.0351 1.121705,-2.92516 0.434099,-0.89002 0.931492,-1.69909 1.49218,-2.42722 1.513887,-1.96586 3.154302,-3.04172 4.921232,-3.22758 1.76695,-0.18581 3.68595,0.51871 5.757,2.11356 z" style="" id="path4370"/>
        <path d="m 116.1213,320.85642 -6.97959,-6.11838 1.85773,-2.11922 17.9212,15.70992 -1.85773,2.11921 -1.93494,-1.69618 c 0.37744,1.11844 0.45451,2.18065 0.23124,3.18662 -0.2233,1.00598 -0.75226,1.98503 -1.58688,2.93713 -1.36638,1.55871 -3.1006,2.28235 -5.20267,2.17092 -2.10208,-0.11141 -4.16666,-1.0556 -6.19374,-2.83256 -2.02706,-1.77695 -3.23345,-3.70012 -3.61916,-5.76953 -0.38569,-2.06937 0.10465,-3.88341 1.47101,-5.44213 0.83464,-0.95209 1.736,-1.60469 2.70407,-1.95779 0.96809,-0.35306 2.03124,-0.41573 3.18946,-0.18801 z m -1.82707,11.16914 c 1.5587,1.36638 3.06249,2.1177 4.51136,2.25397 1.44888,0.13629 2.66467,-0.35609 3.64738,-1.47713 0.98271,-1.12103 1.31334,-2.39274 0.99189,-3.81515 -0.32145,-1.42238 -1.26153,-2.81677 -2.82022,-4.18315 -1.5587,-1.36636 -3.06417,-2.11576 -4.51641,-2.24822 -1.45224,-0.13242 -2.66971,0.36187 -3.65243,1.48289 -0.9827,1.12105 -1.31165,2.39085 -0.98684,3.80939 0.32482,1.41857 1.26658,2.81103 2.82527,4.1774 z" style="" id="path4372"/>
        <path d="m 120.58408,312.24868 1.95397,-2.03082 12.3615,11.89375 -1.95398,2.03082 z m -4.81216,-4.63007 1.95398,-2.03081 2.57163,2.47432 -1.95397,2.03082 z" style="" id="path4374"/>
        <path d="m 138.70643,306.26072 c -1.6514,1.56772 -2.61625,2.84271 -2.89458,3.82496 -0.27832,0.98227 0.0149,1.92883 0.87957,2.83968 0.68895,0.72573 1.47436,1.07478 2.35624,1.04714 0.88187,-0.0276 1.73381,-0.43162 2.5558,-1.21197 1.13302,-1.0756 1.66064,-2.34028 1.58287,-3.79406 -0.0778,-1.45375 -0.74937,-2.84711 -2.01478,-4.18009 l -0.43235,-0.45543 z m 3.27521,-4.71429 6.73836,7.09803 -2.04388,1.94031 -1.79268,-1.88836 c 0.25053,1.19825 0.19822,2.30736 -0.15691,3.32734 -0.35515,1.02 -1.03628,2.00804 -2.04341,2.96413 -1.27372,1.20918 -2.6256,1.81324 -4.05565,1.81218 -1.43005,-0.001 -2.71451,-0.60142 -3.85339,-1.80109 -1.32868,-1.39961 -1.86208,-2.89952 -1.6002,-4.49975 0.26189,-1.60021 1.3222,-3.2826 3.18094,-5.04717 l 2.86587,-2.72065 -0.18981,-0.19995 c -0.89282,-0.94046 -1.8927,-1.37453 -2.99964,-1.3022 -1.10694,0.0724 -2.21951,0.6393 -3.33772,1.70083 -0.71091,0.67491 -1.32247,1.41738 -1.83466,2.22743 -0.51219,0.81008 -0.91762,1.68069 -1.21629,2.61186 l -1.79268,-1.88837 c 0.47377,-0.99883 0.99387,-1.90439 1.56028,-2.71667 0.56643,-0.81225 1.18288,-1.53473 1.84935,-2.16746 1.79951,-1.7083 3.58647,-2.51772 5.36091,-2.42828 1.77443,0.0895 3.5615,1.0821 5.36121,2.97784 z" style="" id="path4376"/>
        <path d="m 140.89374,286.27186 3.1684,3.69916 4.40875,-3.77616 1.42478,1.66346 -4.40875,3.77616 6.05781,7.07262 c 0.91,1.06245 1.63993,1.62035 2.1898,1.67371 0.54986,0.0534 1.27071,-0.30189 2.16254,-1.06577 l 2.19856,-1.8831 1.53438,1.79142 -2.19856,1.8831 c -1.65183,1.41482 -3.05586,2.08298 -4.21208,2.00448 -1.15622,-0.0785 -2.43178,-0.93202 -3.82667,-2.56059 l -6.05781,-7.07262 -1.5704,1.34507 -1.42478,-1.66346 1.5704,-1.34507 -3.16839,-3.69916 z" style="" id="path4378"/>
        <path d="m 151.83275,283.50168 2.20163,-1.75927 10.7086,13.40126 -2.20163,1.75927 z m -4.16871,-5.21692 2.20164,-1.75927 2.22777,2.78794 -2.20164,1.75927 z" style="" id="path4380"/>
        <path d="m 165.79543,275.29803 c -1.22207,0.88899 -1.84129,2.06862 -1.85765,3.53889 -0.0164,1.47029 0.57913,3.03528 1.78645,4.69498 1.20733,1.65971 2.51088,2.70964 3.91064,3.14978 1.39975,0.44016 2.71479,0.21274 3.94513,-0.68225 1.21381,-0.88297 1.82739,-2.06166 1.84076,-3.53608 0.0134,-1.47439 -0.58064,-3.03732 -1.78195,-4.68879 -1.19532,-1.64317 -2.49792,-2.68747 -3.90781,-3.13289 -1.4099,-0.44538 -2.72175,-0.2266 -3.93557,0.65636 z m -1.40554,-1.9322 c 1.98174,-1.44157 4.00674,-1.92975 6.07502,-1.46454 2.06827,0.46525 3.93132,1.83736 5.58915,4.11634 1.6518,2.27076 2.38211,4.46371 2.19091,6.57886 -0.19122,2.11518 -1.27769,3.89355 -3.25942,5.33513 -1.99001,1.4476 -4.01858,1.93522 -6.08573,1.46286 -2.06714,-0.47236 -3.92663,-1.84391 -5.57845,-4.11466 -1.65782,-2.27899 -2.39168,-4.4725 -2.20161,-6.58055 0.19009,-2.10802 1.28013,-3.88583 3.27013,-5.33344 z" style="" id="path4382"/>
        <path d="m 191.45514,263.96267 5.5462,8.74305 -2.37976,1.50962 -5.49698,-8.66545 c -0.86968,-1.37093 -1.78786,-2.22743 -2.75454,-2.5695 -0.96669,-0.34203 -1.98461,-0.17393 -3.05378,0.50428 -1.28473,0.81499 -2.03804,1.86724 -2.25995,3.15673 -0.22191,1.28952 0.11565,2.64131 1.01267,4.05536 l 5.19341,8.18691 -2.3927,1.51782 -9.18898,-14.48553 2.3927,-1.51782 1.42758,2.25043 c 0.0166,-1.23183 0.27407,-2.30808 0.77229,-3.22875 0.49821,-0.92063 1.25173,-1.70092 2.26054,-2.34089 1.66411,-1.05562 3.24978,-1.339 4.75702,-0.85015 1.50722,0.4889 2.89532,1.73353 4.16428,3.73389 z" style="" id="path4384"/>
      </g>
      <path sodipodi:type="arc" style="fill:none;stroke:none" id="path4298" sodipodi:cx="247.43874" sodipodi:cy="233.40871" sodipodi:rx="123.71937" sodipodi:ry="123.71937" d="m 371.1581,233.40871 c 0,68.32832 -55.39104,123.71936 -123.71936,123.71936 -68.32832,0 -123.71937,-55.39104 -123.71937,-123.71936 0,-68.32832 55.39105,-123.71937 123.71937,-123.71937 68.32832,0 123.71936,55.39105 123.71936,123.71937 z" transform="matrix(2.4785425,0,0,2.4785425,-258.37939,-42.792859)"/>
    </g>
  </g>
</svg>
