<?xml version="1.0" encoding="UTF-8" standalone="no"?>
<svg xmlns:rdf="http://www.w3.org/1999/02/22-rdf-syntax-ns#" xmlns="http://www.w3.org/2000/svg" height="685" width="630" version="1.1" xmlns:cc="http://creativecommons.org/ns#" xmlns:dc="http://purl.org/dc/elements/1.1/">
  <g transform="matrix(4,0,0,-4,-921.66542,2848.972)">
    <rect transform="scale(1,-1)" height="155.382" width="142.29971" stroke="#fff" y="-711.29401" x="244.978" stroke-width=".25" fill-opacity="0" />
    <path stroke="#fff" stroke-width=".272" d="m250.066 711.31v-3.542m0-148.344v-3.542m-5.088 0.03h142.29971v155.382h-142.29971zm0.045 24.957h3.541m-3.541 21.74h3.541m-3.541-43.423h3.541m-3.541 65.164h3.541m-3.541 21.74h3.541m-3.541 21.742h3.541m-3.541 21.738h3.541m135.11771-108.701h3.542m-3.542 21.74h3.542m-3.542 21.741h3.542m-3.542 21.74h3.542m-3.542 21.742h3.542m-3.542 21.738h3.542m-112.66671-130.117v-3.542m24.481 3.542v-3.542m24.483 3.542v-3.542m24.481 3.542v-3.542m24.529 3.542v-3.542m0 155.372v-3.542m-97.974 3.532v-3.541m24.481 3.541v-3.541m24.483 3.541v-3.541m24.481 3.541v-3.541" fill="none"/>
    <g fill="#fff">
      <path d="m247.933 551.254 1.041 1.591v-1.591h-1.041zm1.028-1.007h0.419v0.654h0.44v0.353h-0.44v2.049h-0.47l-1.308-1.883v-0.519h1.359v-0.654"/>
      <path d="m250.257 550.247h0.48354v0.52307h-0.48354v-0.52307z"/>
      <path d="m251.568 551.254 1.042 1.591v-1.591h-1.042zm1.029-1.007h0.419v0.654h0.439v0.353h-0.439v2.049h-0.471l-1.308-1.883v-0.519h1.36v-0.654"/>
      <path d="m272.507 551.066 1.042 1.591v-1.591h-1.042zm1.029-1.007h0.419v0.654h0.44v0.353h-0.44v2.049h-0.472l-1.307-1.882v-0.52h1.36v-0.654"/>
      <path d="m274.831 550.059h0.4845v0.52307h-0.4845v-0.52307z"/>
      <path d="m275.921 550.456 0.788 0.776c0.166 0.161 0.331 0.335 0.467 0.518 0.175 0.24 0.222 0.375 0.222 0.537 0 0.148-0.052 0.493-0.484 0.493-0.483 0-0.493-0.415-0.493-0.528h-0.457c0.005 0.148 0.017 0.435 0.279 0.662 0.21 0.179 0.463 0.218 0.654 0.218 0.461 0 0.933-0.236 0.933-0.88 0-0.192-0.013-0.34-0.34-0.755-0.087-0.109-0.471-0.506-0.558-0.592l-0.527-0.502h1.433v-0.344h-1.917v0.397"/>
      <path d="m298.736 551.066 1.042 1.591v-1.591h-1.042zm1.029-1.007h0.419v0.654h0.439v0.353h-0.439v2.049h-0.471l-1.308-1.882v-0.52h1.36v-0.654"/>
      <path d="m321.503 550.835c-0.004-0.288 0.183-0.493 0.554-0.493 0.423 0 0.602 0.27 0.602 0.536 0 0.318-0.213 0.484-0.436 0.533-0.156 0.03-0.266 0.025-0.419 0.02v0.354c0.301-0.026 0.807 0.035 0.807 0.523 0 0.34-0.231 0.475-0.532 0.475-0.227 0-0.51-0.099-0.55-0.475h-0.439c0.025 0.75 0.731 0.824 0.977 0.824 0.657 0 0.984-0.397 0.984-0.815 0-0.249-0.135-0.606-0.602-0.711 0.646-0.091 0.646-0.671 0.646-0.731 0-0.424-0.345-0.889-1.047-0.889-0.317 0-0.636 0.091-0.827 0.313-0.171 0.192-0.175 0.41-0.179 0.536h0.461"/>
      <path d="m323.653 550.059h0.48352v0.52307h-0.48352v-0.52307z"/>
      <path d="m326.294 552.33c0-0.296-0.248-0.488-0.579-0.488-0.315 0-0.558 0.196-0.558 0.488 0 0.301 0.248 0.493 0.571 0.493 0.361 0 0.566-0.218 0.566-0.493zm-0.955-0.68c-0.134-0.043-0.291-0.087-0.435-0.231-0.153-0.144-0.232-0.353-0.232-0.553 0-0.231 0.106-0.458 0.266-0.607 0.219-0.2 0.523-0.252 0.781-0.252 0.75 0 1.037 0.471 1.037 0.885 0 0.584-0.479 0.715-0.658 0.763 0.423 0.079 0.615 0.387 0.615 0.683 0 0.463-0.367 0.808-1.003 0.808-0.793 0-0.977-0.555-0.977-0.824 0-0.302 0.205-0.585 0.606-0.672zm-0.227-0.745c0 0.318 0.245 0.566 0.616 0.566 0.343 0 0.592-0.217 0.592-0.553 0-0.227-0.117-0.566-0.601-0.566-0.449 0-0.607 0.318-0.607 0.553"/>
      <path d="m345.914 550.835c-0.004-0.288 0.184-0.493 0.554-0.493 0.423 0 0.602 0.27 0.602 0.536 0 0.318-0.213 0.484-0.435 0.533-0.157 0.03-0.267 0.025-0.42 0.02v0.354c0.301-0.026 0.807 0.035 0.807 0.523 0 0.34-0.231 0.475-0.531 0.475-0.227 0-0.51-0.099-0.551-0.475h-0.439c0.026 0.75 0.732 0.824 0.977 0.824 0.657 0 0.984-0.397 0.984-0.815 0-0.249-0.135-0.606-0.602-0.711 0.646-0.091 0.646-0.671 0.646-0.731 0-0.424-0.345-0.889-1.046-0.889-0.319 0-0.636 0.091-0.828 0.313-0.17 0.192-0.175 0.41-0.179 0.536h0.461"/>
      <path d="m348.064 550.059h0.48447v0.52307h-0.48447v-0.52307z"/>
      <path d="m350.182 550.325c-0.336 0-0.579 0.287-0.579 0.68 0 0.344 0.195 0.676 0.602 0.676 0.5 0 0.561-0.459 0.561-0.672 0-0.493-0.313-0.684-0.584-0.684zm0.963 2.035c-0.004 0.118-0.008 0.31-0.161 0.489-0.104 0.113-0.327 0.287-0.723 0.287-0.955 0-1.117-1.046-1.117-1.705 0-0.383 0.053-0.814 0.275-1.111 0.162-0.209 0.453-0.326 0.745-0.326 0.519 0 1.021 0.353 1.021 1.054 0 0.641-0.419 0.968-0.912 0.968-0.439 0-0.606-0.244-0.702-0.383 0.04 0.802 0.232 1.176 0.668 1.176 0.191 0 0.454-0.095 0.458-0.449h0.448"/>
      <path d="m370.326 550.835c-0.005-0.288 0.183-0.493 0.554-0.493 0.423 0 0.602 0.27 0.602 0.536 0 0.318-0.214 0.484-0.436 0.533-0.157 0.03-0.267 0.025-0.419 0.02v0.354c0.301-0.026 0.807 0.035 0.807 0.523 0 0.34-0.232 0.475-0.532 0.475-0.227 0-0.51-0.099-0.55-0.475h-0.44c0.026 0.75 0.732 0.824 0.977 0.824 0.657 0 0.985-0.397 0.985-0.815 0-0.249-0.136-0.606-0.602-0.711 0.645-0.091 0.645-0.671 0.645-0.731 0-0.424-0.345-0.889-1.046-0.889-0.318 0-0.636 0.091-0.828 0.313-0.17 0.192-0.175 0.41-0.179 0.536h0.462"/>
      <path d="m372.475 550.059h0.48355v0.52307h-0.48355v-0.52307z"/>
      <path d="m373.787 551.066 1.041 1.591v-1.591h-1.041zm1.028-1.007h0.419v0.654h0.44v0.353h-0.44v2.049h-0.47l-1.309-1.882v-0.52h1.36v-0.654"/>
    </g>
    <g fill="#fff">
      <path d="m238.893 709.686h-0.929v0.336h0.929v0.928h0.366v-0.928h0.928v-0.336h-0.928v-0.929h-0.366v0.929"/>
      <path d="m240.801 709.765 1.042 1.591v-1.591h-1.042zm1.029-1.007h0.419v0.654h0.44v0.353h-0.44v2.049h-0.472l-1.307-1.883v-0.519h1.36v-0.654"/>
      <path d="m238.893 688.163h-0.929v0.336h0.929v0.928h0.366v-0.928h0.928v-0.336h-0.928v-0.929h-0.366v0.929"/>
      <path d="m240.976 688.01c-0.005-0.288 0.183-0.493 0.553-0.493 0.423 0 0.602 0.271 0.602 0.536 0 0.319-0.213 0.485-0.436 0.533-0.157 0.03-0.266 0.025-0.419 0.021v0.353c0.301-0.026 0.807 0.035 0.807 0.523 0 0.341-0.231 0.475-0.532 0.475-0.227 0-0.51-0.099-0.549-0.475h-0.441c0.026 0.75 0.733 0.824 0.977 0.824 0.658 0 0.986-0.397 0.986-0.814 0-0.25-0.136-0.607-0.603-0.712 0.646-0.091 0.646-0.67 0.646-0.732 0-0.423-0.345-0.888-1.046-0.888-0.318 0-0.636 0.091-0.828 0.313-0.17 0.192-0.175 0.41-0.179 0.536h0.462"/>
      <path d="m238.893 666.64h-0.929v0.336h0.929v0.928h0.366v-0.928h0.928v-0.336h-0.928v-0.928h-0.366v0.928"/>
      <path d="m240.579 666.108 0.789 0.776c0.166 0.161 0.331 0.336 0.466 0.518 0.175 0.24 0.223 0.376 0.223 0.537 0 0.147-0.053 0.493-0.485 0.493-0.483 0-0.492-0.414-0.492-0.528h-0.457c0.004 0.148 0.017 0.436 0.279 0.663 0.209 0.179 0.462 0.217 0.654 0.217 0.461 0 0.933-0.235 0.933-0.88 0-0.192-0.013-0.34-0.341-0.754-0.087-0.109-0.47-0.506-0.558-0.593l-0.527-0.501h1.434v-0.344h-1.918v0.396"/>
      <path d="m238.893 645.117h-0.929v0.335h0.929v0.928h0.366v-0.928h0.928v-0.335h-0.928v-0.928h-0.366v0.928"/>
      <path d="m241.53 646.73c-0.187-0.157-0.488-0.336-0.702-0.437v0.437c0.284 0.149 0.563 0.331 0.733 0.475h0.388v-3.016h-0.419v2.541"/>
      <path d="m240.958 624.16c0 0.541 0.07 1.234 0.597 1.234 0.458 0 0.585-0.501 0.585-1.226 0-0.54-0.088-1.202-0.593-1.202-0.458 0-0.589 0.522-0.589 1.194zm-0.419-0.022c0-0.541 0.096-0.832 0.197-1.034 0.131-0.265 0.405-0.5 0.806-0.5 0.136 0 0.389 0.03 0.602 0.23 0.274 0.258 0.418 0.659 0.418 1.374 0 0.567-0.108 1.534-1.011 1.534-0.959 0-1.012-1.155-1.012-1.604"/>
      <path d="m238.169 602.149h2.1788v0.31421h-2.1788v-0.31421z"/>
      <path d="m241.53 603.684c-0.187-0.157-0.488-0.336-0.702-0.437v0.437c0.284 0.148 0.563 0.33 0.733 0.475h0.388v-3.017h-0.419v2.542"/>
      <path d="m238.169 580.626h2.1788v0.31421h-2.1788v-0.31421z"/>
      <path d="m240.579 580.016 0.789 0.776c0.166 0.161 0.331 0.335 0.466 0.518 0.175 0.24 0.223 0.376 0.223 0.537 0 0.148-0.053 0.493-0.485 0.493-0.483 0-0.492-0.414-0.492-0.528h-0.457c0.004 0.148 0.017 0.435 0.279 0.662 0.209 0.179 0.462 0.218 0.654 0.218 0.461 0 0.933-0.235 0.933-0.88 0-0.192-0.013-0.34-0.341-0.755-0.087-0.108-0.47-0.505-0.558-0.592l-0.527-0.502h1.434v-0.344h-1.918v0.397"/>
      <path d="m238.169 559.103h2.1788v0.31323h-2.1788v-0.31323z"/>
      <path d="m240.976 558.872c-0.005-0.287 0.183-0.493 0.553-0.493 0.423 0 0.602 0.271 0.602 0.536 0 0.319-0.213 0.484-0.436 0.533-0.157 0.03-0.266 0.026-0.419 0.021v0.353c0.301-0.026 0.807 0.036 0.807 0.523 0 0.341-0.231 0.475-0.532 0.475-0.227 0-0.51-0.099-0.549-0.475h-0.441c0.026 0.75 0.733 0.824 0.977 0.824 0.658 0 0.986-0.397 0.986-0.815 0-0.249-0.136-0.605-0.603-0.711 0.646-0.091 0.646-0.67 0.646-0.731 0-0.424-0.345-0.889-1.046-0.889-0.318 0-0.636 0.091-0.828 0.313-0.17 0.192-0.175 0.41-0.179 0.536h0.462"/>
    </g>
    <g stroke="#f00" stroke-width=".817" fill="none">
      <path d="m262.388 692.266c2.18-1.703 7.22-5.96 9.263-8.003 2.044-2.043 11.987-14.474 14.985-16.858 2.997-2.384 9.399-9.876 11.306-11.068s9.536-9.365 11.715-10.727 6.811-7.322 8.718-9.706 8.855-10.897 10.626-13.281c1.77-2.384 8.173-12.091 9.807-13.453 1.635-1.362 8.991-10.386 10.218-12.259 1.225-1.874 5.312-10.217 6.265-12.771 0.954-2.554 4.632-12.09 6.403-14.814"/>
      <path d="m262.388 692.266c4.496-0.767 34.736-13.995 37.188-14.985 4.223-1.703 15.856-7.369 18.255-9.195 3.132-2.384 8.446-4.256 9.671-6.3 0.754-1.256 3.269-6.981 4.359-9.025 1.09-2.043 2.845-9.291 8.582-9.705 7.084-0.511 7.219-2.554 9.945-7.833 2.724-5.278 5.857-10.897 8.037-12.941 2.179-2.043 5.993-7.322 7.628-8.685"/>
      <path d="m269.745 686.477c1.907-1.022 7.219-6.981 8.854-8.515 1.634-1.531 7.356-8.002 11.034-8.513 3.678-0.51 13.213-2.553 15.121-3.065 1.812-0.486 22.612-14.474 24.519-15.666 1.907-1.191 4.207-3.077 5.449-5.619 1.499-3.065 4.142-9.371 7.629-11.749 1.498-1.021 7.492-10.046 8.718-11.748 1.226-1.703 7.083-14.645 10.489-18.05"/>
      <path d="m361.558 583.97c-1.907 4.597-7.219 17.538-9.807 21.284-2.589 3.746-11.307 16.348-14.304 19.582-2.996 3.236-15.121 16.517-16.074 17.369-0.954 0.851-2.452 1.532-4.086 2.554-1.635 1.021-10.899 5.278-11.988 6.13-1.09 0.851-6.539 7.322-7.492 8.173-0.954 0.851-7.357 6.471-8.31 7.152-0.954 0.681-3.678 2.384-4.631 3.065"/>
    </g>
    <g fill="#f00">
      <path d="m368.879 613.991c-0.212-0.176-0.549-0.377-0.79-0.49v0.49c0.319 0.167 0.632 0.373 0.824 0.535h0.436v-3.394h-0.47v2.859"/>
      <path d="m370.693 612.814c0 0.609 0.079 1.389 0.673 1.389 0.514 0 0.656-0.565 0.656-1.379 0-0.608-0.098-1.353-0.667-1.353-0.514 0-0.662 0.589-0.662 1.343zm-0.47-0.024c0-0.609 0.108-0.937 0.221-1.162 0.146-0.299 0.455-0.565 0.907-0.565 0.152 0 0.436 0.035 0.676 0.26 0.309 0.29 0.471 0.741 0.471 1.545 0 0.637-0.123 1.727-1.138 1.727-1.079 0-1.137-1.3-1.137-1.805"/>
      <path d="m373.344 613.937c0.007-0.267 0.241-0.374 0.437-0.374 0.463 0 0.524 0.434 0.524 0.606 0 0.36-0.194 0.57-0.5 0.57-0.152 0-0.275-0.058-0.355-0.138-0.08-0.081-0.102-0.161-0.122-0.222h-0.347l0.069 1.571h1.484v-0.308h-1.156l-0.05-0.855c0.081 0.08 0.248 0.245 0.557 0.245 0.531 0 0.79-0.417 0.79-0.87 0-0.519-0.367-0.912-0.942-0.912-0.428 0-0.767 0.237-0.786 0.687h0.397"/>
      <path d="m377.454 611.117-0.353-0.916h-0.475l0.372 0.94-1.025 2.453h0.52l0.77-1.942 0.785 1.942h0.5l-1.094-2.477"/>
      <path d="m379.097 613.094c0 0.167-0.01 0.339-0.025 0.5h0.466l0.01-0.475c0.088 0.343 0.382 0.456 0.588 0.486 0.138 0.02 0.24 0.014 0.318 0.009v-0.451c-0.024 0.01-0.053 0.015-0.087 0.019-0.035 0.006-0.079 0.006-0.133 0.006-0.543 0-0.671-0.324-0.671-0.746v-1.309h-0.466v1.961"/>
      <path d="m368.879 602.367c-0.212-0.177-0.549-0.378-0.79-0.491v0.491c0.319 0.166 0.632 0.372 0.824 0.534h0.436v-3.394h-0.47v2.86"/>
      <path d="m370.693 601.189c0 0.609 0.079 1.389 0.673 1.389 0.514 0 0.656-0.565 0.656-1.379 0-0.607-0.098-1.353-0.667-1.353-0.514 0-0.662 0.589-0.662 1.343zm-0.47-0.024c0-0.608 0.108-0.936 0.221-1.162 0.146-0.299 0.455-0.564 0.907-0.564 0.152 0 0.436 0.034 0.676 0.259 0.309 0.29 0.471 0.741 0.471 1.545 0 0.638-0.123 1.727-1.138 1.727-1.079 0-1.137-1.3-1.137-1.805"/>
      <path d="m373.836 601.92c-0.294 0-0.508 0.251-0.508 0.595 0 0.301 0.172 0.59 0.527 0.59 0.438 0 0.492-0.399 0.492-0.587 0-0.431-0.275-0.598-0.511-0.598zm0.843 1.781c-0.004 0.102-0.008 0.271-0.141 0.427-0.091 0.1-0.286 0.252-0.633 0.252-0.836 0-0.977-0.916-0.977-1.492 0-0.335 0.045-0.713 0.24-0.972 0.142-0.183 0.397-0.287 0.652-0.287 0.454 0 0.893 0.309 0.893 0.924 0 0.561-0.366 0.846-0.797 0.846-0.386 0-0.531-0.213-0.614-0.335 0.034 0.702 0.202 1.03 0.583 1.03 0.168 0 0.397-0.084 0.401-0.393h0.393"/>
      <path d="m377.454 599.492-0.353-0.916h-0.475l0.372 0.94-1.025 2.453h0.52l0.77-1.942 0.785 1.942h0.5l-1.094-2.477"/>
      <path d="m379.097 601.469c0 0.167-0.01 0.339-0.025 0.5h0.466l0.01-0.475c0.088 0.344 0.382 0.457 0.588 0.486 0.138 0.02 0.24 0.014 0.318 0.009v-0.45c-0.024 0.009-0.053 0.014-0.087 0.018-0.035 0.006-0.079 0.006-0.133 0.006-0.543 0-0.671-0.323-0.671-0.746v-1.309h-0.466v1.961"/>
      <path d="m369.968 584.931c-0.211-0.177-0.549-0.378-0.79-0.491v0.491c0.32 0.167 0.633 0.372 0.824 0.534h0.436v-3.393h-0.47v2.859"/>
      <path d="m371.783 583.753c0 0.609 0.078 1.389 0.672 1.389 0.515 0 0.656-0.565 0.656-1.379 0-0.607-0.098-1.353-0.666-1.353-0.515 0-0.662 0.589-0.662 1.343zm-0.471-0.023c0-0.609 0.108-0.937 0.221-1.163 0.147-0.299 0.455-0.565 0.907-0.565 0.152 0 0.437 0.035 0.677 0.261 0.309 0.29 0.47 0.74 0.47 1.545 0 0.637-0.123 1.726-1.137 1.726-1.079 0-1.138-1.3-1.138-1.804"/>
      <path d="m373.956 586.89h1.743v-0.321l-0.969-2.319h-0.431l1.015 2.324h-1.358v0.316"/>
      <path d="m378.544 582.057-0.354-0.917h-0.475l0.373 0.941-1.026 2.452h0.521l0.769-1.942 0.785 1.942h0.5l-1.093-2.476"/>
      <path d="m380.186 584.033c0 0.167-0.009 0.338-0.025 0.5h0.466l0.011-0.476c0.087 0.344 0.381 0.457 0.588 0.486 0.137 0.02 0.24 0.015 0.318 0.009v-0.45c-0.024 0.009-0.053 0.014-0.088 0.018-0.034 0.006-0.078 0.006-0.133 0.006-0.543 0-0.671-0.324-0.671-0.746v-1.308h-0.466v1.961"/>
      <path d="m368.879 566.404c-0.212-0.177-0.549-0.378-0.79-0.491v0.491c0.319 0.167 0.632 0.372 0.824 0.534h0.436v-3.394h-0.47v2.86"/>
      <path d="m370.693 565.227c0 0.609 0.079 1.389 0.673 1.389 0.514 0 0.656-0.565 0.656-1.379 0-0.607-0.098-1.353-0.667-1.353-0.514 0-0.662 0.588-0.662 1.343zm-0.47-0.023c0-0.609 0.108-0.938 0.221-1.163 0.146-0.299 0.455-0.565 0.907-0.565 0.152 0 0.436 0.035 0.676 0.261 0.309 0.289 0.471 0.74 0.471 1.545 0 0.637-0.123 1.726-1.138 1.726-1.079 0-1.137-1.3-1.137-1.804"/>
      <path d="m374.293 567.712c0-0.26-0.217-0.427-0.506-0.427-0.276 0-0.489 0.171-0.489 0.427 0 0.263 0.217 0.431 0.499 0.431 0.317 0 0.496-0.191 0.496-0.431zm-0.835-0.595c-0.118-0.038-0.255-0.077-0.381-0.203-0.134-0.125-0.204-0.308-0.204-0.484 0-0.202 0.093-0.4 0.235-0.53 0.19-0.176 0.457-0.221 0.682-0.221 0.656 0 0.908 0.411 0.908 0.774 0 0.511-0.42 0.626-0.576 0.667 0.37 0.069 0.537 0.34 0.537 0.6 0 0.404-0.32 0.705-0.878 0.705-0.693 0-0.853-0.484-0.853-0.721 0-0.263 0.18-0.511 0.53-0.587zm-0.199-0.652c0 0.278 0.214 0.495 0.538 0.495 0.301 0 0.519-0.191 0.519-0.484 0-0.199-0.103-0.496-0.526-0.496-0.394 0-0.531 0.279-0.531 0.485"/>
      <path d="m377.454 563.531-0.353-0.917h-0.475l0.372 0.941-1.025 2.452h0.52l0.77-1.942 0.785 1.942h0.5l-1.094-2.476"/>
      <path d="m379.097 565.506c0 0.167-0.01 0.339-0.025 0.5h0.466l0.01-0.475c0.088 0.344 0.382 0.457 0.588 0.486 0.138 0.02 0.24 0.015 0.318 0.009v-0.451c-0.024 0.01-0.053 0.015-0.087 0.019-0.035 0.006-0.079 0.006-0.133 0.006-0.543 0-0.671-0.324-0.671-0.746v-1.309h-0.466v1.961"/>
    </g>
    <g stroke="#fff" stroke-width=".272" transform="translate(251.344,702.071)" fill="none">
      <path d="m0 0c1.91-1.558 3.374-2.776 3.961-3.249 0.748-0.596 5.039-4.257 5.857-5.109 0.817-0.851 10.284-8.661 11.561-10.258 1.635-2.044 4.036-4.917 5.824-6.961 1.495-1.707 6.045-6.449 7.952-8.322 1.5-1.474 7.948-8.722 9.671-10.217 3.22-2.788 10.486-10.058 14.713-13.388 7.458-5.874 11.914-13.65 14.609-16.921 3.525-4.277 10.188-13.968 12.158-16.857 1.481-2.171 6.897-6.066 10.472-12.452 1.594-2.846 5.416-10.088 7.509-15.133 1.474-3.549 5.564-14.03 6.743-17.113 0.818-2.137 1.635-4.044 1.635-4.044"/>
      <path d="m3.961-3.249c2.452-0.936 8.054-3.112 10.318-3.937 2.453-0.895 15.424-5.23 16.518-5.513 1.974-0.511 13.008-4.342 14.984-5.279 1.974-0.937 12.259-5.278 14.099-7.066 1.839-1.789 10.829-10.302 12.259-11.749s6.744-9.792 7.629-11.494c0.885-1.703 4.631-10.046 6.88-9.791 2.247 0.255 5.516-0.085 7.696-2.555 2.179-2.468 5.789-7.492 8.241-11.749 2.452-4.256 5.553-8.112 8.105-10.811 0.885-0.937 3.065-3.492 4.564-5.28"/>
    </g>
    <path stroke="#00f" stroke-width=".545" d="m361.711 619.345c0-2.745 0.51-25.605 0.459-27.457s0.307-24.776 0.256-26.116m-5.517 59.448c0.052-2.554 0.562-17.816 0.562-20.114 0-2.299 0.256-22.413 0.154-26.819m-4.343 52.424c-0.055-3.07 0.312-40.092 0.408-43.101m-4.034 48.785c0-3.001 0.51-20.944 0.51-24.009s0.512-8.429-0.358-9.514c-0.868-1.086-1.174-0.958-1.787-1.214-0.613-0.255-0.971-0.191-1.175-1.085m0.46 39.079c-0.153-2.107-0.153-11.43-0.153-13.409 0-1.981-0.154-7.967-0.154-11.302 0-1.278 0.154-4.854-2.146-3.832-2.115 0.941-5.489 2.772-6.589 3.002-0.92 0.191-2.349 0.51-1.43-2.299m-6.079 8.876c-0.613 2.426-1.635 4.852 0.204 4.15s5.262-3.64 6.233-4.342c0.97-0.703 3.575-2.426 5.057-2.107s1.737 0.639 1.787 2.043c0.052 1.405 0.614 4.151 0.665 5.364s0.46 8.109 0.306 8.939c-0.153 0.831-0.204 6.322-0.204 7.599m-3.065 1.533c-0.051-1.214-0.103-8.11-0.205-9.323s-0.152-3.959-1.838-4.278c-1.265-0.239-3.525 1.532-4.394 2.362-0.868 0.831-6.243 6.546-8.377 7.79-1.533 0.894-6.235 2.477-7.611 2.874-1.329 0.383-2.858-0.317-2.044-1.66 1.277-2.107 2.167-3.371 0.511-2.618-0.562 0.255-1.328 0.447-1.89 1.021m-12.261 11.238c0.613-0.128 4.342-1.596 4.853-1.851-0.971 1.149-2.452 2.745-2.911 3.766-0.46 1.022-0.205 1.725 1.328 1.47 1.532-0.256 9.305-2.254 10.676-2.682 1.635-0.511 7.407-2.491 8.991-3.065 1.583-0.575 3.32-1.853 4.291-3.065 0.97-1.214 3.422-4.917 4.444-5.875s2.29-1.578 3.065-0.447c0.613 0.894 1.175 2.809 1.072 4.47m-49.959 21.008c1.226-0.128 2.35-0.192 3.116-0.256s1.226 0 0.306 1.022c-0.919 1.021-2.247 2.682-2.502 3.512-0.256 0.83-0.023 0.737 1.072 0.574 3.015-0.446 12.209-3.193 13.742-3.767 1.532-0.574 6.334-1.277 7.866-1.788 1.533-0.511 6.744-2.171 7.867-2.49 1.124-0.319 5.622-2.044 6.846-2.682 1.225-0.639 4.545-2.937 5.159-5.364 0.474-1.876 0.868-3.575 1.175-4.788 0.306-1.214 0.715-2.364 1.635-3.385m-56.805 30.33c1.022 0 2.82-0.163 3.882-0.766 0.562-0.319 1.34-0.873 0.459 0.447-1.787 2.682-2.962 4.406-0.919 4.087 2.044-0.319 9.247-2.235 10.473-2.618s7.355-1.788 8.94-2.108c1.583-0.319 7.764-1.915 9.399-2.49s5.772-1.532 6.998-2.17m-46.486 14.111c0.563 0 1.124-0.256 1.89-0.703 0.767-0.447 1.738-0.447 1.124 0.511-0.613 0.958-2.299 3.623-0.613 3.513 1.941-0.128 10.275-1.427 11.494-1.597 1.839-0.255 5.001-0.383 7.151-0.383m-26.767 8.939c0.255-0.766 0.868-1.787 1.174-2.49 0.307-0.703 0.92-1.724-0.255-1.341-0.829 0.27-2.401 0.575-3.525 0.894" fill="none"/>
    <g fill="#00f">
      <path d="m256.855 688.26c-0.377 0-0.652 0.324-0.652 0.766 0 0.386 0.221 0.76 0.676 0.76 0.565 0 0.634-0.516 0.634-0.755 0-0.555-0.354-0.771-0.658-0.771zm1.084 2.291c-0.005 0.132-0.01 0.348-0.182 0.549-0.117 0.127-0.367 0.324-0.814 0.324-1.074 0-1.255-1.177-1.255-1.918 0-0.431 0.059-0.917 0.309-1.251 0.182-0.235 0.51-0.367 0.838-0.367 0.584 0 1.148 0.396 1.148 1.187 0 0.72-0.47 1.088-1.025 1.088-0.495 0-0.682-0.275-0.79-0.432 0.044 0.902 0.26 1.325 0.751 1.325 0.215 0 0.51-0.108 0.515-0.505h0.505"/>
      <path d="m258.562 687.961h0.54468v0.58887h-0.54468v-0.58887z"/>
      <path d="m260.215 689.643c0 0.609 0.078 1.389 0.672 1.389 0.514 0 0.657-0.565 0.657-1.379 0-0.608-0.099-1.353-0.667-1.353-0.515 0-0.662 0.589-0.662 1.343zm-0.471-0.024c0-0.608 0.108-0.936 0.221-1.162 0.147-0.299 0.456-0.565 0.907-0.565 0.152 0 0.436 0.035 0.677 0.261 0.309 0.289 0.471 0.74 0.471 1.545 0 0.636-0.123 1.726-1.138 1.726-1.079 0-1.138-1.3-1.138-1.805"/>
      <path d="m264.226 681.636c0.009-0.342 0.309-0.48 0.564-0.48 0.593 0 0.672 0.559 0.672 0.779 0 0.462-0.25 0.731-0.643 0.731-0.196 0-0.353-0.073-0.456-0.176s-0.132-0.206-0.157-0.285h-0.446l0.088 2.021h1.908v-0.397h-1.486l-0.064-1.099c0.103 0.103 0.319 0.314 0.716 0.314 0.682 0 1.015-0.535 1.015-1.118 0-0.667-0.47-1.172-1.211-1.172-0.549 0-0.985 0.303-1.01 0.882h0.51"/>
      <path d="m266.565 680.833h0.54468v0.58801h-0.54468v-0.58801z"/>
      <path d="m268.217 682.514c0 0.609 0.078 1.389 0.672 1.389 0.515 0 0.657-0.565 0.657-1.379 0-0.607-0.099-1.353-0.667-1.353-0.515 0-0.662 0.588-0.662 1.343zm-0.47-0.024c0-0.608 0.107-0.937 0.22-1.162 0.147-0.299 0.456-0.564 0.907-0.564 0.152 0 0.437 0.034 0.677 0.26 0.309 0.289 0.471 0.74 0.471 1.545 0 0.637-0.123 1.726-1.138 1.726-1.079 0-1.137-1.3-1.137-1.805"/>
      <path d="m271.228 673.213 1.172 1.79v-1.79h-1.172zm1.157-1.133h0.47v0.736h0.496v0.397h-0.496v2.305h-0.529l-1.471-2.119v-0.583h1.53v-0.736"/>
      <path d="m273.841 672.08h0.54471v0.58795h-0.54471v-0.58795z"/>
      <path d="m275.494 673.762c0 0.608 0.078 1.389 0.672 1.389 0.514 0 0.657-0.565 0.657-1.38 0-0.607-0.099-1.353-0.667-1.353-0.515 0-0.662 0.589-0.662 1.344zm-0.471-0.024c0-0.609 0.108-0.937 0.221-1.162 0.147-0.3 0.456-0.565 0.907-0.565 0.152 0 0.436 0.034 0.677 0.26 0.309 0.29 0.47 0.74 0.47 1.545 0 0.637-0.122 1.726-1.137 1.726-1.079 0-1.138-1.299-1.138-1.804"/>
      <path d="m281.504 663.008c-0.005-0.324 0.206-0.554 0.622-0.554 0.476 0 0.677 0.304 0.677 0.603 0 0.358-0.24 0.545-0.49 0.598-0.177 0.035-0.299 0.029-0.471 0.025v0.397c0.338-0.029 0.908 0.04 0.908 0.589 0 0.383-0.261 0.534-0.599 0.534-0.255 0-0.574-0.113-0.618-0.534h-0.496c0.031 0.843 0.824 0.927 1.099 0.927 0.741 0 1.108-0.447 1.108-0.918 0-0.279-0.151-0.681-0.676-0.799 0.725-0.103 0.725-0.755 0.725-0.824 0-0.476-0.387-1-1.177-1-0.357 0-0.715 0.104-0.931 0.353-0.192 0.215-0.197 0.461-0.201 0.603h0.52"/>
      <path d="m283.922 662.135h0.54373v0.58893h-0.54373v-0.58893z"/>
      <path d="m285.574 663.817c0 0.609 0.079 1.389 0.672 1.389 0.515 0 0.657-0.565 0.657-1.379 0-0.607-0.098-1.353-0.667-1.353-0.514 0-0.662 0.588-0.662 1.343zm-0.47-0.024c0-0.608 0.108-0.937 0.22-1.162 0.147-0.299 0.456-0.565 0.908-0.565 0.151 0 0.436 0.035 0.676 0.26 0.309 0.29 0.471 0.741 0.471 1.546 0 0.636-0.123 1.725-1.138 1.725-1.079 0-1.137-1.299-1.137-1.804"/>
      <path d="m295.02 647.994 0.888 0.873c0.186 0.182 0.373 0.378 0.525 0.584 0.196 0.269 0.25 0.422 0.25 0.603 0 0.168-0.059 0.555-0.544 0.555-0.545 0-0.555-0.466-0.555-0.594h-0.514c0.005 0.166 0.019 0.49 0.313 0.746 0.235 0.201 0.52 0.244 0.736 0.244 0.52 0 1.05-0.264 1.05-0.99 0-0.216-0.015-0.382-0.383-0.849-0.098-0.122-0.53-0.568-0.628-0.667l-0.593-0.563h1.613v-0.388h-2.158v0.446"/>
      <path d="m297.885 647.548h0.54471v0.58893h-0.54471v-0.58893z"/>
      <path d="m299.538 649.23c0 0.609 0.078 1.388 0.672 1.388 0.514 0 0.656-0.564 0.656-1.378 0-0.607-0.098-1.353-0.667-1.353-0.514 0-0.661 0.588-0.661 1.343zm-0.471-0.024c0-0.608 0.108-0.937 0.221-1.162 0.147-0.299 0.455-0.565 0.907-0.565 0.152 0 0.436 0.035 0.676 0.26 0.31 0.29 0.471 0.741 0.471 1.545 0 0.637-0.122 1.726-1.138 1.726-1.078 0-1.137-1.298-1.137-1.804"/>
      <path d="m308.867 638.692c-0.211-0.176-0.549-0.377-0.789-0.49v0.49c0.318 0.167 0.632 0.373 0.823 0.534h0.437v-3.393h-0.471v2.859"/>
      <path d="m310.173 635.833h0.54376v0.58887h-0.54376v-0.58887z"/>
      <path d="m311.923 636.637c0.009-0.342 0.308-0.48 0.563-0.48 0.594 0 0.672 0.558 0.672 0.779 0 0.461-0.25 0.731-0.642 0.731-0.196 0-0.353-0.073-0.457-0.177-0.102-0.102-0.132-0.206-0.156-0.284h-0.447l0.089 2.02h1.908v-0.397h-1.487l-0.063-1.099c0.103 0.104 0.318 0.315 0.715 0.315 0.682 0 1.016-0.535 1.016-1.118 0-0.667-0.471-1.172-1.211-1.172-0.55 0-0.986 0.303-1.011 0.882h0.511"/>
      <path d="m323.523 620.223c-0.212-0.177-0.55-0.378-0.79-0.49v0.49c0.319 0.167 0.633 0.373 0.824 0.535h0.436v-3.394h-0.47v2.859"/>
      <path d="m324.827 617.365h0.54471v0.58789h-0.54471v-0.58789z"/>
      <path d="m326.48 619.047c0 0.608 0.078 1.388 0.672 1.388 0.514 0 0.656-0.564 0.656-1.378 0-0.608-0.098-1.354-0.667-1.354-0.514 0-0.661 0.589-0.661 1.344zm-0.471-0.024c0-0.609 0.107-0.937 0.221-1.162 0.147-0.299 0.455-0.565 0.907-0.565 0.152 0 0.436 0.035 0.677 0.26 0.309 0.29 0.47 0.74 0.47 1.545 0 0.637-0.123 1.727-1.137 1.727-1.079 0-1.138-1.3-1.138-1.805"/>
      <path d="m328.685 609.907c0 0.609 0.079 1.389 0.673 1.389 0.514 0 0.656-0.564 0.656-1.379 0-0.607-0.098-1.352-0.667-1.352-0.514 0-0.662 0.587-0.662 1.342zm-0.47-0.024c0-0.608 0.107-0.937 0.221-1.162 0.146-0.299 0.455-0.564 0.907-0.564 0.152 0 0.436 0.034 0.677 0.26 0.308 0.29 0.47 0.74 0.47 1.545 0 0.637-0.123 1.726-1.137 1.726-1.079 0-1.138-1.3-1.138-1.805"/>
      <path d="m331.122 608.226h0.54465v0.58801h-0.54465v-0.58801z"/>
      <path d="m334.094 610.781c0-0.334-0.279-0.549-0.652-0.549-0.353 0-0.627 0.22-0.627 0.549 0 0.338 0.279 0.554 0.641 0.554 0.408 0 0.638-0.245 0.638-0.554zm-1.074-0.765c-0.152-0.05-0.328-0.099-0.49-0.26-0.172-0.162-0.26-0.397-0.26-0.623 0-0.26 0.117-0.516 0.299-0.681 0.246-0.226 0.588-0.285 0.879-0.285 0.843 0 1.166 0.529 1.166 0.995 0 0.657-0.539 0.804-0.74 0.859 0.476 0.088 0.691 0.435 0.691 0.769 0 0.521-0.412 0.908-1.129 0.908-0.891 0-1.097-0.623-1.097-0.927 0-0.339 0.23-0.657 0.681-0.755zm-0.255-0.839c0 0.359 0.274 0.638 0.691 0.638 0.388 0 0.668-0.246 0.668-0.623 0-0.256-0.133-0.638-0.676-0.638-0.505 0-0.683 0.358-0.683 0.623"/>
      <path d="m338.493 597.557c0 0.609 0.079 1.389 0.673 1.389 0.514 0 0.656-0.565 0.656-1.379 0-0.607-0.099-1.353-0.667-1.353-0.514 0-0.662 0.589-0.662 1.343zm-0.47-0.024c0-0.609 0.107-0.936 0.221-1.162 0.146-0.299 0.455-0.565 0.907-0.565 0.152 0 0.435 0.035 0.676 0.26 0.309 0.29 0.471 0.741 0.471 1.545 0 0.638-0.123 1.727-1.137 1.727-1.079 0-1.138-1.3-1.138-1.805"/>
      <path d="m340.93 595.875h0.54373v0.58887h-0.54373v-0.58887z"/>
      <path d="m343.893 598.465c-0.005 0.397-0.299 0.505-0.516 0.505-0.49 0-0.706-0.422-0.75-1.324 0.109 0.157 0.294 0.431 0.79 0.431 0.554 0 1.024-0.367 1.024-1.088 0-0.79-0.563-1.187-1.146-1.187-0.33 0-0.658 0.132-0.838 0.368-0.251 0.334-0.31 0.819-0.31 1.251 0 0.74 0.181 1.917 1.255 1.917 0.447 0 0.696-0.197 0.814-0.325 0.172-0.201 0.177-0.415 0.181-0.548h-0.504zm0.078-1.521c0 0.241-0.069 0.755-0.632 0.755-0.456 0-0.676-0.372-0.676-0.759 0-0.442 0.273-0.766 0.651-0.766 0.304 0 0.657 0.217 0.657 0.77"/>
      <path d="m345.35 586.398c0 0.608 0.079 1.388 0.673 1.388 0.513 0 0.656-0.564 0.656-1.378 0-0.608-0.099-1.353-0.668-1.353-0.513 0-0.661 0.588-0.661 1.343zm-0.471-0.024c0-0.609 0.108-0.937 0.221-1.162 0.147-0.299 0.456-0.565 0.907-0.565 0.152 0 0.436 0.035 0.677 0.26 0.309 0.29 0.471 0.74 0.471 1.545 0 0.637-0.123 1.726-1.138 1.726-1.079 0-1.138-1.299-1.138-1.804"/>
      <path d="m347.787 584.716h0.54373v0.58795h-0.54373v-0.58795z"/>
      <path d="m349.263 585.849 1.172 1.79v-1.79h-1.172zm1.157-1.133h0.47v0.735h0.496v0.398h-0.496v2.305h-0.528l-1.471-2.119v-0.584h1.529v-0.735"/>
      <path d="m350.071 576.193c0 0.609 0.079 1.388 0.673 1.388 0.514 0 0.656-0.564 0.656-1.378 0-0.608-0.098-1.353-0.667-1.353-0.514 0-0.662 0.588-0.662 1.343zm-0.47-0.024c0-0.609 0.107-0.936 0.221-1.162 0.146-0.299 0.455-0.565 0.907-0.565 0.152 0 0.436 0.035 0.677 0.26 0.308 0.29 0.47 0.741 0.47 1.545 0 0.638-0.123 1.727-1.137 1.727-1.079 0-1.138-1.3-1.138-1.805"/>
      <path d="m352.509 574.511h0.54471v0.58887h-0.54471v-0.58887z"/>
      <path d="m353.735 574.958 0.888 0.872c0.186 0.182 0.373 0.378 0.525 0.584 0.196 0.269 0.25 0.422 0.25 0.603 0 0.167-0.059 0.554-0.544 0.554-0.544 0-0.555-0.465-0.555-0.593h-0.514c0.005 0.166 0.019 0.49 0.313 0.746 0.236 0.2 0.52 0.244 0.736 0.244 0.52 0 1.049-0.264 1.049-0.99 0-0.216-0.014-0.382-0.382-0.849-0.098-0.122-0.53-0.569-0.628-0.667l-0.593-0.563h1.613v-0.388h-2.158v0.447"/>
      <path d="m353.931 565.681c0 0.609 0.079 1.389 0.673 1.389 0.514 0 0.657-0.565 0.657-1.379 0-0.607-0.099-1.353-0.668-1.353-0.514 0-0.662 0.589-0.662 1.343zm-0.47-0.023c0-0.609 0.108-0.937 0.22-1.163 0.147-0.299 0.456-0.565 0.908-0.565 0.152 0 0.436 0.035 0.677 0.261 0.308 0.289 0.47 0.74 0.47 1.545 0 0.637-0.123 1.726-1.137 1.726-1.079 0-1.138-1.3-1.138-1.804"/>
      <path d="m356.369 564h0.54471v0.58795h-0.54471v-0.58795z"/>
      <path d="m358.664 566.859c-0.211-0.177-0.549-0.378-0.79-0.491v0.491c0.32 0.167 0.634 0.372 0.825 0.534h0.435v-3.393h-0.47v2.859"/>
    </g>
    <g fill="#fff">
      <path d="m289.489 543.098v3.124h-1.186v0.417h2.859v-0.417h-1.187v-3.124h-0.486"/>
      <path d="m291.927 544.57c0.009 0.544 0.372 0.725 0.671 0.725 0.569 0 0.613-0.49 0.608-0.725h-1.279zm1.75-0.324c0.01 0.402 0.035 1.378-1.069 1.378-0.142 0-0.436-0.015-0.672-0.181-0.387-0.27-0.485-0.672-0.485-1.158 0-0.779 0.367-1.26 1.142-1.26 0.496 0 0.74 0.206 0.849 0.329 0.176 0.192 0.195 0.392 0.211 0.514h-0.462c-0.038-0.353-0.279-0.51-0.578-0.51-0.505 0-0.716 0.378-0.707 0.888h1.771"/>
      <path d="m294.348 545.232-0.009 0.327h0.465v-0.357c0.235 0.387 0.569 0.421 0.78 0.421 0.545 0 0.716-0.279 0.804-0.461 0.083 0.138 0.285 0.461 0.829 0.461 0.353 0 0.902-0.146 0.902-0.872v-1.653h-0.465v1.58c0 0.215-0.04 0.309-0.084 0.372-0.078 0.112-0.235 0.216-0.47 0.216-0.299 0-0.461-0.171-0.525-0.26-0.108-0.152-0.108-0.422-0.108-0.529v-1.379h-0.466v1.629c0 0.304-0.177 0.539-0.539 0.539-0.314 0-0.486-0.196-0.54-0.27-0.103-0.142-0.108-0.343-0.108-0.5v-1.398h-0.466v2.134"/>
      <path d="m299.41 544.256c0 0.221 0 1.001 0.736 1.001 0.544 0 0.676-0.461 0.676-0.903 0-0.176-0.024-0.53-0.2-0.77-0.157-0.216-0.403-0.241-0.521-0.241-0.647 0-0.691 0.614-0.691 0.913zm-0.441-2.104h0.456v1.222c0.132-0.217 0.397-0.368 0.755-0.368 0.588 0 1.123 0.402 1.123 1.319 0 0.912-0.505 1.274-1.035 1.274-0.2 0-0.608-0.058-0.838-0.446l-0.011 0.407h-0.465c0.01-0.235 0.015-0.294 0.015-0.401v-3.007"/>
      <path d="m302.279 544.57c0.009 0.544 0.373 0.725 0.672 0.725 0.568 0 0.612-0.49 0.607-0.725h-1.279zm1.751-0.324c0.009 0.402 0.034 1.378-1.07 1.378-0.142 0-0.436-0.015-0.672-0.181-0.387-0.27-0.485-0.672-0.485-1.158 0-0.779 0.368-1.26 1.142-1.26 0.496 0 0.741 0.206 0.849 0.329 0.176 0.192 0.196 0.392 0.21 0.514h-0.461c-0.038-0.353-0.279-0.51-0.578-0.51-0.505 0-0.716 0.378-0.706 0.888h1.771"/>
      <path d="m304.73 545.06c0 0.167-0.009 0.338-0.024 0.5h0.465l0.011-0.476c0.087 0.344 0.381 0.457 0.588 0.486 0.137 0.02 0.24 0.015 0.318 0.009v-0.45c-0.024 0.009-0.053 0.014-0.088 0.019-0.034 0.005-0.078 0.005-0.133 0.005-0.543 0-0.671-0.323-0.671-0.745v-1.309h-0.466v1.961"/>
      <path d="m308.114 543.098c-0.035 0.122-0.044 0.24-0.044 0.368-0.221-0.408-0.554-0.446-0.76-0.446-0.565 0-0.869 0.318-0.869 0.725 0 0.196 0.069 0.51 0.432 0.721 0.265 0.148 0.658 0.162 0.853 0.162 0.118 0 0.191-0.005 0.334-0.014 0 0.303 0 0.436-0.088 0.544-0.093 0.122-0.295 0.161-0.427 0.161-0.466 0-0.49-0.318-0.495-0.417h-0.461c0.014 0.128 0.029 0.3 0.171 0.466 0.187 0.206 0.535 0.265 0.795 0.265 0.358 0 0.741-0.113 0.873-0.363 0.078-0.147 0.083-0.264 0.083-0.377l-0.02-1.178c0-0.038 0.005-0.367 0.04-0.617h-0.417zm-0.319 1.211c-0.186 0-0.887 0-0.887-0.5 0-0.157 0.098-0.426 0.51-0.426 0.235 0 0.412 0.092 0.524 0.264 0.103 0.167 0.108 0.304 0.118 0.648-0.083 0.009-0.152 0.014-0.265 0.014"/>
      <path d="m308.963 545.57h0.437v0.516l0.455 0.146v-0.662h0.549v-0.338h-0.549v-1.477c0-0.122 0-0.328 0.329-0.328 0.093 0 0.182 0.015 0.22 0.024v-0.357c-0.083-0.015-0.215-0.029-0.382-0.029-0.422 0-0.622 0.122-0.622 0.524v1.643h-0.437v0.338"/>
      <path d="m311.395 545.559v-1.583c0-0.241 0.055-0.545 0.525-0.545 0.229 0 0.446 0.079 0.579 0.275 0.103 0.147 0.103 0.338 0.103 0.461v1.392h0.475v-2c0-0.049 0.01-0.324 0.015-0.461h-0.481l-0.009 0.422c-0.089-0.172-0.255-0.446-0.785-0.446-0.608 0-0.893 0.348-0.893 0.833v1.652h0.471"/>
      <path d="m313.994 545.06c0 0.167-0.009 0.338-0.024 0.5h0.465l0.011-0.476c0.088 0.344 0.381 0.457 0.587 0.486 0.138 0.02 0.241 0.015 0.319 0.009v-0.45c-0.024 0.009-0.053 0.014-0.088 0.019-0.034 0.005-0.078 0.005-0.132 0.005-0.544 0-0.672-0.323-0.672-0.745v-1.309h-0.466v1.961"/>
      <path d="m316.157 544.246c-0.009-0.511 0.201-0.888 0.706-0.888 0.3 0 0.54 0.157 0.579 0.51h0.46c-0.014-0.122-0.034-0.323-0.21-0.515-0.109-0.122-0.353-0.328-0.848-0.328-0.775 0-1.143 0.481-1.143 1.26 0 0.486 0.098 0.888 0.485 1.158 0.236 0.166 0.53 0.18 0.672 0.18 1.103 0 1.079-0.975 1.069-1.377h-1.77zm1.299 0.324c0.006 0.235-0.039 0.725-0.608 0.725-0.299 0-0.662-0.182-0.671-0.725h1.279"/>
      <path d="m324.066 543.098h0.46097v3.5363h-0.46097v-3.5363z"/>
      <path d="m325.719 544.329c0 0.771 0.476 0.957 0.77 0.957 0.431 0 0.716-0.324 0.716-0.937 0-0.741-0.398-0.991-0.746-0.991-0.525 0-0.74 0.466-0.74 0.971zm-0.481-0.029c0-0.721 0.397-1.285 1.212-1.285 0.838 0 1.246 0.598 1.246 1.319 0 0.515-0.222 1.289-1.207 1.289-0.966 0-1.251-0.715-1.251-1.323"/>
      <path d="m329.392 543.486c-0.563 0-0.676 0.5-0.676 0.878 0 0.314 0.079 0.902 0.662 0.902 0.211 0 0.407-0.084 0.53-0.216 0.122-0.127 0.191-0.304 0.191-0.613 0-0.447-0.069-0.578-0.168-0.706-0.112-0.147-0.269-0.245-0.539-0.245zm-1.024-0.579c0.019-0.334 0.048-0.794 1.034-0.794 0.339 0 0.82 0.048 1.026 0.441 0.097 0.186 0.116 0.427 0.116 1.019l0.005 1.541 0.01 0.445h-0.446l-0.004-0.337c-0.099 0.127-0.28 0.372-0.775 0.372-0.604 0-1.093-0.407-1.093-1.241 0-0.328 0.068-0.656 0.279-0.906 0.206-0.255 0.529-0.304 0.754-0.304 0.148 0 0.614 0.009 0.81 0.416 0-0.667-0.01-1.133-0.652-1.133-0.437 0-0.555 0.206-0.574 0.481h-0.49"/>
      <path d="m333.287 542.494c-0.265 0.653-0.584 1.467-0.584 2.183 0 0.387 0.088 0.77 0.2 1.143 0.138 0.441 0.266 0.755 0.349 0.966h0.324c-0.079-0.24-0.186-0.574-0.289-1.04-0.104-0.451-0.137-0.755-0.137-1.059 0-0.697 0.171-1.261 0.455-2.193h-0.318"/>
      <path d="m334.307 543.183c0.162 0.012 0.275 0.036 0.341 0.07 0.109 0.058 0.186 0.17 0.231 0.333l0.801 2.884c-0.419 0-0.695-0.032-0.828-0.094-0.136-0.063-0.292-0.253-0.471-0.57l-0.098 0.017 0.231 0.834h2.894l-0.238-0.885-0.098 0.017 0.013 0.187c0 0.166-0.038 0.289-0.114 0.371-0.075 0.082-0.225 0.123-0.449 0.123h-0.304l-0.755-2.719c-0.018-0.058-0.031-0.111-0.04-0.157-0.016-0.07-0.024-0.124-0.024-0.165 0-0.107 0.033-0.174 0.099-0.199 0.065-0.026 0.194-0.041 0.386-0.047v-0.085h-1.577v0.085"/>
      <path d="m337.878 543.32c0.16 0 0.276-0.062 0.343-0.186 0.039-0.07 0.064-0.174 0.08-0.316h-0.885c0.02 0.115 0.052 0.211 0.097 0.288 0.084 0.142 0.205 0.214 0.365 0.214zm0.12 0.145c-0.268 0-0.486-0.104-0.654-0.311-0.168-0.206-0.251-0.451-0.251-0.736 0-0.262 0.072-0.494 0.217-0.694 0.143-0.202 0.348-0.302 0.613-0.302 0.23 0 0.424 0.076 0.583 0.229 0.158 0.153 0.266 0.32 0.323 0.501l-0.074 0.025c-0.086-0.144-0.179-0.254-0.281-0.332-0.1-0.078-0.224-0.117-0.371-0.117-0.183 0-0.341 0.076-0.474 0.226-0.134 0.15-0.207 0.389-0.221 0.719h1.336c0 0.253-0.074 0.449-0.223 0.586-0.15 0.136-0.324 0.206-0.523 0.206"/>
      <path d="m339.028 541.524c0.149 0.007 0.247 0.034 0.295 0.082 0.047 0.047 0.071 0.148 0.071 0.301v1.371h-0.358v0.144h0.358c0 0.224 0.03 0.413 0.091 0.569 0.117 0.296 0.331 0.445 0.643 0.445 0.125 0 0.237-0.026 0.336-0.076 0.097-0.05 0.147-0.117 0.147-0.202 0-0.047-0.017-0.089-0.051-0.127-0.032-0.037-0.074-0.055-0.122-0.055-0.041 0-0.076 0.013-0.106 0.038-0.029 0.026-0.065 0.071-0.105 0.135l-0.036 0.057c-0.019 0.031-0.044 0.057-0.07 0.078-0.026 0.022-0.064 0.032-0.112 0.032-0.107 0-0.179-0.053-0.217-0.161-0.022-0.057-0.032-0.132-0.032-0.225v-0.508h0.532v-0.144h-0.532v-1.371c0-0.156 0.022-0.256 0.066-0.299 0.044-0.044 0.158-0.072 0.343-0.084v-0.06h-1.141v0.06"/>
      <path d="m340.48 541.524c0.149 0.007 0.247 0.034 0.295 0.082 0.047 0.047 0.071 0.148 0.071 0.301v1.371h-0.358v0.144h0.358c0 0.224 0.03 0.413 0.091 0.569 0.118 0.296 0.331 0.445 0.643 0.445 0.125 0 0.237-0.026 0.336-0.076 0.097-0.05 0.147-0.117 0.147-0.202 0-0.047-0.017-0.089-0.051-0.127-0.032-0.037-0.074-0.055-0.122-0.055-0.04 0-0.076 0.013-0.106 0.038-0.029 0.026-0.065 0.071-0.105 0.135l-0.036 0.057c-0.019 0.031-0.043 0.057-0.07 0.078-0.026 0.022-0.064 0.032-0.111 0.032-0.108 0-0.18-0.053-0.218-0.161-0.022-0.057-0.032-0.132-0.032-0.225v-0.508h0.532v-0.144h-0.532v-1.371c0-0.156 0.022-0.256 0.066-0.299 0.044-0.044 0.158-0.072 0.343-0.084v-0.06h-1.141v0.06"/>
      <path d="m342.973 546.786c0.264-0.652 0.583-1.462 0.583-2.177 0-0.388-0.088-0.77-0.201-1.143-0.137-0.441-0.264-0.76-0.348-0.972h-0.324c0.079 0.246 0.187 0.58 0.29 1.046 0.103 0.445 0.137 0.755 0.137 1.059 0 0.691-0.172 1.255-0.456 2.187h0.319"/>
      <path d="m351.673 542.494c-0.266 0.653-0.584 1.467-0.584 2.183 0 0.387 0.087 0.77 0.201 1.143 0.137 0.441 0.264 0.755 0.348 0.966h0.324c-0.078-0.24-0.186-0.574-0.289-1.04-0.104-0.451-0.137-0.755-0.137-1.059 0-0.697 0.171-1.261 0.455-2.193h-0.318"/>
      <path d="m352.82 546.639h0.485v-1.55l1.476 1.55h0.673l-1.584-1.584 1.755-1.957h-0.687l-1.633 1.879v-1.879h-0.485v3.541"/>
      <path d="m356.327 546.786c0.264-0.652 0.583-1.462 0.583-2.177 0-0.388-0.088-0.77-0.201-1.143-0.137-0.441-0.265-0.76-0.349-0.972h-0.323c0.078 0.246 0.186 0.58 0.29 1.046 0.102 0.445 0.136 0.755 0.136 1.059 0 0.691-0.171 1.255-0.455 2.187h0.319"/>
    </g>
    <g fill="#fff">
      <path d="m231.476 606.046v0.485h3.104v1.649h0.437v-2.134h-3.541"/>
      <path d="m232.555 609.171h1.584c0.24 0 0.544 0.054 0.544 0.524 0 0.23-0.078 0.447-0.275 0.579-0.147 0.103-0.337 0.103-0.46 0.103h-1.393v0.476h2.001c0.049 0 0.324 0.009 0.461 0.014v-0.481l-0.422-0.009c0.172-0.088 0.446-0.256 0.446-0.785 0-0.608-0.348-0.892-0.833-0.892h-1.653v0.471"/>
      <path d="m232.883 611.74-0.328-0.009v0.465h0.357c-0.387 0.235-0.421 0.569-0.421 0.78 0 0.544 0.279 0.716 0.461 0.805-0.138 0.082-0.461 0.284-0.461 0.828 0 0.353 0.146 0.902 0.873 0.902h1.653v-0.465h-1.58c-0.215 0-0.308-0.04-0.372-0.084-0.113-0.078-0.216-0.236-0.216-0.47 0-0.299 0.171-0.461 0.26-0.525 0.151-0.108 0.421-0.108 0.529-0.108h1.379v-0.466h-1.629c-0.304 0-0.539-0.177-0.539-0.54 0-0.313 0.196-0.485 0.269-0.539 0.142-0.104 0.344-0.108 0.501-0.108h1.398v-0.466h-2.134"/>
      <path d="m231.99 616.33h-0.50519v0.55505h0.50519v-0.55505zm-0.505 0zm1.07 0.05v0.46h2.462v-0.46h-2.462"/>
      <path d="m232.839 617.752-0.284-0.005v0.46l0.397 0.006c-0.103 0.054-0.446 0.23-0.446 0.789 0 0.22 0.083 0.893 0.838 0.893h1.673v-0.47h-1.565c-0.161 0-0.308-0.021-0.421-0.134-0.113-0.117-0.168-0.279-0.168-0.436 0-0.333 0.241-0.642 0.736-0.642h1.418v-0.461h-2.178"/>
      <path d="m233.785 621.033c-0.77 0-0.956 0.475-0.956 0.769 0 0.432 0.324 0.716 0.937 0.716 0.741 0 0.991-0.397 0.991-0.746 0-0.525-0.467-0.739-0.972-0.739zm0.03-0.481c0.721 0 1.284 0.396 1.284 1.211 0 0.839-0.598 1.246-1.319 1.246-0.514 0-1.289-0.221-1.289-1.207 0-0.966 0.715-1.25 1.324-1.25"/>
      <path d="m234.286 623.995c0.186-0.005 0.446 0.093 0.446 0.539 0 0.191-0.034 0.334-0.156 0.432-0.064 0.049-0.148 0.078-0.231 0.078-0.241 0-0.285-0.171-0.368-0.539-0.117-0.515-0.221-0.946-0.735-0.946-0.452 0-0.746 0.392-0.746 0.96 0 0.309 0.088 0.741 0.383 0.888 0.137 0.064 0.255 0.064 0.357 0.064v-0.47c-0.372 0.014-0.402-0.31-0.402-0.476 0-0.069 0-0.501 0.353-0.501 0.226 0 0.28 0.22 0.314 0.349 0.162 0.681 0.202 0.828 0.339 0.976 0.127 0.137 0.299 0.185 0.455 0.185 0.276 0 0.511-0.151 0.623-0.333 0.133-0.215 0.168-0.476 0.168-0.731 0-0.499-0.206-0.965-0.8-0.96v0.485"/>
      <path d="m231.99 626.138h-0.50519v0.55414h0.50519v-0.55414zm-0.505 0zm1.07 0.049v0.461h2.462v-0.461h-2.462"/>
      <path d="m232.545 627.168v0.436h-0.516l-0.146 0.456h0.662v0.549h0.338v-0.549h1.476c0.123 0 0.328 0 0.328 0.329 0 0.092-0.014 0.181-0.024 0.22h0.358c0.015-0.083 0.029-0.215 0.029-0.383 0-0.421-0.122-0.622-0.525-0.622h-1.642v-0.436h-0.338"/>
      <path d="m235.031 630.286 0.917-0.354v-0.475l-0.941 0.373-2.452-1.026v0.521l1.942 0.77-1.942 0.785v0.499l2.476-1.093"/>
      <path d="m231.48 636.004h3.5362v0.46094h-3.5362v-0.46094z"/>
      <path d="m233.785 637.657c-0.77 0-0.956 0.475-0.956 0.77 0 0.431 0.324 0.715 0.937 0.715 0.741 0 0.991-0.397 0.991-0.745 0-0.525-0.467-0.74-0.972-0.74zm0.03-0.481c0.721 0 1.284 0.397 1.284 1.211 0 0.839-0.598 1.246-1.319 1.246-0.514 0-1.289-0.221-1.289-1.206 0-0.967 0.715-1.251 1.324-1.251"/>
      <path d="m234.629 641.33c0-0.564-0.5-0.676-0.878-0.676-0.314 0-0.902 0.078-0.902 0.662 0 0.211 0.083 0.406 0.216 0.53 0.128 0.122 0.303 0.19 0.613 0.19 0.446 0 0.578-0.068 0.705-0.166 0.148-0.113 0.246-0.27 0.246-0.54zm0.579-1.024c0.333 0.019 0.794 0.048 0.794 1.034 0 0.338-0.048 0.819-0.442 1.025-0.186 0.098-0.426 0.117-1.019 0.117l-1.54 0.005-0.446 0.01v-0.446l0.338-0.005c-0.128-0.098-0.373-0.279-0.373-0.774 0-0.604 0.407-1.093 1.241-1.093 0.328 0 0.657 0.067 0.908 0.278 0.254 0.206 0.303 0.53 0.303 0.755 0 0.147-0.01 0.614-0.416 0.809 0.667 0 1.132-0.009 1.132-0.652 0-0.436-0.206-0.554-0.48-0.573v-0.49"/>
      <path d="m235.62 645.224c-0.652-0.264-1.467-0.583-2.182-0.583-0.388 0-0.77 0.088-1.143 0.201-0.442 0.137-0.755 0.264-0.966 0.348v0.324c0.24-0.079 0.574-0.186 1.04-0.29 0.45-0.102 0.754-0.137 1.059-0.137 0.696 0 1.26 0.172 2.192 0.456v-0.319"/>
      <path d="m234.931 646.545c-0.01 0.128-0.034 0.216-0.07 0.264-0.052 0.075-0.164 0.136-0.335 0.184l-2.415 0.669c-0.098 0.024-0.167 0.041-0.207 0.05s-0.079 0.014-0.119 0.014c-0.088 0-0.15-0.031-0.185-0.093-0.034-0.061-0.054-0.171-0.058-0.331h-0.084v1.488h0.084c0.014-0.146 0.038-0.252 0.074-0.315 0.06-0.109 0.173-0.186 0.338-0.23l2.408-0.675 0.208-0.051c0.011-0.002 0.022-0.003 0.035-0.004s0.023-0.001 0.032-0.001c0.046 0 0.08 0.014 0.107 0.042 0.026 0.028 0.045 0.073 0.057 0.134 0.01 0.049 0.016 0.117 0.02 0.205 0.006 0.052 0.008 0.138 0.008 0.259 0 0.371-0.049 0.653-0.148 0.847s-0.321 0.372-0.667 0.533l0.032 0.098 0.971-0.315v-2.772h-0.086"/>
      <path d="m235.082 652.263-0.104-0.914 0.753 0.395 0.217-0.401-0.86-0.182 0.85-0.573-0.202-0.328-0.758 0.739 0.077-0.921-0.398 0.085 0.12 0.895-0.763-0.393-0.196 0.401 0.844 0.186-0.849 0.556 0.201 0.322 0.763-0.734-0.103 0.954 0.408-0.087"/>
      <path d="m231.441 654.207v0.266l3.669-1.371v-0.267l-3.669 1.372"/>
      <path d="m234.931 654.332c-0.01 0.128-0.034 0.215-0.07 0.263-0.052 0.075-0.164 0.137-0.335 0.184l-2.415 0.669c-0.098 0.025-0.167 0.042-0.207 0.051s-0.079 0.013-0.119 0.013c-0.088 0-0.15-0.03-0.185-0.092-0.034-0.061-0.054-0.171-0.058-0.331h-0.084v1.489h0.084c0.014-0.147 0.038-0.253 0.074-0.316 0.06-0.11 0.173-0.186 0.338-0.23l2.408-0.675 0.208-0.051c0.011-0.001 0.022-0.003 0.035-0.004s0.023-0.001 0.032-0.001c0.046 0 0.08 0.014 0.107 0.042 0.026 0.028 0.045 0.073 0.057 0.134 0.01 0.049 0.016 0.118 0.02 0.205 0.006 0.051 0.008 0.137 0.008 0.259 0 0.371-0.049 0.654-0.148 0.847s-0.321 0.371-0.667 0.533l0.032 0.098 0.971-0.315v-2.772h-0.086"/>
      <path d="m230.919 660.906c0.725 0.295 1.624 0.649 2.42 0.649 0.43 0 0.855-0.098 1.269-0.224 0.491-0.152 0.844-0.293 1.079-0.385v-0.361c-0.272 0.088-0.643 0.207-1.161 0.321-0.496 0.115-0.838 0.153-1.177 0.153-0.768 0-1.394-0.191-2.43-0.507v0.354"/>
      <path d="m235.14 657.687c0.639 0 1.156 0.518 1.156 1.156 0 0.639-0.517 1.156-1.156 1.156-0.638 0-1.155-0.517-1.155-1.156 0-0.638 0.517-1.156 1.155-1.156z" stroke="#fff" stroke-width=".13600001" fill="none"/>
      <path d="m235.129 658.536c0.159 0 0.289 0.13 0.289 0.289 0 0.16-0.13 0.289-0.289 0.289-0.16 0-0.29-0.129-0.29-0.289 0-0.159 0.13-0.289 0.29-0.289"/>
    </g>
  </g>
</svg>
