<?xml version="1.0"?>
<svg xmlns="http://www.w3.org/2000/svg" viewBox="0 0 2100 2100">
	<style>
		.circle {
			fill: #a00;
		}
		.ellipse {
			fill: #5aa02c;
		}
		.parabola {
			fill: #3771c8;
		}
		.hyperbola {
			fill: #d50;
		}
		
		.far {
			stroke-dasharray: 26.5,26.5;
		}
		
		.line {
			stroke: #fff;
			stroke-dasharray: 25,12.5,6.25,12.5;
			stroke-width: 6.25;
		}
		.thin-line {
			stroke: #fff;
			stroke-dasharray: 21.54,10.77,5.39,10.77;
			stroke-width: 5.4;
		}
	</style>
	
	<title>Conic Sections</title>
	
	<g fill="none" stroke="#fff" stroke-width="7">
		<g stroke-width="2.86" transform="scale(6.272, 3.047)">
			<path d="m24.5,564 a100,100 0 1 0 200,-1.5"/>
			<path d="m24.5,565 a100,100 0 1 1 200,1.5" stroke-dasharray="8.6,8.6"/>
		</g>
		
		<path class="circle far" d="m648,482 a131,63 0 0 1 262,0"/>
		<path class="ellipse far" d="m468.635,927.172 c36.412,-97.05 178.84,-224.108 317.922,-283.61 96.456,-41.266 165.62,-41.683 187.9,-1.133"/>
		<path class="parabola far" d="m610.572,1429.592 c58.105,-130.625 381.37,-707.6 430.78,-622.015 71.44,123.738 -147.338,681.722 -323.5,1209.738"/>
		
		<path stroke-width="12.5" d="m155.7,1687.57 624.9,-1531 624.9,1531"/>
		
		<path class="thin-line" d="m724.84,2068.59 -126.37,-731.88"/>
		<path class="line" d="m31,1719 h1500"/>

		<g class="hyperbola">
			<path class="far" d="m1174.59,1950.22 s92.62,-583.43 40.79,-724.74 c-27.62,-75.29 -138.05,229.03 -138.05,229.03"/>
			<path d="m1174.45,1952.08 s92.62,-583.43 40.79,-724.74"/>
		</g>
		<path class="line" d="m1122.855,1713.63 106.67,-614.93 M675.14,1712.75 l398.78,-967.68 M780.6,1719 V32"/>
		<path class="parabola" stroke="none" d="m685,1700 357.66,-894.393 c71.44,123.738 -147.338,681.722 -323.5,1209.738"/>

		<path class="circle" d="m652,476 a128,63 0 0 0 256,0"/>
		<path class="ellipse" d="m973.55,635.67 c29.49,59.93 -59.98,188.11 -199.7,286.11 s-277.05,128.89 -306.536,68.96 c-8.8,-17.89 -7.82,-39.04 3.18,-68.22"/>
		<path class="parabola" d="m1042.66,805.607 c71.44,123.738 -147.338,681.722 -323.5,1209.738"/>

		<path class="line" d="m675.14,1712.75 398.78,-967.68"/>
	</g>
	
	<g font-family="sans-serif" font-size="150">
		<switch fill="#ff8080" transform="translate(960.1 456.77)">
			<text systemLanguage="bn">বৃত্ত</text>
			<text systemLanguage="cy">Cylch</text>
			<text systemLanguage="de">Kreis</text>
			<text systemLanguage="en">circle</text>
			<text systemLanguage="es">círculo</text>
			<text systemLanguage="fa">دایره</text>
			<text systemLanguage="fi">ympyrä</text>
			<text systemLanguage="fr">cercle</text>
			<text systemLanguage="he">מעגל</text>
			<text systemLanguage="hi">वृत्त</text>
			<text systemLanguage="ja">円</text>
			<text systemLanguage="mk">кружница</text>
			<text systemLanguage="no">sirkel</text>
			<text systemLanguage="pt">circunferência</text>
			<text systemLanguage="ru">окружность</text>
			<text systemLanguage="sr-ec">круг</text>
			<text systemLanguage="sr-el">krug</text>
			<text systemLanguage="sv">cirkel</text>
			<text systemLanguage="tr">Çember</text>
			<text systemLanguage="uk">коло</text>
			<text>circle</text>
		</switch>
		
		<switch fill="#b3ff80" transform="translate(1080.1 708.77)">
			<text systemLanguage="bn">উপবৃত্ত</text>
			<text systemLanguage="cy">Elips</text>
			<text systemLanguage="de">Ellipse</text>
			<text systemLanguage="en">ellipse</text>
			<text systemLanguage="es">elipse</text>
			<text systemLanguage="fa">بیضی</text>
			<text systemLanguage="fi">Ellipsi</text>
			<text systemLanguage="fr">ellipse</text>
			<text systemLanguage="he">אליפסה</text>
			<text systemLanguage="hi">दीर्घवृत्त</text>
			<text systemLanguage="ja">楕円</text>
			<text systemLanguage="mk">елипса</text>
			<text systemLanguage="no">ellipse</text>
			<text systemLanguage="pt">elipse</text>
			<text systemLanguage="ru">эллипс</text>
			<text systemLanguage="sr-ec">елипса</text>
			<text systemLanguage="sr-el">elipsa</text>
			<text systemLanguage="sv">ellips</text>
			<text systemLanguage="tr">Elips</text>
			<text systemLanguage="uk">еліпс</text>
			<text>ellipse</text>
		</switch>
		
		<switch fill="#aaf" transform="translate(1159.1 960.77)">
			<text systemLanguage="bn">পরাবৃত্ত</text>
			<text systemLanguage="cy">Parabola</text>
			<text systemLanguage="de">Parabel</text>
			<text systemLanguage="en">parabola</text>
			<text systemLanguage="es">parábola</text>
			<text systemLanguage="fa">سهمی</text>
			<text systemLanguage="fi">Paraabeli</text>
			<text systemLanguage="fr">parabole</text>
			<text systemLanguage="he">эллипс</text>
			<text systemLanguage="hi">परवलय</text>
			<text systemLanguage="ja">放物線</text>
			<text systemLanguage="mk">парабола</text>
			<text systemLanguage="no">parabel</text>
			<text systemLanguage="pt">parábola</text>
			<text systemLanguage="ru">парабола</text>
			<text systemLanguage="sr-ec">парабола</text>
			<text systemLanguage="sr-el">parabola</text>
			<text systemLanguage="sv">parabel</text>
			<text systemLanguage="tr">Parabol</text>
			<text systemLanguage="uk">парабола</text>
			<text>parabola</text>
		</switch>
		
		<switch fill="#f95" transform="translate(1248.1 1209.77)">
			<text systemLanguage="bn">অধিবৃত্ত</text>
			<text systemLanguage="cy">Hyperbola</text>
			<text systemLanguage="de">Hyperbel</text>
			<text systemLanguage="en">hyperbola</text>
			<text systemLanguage="es">hipérbola</text>
			<text systemLanguage="fa">هذلولی</text>
			<text systemLanguage="fi">Hyperbeli</text>
			<text systemLanguage="fr">hyperbole</text>
			<text systemLanguage="he">היפרבולה</text>
			<text systemLanguage="hi">अतिपरवलय</text>
			<text systemLanguage="ja">双曲線</text>
			<text systemLanguage="mk">хипербола</text>
			<text systemLanguage="no">hyperbel</text>
			<text systemLanguage="pt">hipérbole</text>
			<text systemLanguage="ru">гипербола</text>
			<text systemLanguage="sr-ec">хипербола</text>
			<text systemLanguage="sr-el">hiperbola</text>
			<text systemLanguage="sv">hyperbel</text>
			<text systemLanguage="tr">Hiperbol</text>
			<text systemLanguage="uk">гіпербола</text>
			<text>hyperbola</text>
		</switch>
	</g>
</svg>