<?xml version="1.0" encoding="UTF-8" standalone="no"?>
<!-- Created with Inkscape (http://www.inkscape.org/) -->

<svg
   xmlns:dc="http://purl.org/dc/elements/1.1/"
   xmlns:cc="http://creativecommons.org/ns#"
   xmlns:rdf="http://www.w3.org/1999/02/22-rdf-syntax-ns#"
   xmlns:svg="http://www.w3.org/2000/svg"
   xmlns="http://www.w3.org/2000/svg"
   xmlns:xlink="http://www.w3.org/1999/xlink"
   xmlns:sodipodi="http://sodipodi.sourceforge.net/DTD/sodipodi-0.dtd"
   xmlns:inkscape="http://www.inkscape.org/namespaces/inkscape"
   width="372.04999"
   height="372.04724"
   id="svg2"
   sodipodi:version="0.32"
   inkscape:version="0.91 r13725"
   version="1.0"
   sodipodi:docname="Gravitational_field_Earth_lines.svg"
   inkscape:output_extension="org.inkscape.output.svg.inkscape">
  <defs
     id="defs4">
    <linearGradient
       id="linearGradient4437"
       inkscape:collect="always">
      <stop
         id="stop4439"
         offset="0"
         style="stop-color:#ffffff;stop-opacity:0.85624999" />
      <stop
         id="stop4441"
         offset="1"
         style="stop-color:#ffffff;stop-opacity:0;" />
    </linearGradient>
    <radialGradient
       r="406.37308"
       fy="504.90085"
       fx="136.1499"
       cy="504.90085"
       cx="136.1499"
       gradientUnits="userSpaceOnUse"
       id="radialGradient24418"
       xlink:href="#linearGradient4437"
       inkscape:collect="always" />
    <linearGradient
       id="linearGradient5142">
      <stop
         id="stop5144"
         offset="0"
         style="stop-color:#bfd1eb;stop-opacity:1;" />
      <stop
         style="stop-color:#315c9b;stop-opacity:1;"
         offset="0.61538464"
         id="stop5150" />
      <stop
         id="stop5146"
         offset="1"
         style="stop-color:#11233a;stop-opacity:1;" />
    </linearGradient>
    <radialGradient
       r="55.703125"
       fy="407.22339"
       fx="209.15753"
       cy="407.22339"
       cx="209.15753"
       gradientTransform="matrix(2.971416,0.433793,-0.445445,3.041429,176.2001,-314.492)"
       gradientUnits="userSpaceOnUse"
       id="radialGradient24416"
       xlink:href="#linearGradient5142"
       inkscape:collect="always" />
    <linearGradient
       id="linearGradient13206">
      <stop
         style="stop-color:#f2c41f;stop-opacity:1;"
         offset="0"
         id="stop13208" />
      <stop
         style="stop-color:#b9380a;stop-opacity:1;"
         offset="1"
         id="stop2186" />
    </linearGradient>
    <radialGradient
       r="405.35715"
       fy="495.30679"
       fx="107.20115"
       cy="495.30679"
       cx="107.20115"
       gradientTransform="matrix(1.150346,0,0,1.150346,-16.1173,-74.46758)"
       gradientUnits="userSpaceOnUse"
       id="radialGradient24414"
       xlink:href="#linearGradient13206"
       inkscape:collect="always" />
  </defs>
  <sodipodi:namedview
     id="base"
     pagecolor="#ffffff"
     bordercolor="#666666"
     borderopacity="1.0"
     gridtolerance="10000"
     guidetolerance="10"
     objecttolerance="10"
     inkscape:pageopacity="0.0"
     inkscape:pageshadow="2"
     inkscape:zoom="1.9621164"
     inkscape:cx="142.60314"
     inkscape:cy="192.57761"
     inkscape:document-units="px"
     inkscape:current-layer="g43078"
     showgrid="false"
     width="372.05px"
     borderlayer="true"
     inkscape:window-width="1858"
     inkscape:window-height="1057"
     inkscape:window-x="54"
     inkscape:window-y="-8"
     inkscape:window-maximized="1" />
  <metadata
     id="metadata7">
    <rdf:RDF>
      <cc:Work
         rdf:about="">
        <dc:format>image/svg+xml</dc:format>
        <dc:type
           rdf:resource="http://purl.org/dc/dcmitype/StillImage" />
      </cc:Work>
    </rdf:RDF>
  </metadata>
  <g
     inkscape:label="Layer 1"
     inkscape:groupmode="layer"
     id="layer1">
    <g
       transform="matrix(0.75864172,-0.32986681,0.32986681,0.75864172,-111.7489,-313.29748)"
       id="layer1-4"
       inkscape:label="Calque 1">
      <g
         transform="matrix(1.717828,0.371908,-0.326113,1.506117,-1714.337,-171.6708)"
         id="g43078"
         style="opacity:1">
        <g
           style="display:inline;stroke:none;stroke-width:2.32346082;stroke-miterlimit:4;stroke-dasharray:none;stroke-opacity:1"
           inkscape:label="skins"
           id="g22959"
           transform="matrix(0.278956,0,0,0.316467,929.8975,95.476852)">
          <g
             transform="matrix(0.691474,0,0,0.691474,194.6521,226.2037)"
             id="g3528"
             style="display:inline;stroke:none;stroke-width:3.36015654;stroke-miterlimit:4;stroke-dasharray:none;stroke-opacity:1">
            <circle
               style="color:#000000;display:inline;overflow:visible;visibility:visible;fill:url(#radialGradient24414);fill-opacity:1;fill-rule:evenodd;stroke:none;stroke-width:5.6437459;stroke-linecap:round;stroke-linejoin:round;stroke-miterlimit:4;stroke-dasharray:none;stroke-dashoffset:0;stroke-opacity:1;marker:none;marker-start:none;marker-mid:none;marker-end:none"
               id="path1307"
               transform="matrix(0.595377,0,0,0.595377,484.3515,236.1627)"
               cx="261.42856"
               cy="648.07648"
               r="392.85715" />
            <g
               style="display:inline;stroke:none;stroke-width:2.03562093;stroke-miterlimit:4;stroke-dasharray:none;stroke-opacity:1"
               inkscape:label="titre 3"
               id="layer7"
               transform="matrix(1.649352,0,0,1.652007,-456.9646,-1157.083)">
              <path
                 sodipodi:nodetypes="cccccccccccccccccccccccccccccccc"
                 id="path2495-1"
                 d="m 685.79834,936.8631 c -32.76808,-4.93347 -67.11167,2.38183 -95.15749,19.98847 6.70091,4.75188 33.47985,14.65682 20.05068,21.2461 -7.40299,13.03187 -31.39864,28.25703 -46.28999,18.68545 -14.85645,5.58808 -34.57523,24.60068 -29.29017,39.87828 20.02708,6.571 22.77241,18.9918 18.78287,21.7385 -22.06633,12.7917 -27.57786,49.4131 -21.04149,68.6413 21.70411,60.5474 88.29596,100.1795 151.8732,90.1663 50.25358,-6.5873 95.21077,-42.4725 112.79522,-90.0049 4.08443,-34.8935 -25.0242,31.0706 -24.50763,-2.9505 1.65443,-20.6432 -19.40389,-11.2893 -29.66898,-20.7225 -13.89675,5.8998 -36.74148,-23.8871 -37.4247,4.5024 4.81353,13.7973 42.44306,-9.0631 21.44813,14.0941 -13.70214,16.3501 -48.5274,51.7702 -49.13854,73.4666 -5.54522,30.7089 -32.51552,0.3119 -41.46381,-11.9629 -3.37758,-21.7716 8.39814,-56.4164 -8.88553,-70.104 -20.69691,-4.9459 -38.25594,-10.2474 -41.78365,-35.1486 -1.60466,-17.6363 13.26507,-40.5432 31.90691,-40.9177 29.4066,-11.3851 31.70139,26.0793 56.13443,31.4975 9.18613,-6.5023 30.53215,-5.0874 34.00483,-13.7012 -15.55946,-5.9631 23.09448,-9.56 2.29501,-19.906 -12.40841,-0.9205 -22.36882,8.8259 -17.76835,19.5292 -24.57911,0.932 -17.62879,-38.7948 -42.66093,-30.7095 -4.42621,19.5859 -38.18253,-0.7277 -13.0712,-0.014 9.07314,-2.0336 -10.84194,-16.8977 0.66461,-12.6749 5.89895,0.8127 26.98919,-2.1935 22.57593,-7.8524 12.27088,-4.67428 16.91595,20.0143 30.90871,5.2966 10.25581,-11.41407 -0.24916,-15.87426 -11.22076,-11.20616 -5.68993,-9.5673 27.49686,-24.63229 40.24223,-20.94712 5.86251,10.21162 20.56162,13.77653 20.45157,-1.48464 9.22666,-11.69675 39.61538,16.32179 20.55054,-2.47475 -20.71997,-19.22379 -47.32709,-31.94762 -75.31165,-35.94933 z"
                 style="color:#000000;display:inline;overflow:visible;visibility:visible;fill:url(#radialGradient24416);fill-opacity:1;fill-rule:nonzero;stroke:none;stroke-width:2.03562093;stroke-linecap:round;stroke-linejoin:round;stroke-miterlimit:4;stroke-dasharray:none;stroke-dashoffset:0;stroke-opacity:1;marker:none;marker-start:none;marker-mid:none;marker-end:none"
                 inkscape:connector-curvature="0" />
            </g>
            <circle
               style="color:#000000;display:inline;overflow:visible;visibility:visible;opacity:0.76025235;fill:url(#radialGradient24418);fill-opacity:1;fill-rule:evenodd;stroke:none;stroke-width:5.6437459;stroke-linecap:round;stroke-linejoin:round;stroke-miterlimit:4;stroke-dasharray:none;stroke-dashoffset:0;stroke-opacity:1;marker:none;marker-start:none;marker-mid:none;marker-end:none"
               id="path2653"
               transform="matrix(0.595377,0,0,0.595377,484.3515,236.1627)"
               cx="261.42856"
               cy="648.07648"
               r="392.85715" />
          </g>
        </g>
      </g>
    </g>
    <path
       id="path2403"
       d="M 186.02224,490.32858 C 186.02224,254.32932 186.02224,251.27761 186.02224,251.27761"
       style="fill: none; fill-rule: evenodd; stroke: rgb(0, 0, 0); stroke-width: 1.41278px; stroke-linecap: butt; stroke-linejoin: miter; stroke-opacity: 1;" />
    <path
       transform="matrix(-1, 0, 0, -1, 318.024, 355.297)"
       style="fill: rgb(0, 0, 0); fill-opacity: 1; stroke: rgb(0, 0, 0); stroke-width: 4; stroke-linecap: butt; stroke-linejoin: miter; stroke-miterlimit: 4; stroke-opacity: 1;"
       d="M 136.7745,36.486965 L 134.38741,40.621527 L 132.00032,44.756088 L 129.61323,40.621527 L 127.22614,36.486965 L 132.00032,36.486965 L 136.7745,36.486965 z"
       id="path2405" />
    <path
       style="fill: none; fill-rule: evenodd; stroke: rgb(0, 0, 0); stroke-width: 1.41278px; stroke-linecap: butt; stroke-linejoin: miter; stroke-opacity: 1;"
       d="M 186.02499,-118.72239 C 186.02499,117.27687 186.02499,120.32858 186.02499,120.32858"
       id="path2393" />
    <path
       transform="translate(54.0233, 16.3089)"
       style="fill: rgb(0, 0, 0); fill-opacity: 1; stroke: rgb(0, 0, 0); stroke-width: 4; stroke-linecap: butt; stroke-linejoin: miter; stroke-miterlimit: 4; stroke-opacity: 1;"
       d="M 136.7745,36.486965 L 134.38741,40.621527 L 132.00032,44.756088 L 129.61323,40.621527 L 127.22614,36.486965 L 132.00032,36.486965 L 136.7745,36.486965 z"
       id="path2395" />
    <path
       style="fill: none; fill-rule: evenodd; stroke: rgb(0, 0, 0); stroke-width: 1.41278px; stroke-linecap: butt; stroke-linejoin: miter; stroke-opacity: 1;"
       d="M 490.5491,185.80447 C 254.54984,185.80447 251.49813,185.80447 251.49813,185.80447"
       id="path2419" />
    <path
       transform="matrix(0, 1, -1, 0, 355.518, 53.8028)"
       style="fill: rgb(0, 0, 0); fill-opacity: 1; stroke: rgb(0, 0, 0); stroke-width: 4; stroke-linecap: butt; stroke-linejoin: miter; stroke-miterlimit: 4; stroke-opacity: 1;"
       d="M 136.7745,36.486965 L 134.38741,40.621527 L 132.00032,44.756088 L 129.61323,40.621527 L 127.22614,36.486965 L 132.00032,36.486965 L 136.7745,36.486965 z"
       id="path2421" />
    <path
       id="path2425"
       d="M -118.50187,185.80172 C 117.49739,185.80172 120.5491,185.80172 120.5491,185.80172"
       style="fill: none; fill-rule: evenodd; stroke: rgb(0, 0, 0); stroke-width: 1.41278px; stroke-linecap: butt; stroke-linejoin: miter; stroke-opacity: 1;" />
    <path
       transform="matrix(0, -1, 1, 0, 16.5294, 317.803)"
       style="fill: rgb(0, 0, 0); fill-opacity: 1; stroke: rgb(0, 0, 0); stroke-width: 4; stroke-linecap: butt; stroke-linejoin: miter; stroke-miterlimit: 4; stroke-opacity: 1;"
       d="M 136.7745,36.486965 L 134.38741,40.621527 L 132.00032,44.756088 L 129.61323,40.621527 L 127.22614,36.486965 L 132.00032,36.486965 L 136.7745,36.486965 z"
       id="path2427" />
    <path
       id="path2433"
       d="M 480.173,106.98746 C 252.21523,168.06855 249.2675,168.85839 249.2675,168.85839"
       style="fill: none; fill-rule: evenodd; stroke: rgb(0, 0, 0); stroke-width: 1.41278px; stroke-linecap: butt; stroke-linejoin: miter; stroke-opacity: 1;" />
    <path
       transform="matrix(0.258819, 0.965926, -0.965926, 0.258819, 315.578, 14.4323)"
       style="fill: rgb(0, 0, 0); fill-opacity: 1; stroke: rgb(0, 0, 0); stroke-width: 4; stroke-linecap: butt; stroke-linejoin: miter; stroke-miterlimit: 4; stroke-opacity: 1;"
       d="M 136.7745,36.486965 L 134.38741,40.621527 L 132.00032,44.756088 L 129.61323,40.621527 L 127.22614,36.486965 L 132.00032,36.486965 L 136.7745,36.486965 z"
       id="path2435" />
    <path
       style="fill: none; fill-rule: evenodd; stroke: rgb(0, 0, 0); stroke-width: 1.41278px; stroke-linecap: butt; stroke-linejoin: miter; stroke-opacity: 1;"
       d="M -108.12576,264.61876 C 119.83201,203.53767 122.77974,202.74783 122.77974,202.74783"
       id="path2439" />
    <path
       transform="matrix(-0.258819, -0.965926, 0.965926, -0.258819, 56.469, 357.174)"
       style="fill: rgb(0, 0, 0); fill-opacity: 1; stroke: rgb(0, 0, 0); stroke-width: 4; stroke-linecap: butt; stroke-linejoin: miter; stroke-miterlimit: 4; stroke-opacity: 1;"
       d="M 136.7745,36.486965 L 134.38741,40.621527 L 132.00032,44.756088 L 129.61323,40.621527 L 127.22614,36.486965 L 132.00032,36.486965 L 136.7745,36.486965 z"
       id="path2441" />
    <path
       style="fill: none; fill-rule: evenodd; stroke: rgb(0, 0, 0); stroke-width: 1.41278px; stroke-linecap: butt; stroke-linejoin: miter; stroke-opacity: 1;"
       d="M 449.75112,33.541594 C 245.36977,151.5412 242.72691,153.06706 242.72691,153.06706"
       id="path2447" />
    <path
       transform="matrix(0.5, 0.866025, -0.866025, 0.5, 266.81, -13.2596)"
       style="fill: rgb(0, 0, 0); fill-opacity: 1; stroke: rgb(0, 0, 0); stroke-width: 4; stroke-linecap: butt; stroke-linejoin: miter; stroke-miterlimit: 4; stroke-opacity: 1;"
       d="M 136.7745,36.486965 L 134.38741,40.621527 L 132.00032,44.756088 L 129.61323,40.621527 L 127.22614,36.486965 L 132.00032,36.486965 L 136.7745,36.486965 z"
       id="path2449" />
    <path
       id="path2453"
       d="M -77.703862,338.06464 C 126.67749,220.06503 129.32035,218.53918 129.32035,218.53918"
       style="fill: none; fill-rule: evenodd; stroke: rgb(0, 0, 0); stroke-width: 1.41278px; stroke-linecap: butt; stroke-linejoin: miter; stroke-opacity: 1;" />
    <path
       transform="matrix(-0.5, -0.866025, 0.866025, -0.5, 105.238, 384.866)"
       style="fill: rgb(0, 0, 0); fill-opacity: 1; stroke: rgb(0, 0, 0); stroke-width: 4; stroke-linecap: butt; stroke-linejoin: miter; stroke-miterlimit: 4; stroke-opacity: 1;"
       d="M 136.7745,36.486965 L 134.38741,40.621527 L 132.00032,44.756088 L 129.61323,40.621527 L 127.22614,36.486965 L 132.00032,36.486965 L 136.7745,36.486965 z"
       id="path2455" />
    <path
       id="path2461"
       d="M 401.35664,-29.527925 C 234.47995,137.34873 232.32207,139.50662 232.32207,139.50662"
       style="fill: none; fill-rule: evenodd; stroke: rgb(0, 0, 0); stroke-width: 1.41278px; stroke-linecap: butt; stroke-linejoin: miter; stroke-opacity: 1;" />
    <path
       transform="matrix(0.707107, 0.707107, -0.707107, 0.707107, 212.536, -27.3857)"
       style="fill: rgb(0, 0, 0); fill-opacity: 1; stroke: rgb(0, 0, 0); stroke-width: 4; stroke-linecap: butt; stroke-linejoin: miter; stroke-miterlimit: 4; stroke-opacity: 1;"
       d="M 136.7745,36.486965 L 134.38741,40.621527 L 132.00032,44.756088 L 129.61323,40.621527 L 127.22614,36.486965 L 132.00032,36.486965 L 136.7745,36.486965 z"
       id="path2463" />
    <path
       style="fill: none; fill-rule: evenodd; stroke: rgb(0, 0, 0); stroke-width: 1.41278px; stroke-linecap: butt; stroke-linejoin: miter; stroke-opacity: 1;"
       d="M -29.309386,401.13415 C 137.5673,234.25749 139.72518,232.09961 139.72518,232.09961"
       id="path2467" />
    <path
       transform="matrix(-0.707107, -0.707107, 0.707107, -0.707107, 159.511, 398.992)"
       style="fill: rgb(0, 0, 0); fill-opacity: 1; stroke: rgb(0, 0, 0); stroke-width: 4; stroke-linecap: butt; stroke-linejoin: miter; stroke-miterlimit: 4; stroke-opacity: 1;"
       d="M 136.7745,36.486965 L 134.38741,40.621527 L 132.00032,44.756088 L 129.61323,40.621527 L 127.22614,36.486965 L 132.00032,36.486965 L 136.7745,36.486965 z"
       id="path2469" />
    <path
       style="fill: none; fill-rule: evenodd; stroke: rgb(0, 0, 0); stroke-width: 1.41278px; stroke-linecap: butt; stroke-linejoin: miter; stroke-opacity: 1;"
       d="M 338.28756,-77.922955 C 220.28793,126.45837 218.76208,129.10123 218.76208,129.10123"
       id="path2475" />
    <path
       transform="matrix(0.866025, 0.5, -0.5, 0.866025, 156.455, -26.9833)"
       style="fill: rgb(0, 0, 0); fill-opacity: 1; stroke: rgb(0, 0, 0); stroke-width: 4; stroke-linecap: butt; stroke-linejoin: miter; stroke-miterlimit: 4; stroke-opacity: 1;"
       d="M 136.7745,36.486965 L 134.38741,40.621527 L 132.00032,44.756088 L 129.61323,40.621527 L 127.22614,36.486965 L 132.00032,36.486965 L 136.7745,36.486965 z"
       id="path2477" />
    <path
       id="path2481"
       d="M 33.759697,449.52922 C 151.75933,245.14789 153.28518,242.50503 153.28518,242.50503"
       style="fill: none; fill-rule: evenodd; stroke: rgb(0, 0, 0); stroke-width: 1.41278px; stroke-linecap: butt; stroke-linejoin: miter; stroke-opacity: 1;" />
    <path
       transform="matrix(-0.866025, -0.5, 0.5, -0.866025, 215.592, 398.59)"
       style="fill: rgb(0, 0, 0); fill-opacity: 1; stroke: rgb(0, 0, 0); stroke-width: 4; stroke-linecap: butt; stroke-linejoin: miter; stroke-miterlimit: 4; stroke-opacity: 1;"
       d="M 136.7745,36.486965 L 134.38741,40.621527 L 132.00032,44.756088 L 129.61323,40.621527 L 127.22614,36.486965 L 132.00032,36.486965 L 136.7745,36.486965 z"
       id="path2483" />
    <path
       id="path2489"
       d="M 264.84198,-108.34551 C 203.76086,119.61225 202.97102,122.55997 202.97102,122.55997"
       style="fill: none; fill-rule: evenodd; stroke: rgb(0, 0, 0); stroke-width: 1.41278px; stroke-linecap: butt; stroke-linejoin: miter; stroke-opacity: 1;" />
    <path
       transform="matrix(0.965926, 0.258819, -0.258819, 0.965926, 102.389, -12.0799)"
       style="fill: rgb(0, 0, 0); fill-opacity: 1; stroke: rgb(0, 0, 0); stroke-width: 4; stroke-linecap: butt; stroke-linejoin: miter; stroke-miterlimit: 4; stroke-opacity: 1;"
       d="M 136.7745,36.486965 L 134.38741,40.621527 L 132.00032,44.756088 L 129.61323,40.621527 L 127.22614,36.486965 L 132.00032,36.486965 L 136.7745,36.486965 z"
       id="path2491" />
    <path
       style="fill: none; fill-rule: evenodd; stroke: rgb(0, 0, 0); stroke-width: 1.41278px; stroke-linecap: butt; stroke-linejoin: miter; stroke-opacity: 1;"
       d="M 107.2053,479.95177 C 168.28642,251.99402 169.07626,249.04629 169.07626,249.04629"
       id="path2495" />
    <path
       transform="matrix(-0.965926, -0.258819, 0.258819, -0.965926, 269.658, 383.686)"
       style="fill: rgb(0, 0, 0); fill-opacity: 1; stroke: rgb(0, 0, 0); stroke-width: 4; stroke-linecap: butt; stroke-linejoin: miter; stroke-miterlimit: 4; stroke-opacity: 1;"
       d="M 136.7745,36.486965 L 134.38741,40.621527 L 132.00032,44.756088 L 129.61323,40.621527 L 127.22614,36.486965 L 132.00032,36.486965 L 136.7745,36.486965 z"
       id="path2497" />
    <path
       style="fill: none; fill-rule: evenodd; stroke: rgb(0, 0, 0); stroke-width: 1.41278px; stroke-linecap: butt; stroke-linejoin: miter; stroke-opacity: 1;"
       d="M 107.20803,-108.34621 C 168.2891,119.61154 169.07894,122.55926 169.07894,122.55926"
       id="path2503" />
    <path
       transform="matrix(0.965926, -0.258819, 0.258819, 0.965926, 14.6529, 56.2485)"
       style="fill: rgb(0, 0, 0); fill-opacity: 1; stroke: rgb(0, 0, 0); stroke-width: 4; stroke-linecap: butt; stroke-linejoin: miter; stroke-miterlimit: 4; stroke-opacity: 1;"
       d="M 136.7745,36.486965 L 134.38741,40.621527 L 132.00032,44.756088 L 129.61323,40.621527 L 127.22614,36.486965 L 132.00032,36.486965 L 136.7745,36.486965 z"
       id="path2505" />
    <path
       id="path2509"
       d="M 264.83928,479.95248 C 203.75821,251.99473 202.96837,249.04701 202.96837,249.04701"
       style="fill: none; fill-rule: evenodd; stroke: rgb(0, 0, 0); stroke-width: 1.41278px; stroke-linecap: butt; stroke-linejoin: miter; stroke-opacity: 1;" />
    <path
       transform="matrix(-0.965926, 0.258819, -0.258819, -0.965926, 357.394, 315.358)"
       style="fill: rgb(0, 0, 0); fill-opacity: 1; stroke: rgb(0, 0, 0); stroke-width: 4; stroke-linecap: butt; stroke-linejoin: miter; stroke-miterlimit: 4; stroke-opacity: 1;"
       d="M 136.7745,36.486965 L 134.38741,40.621527 L 132.00032,44.756088 L 129.61323,40.621527 L 127.22614,36.486965 L 132.00032,36.486965 L 136.7745,36.486965 z"
       id="path2511" />
    <path
       id="path2517"
       d="M 33.762172,-77.924331 C 151.76175,126.457 153.28761,129.09986 153.28761,129.09986"
       style="fill: none; fill-rule: evenodd; stroke: rgb(0, 0, 0); stroke-width: 1.41278px; stroke-linecap: butt; stroke-linejoin: miter; stroke-opacity: 1;" />
    <path
       transform="matrix(0.866025, -0.5, 0.5, 0.866025, -13.039, 105.017)"
       style="fill: rgb(0, 0, 0); fill-opacity: 1; stroke: rgb(0, 0, 0); stroke-width: 4; stroke-linecap: butt; stroke-linejoin: miter; stroke-miterlimit: 4; stroke-opacity: 1;"
       d="M 136.7745,36.486965 L 134.38741,40.621527 L 132.00032,44.756088 L 129.61323,40.621527 L 127.22614,36.486965 L 132.00032,36.486965 L 136.7745,36.486965 z"
       id="path2519" />
    <path
       style="fill: none; fill-rule: evenodd; stroke: rgb(0, 0, 0); stroke-width: 1.41278px; stroke-linecap: butt; stroke-linejoin: miter; stroke-opacity: 1;"
       d="M 338.28515,449.53059 C 220.28557,245.14926 218.75972,242.5064 218.75972,242.5064"
       id="path2523" />
    <path
       transform="matrix(-0.866025, 0.5, -0.5, -0.866025, 385.086, 266.589)"
       style="fill: rgb(0, 0, 0); fill-opacity: 1; stroke: rgb(0, 0, 0); stroke-width: 4; stroke-linecap: butt; stroke-linejoin: miter; stroke-miterlimit: 4; stroke-opacity: 1;"
       d="M 136.7745,36.486965 L 134.38741,40.621527 L 132.00032,44.756088 L 129.61323,40.621527 L 127.22614,36.486965 L 132.00032,36.486965 L 136.7745,36.486965 z"
       id="path2525" />
    <path
       style="fill: none; fill-rule: evenodd; stroke: rgb(0, 0, 0); stroke-width: 1.41278px; stroke-linecap: butt; stroke-linejoin: miter; stroke-opacity: 1;"
       d="M -29.307348,-29.529836 C 137.56929,137.34682 139.72717,139.50471 139.72717,139.50471"
       id="path2531" />
    <path
       transform="matrix(0.707107, -0.707107, 0.707107, 0.707107, -27.1651, 159.291)"
       style="fill: rgb(0, 0, 0); fill-opacity: 1; stroke: rgb(0, 0, 0); stroke-width: 4; stroke-linecap: butt; stroke-linejoin: miter; stroke-miterlimit: 4; stroke-opacity: 1;"
       d="M 136.7745,36.486965 L 134.38741,40.621527 L 132.00032,44.756088 L 129.61323,40.621527 L 127.22614,36.486965 L 132.00032,36.486965 L 136.7745,36.486965 z"
       id="path2533" />
    <path
       id="path2537"
       d="M 401.35467,401.13613 C 234.47803,234.25947 232.32015,232.10158 232.32015,232.10158"
       style="fill: none; fill-rule: evenodd; stroke: rgb(0, 0, 0); stroke-width: 1.41278px; stroke-linecap: butt; stroke-linejoin: miter; stroke-opacity: 1;" />
    <path
       transform="matrix(-0.707107, 0.707107, -0.707107, -0.707107, 399.212, 212.315)"
       style="fill: rgb(0, 0, 0); fill-opacity: 1; stroke: rgb(0, 0, 0); stroke-width: 4; stroke-linecap: butt; stroke-linejoin: miter; stroke-miterlimit: 4; stroke-opacity: 1;"
       d="M 136.7745,36.486965 L 134.38741,40.621527 L 132.00032,44.756088 L 129.61323,40.621527 L 127.22614,36.486965 L 132.00032,36.486965 L 136.7745,36.486965 z"
       id="path2539" />
    <path
       id="path2545"
       d="M -77.702397,33.539196 C 126.67891,151.53883 129.32177,153.06468 129.32177,153.06468"
       style="fill: none; fill-rule: evenodd; stroke: rgb(0, 0, 0); stroke-width: 1.41278px; stroke-linecap: butt; stroke-linejoin: miter; stroke-opacity: 1;" />
    <path
       transform="matrix(0.5, -0.866025, 0.866025, 0.5, -26.7627, 215.372)"
       style="fill: rgb(0, 0, 0); fill-opacity: 1; stroke: rgb(0, 0, 0); stroke-width: 4; stroke-linecap: butt; stroke-linejoin: miter; stroke-miterlimit: 4; stroke-opacity: 1;"
       d="M 136.7745,36.486965 L 134.38741,40.621527 L 132.00032,44.756088 L 129.61323,40.621527 L 127.22614,36.486965 L 132.00032,36.486965 L 136.7745,36.486965 z"
       id="path2547" />
    <path
       style="fill: none; fill-rule: evenodd; stroke: rgb(0, 0, 0); stroke-width: 1.41278px; stroke-linecap: butt; stroke-linejoin: miter; stroke-opacity: 1;"
       d="M 449.74972,338.06706 C 245.36841,220.06743 242.72555,218.54158 242.72555,218.54158"
       id="path2551" />
    <path
       transform="matrix(-0.5, 0.866025, -0.866025, -0.5, 398.81, 156.235)"
       style="fill: rgb(0, 0, 0); fill-opacity: 1; stroke: rgb(0, 0, 0); stroke-width: 4; stroke-linecap: butt; stroke-linejoin: miter; stroke-miterlimit: 4; stroke-opacity: 1;"
       d="M 136.7745,36.486965 L 134.38741,40.621527 L 132.00032,44.756088 L 129.61323,40.621527 L 127.22614,36.486965 L 132.00032,36.486965 L 136.7745,36.486965 z"
       id="path2553" />
    <path
       style="fill: none; fill-rule: evenodd; stroke: rgb(0, 0, 0); stroke-width: 1.41278px; stroke-linecap: butt; stroke-linejoin: miter; stroke-opacity: 1;"
       d="M -108.12494,106.98479 C 119.83279,168.0659 122.78052,168.85574 122.78052,168.85574"
       id="path2559" />
    <path
       transform="matrix(0.258819, -0.965926, 0.965926, 0.258819, -11.8593, 269.437)"
       style="fill: rgb(0, 0, 0); fill-opacity: 1; stroke: rgb(0, 0, 0); stroke-width: 4; stroke-linecap: butt; stroke-linejoin: miter; stroke-miterlimit: 4; stroke-opacity: 1;"
       d="M 136.7745,36.486965 L 134.38741,40.621527 L 132.00032,44.756088 L 129.61323,40.621527 L 127.22614,36.486965 L 132.00032,36.486965 L 136.7745,36.486965 z"
       id="path2561" />
    <path
       id="path2565"
       d="M 480.17228,264.62147 C 252.21455,203.54035 249.26682,202.75051 249.26682,202.75051"
       style="fill: none; fill-rule: evenodd; stroke: rgb(0, 0, 0); stroke-width: 1.41278px; stroke-linecap: butt; stroke-linejoin: miter; stroke-opacity: 1;" />
    <path
       transform="matrix(-0.258819, 0.965926, -0.965926, -0.258819, 383.907, 102.169)"
       style="fill: rgb(0, 0, 0); fill-opacity: 1; stroke: rgb(0, 0, 0); stroke-width: 4; stroke-linecap: butt; stroke-linejoin: miter; stroke-miterlimit: 4; stroke-opacity: 1;"
       d="M 136.7745,36.486965 L 134.38741,40.621527 L 132.00032,44.756088 L 129.61323,40.621527 L 127.22614,36.486965 L 132.00032,36.486965 L 136.7745,36.486965 z"
       id="path2567" />
  </g>
</svg>
