<?xml version="1.0" encoding="UTF-8" standalone="no"?>
<!-- Created with Inkscape (http://www.inkscape.org/) -->
<svg xmlns:rdf="http://www.w3.org/1999/02/22-rdf-syntax-ns#" xmlns="http://www.w3.org/2000/svg" xmlns:cc="http://creativecommons.org/ns#" xmlns:dc="http://purl.org/dc/elements/1.1/" id="svg6897" height="440.65" width="670.57" version="1.1">
 <defs id="defs6899">
  <marker id="EmptyDiamondM" refY="0" refX="0" orient="auto" overflow="visible">
   <path id="path5769" d="m0-7.0711-7.0711 7.0711 7.0711 7.0711 7.071-7.0711-7.071-7.0711z" fill-rule="evenodd" transform="scale(.4)" stroke="#000" stroke-width="1pt" fill="#fff"/>
  </marker>
 </defs>
 <metadata id="metadata6902">
  <rdf:RDF>
   <cc:Work rdf:about="">
    <dc:format>image/svg+xml</dc:format>
    <dc:type rdf:resource="http://purl.org/dc/dcmitype/StillImage"/>
    <dc:title/>
   </cc:Work>
  </rdf:RDF>
 </metadata>
 <g id="layer1" transform="translate(-21.857 -92.039)">
  <g id="g7532" stroke="#b3b3b3" stroke-linecap="square" stroke-miterlimit="10" stroke-width=".80001" fill="none">
   <line id="line72147" y2="446.7" x2="62.706" y1="446.7" x1="72.786"/>
   <line id="line72149" y2="402.86" x2="62.706" y1="402.86" x1="72.786"/>
   <line id="line72151" y2="359.43" x2="62.706" y1="359.43" x1="72.786"/>
   <line id="line72153" y2="315.55" x2="62.706" y1="315.55" x1="72.786"/>
   <line id="line72155" y2="272.29" x2="62.706" y1="272.29" x1="72.786"/>
   <line id="line72157" y2="228.35" x2="62.706" y1="228.35" x1="92.786"/>
   <line id="line72159" y2="184.59" x2="62.706" y1="184.59" x1="102.79"/>
   <line id="line72161" y2="119.05" x2="102.71" y1="119.05" x1="472.79"/>
   <line id="line72161" y2="140.93" x2="62.706" y1="140.93" x1="672.79"/>
   <line id="line72420" y2="480.41" x2="132.01" y1="490.49" x1="132.01"/>
   <line id="line72422" y2="480.41" x2="200.49" y1="490.49" x1="200.49"/>
   <line id="line72424" y2="480.41" x2="268.98" y1="490.49" x1="268.98"/>
   <line id="line72426" y2="480.41" x2="337.95" y1="490.49" x1="337.95"/>
   <line id="line72428" y2="480.41" x2="406.53" y1="490.49" x1="406.53"/>
   <line id="line72430" y2="480.41" x2="474.99" y1="490.49" x1="474.99"/>
   <line id="line72432" y2="480.41" x2="542.71" y1="490.49" x1="542.71"/>
   <line id="line72434" y2="480.41" x2="611.17" y1="490.49" x1="611.17"/>
  </g>
  <g id="g72289" transform="translate(.47709 77.142)" font-family="Bitstream Vera Sans" fill="#000000">
   <switch><text id="text72265" xml:space="preserve" font-size="12px" y="55.441963" x="634.3797"><tspan id="tspan72267" style="text-anchor:end;text-align:end" font-size="16px" line-height="125%" y="55.441963" x="634.3797" font-family="Arial">U</tspan></text></switch>
   <switch><text id="text72269" xml:space="preserve" font-size="7.0528px" y="50.563587" x="634.8905"><tspan id="tspan72271" font-size="9.4037px" line-height="125%" y="50.563587" x="634.8905" font-family="Arial">235</tspan></text></switch>
  </g>
  <path id="path72273" d="m605.98 161.01 24.5-11.5" stroke="#666" stroke-linecap="round" stroke-width="1px" fill="none"/>
  <path id="path72275" d="m598.98 160.01 22.5-31.5" stroke="#666" stroke-linecap="round" stroke-width="1px" fill="none"/>
  <g id="g72295" transform="translate(10.477 99.142)" font-family="Bitstream Vera Sans" fill="#000000">
   <switch><text id="text72297" xml:space="preserve" font-size="12px" y="55.441963" x="634.3797"><tspan id="tspan72299" style="text-anchor:end;text-align:end" font-size="16px" line-height="125%" y="55.441963" x="634.3797" font-family="Arial">U</tspan></text></switch>
   <switch><text id="text72301" xml:space="preserve" font-size="7.0528px" y="50.563587" x="634.8905"><tspan id="tspan72303" font-size="9.4037px" line-height="125%" y="50.563587" x="634.8905" font-family="Arial">238</tspan></text></switch>
  </g>
  <g id="g72305" transform="translate(-417.14 80.148)" font-family="Bitstream Vera Sans" fill="#000000">
   <switch><text id="text72307" xml:space="preserve" font-size="12px" y="55.441963" x="634.3797"><tspan id="tspan72309" style="text-anchor:end;text-align:end" font-size="16px" line-height="125%" y="55.441963" x="634.3797" font-family="Arial">Fe</tspan></text></switch>
   <switch><text id="text72311" xml:space="preserve" font-size="7.0528px" y="50.563587" x="634.8905"><tspan id="tspan72313" font-size="9.4037px" line-height="125%" y="50.563587" x="634.8905" font-family="Arial">56</tspan></text></switch>
  </g>
  <path id="path72315" d="m190.41 107.36 6.9249 20.216" stroke="#666" stroke-linecap="round" stroke-width="1px" fill="none"/>
  <g id="g72317" transform="translate(-545.14 78.148)" font-family="Bitstream Vera Sans" fill="#000000">
   <switch><text id="text72319" xml:space="preserve" font-size="12px" y="55.441963" x="634.3797"><tspan id="tspan72321" style="text-anchor:end;text-align:end" font-size="16px" line-height="125%" y="55.441963" x="634.3797" font-family="Arial">O</tspan></text></switch>
   <switch><text id="text72323" xml:space="preserve" font-size="7.0528px" y="50.563587" x="634.8905"><tspan id="tspan72325" font-size="9.4037px" line-height="125%" y="50.563587" x="634.8905" font-family="Arial">16</tspan></text></switch>
  </g>
  <path id="path72327" d="m91.311 132.54 8.0982 10.438" stroke="#666" stroke-linecap="round" stroke-width="1px" fill="none"/>
  <g id="g72329" transform="translate(-557.14 94.148)" font-family="Bitstream Vera Sans" fill="#000000">
   <switch><text id="text72331" xml:space="preserve" font-size="12px" y="55.441963" x="634.3797"><tspan id="tspan72333" style="text-anchor:end;text-align:end" font-size="16px" line-height="125%" y="55.441963" x="634.3797" font-family="Arial">C</tspan></text></switch>
   <switch><text id="text72335" xml:space="preserve" font-size="7.0528px" y="50.563587" x="634.8905"><tspan id="tspan72337" font-size="9.4037px" line-height="125%" y="50.563587" x="634.8905" font-family="Arial">12</tspan></text></switch>
  </g>
  <path id="path72339" d="m78.573 148.1 11.272 7.7001" stroke="#666" stroke-linecap="round" stroke-width="1px" fill="none"/>
  <g id="g72341" transform="matrix(.86497 0 0 .86497 -466.41 129.77)" font-family="Bitstream Vera Sans" fill="#000000">
   <switch><text id="text72343" xml:space="preserve" font-size="12px" y="55.441963" x="634.3797"><tspan id="tspan72345" style="text-anchor:end;text-align:end" font-size="16px" line-height="125%" y="55.441963" x="634.3797" font-family="Arial">He</tspan></text></switch>
   <switch><text id="text72347" xml:space="preserve" font-size="7.0528px" y="50.563587" x="634.8905"><tspan id="tspan72349" font-size="9.4037px" line-height="125%" y="50.563587" x="634.8905" font-family="Arial">4</tspan></text></switch>
  </g>
  <g id="g72355" transform="translate(-541.14 214.15)" font-family="Bitstream Vera Sans" fill="#000000">
   <switch><text id="text72357" xml:space="preserve" font-size="12px" y="55.441963" x="634.3797"><tspan id="tspan72359" style="text-anchor:end;text-align:end" font-size="16px" line-height="125%" y="55.441963" x="634.3797" font-family="Arial">Li</tspan></text></switch>
   <switch><text id="text72361" xml:space="preserve" font-size="7.0528px" y="50.563587" x="634.8905"><tspan id="tspan72363" font-size="9.4037px" line-height="125%" y="50.563587" x="634.8905" font-family="Arial">6</tspan></text></switch>
  </g>
  <g id="g72365" transform="translate(-539.14 196.15)" font-family="Bitstream Vera Sans" fill="#000000">
   <switch><text id="text72367" xml:space="preserve" font-size="12px" y="55.441963" x="634.3797"><tspan id="tspan72369" style="text-anchor:end;text-align:end" font-size="16px" line-height="125%" y="55.441963" x="634.3797" font-family="Arial">Li</tspan></text></switch>
   <switch><text id="text72371" xml:space="preserve" font-size="7.0528px" y="50.563587" x="634.8905"><tspan id="tspan72373" font-size="9.4037px" line-height="125%" y="50.563587" x="634.8905" font-family="Arial">7</tspan></text></switch>
  </g>
  <g id="g72375" transform="translate(-537.14 330.15)" font-family="Bitstream Vera Sans" fill="#000000">
   <switch><text id="text72377" xml:space="preserve" font-size="12px" y="55.441963" x="634.3797"><tspan id="tspan72379" style="text-anchor:end;text-align:end" font-size="16px" line-height="125%" y="55.441963" x="634.3797" font-family="Arial">He</tspan></text></switch>
   <switch><text id="text72381" xml:space="preserve" font-size="7.0528px" y="50.563587" x="634.8905"><tspan id="tspan72383" font-size="9.4037px" line-height="125%" y="50.563587" x="634.8905" font-family="Arial">3</tspan></text></switch>
  </g>
  <g id="g72385" transform="translate(-546.04 316.15)" font-family="Bitstream Vera Sans" fill="#000000">
   <switch><text id="text72387" xml:space="preserve" font-size="12px" y="55.441963" x="634.3797"><tspan id="tspan72389" style="text-anchor:end;text-align:end" font-size="16px" line-height="125%" y="55.441963" x="634.3797" font-family="Arial">H</tspan></text></switch>
   <switch><text id="text72391" xml:space="preserve" font-size="7.0528px" y="50.563587" x="634.8905"><tspan id="tspan72393" font-size="9.4037px" line-height="125%" y="50.563587" x="634.8905" font-family="Arial">3</tspan></text></switch>
  </g>
  <g id="g72395" transform="translate(-551.14 392.15)" font-family="Bitstream Vera Sans" fill="#000000">
   <switch><text id="text72397" xml:space="preserve" font-size="12px" y="55.441963" x="634.3797"><tspan id="tspan72399" style="text-anchor:end;text-align:end" font-size="16px" line-height="125%" y="55.441963" x="634.3797" font-family="Arial">H</tspan></text></switch>
   <switch><text id="text72401" xml:space="preserve" font-size="7.0528px" y="50.563587" x="634.8905"><tspan id="tspan72403" font-size="9.4037px" line-height="125%" y="50.563587" x="634.8905" font-family="Arial">2</tspan></text></switch>
  </g>
  <g id="g72405" transform="translate(-555.14 432.15)" font-family="Bitstream Vera Sans" fill="#000000">
   <switch><text id="text72407" xml:space="preserve" font-size="12px" y="55.441963" x="634.3797"><tspan id="tspan72409" style="text-anchor:end;text-align:end" font-size="16px" line-height="125%" y="55.441963" x="634.3797" font-family="Arial">H</tspan></text></switch>
   <switch><text id="text72411" xml:space="preserve" font-size="7.0528px" y="50.563587" x="634.8905"><tspan id="tspan72413" font-size="9.4037px" line-height="125%" y="50.563587" x="634.8905" font-family="Arial">1</tspan></text></switch>
  </g>
  <path id="line391" marker-mid="url(#EmptyDiamondM)" marker-end="url(#EmptyDiamondM)" d="m65.039 491.02 2.281-48.539 2.282-74.785v11.147l2.282-196.31 4.564 75.983 2.282-11.985 4.564-37.392 2.282-0.47899 2.282-19.775 2.282-32.838 2.282 9.228 2.282-0.24 4.564-21.812 6.846 8.509 2.282-11.026 6.846-3.476 2.282-6.471 6.9661-3.116 2.282-5.034 6.846-1.438 2.282-0.59901 6.846-1.079 4.564-2.277 4.564 0.59901 2.282-1.677v1.917l11.41-2.876 6.846-4.554 6.8461-0.839 2.282-1.438 6.846 0.479 2.282-1.199 4.564 2.637 2.282-1.678 2.282-0.479 6.846 1.198 2.282 0.719 2.282-0.95901 2.282-0.119 4.564 0.24001v2.397l4.564-0.95901 2.281 0.239 2.283-0.599 4.564 0.24 2.281 1.079 6.847-0.72001 2.282 1.319 2.281-1.079 2.403 0.719 6.846-0.95901 2.282 0.83901 2.282-0.599h2.282l2.281-0.95901 4.564 1.079 6.847 1.918 2.281-0.121 2.283 0.839 2.281-0.239 4.564 0.83801v1.079l9.1281 0.12 2.282 0.95901 4.564 0.599 2.282-0.36 2.282 1.079 2.282-0.479 2.282 0.719 6.846 0.24 4.564 0.47901 2.282 0.719h6.8461l4.564 0.48 2.282 0.95801 4.564 0.48 9.128 1.198 2.282-0.12 2.282 0.719h2.282l2.282 0.36001 2.282-0.24001 2.282 0.83901 11.53 0.719 2.282 0.59901 2.282 0.121 2.282 0.958 2.282 0.35901 4.564 0.84 2.282 1.078 13.692 2.757 2.281-0.24 2.283 0.719h2.282l4.563 0.59901 4.565 0.48 2.282 0.599 2.281 0.24 4.565 0.47901 2.282 0.479 2.281 0.12 2.282 0.48 2.283 0.239 2.282 0.48001 2.281 0.12 2.282 0.599 6.846 0.83901 6.8471 1.198 6.845 0.83901 4.565 0.599 2.281 0.60001 2.282 0.12 4.564 0.599 2.282 0.59901c2.4658 1.3888 5.2346 3.0174 2.282 0.11999l2.283 0.47901 6.965 0.71901 2.283 0.599 2.282-0.119c1.2108 0.59982 4.3442 3.078 2.281 0.47901 0.89799 0.14298 4.9486 2.6504 2.282 0.11999l2.283 0.35901h2.282l2.281 0.48 6.847 0.479 4.563 0.36 2.282 0.47901 4.5641 0.359 2.282 0.121 4.565 0.359c0.76035 0.27967 3.3686 3.0063 2.281 1.438l2.282 0.959 27.384 5.153 2.282 0.47999 6.846 0.95901 2.282 0.47901 9.128 1.438 2.282 0.12001 6.846 1.078 6.846 0.839" marker-start="url(#EmptyDiamondM)" stroke="#000" stroke-linecap="square" stroke-miterlimit="10" fill="none"/>
  <switch><text id="text1989-ca" transform="scale(1.001 .99895)" line-height="125%" font-size="12.013px" y="533.0567" x="370.41724" systemLanguage="ca">
   <tspan id="tspan1991-ca" style="text-anchor:middle;text-align:center" line-height="125%" font-size="16.017px" y="533.0567" x="370.41724" font-family="Arial" class="st790 st1079">Nombre de nucleons al nucli</tspan>
  </text><text id="text1989-zh" transform="scale(1.001 .99895)" line-height="125%" font-size="12.013px" y="533.0567" x="370.41724" systemLanguage="zh">
   <tspan id="tspan1991-zh" style="text-anchor:middle;text-align:center" line-height="125%" font-size="16.017px" y="533.0567" x="370.41724" font-family="Arial" class="st790 st1079">原子核中的核子數</tspan>
  </text><text id="text1989-de" transform="scale(1.001 .99895)" line-height="125%" font-size="12.013px" y="533.0567" x="370.41724" systemLanguage="de">
   <tspan id="tspan1991-de" style="text-anchor:middle;text-align:center" line-height="125%" font-size="16.017px" y="533.0567" x="370.41724" font-family="Arial" class="st790 st1079">Anzahl der Nukleonen im Kern</tspan>
  </text><text id="text1989" transform="scale(1.001 .99895)" line-height="125%" font-size="12.013px" y="533.0567" x="370.41724">
   <tspan id="tspan1991" style="text-anchor:middle;text-align:center" line-height="125%" font-size="16.017px" y="533.0567" x="370.41724" font-family="Arial" class="st790 st1079">Number of nucleons in nucleus</tspan>
  </text></switch>
  <switch><text id="text2049-ca" transform="matrix(0 -.99895 1.0011 0 0 0)" line-height="125%" font-size="11.987px" y="33.470394" x="-314.64993" systemLanguage="ca">
   <tspan id="tspan2051-ca" style="text-anchor:middle;text-align:center" line-height="125%" font-size="15.983px" y="33.470394" x="-314.64993" font-family="Arial" class="st790 st1079">Energia d'enllaç mitjana per nucleó (MeV)</tspan>
  </text><text id="text2049-zh" transform="matrix(0 -.99895 1.0011 0 0 0)" line-height="125%" font-size="11.987px" y="33.470394" x="-314.64993" systemLanguage="zh">
   <tspan id="tspan2051-zh" style="text-anchor:middle;text-align:center" line-height="125%" font-size="15.983px" y="33.470394" x="-314.64993" font-family="Arial" class="st790 st1079">每個核子的平均結合能 (MeV)</tspan>
  </text><text id="text2049-de" transform="matrix(0 -.99895 1.0011 0 0 0)" line-height="125%" font-size="11.987px" y="33.470394" x="-314.64993" systemLanguage="de">
   <tspan id="tspan2051-de" style="text-anchor:middle;text-align:center" line-height="125%" font-size="15.983px" y="33.470394" x="-314.64993" font-family="Arial" class="st790 st1079">Mittlere Bindungsenergie pro Nukleon / MeV</tspan>
  </text><text id="text2049" transform="matrix(0 -.99895 1.0011 0 0 0)" line-height="125%" font-size="11.987px" y="33.470394" x="-314.64993">
   <tspan id="tspan2051" style="text-anchor:middle;text-align:center" line-height="125%" font-size="15.983px" y="33.470394" x="-314.64993" font-family="Arial" class="st790 st1079">Average binding energy per nucleon (MeV)</tspan>
  </text></switch>
  <switch><text id="text71158" xml:space="preserve" font-size="12px" y="103.53903" x="48.181248" font-family="Bitstream Vera Sans" fill="#000000"><tspan id="tspan71160" font-size="16px" line-height="125%" y="103.53903" x="48.181248" font-family="Arial">9</tspan></text></switch>
  <switch><text id="text71162" xml:space="preserve" font-size="12px" y="146.70297" x="48.173435" font-family="Bitstream Vera Sans" fill="#000000"><tspan id="tspan71164" font-size="16px" line-height="125%" y="146.70297" x="48.173435" font-family="Arial">8</tspan></text></switch>
  <switch><text id="text71200" xml:space="preserve" font-size="12px" y="190.32684" x="48.056248" font-family="Bitstream Vera Sans" fill="#000000"><tspan id="tspan71202" font-size="16px" line-height="125%" y="190.32684" x="48.056248" font-family="Arial">7</tspan></text></switch>
  <switch><text id="text71204" xml:space="preserve" font-size="12px" y="233.95941" x="48.09531" font-family="Bitstream Vera Sans" fill="#000000"><tspan id="tspan71206" font-size="16px" line-height="125%" y="233.95941" x="48.09531" font-family="Arial">6</tspan></text></switch>
  <switch><text id="text71208" xml:space="preserve" font-size="12px" y="277.69745" x="48.165623" font-family="Bitstream Vera Sans" fill="#000000"><tspan id="tspan71210" font-size="16px" line-height="125%" y="277.69745" x="48.165623" font-family="Arial">5</tspan></text></switch>
  <switch><text id="text71212" xml:space="preserve" font-size="12px" y="321.11282" x="48.146091" font-family="Bitstream Vera Sans" fill="#000000"><tspan id="tspan71214" font-size="16px" line-height="125%" y="321.11282" x="48.146091" font-family="Arial">4</tspan></text></switch>
  <switch><text id="text71216" xml:space="preserve" font-size="12px" y="364.73608" x="48.239841" font-family="Bitstream Vera Sans" fill="#000000"><tspan id="tspan71218" font-size="16px" line-height="125%" y="364.73608" x="48.239841" font-family="Arial">3</tspan></text></switch>
  <switch><text id="text71220" xml:space="preserve" font-size="12px" y="408.2403" x="48.165623" font-family="Bitstream Vera Sans" fill="#000000"><tspan id="tspan71222" font-size="16px" line-height="125%" y="408.2403" x="48.165623" font-family="Arial">2</tspan></text></switch>
  <switch><text id="text71224" xml:space="preserve" font-size="12px" y="451.94467" x="48.935158" font-family="Bitstream Vera Sans" fill="#000000"><tspan id="tspan71226" font-size="16px" line-height="125%" y="451.94467" x="48.935158" font-family="Arial">1</tspan></text></switch>
  <switch><text id="text71228" xml:space="preserve" font-size="12px" y="495.58664" x="48.173435" font-family="Bitstream Vera Sans" fill="#000000"><tspan id="tspan71230" font-size="16px" line-height="125%" y="495.58664" x="48.173435" font-family="Arial">0</tspan></text></switch>
  <path id="line72163" d="m679.5 491.02v-392.92h-616.74v392.92h616.74z" stroke="#000" stroke-linecap="square" stroke-miterlimit="10" fill="none"/>
  <switch><text id="text72170" xml:space="preserve" font-size="12px" y="509.58673" x="63.560177" font-family="Bitstream Vera Sans" fill="#000000"><tspan id="tspan72172" style="text-anchor:middle;text-align:center" font-size="16px" line-height="125%" y="509.58673" x="63.560177" font-family="Arial">0</tspan></text></switch>
  <switch><text id="text72217" xml:space="preserve" font-size="12px" y="509.58673" x="132.16234" font-family="Bitstream Vera Sans" fill="#000000"><tspan id="tspan72219" style="text-anchor:middle;text-align:center" font-size="16px" line-height="125%" y="509.58673" x="132.16234" font-family="Arial">30</tspan></text></switch>
  <switch><text id="text72233" xml:space="preserve" font-size="12px" y="509.58673" x="200.5352" font-family="Bitstream Vera Sans" fill="#000000"><tspan id="tspan72235" style="text-anchor:middle;text-align:center" font-size="16px" line-height="125%" y="509.58673" x="200.5352" font-family="Arial">60</tspan></text></switch>
  <switch><text id="text72237" xml:space="preserve" font-size="12px" y="509.58673" x="269.04279" font-family="Bitstream Vera Sans" fill="#000000"><tspan id="tspan72239" style="text-anchor:middle;text-align:center" font-size="16px" line-height="125%" y="509.58673" x="269.04279" font-family="Arial">90</tspan></text></switch>
  <switch><text id="text72241" xml:space="preserve" font-size="12px" y="509.58673" x="337.52573" font-family="Bitstream Vera Sans" fill="#000000"><tspan id="tspan72243" style="text-anchor:middle;text-align:center" font-size="16px" line-height="125%" y="509.58673" x="337.52573" font-family="Arial">120</tspan></text></switch>
  <switch><text id="text72245" xml:space="preserve" font-size="12px" y="509.58673" x="406.10425" font-family="Bitstream Vera Sans" fill="#000000"><tspan id="tspan72247" style="text-anchor:middle;text-align:center" font-size="16px" line-height="125%" y="509.58673" x="406.10425" font-family="Arial">150</tspan></text></switch>
  <switch><text id="text72249" xml:space="preserve" font-size="12px" y="509.58673" x="474.56946" font-family="Bitstream Vera Sans" fill="#000000"><tspan id="tspan72251" style="text-anchor:middle;text-align:center" font-size="16px" line-height="125%" y="509.58673" x="474.56946" font-family="Arial">180</tspan></text></switch>
  <switch><text id="text72253" xml:space="preserve" font-size="12px" y="509.58673" x="542.8045" font-family="Bitstream Vera Sans" fill="#000000"><tspan id="tspan72255" style="text-anchor:middle;text-align:center" font-size="16px" line-height="125%" y="509.58673" x="542.8045" font-family="Arial">210</tspan></text></switch>
  <switch><text id="text72257" xml:space="preserve" font-size="12px" y="509.58673" x="611.26495" font-family="Bitstream Vera Sans" fill="#000000"><tspan id="tspan72259" style="text-anchor:middle;text-align:center" font-size="16px" line-height="125%" y="509.58673" x="611.26495" font-family="Arial">240</tspan></text></switch>
  <switch><text id="text72261" xml:space="preserve" font-size="12px" y="509.58673" x="679.84259" font-family="Bitstream Vera Sans" fill="#000000"><tspan id="tspan72263" style="text-anchor:middle;text-align:center" font-size="16px" line-height="125%" y="509.58673" x="679.84259" font-family="Arial">270</tspan></text></switch>
 </g>
</svg>
