<svg class="img-fluid" id="outputsvg" xmlns="http://www.w3.org/2000/svg" style="transform-origin: 50% 50%; cursor: move; max-height: none; transition: transform 200ms ease-in-out 0s;" width="1340" height="1734" viewBox="0 0 13400 17340">
  <g id="l7l8DistkWApktnRWjWC2Hw" fill="#ffffff" style="transform: none;">
    <g>
      <path id="p16HUgzy9g" d="M1950 7895 l0 -7795 5585 0 5585 0 0 7795 0 7795 -5585 0 -5585 0 0 -7795z m1090 7565 l0 -150 45 0 45 0 0 150 0 150 510 0 510 0 0 -80 0 -80 45 0 45 0 0 80 0 80 510 0 510 0 0 -150 0 -150 45 0 45 0 0 150 0 150 510 0 509 0 3 -77 3 -78 43 -3 42 -3 0 80 0 81 510 0 510 0 0 -150 0 -150 45 0 45 0 0 150 0 150 510 0 509 0 3 -77 3 -78 42 -3 42 -3 3 78 3 78 507 3 507 2 3 -147 3 -148 43 -3 42 -3 0 150 0 151 510 0 509 0 3 -77 3 -78 42 -3 42 -3 3 78 3 78 507 3 507 2 3 -147 3 -148 43 -3 42 -3 0 150 0 151 510 0 510 0 0 -505 0 -504 -142 -3 -143 -3 0 -40 0 -40 143 -3 142 -3 0 -509 0 -509 -72 -3 -73 -3 0 -40 0 -40 73 -3 72 -3 0 -509 0 -510 -145 0 -145 0 0 -39 c0 -26 5 -41 16 -45 9 -3 74 -6 145 -6 l129 0 0 -510 0 -509 -72 -3 -73 -3 -3 -37 -3 -38 44 0 c25 0 59 -3 76 -6 l31 -6 0 -509 0 -509 -145 0 -145 0 0 -40 0 -40 145 0 145 0 0 -510 0 -509 -72 -3 -73 -3 0 -40 0 -40 73 -3 72 -3 0 -509 0 -509 -142 -3 -143 -3 -3 -43 -3 -42 145 0 146 0 0 -510 0 -510 -76 0 -75 0 3 -42 3 -43 73 -3 72 -3 0 -509 0 -510 -146 0 -145 0 3 -42 3 -43 143 -3 142 -3 0 -509 0 -510 -75 0 -75 0 0 -40 0 -40 75 0 75 0 0 -515 0 -515 -145 0 -145 0 0 -40 0 -40 145 0 145 0 0 -510 0 -509 -72 -3 -73 -3 -3 -42 -3 -43 75 0 76 0 0 -510 0 -509 -142 -3 -143 -3 0 -40 0 -40 143 -3 142 -3 -2 -512 -3 -512 -507 -3 -508 -2 0 145 0 146 -42 -3 -43 -3 -3 -142 -3 -143 -509 0 -510 0 0 75 0 75 -45 0 -45 0 0 -75 0 -75 -510 0 -510 0 0 145 0 145 -45 0 -45 0 0 -145 0 -145 -510 0 -510 0 0 75 0 75 -45 0 -45 0 0 -75 0 -75 -510 0 -510 0 0 145 0 145 -45 0 -45 0 0 -145 0 -145 -510 0 -510 0 0 75 0 75 -45 0 -45 0 0 -75 0 -75 -510 0 -510 0 0 145 0 145 -45 0 -45 0 0 -145 0 -145 -510 0 -510 0 0 75 0 75 -45 0 -45 0 0 -75 0 -75 -510 0 -510 0 0 145 0 145 -45 0 -45 0 0 -145 0 -145 -497 2 -498 3 -3 513 -2 512 150 0 150 0 0 45 0 45 -150 0 -150 0 0 510 0 510 81 0 80 0 -3 43 -3 42 -77 3 -78 3 0 509 0 510 150 0 150 0 0 46 0 46 -97 -2 c-54 -1 -122 -2 -150 -1 l-53 1 0 510 0 510 80 0 80 0 0 40 0 40 -80 0 -80 0 0 510 0 510 150 0 150 0 0 45 0 45 -150 0 -150 0 0 510 0 509 78 3 77 3 3 43 3 42 -80 0 -81 0 0 510 0 510 150 0 150 0 0 45 0 45 -150 0 -150 0 0 510 0 510 81 0 80 0 -3 43 -3 42 -77 3 -78 3 0 509 0 510 150 0 150 0 0 40 0 40 -127 0 c-71 0 -138 3 -150 6 l-23 6 0 503 0 503 23 6 c12 3 48 6 80 6 l57 0 0 40 0 40 -80 0 -80 0 0 510 0 510 134 0 c74 0 141 3 150 6 11 4 16 19 16 45 l0 39 -150 0 -150 0 0 510 0 510 81 0 80 0 -3 43 -3 42 -77 3 -78 3 0 509 0 510 150 0 150 0 0 45 0 45 -150 0 -150 0 0 498 c0 274 3 502 7 505 3 4 228 7 500 7 l493 0 0 -150z"></path>
      <path id="p16GKTa86w" d="M10643 14614 c-18 -8 -16 -80 3 -109 13 -20 25 -25 55 -25 57 0 81 28 77 88 l-3 47 -60 2 c-33 1 -66 -1 -72 -3z"></path>
      <path id="pHkAVervf" d="M10010 14587 c-20 -10 -26 -21 -28 -55 -4 -54 10 -72 57 -72 64 0 101 64 71 121 -12 22 -61 26 -100 6z"></path>
      <path id="pnXpup9HG" d="M9412 14488 c-18 -23 -24 -59 -17 -104 6 -43 7 -44 44 -44 79 0 122 88 68 138 -26 24 -79 29 -95 10z"></path>
      <path id="pawbWG9Cf" d="M11170 14448 c-25 -27 -26 -79 -2 -101 23 -21 81 -22 110 -1 16 11 22 25 22 54 0 29 -6 43 -22 54 -33 23 -83 20 -108 -6z"></path>
      <path id="pRbasBxLp" d="M9043 14320 c-20 -12 -33 -28 -33 -40 0 -11 -4 -20 -10 -20 -16 0 -12 -83 6 -108 21 -31 66 -29 104 5 17 14 30 34 30 44 0 9 7 20 16 23 11 4 14 18 12 58 l-3 53 -45 3 c-31 2 -55 -4 -77 -18z"></path>
      <path id="poFQJ851l" d="M11756 14291 c-12 -13 -16 -32 -14 -58 l3 -38 63 -3 62 -3 0 49 c0 26 -5 53 -12 60 -19 19 -82 15 -102 -7z"></path>
      <path id="p4tiFmu0N" d="M8837 14242 c-11 -12 -17 -36 -17 -69 0 -60 20 -83 72 -83 70 0 102 79 56 140 -17 24 -29 30 -58 30 -23 0 -43 -7 -53 -18z"></path>
      <path id="pxIqU18Cx" d="M9508 14248 c-3 -8 -22 -11 -55 -9 -45 2 -53 -1 -64 -20 l-12 -23 -17 22 c-24 30 -94 31 -110 3 -16 -31 -12 -86 8 -104 23 -21 75 -22 92 -2 11 13 15 11 32 -10 13 -17 29 -25 49 -25 26 0 29 -3 29 -30 0 -16 -4 -30 -10 -30 -15 0 -12 -70 3 -70 6 0 3 -6 -8 -12 -28 -16 -35 -28 -35 -63 0 -36 8 -48 37 -64 32 -16 74 -14 89 7 7 9 14 33 14 53 0 21 7 42 16 50 14 11 19 10 34 -9 13 -15 29 -22 54 -22 41 0 56 20 56 74 0 19 5 38 10 41 6 3 10 27 10 53 0 39 4 49 23 57 30 13 37 97 11 127 -25 27 -84 21 -100 -9 l-10 -22 -37 24 c-38 26 -102 34 -109 13z"></path>
      <path id="pmC1X8ebg" d="M10180 14175 c0 -33 -2 -35 -33 -35 -18 0 -38 -5 -44 -11 -8 -8 -15 -6 -25 10 -20 32 -72 28 -109 -8 -26 -26 -29 -36 -29 -90 l0 -61 69 0 70 0 3 -47 3 -48 53 -3 c80 -5 86 4 77 110 l-7 88 51 0 c50 0 50 0 41 -26 -6 -15 -19 -38 -30 -52 -24 -30 -26 -89 -4 -120 11 -17 25 -22 58 -22 23 0 46 4 52 9 5 6 9 -14 9 -55 1 -36 6 -68 12 -72 6 -4 13 -17 17 -29 6 -18 15 -23 43 -23 52 0 93 33 93 75 0 18 -7 40 -15 49 -29 29 -19 46 30 46 34 0 47 5 55 19 18 34 11 72 -20 111 -16 21 -30 42 -30 47 0 17 -36 43 -57 43 -19 0 -20 5 -16 39 12 87 -70 125 -123 56 -30 -39 -44 -44 -44 -16 0 31 -38 51 -97 51 l-53 0 0 -35z m276 -222 c8 -3 24 -24 35 -47 11 -22 14 -33 6 -23 -9 11 -28 17 -56 17 -44 0 -48 5 -26 34 8 11 16 36 17 55 l1 36 4 -33 c3 -18 11 -36 19 -39z"></path>
      <path id="p1BzN4TEUo" d="M12627 14174 c-11 -11 -8 -124 3 -124 6 0 10 -7 10 -15 0 -12 14 -15 65 -15 l66 0 -3 78 -3 77 -65 3 c-36 2 -69 0 -73 -4z"></path>
      <path id="pRhK0DEV8" d="M12407 14103 c-27 -4 -28 -5 -25 -66 l3 -62 51 -3 c44 -3 52 0 63 21 7 13 11 43 9 68 -3 43 -4 44 -38 45 -19 1 -48 -1 -63 -3z"></path>
      <path id="p2hMCwJfH" d="M8487 14082 c-21 -23 -22 -78 -3 -98 17 -16 88 -19 117 -4 25 14 25 67 0 98 -25 28 -90 31 -114 4z"></path>
      <path id="pRJsmuHQH" d="M11557 14053 c-9 -8 -9 -96 -1 -117 3 -9 14 -16 24 -16 14 0 20 -9 22 -32 3 -33 4 -33 59 -36 51 -3 59 0 77 23 23 29 32 32 32 8 1 -29 25 -53 54 -53 19 0 29 -7 36 -25 5 -14 13 -25 18 -25 5 0 15 -11 22 -25 16 -31 75 -35 96 -7 21 27 18 104 -5 129 -11 11 -21 33 -23 49 -3 28 -4 29 -70 32 l-67 3 -3 32 c-3 32 -3 32 -67 35 -35 2 -73 10 -85 18 -21 14 -107 20 -119 7z"></path>
      <path id="prEGskdHZ" d="M11087 13987 c-18 -15 -27 -33 -27 -52 0 -22 -6 -33 -22 -40 -19 -8 -24 -19 -26 -62 -4 -72 9 -93 58 -93 45 0 60 18 60 74 0 29 4 36 20 36 32 0 60 39 60 84 0 23 -7 49 -14 59 -19 25 -77 22 -109 -6z"></path>
      <path id="p17cBXnqk2" d="M11292 13998 c-7 -7 -12 -28 -12 -48 0 -29 -5 -37 -30 -48 -27 -12 -30 -18 -30 -61 0 -57 21 -81 70 -81 42 0 59 23 60 78 0 34 3 42 18 42 46 0 70 81 34 113 -22 20 -92 23 -110 5z"></path>
      <path id="p10gQMIfBM" d="M10752 13978 c-7 -7 -12 -27 -12 -44 0 -18 -4 -36 -10 -39 -5 -3 -10 -35 -10 -71 l0 -64 64 0 64 0 6 58 c3 31 8 83 12 115 l6 57 -54 0 c-30 0 -59 -5 -66 -12z"></path>
      <path id="pRaqXr4jL" d="M9737 13922 c-31 -32 -35 -71 -11 -107 38 -58 33 -125 -8 -110 -12 5 -14 17 -11 48 7 59 -16 79 -88 75 -53 -3 -54 -4 -57 -35 -3 -31 -6 -33 -39 -33 -47 0 -83 -37 -83 -86 0 -41 30 -73 70 -74 19 0 21 -3 12 -12 -17 -17 -15 -93 3 -108 11 -9 33 -11 73 -6 45 5 54 4 44 -6 -6 -6 -12 -25 -12 -40 l0 -28 -79 0 c-58 0 -80 -4 -84 -14 -4 -10 -18 -12 -51 -9 -41 5 -49 2 -71 -21 -54 -58 -18 -115 73 -116 28 0 52 5 52 10 0 6 20 10 45 10 l45 0 0 -52 c0 -40 -3 -49 -12 -40 -18 18 -73 14 -91 -6 -12 -13 -17 -37 -17 -80 0 -55 -2 -62 -19 -62 -11 0 -28 -11 -38 -24 -16 -20 -21 -22 -37 -11 -17 13 -17 14 3 27 28 17 28 76 1 111 -14 17 -20 41 -20 74 -1 54 -17 83 -49 83 -17 0 -21 6 -21 35 0 19 -4 35 -10 35 -5 0 -10 7 -10 15 0 10 15 15 58 17 l57 3 3 63 c2 36 -1 62 -7 62 -5 0 -13 10 -17 23 -20 65 -82 76 -145 26 -33 -26 -39 -37 -41 -72 -1 -41 -1 -41 -5 -7 -6 47 -19 60 -59 60 -49 0 -44 25 16 81 39 36 50 54 50 77 0 56 -7 62 -74 62 -56 0 -63 -2 -78 -27 l-16 -27 5 47 c8 65 -5 77 -78 77 l-59 0 0 -65 0 -65 45 0 45 0 0 -40 c0 -22 -4 -40 -10 -40 -5 0 -10 -24 -10 -53 0 -54 21 -87 55 -87 9 0 15 -10 15 -25 0 -18 -5 -25 -20 -25 -11 0 -20 5 -20 10 0 7 -24 10 -62 8 l-63 -3 -3 -53 c-3 -49 0 -55 39 -102 41 -48 44 -50 98 -52 36 -1 44 -3 24 -5 -18 -2 -33 -8 -33 -14 0 -5 -7 -9 -15 -9 -11 0 -15 -11 -15 -37 0 -24 -3 -33 -9 -25 -5 9 -24 12 -52 10 -40 -3 -45 -6 -56 -38 -9 -28 -13 -31 -18 -17 -8 19 -79 25 -90 7 -10 -16 -22 -12 -28 10 -4 17 -14 20 -66 20 l-61 0 0 -60 c0 -55 -2 -60 -21 -60 -31 0 -48 -28 -49 -80 0 -55 13 -70 57 -70 40 0 43 -19 8 -54 -18 -18 -25 -36 -25 -64 0 -59 16 -74 75 -70 l50 3 3 62 c3 55 5 62 25 65 17 2 23 11 25 35 2 17 10 37 18 43 8 7 14 25 14 41 0 25 4 29 28 29 31 0 57 22 65 55 3 11 5 4 6 -18 2 -57 26 -87 70 -87 49 0 64 27 60 103 l-4 56 23 -24 c13 -14 30 -25 39 -25 15 0 15 -2 0 -18 -10 -10 -17 -26 -17 -34 0 -9 -7 -21 -16 -29 -11 -9 -15 -25 -12 -51 3 -37 2 -38 -28 -38 -40 0 -64 -27 -64 -74 0 -58 14 -76 60 -76 21 0 42 5 46 11 5 8 10 6 16 -5 5 -9 19 -16 31 -16 12 0 31 -7 41 -15 18 -14 14 -15 -46 -15 -37 0 -70 -4 -73 -10 -3 -5 -21 -17 -40 -26 -31 -14 -35 -21 -35 -54 0 -22 7 -43 15 -50 14 -12 13 -15 -4 -31 -15 -14 -21 -38 -27 -109 l-7 -90 -32 0 c-29 0 -31 2 -27 30 2 16 1 46 -2 65 l-7 35 -55 0 c-46 0 -59 -4 -75 -22 -20 -25 -25 -88 -9 -104 16 -16 -25 -50 -42 -36 -7 6 -45 13 -85 17 -58 6 -72 11 -76 26 -4 15 -14 19 -44 19 -50 0 -63 -14 -63 -68 0 -51 14 -82 38 -82 9 0 33 -16 52 -35 25 -26 43 -35 66 -35 18 0 36 5 39 10 3 6 23 10 44 10 20 0 42 5 49 12 9 9 12 9 12 -3 -1 -7 -21 -34 -45 -59 -31 -31 -45 -53 -45 -72 0 -16 -4 -28 -10 -28 -5 0 -10 16 -10 35 l0 35 -65 0 -65 0 0 -65 c0 -63 1 -65 25 -65 14 0 25 -4 25 -10 0 -5 -12 -10 -26 -10 -44 0 -64 -17 -64 -55 0 -27 -4 -35 -17 -35 -10 0 -35 -16 -55 -35 -35 -34 -68 -46 -68 -25 0 6 -7 10 -16 10 -8 0 -22 7 -31 16 -11 10 -31 15 -64 13 -60 -3 -78 15 -79 79 l0 42 -39 0 c-56 0 -91 -31 -91 -80 0 -21 6 -43 15 -50 8 -7 15 -28 15 -46 0 -19 5 -34 10 -34 6 0 10 -30 10 -70 0 -56 -3 -70 -15 -70 -9 0 -15 9 -15 23 0 13 -8 31 -18 40 -25 23 -85 22 -105 -1 -19 -20 -23 -87 -7 -97 22 -13 8 -25 -30 -25 -30 0 -42 -5 -51 -21 -13 -25 -6 -102 10 -107 6 -2 11 -8 11 -13 0 -15 -36 -10 -50 6 -7 8 -25 15 -41 15 -22 0 -29 5 -29 19 0 23 -19 31 -71 31 -33 0 -49 -8 -90 -42 -39 -35 -49 -49 -49 -74 0 -19 -6 -34 -15 -38 -9 -3 -15 -18 -15 -35 0 -16 -4 -33 -10 -36 -5 -3 -10 -24 -10 -45 0 -33 -4 -41 -23 -45 -15 -4 -29 -19 -37 -40 -7 -18 -24 -39 -37 -46 -21 -11 -23 -20 -24 -83 0 -39 -3 -65 -6 -58 -8 20 -97 15 -116 -6 -19 -21 -22 -62 -7 -92 6 -11 15 -29 20 -40 6 -11 10 -29 10 -40 0 -11 7 -23 15 -26 8 -4 15 -11 15 -18 0 -6 -16 5 -34 24 -44 47 -69 60 -112 60 -44 0 -64 -19 -64 -59 0 -17 -4 -31 -10 -31 -14 0 -13 -73 2 -88 8 -8 8 -15 0 -24 -5 -7 -12 -26 -14 -41 -2 -24 -11 -32 -43 -43 -36 -12 -41 -12 -60 6 -16 15 -35 20 -77 20 -52 0 -58 -2 -82 -34 -19 -26 -26 -47 -26 -80 0 -25 -6 -49 -13 -53 -6 -4 -18 -21 -26 -38 -7 -16 -17 -38 -22 -47 -5 -10 -9 -24 -9 -31 0 -26 -36 -47 -77 -47 -36 0 -45 -5 -71 -38 -17 -21 -46 -43 -68 -51 -53 -18 -74 -39 -74 -71 0 -15 -7 -33 -15 -40 -8 -7 -15 -23 -15 -35 0 -12 -7 -28 -15 -35 -13 -11 -15 -8 -15 13 0 36 -25 57 -67 57 -28 0 -44 -8 -74 -39 -22 -21 -39 -48 -39 -60 0 -14 -6 -21 -18 -21 -24 0 -65 -37 -80 -73 -31 -74 -2 -133 62 -125 30 3 33 2 25 -14 -5 -9 -16 -21 -23 -25 -8 -4 -16 -26 -18 -48 -2 -33 -7 -41 -26 -43 -28 -4 -56 27 -41 45 6 6 9 31 7 55 l-3 43 -67 3 c-103 4 -107 0 -107 -114 0 -82 3 -98 21 -120 12 -13 28 -24 35 -24 8 0 23 -9 35 -20 12 -11 35 -20 50 -20 38 0 28 -15 -28 -42 l-45 -21 -15 22 c-12 16 -26 21 -59 21 -48 0 -65 -17 -65 -63 0 -13 -9 -32 -20 -42 -11 -10 -20 -28 -20 -40 0 -18 -7 -24 -34 -29 -36 -7 -46 -21 -46 -64 0 -43 -40 -83 -101 -101 -48 -15 -54 -20 -57 -46 -4 -36 -28 -65 -54 -65 -13 0 -18 -8 -18 -30 0 -25 -4 -30 -24 -30 -13 0 -26 -7 -30 -15 -3 -8 -15 -15 -26 -15 -18 0 -20 -6 -20 -54 l0 -54 -44 -6 c-34 -5 -45 -12 -50 -29 -10 -39 -6 -75 9 -81 8 -3 15 -14 15 -25 0 -11 5 -23 11 -26 6 -4 -3 -14 -20 -23 -63 -35 -91 -69 -91 -112 0 -29 -4 -40 -15 -40 -8 0 -15 5 -15 10 0 6 -18 10 -39 10 -30 0 -44 -6 -55 -22 -32 -46 -10 -138 33 -138 10 0 26 -10 37 -21 10 -12 28 -25 39 -30 13 -5 -3 -8 -48 -8 -45 -1 -73 -6 -83 -15 -16 -17 -20 -131 -4 -141 6 -3 10 -13 10 -21 0 -10 -12 -14 -44 -14 -52 0 -62 -16 -51 -86 6 -41 9 -44 36 -44 34 0 38 -14 9 -32 -16 -10 -20 -24 -20 -64 0 -35 -5 -56 -16 -65 -10 -8 -14 -26 -13 -56 2 -24 -2 -48 -9 -55 -15 -15 -16 -120 0 -136 6 -6 12 -33 12 -59 1 -46 2 -48 32 -51 45 -4 84 -51 84 -100 0 -29 7 -45 30 -67 16 -15 27 -32 24 -37 -3 -4 -33 -8 -68 -8 -72 0 -96 -17 -96 -67 0 -39 25 -61 75 -65 l39 -3 -3 -51 c-2 -44 1 -54 21 -68 12 -9 40 -16 61 -16 31 0 46 7 71 33 18 17 35 39 38 47 4 12 11 9 35 -12 16 -16 37 -28 46 -28 12 0 17 -8 17 -28 0 -36 28 -62 67 -62 39 0 63 28 63 73 l0 37 49 0 c28 0 53 -4 56 -10 3 -5 15 -10 26 -10 15 0 19 -7 19 -37 0 -72 8 -83 55 -83 51 0 72 20 77 74 2 22 9 41 16 44 9 3 12 -14 12 -62 0 -51 4 -68 15 -73 14 -5 14 -8 0 -29 -48 -73 17 -140 100 -102 21 9 25 18 25 54 0 30 -5 44 -17 48 -26 10 54 46 103 46 43 0 91 19 105 42 7 10 9 9 9 -5 0 -35 31 -67 64 -67 24 0 38 9 62 37 l31 37 26 -29 c15 -17 27 -42 27 -57 0 -26 -3 -28 -43 -28 -51 0 -67 -13 -67 -56 0 -34 21 -64 46 -64 8 0 14 -10 14 -24 0 -49 9 -56 66 -56 53 0 54 0 54 -29 0 -17 -4 -33 -10 -36 -13 -8 -13 -82 0 -90 6 -3 10 -17 10 -31 0 -22 3 -24 54 -24 35 0 58 -5 66 -15 9 -11 35 -15 101 -15 76 0 92 3 109 20 11 11 20 27 20 35 0 11 11 15 40 15 48 0 80 27 80 68 0 44 -29 64 -86 60 -47 -3 -49 -4 -52 -35 -3 -32 -4 -33 -55 -34 -73 -2 -79 0 -108 27 -14 13 -30 24 -37 24 -8 0 -12 17 -12 48 0 58 -12 72 -62 72 -24 0 -38 5 -38 13 -1 16 -35 57 -49 57 -6 0 -11 9 -11 20 0 20 1 20 25 3 13 -10 25 -21 25 -25 0 -5 20 -8 43 -8 55 0 77 22 77 78 0 22 4 44 10 47 6 3 10 -4 10 -17 1 -29 22 -58 43 -58 14 0 15 -4 5 -27 -7 -16 -18 -35 -25 -44 -14 -16 -17 -57 -7 -83 5 -12 20 -16 63 -16 58 1 91 16 91 42 0 9 7 21 15 28 36 30 6 110 -40 110 -15 0 -16 3 -7 12 17 17 15 65 -5 88 -12 14 -30 20 -60 20 -38 0 -43 3 -43 23 0 13 11 34 25 47 22 20 25 32 23 70 -3 38 -6 45 -25 48 -19 3 -23 10 -23 37 0 56 -55 79 -127 53 -29 -11 -35 -10 -56 10 -13 12 -33 22 -45 22 -13 0 -25 7 -28 15 -5 11 -23 15 -76 15 -58 0 -71 -3 -75 -18 -3 -14 -12 -17 -42 -14 -21 2 -42 -1 -45 -7 -4 -6 -27 -11 -50 -11 -36 0 -47 5 -60 25 -13 20 -25 25 -59 25 -24 0 -48 -5 -54 -11 -8 -8 -13 -8 -17 0 -4 6 -15 11 -26 11 -10 0 -20 7 -24 15 -8 22 -141 22 -150 0 -7 -19 -83 -20 -107 -2 -9 7 -23 26 -31 42 -27 51 -51 67 -99 63 -41 -3 -44 -5 -47 -33 -3 -30 -25 -55 -49 -55 -9 0 -13 15 -13 48 0 47 0 47 -42 60 -70 22 -78 34 -78 123 0 43 -4 81 -10 84 -16 10 13 45 37 45 22 0 23 4 23 70 0 62 -2 70 -19 70 -10 0 -25 10 -33 22 -14 21 -12 26 33 83 27 33 62 74 79 90 23 23 30 39 30 68 0 32 3 37 23 37 29 0 47 18 47 47 0 17 6 23 23 23 32 0 57 30 57 67 0 32 -26 63 -53 63 -14 0 -17 10 -17 55 0 46 3 55 18 55 10 0 32 15 50 33 26 27 32 41 32 75 0 40 3 44 35 58 31 13 35 18 35 53 0 25 7 44 20 56 12 11 20 31 20 52 0 31 2 33 33 33 43 0 67 26 67 73 0 26 4 37 15 37 8 0 15 -4 15 -10 0 -5 10 -21 22 -35 47 -55 148 -14 148 60 0 22 8 43 21 56 17 17 20 31 18 81 -3 60 -2 61 44 105 38 36 47 51 47 78 0 19 -5 37 -10 40 -7 4 -8 11 -1 18 5 7 11 23 13 37 3 23 8 25 61 28 39 2 57 7 57 16 0 8 7 16 15 20 17 6 20 58 5 87 -7 13 -7 19 0 19 5 0 19 9 30 20 16 16 20 33 20 79 0 57 1 60 32 75 17 9 38 16 46 16 22 0 102 40 102 51 0 14 20 11 36 -6 10 -9 34 -15 65 -15 43 0 49 3 55 23 3 13 4 41 2 63 -3 39 -3 39 -49 42 -43 3 -47 5 -51 33 -4 25 -1 29 18 29 33 0 84 63 84 104 0 35 23 66 35 46 3 -5 25 -10 49 -10 32 0 48 6 64 23 12 13 22 29 22 35 0 7 10 12 23 12 51 1 89 74 56 107 -18 18 -3 43 25 43 14 0 28 5 31 10 11 18 34 10 37 -12 3 -21 8 -23 63 -23 l60 0 3 50 c3 38 -1 52 -14 62 -22 16 -76 17 -92 1 -9 -9 -12 -7 -12 8 0 27 33 43 95 46 43 3 50 6 53 26 3 19 9 22 48 22 24 0 44 5 44 10 0 6 25 10 55 10 40 0 57 4 61 15 4 8 12 15 20 15 9 0 14 12 14 34 0 40 -28 66 -72 66 -16 0 -28 5 -28 10 0 6 23 10 51 10 39 0 58 6 85 26 19 15 34 35 34 45 0 17 8 19 85 19 76 0 86 2 109 25 17 17 36 25 61 25 70 0 97 38 79 108 -6 20 -12 22 -69 22 -41 0 -65 -4 -68 -12 -3 -8 -6 -6 -6 5 -1 12 7 17 28 17 29 0 61 22 61 41 0 5 11 9 24 9 28 0 36 16 36 74 0 23 7 51 15 62 14 18 14 17 15 -13 0 -29 5 -35 45 -54 25 -12 48 -25 51 -30 10 -16 70 -10 87 9 10 10 17 34 17 53 -1 33 -28 79 -48 79 -5 0 -17 9 -27 20 -11 12 -31 20 -52 20 -38 0 -46 23 -14 40 26 13 31 13 31 -4 0 -22 40 -46 77 -46 22 0 44 10 68 31 30 27 35 37 35 75 l0 44 43 0 c31 0 47 6 60 21 11 12 25 18 33 15 9 -3 30 -6 47 -6 27 -1 29 -2 15 -11 -21 -12 -25 -88 -6 -107 16 -16 90 -16 106 0 7 7 12 28 12 48 0 42 -24 70 -61 70 l-23 0 22 16 c27 18 30 69 6 102 -15 21 -15 25 2 43 9 10 23 19 29 19 7 0 18 7 25 15 7 8 22 15 34 15 28 0 66 39 66 68 0 19 5 22 46 22 40 0 53 5 89 39 31 28 49 38 64 34 18 -4 18 -7 6 -20 -19 -18 -19 -77 -1 -92 8 -7 37 -11 68 -9 l53 3 0 50 c0 48 -1 50 -35 62 -38 13 -27 17 33 13 21 -1 54 6 72 15 32 14 35 20 35 58 0 31 5 45 20 55 34 21 27 76 -15 118 -19 19 -35 38 -35 42 0 4 20 28 45 52 l45 44 0 -47 c0 -34 6 -53 20 -67 24 -24 82 -27 100 -5 7 8 18 15 24 15 7 0 25 14 41 30 22 22 38 30 65 30 20 0 41 5 47 11 9 9 16 8 28 -5 21 -21 79 -21 110 0 18 12 25 25 25 49 0 44 -35 67 -95 64 -25 -2 -48 0 -51 4 -4 4 1 7 12 7 36 1 64 35 64 79 0 22 -4 42 -9 45 -4 3 -11 18 -14 34 -4 18 -16 33 -34 41 -15 7 -36 17 -45 22 -10 5 -26 9 -36 9 -27 0 -52 32 -51 66 l1 29 9 -31 c13 -47 47 -60 120 -46 34 6 69 18 79 27 26 24 44 19 26 -7 -20 -29 -20 -71 0 -114 23 -48 64 -47 122 5 38 35 42 43 42 86 0 50 -25 84 -62 85 -10 0 -18 7 -18 15 0 11 11 15 43 15 52 0 87 22 87 56 0 17 5 24 20 24 10 0 28 10 40 22 l20 22 0 -47 c0 -56 24 -77 85 -77 32 0 47 6 68 28 25 26 27 35 27 107 0 67 -3 82 -22 102 -19 20 -22 35 -22 114 -1 96 -5 104 -61 119 -23 7 -34 51 -34 143 l-1 57 32 0 c25 0 29 -3 20 -12 -36 -36 9 -172 66 -197 21 -10 32 -22 32 -36 0 -31 19 -45 61 -45 28 0 43 6 57 25 11 14 27 25 37 25 15 0 15 -2 1 -22 -9 -12 -16 -30 -16 -40 0 -14 -8 -18 -38 -18 -33 0 -43 -6 -70 -39 -27 -34 -32 -48 -32 -94 0 -31 6 -61 15 -73 8 -11 15 -41 15 -71 0 -28 5 -55 10 -58 22 -14 7 -25 -34 -25 -45 0 -56 -10 -56 -51 0 -16 -7 -19 -50 -19 -48 0 -50 1 -50 28 0 42 -28 62 -86 62 -58 0 -74 -12 -74 -56 0 -23 8 -39 26 -53 30 -24 98 -29 111 -8 5 7 10 -12 13 -48 l5 -60 51 -3 c60 -3 84 13 84 59 0 28 2 29 49 29 53 0 61 10 61 73 0 23 4 27 29 27 46 0 61 10 61 40 0 15 9 35 20 45 33 29 27 90 -11 126 -17 16 -26 29 -20 29 6 0 11 16 11 35 0 33 2 35 32 35 25 0 29 -3 20 -12 -19 -19 -15 -92 6 -111 29 -26 77 -22 101 9 23 29 28 83 11 115 -10 17 -7 19 35 19 31 0 47 5 51 15 4 8 14 15 23 15 9 0 23 6 30 13 10 10 17 7 35 -15 17 -22 30 -28 59 -28 31 0 39 4 47 26 6 14 10 42 10 62 0 28 3 33 12 24 19 -19 82 -15 101 6 24 26 23 104 -1 125 -46 41 -132 4 -132 -56 0 -23 -4 -27 -30 -27 -27 0 -30 3 -30 33 0 45 -26 67 -77 67 -36 0 -45 -5 -72 -39 -17 -21 -31 -44 -31 -50 0 -6 -8 -11 -18 -11 -34 0 -52 -32 -52 -92 0 -36 5 -58 13 -61 6 -3 0 -6 -15 -6 -27 -1 -28 1 -28 49 0 53 -23 90 -57 90 -13 0 -14 3 -5 12 7 7 12 25 12 40 0 18 5 28 15 28 30 0 55 38 55 83 0 52 -22 77 -68 77 -33 0 -62 -29 -62 -63 0 -10 -4 -15 -10 -12 -5 3 -10 25 -10 49 0 52 -22 76 -72 76 -24 0 -42 -8 -58 -25 -13 -14 -32 -25 -42 -25 -15 0 -18 8 -18 43 0 45 31 100 44 78 4 -6 23 -11 43 -11 38 0 62 21 63 53 0 13 8 17 34 17 26 0 41 8 63 33 15 18 47 39 71 46 45 15 56 34 50 87 -3 26 -7 29 -45 32 -35 3 -43 7 -43 23 0 36 47 23 109 -31 32 -27 65 -50 74 -50 10 0 17 -8 17 -20 0 -11 -7 -20 -15 -20 -8 0 -20 -9 -27 -20 -7 -11 -18 -20 -25 -20 -9 0 -13 -19 -13 -65 0 -36 4 -65 9 -65 5 0 7 -17 4 -39 -8 -55 18 -91 65 -91 41 0 61 21 62 64 l0 29 23 -21 c26 -24 85 -30 105 -10 9 9 15 9 24 0 21 -21 82 -14 106 11 32 34 30 94 -2 107 -13 5 -27 14 -31 19 -9 16 -66 13 -79 -3 -8 -11 -24 -13 -58 -9 -39 5 -48 9 -48 26 0 11 11 30 25 43 46 43 25 144 -31 144 -21 0 -24 5 -24 34 0 19 -4 38 -10 41 -5 3 -10 15 -10 26 0 10 -4 19 -10 19 -5 0 -10 8 -10 18 -1 29 -26 52 -58 52 -17 0 -32 6 -36 15 -3 8 -13 15 -23 15 -9 0 -27 9 -39 21 -12 11 -40 23 -62 26 -56 8 -82 -19 -82 -86 0 -45 -2 -49 -20 -44 -19 5 -19 7 -5 23 19 21 20 84 0 100 -21 18 -19 29 10 40 19 7 25 17 25 41 0 19 -10 43 -25 61 -14 16 -25 39 -25 51 -1 60 -67 77 -113 29z m39 -342 c11 0 12 -4 4 -19 -15 -28 -12 -96 5 -138 8 -19 15 -43 14 -52 0 -9 -5 -1 -10 17 -5 17 -14 32 -19 32 -6 0 -10 15 -10 34 0 35 -15 46 -67 46 -30 0 -29 8 8 53 20 24 37 36 46 33 8 -3 21 -6 29 -6z m-576 -363 c0 -13 -11 -34 -25 -47 -14 -13 -25 -33 -25 -45 0 -18 -5 -20 -40 -17 -37 4 -40 6 -40 35 0 17 -7 39 -17 49 -15 17 -14 18 25 18 24 0 47 6 54 15 7 8 25 14 41 15 22 0 27 -4 27 -23z m43 -216 l26 -29 -21 -19 c-16 -14 -19 -27 -15 -60 4 -34 1 -42 -14 -46 -14 -4 -19 -15 -20 -39 0 -18 -3 -27 -6 -20 -2 6 -17 12 -33 12 l-28 0 15 48 c9 26 18 65 20 87 3 22 9 44 14 50 5 5 9 17 9 27 0 27 23 22 53 -11z m179 -138 c10 -9 18 -26 18 -37 0 -12 7 -30 15 -40 21 -27 19 -46 -5 -46 -16 0 -20 7 -20 33 0 46 -12 59 -51 57 -53 -3 -54 -2 -23 25 34 29 41 30 66 8z m-92 -341 c22 2 40 0 40 -4 0 -5 -9 -8 -19 -8 -11 0 -23 -4 -26 -10 -9 -15 -61 -12 -74 3 -15 19 7 41 26 26 7 -6 31 -9 53 -7z m-425 -428 c15 -10 39 -15 63 -12 31 3 44 -2 68 -24 21 -21 25 -28 13 -28 -9 0 -19 7 -23 15 -7 19 -132 22 -139 3 -2 -7 -6 4 -8 25 -6 43 -6 42 26 21z m-45 -119 c0 -12 -28 -35 -44 -35 -3 0 -6 11 -6 25 0 20 5 25 25 25 15 0 25 -6 25 -15z m-328 -230 c-3 -35 -8 -45 -21 -45 -28 0 -33 12 -11 27 11 8 20 25 20 39 0 13 3 24 8 24 4 0 6 -20 4 -45z m-408 -123 c3 -5 -2 -25 -11 -44 -16 -35 -18 -36 -82 -41 -36 -2 -70 0 -75 4 -6 5 9 9 34 9 50 0 80 21 80 57 0 18 5 23 24 23 14 0 27 -4 30 -8z m-298 -279 c7 -10 14 -26 14 -37 0 -15 -3 -16 -15 -6 -8 7 -15 19 -15 26 0 8 -5 14 -11 14 -5 0 -7 5 -4 10 9 14 16 12 31 -7z m32 -146 c3 -12 -3 -17 -22 -17 -25 0 -35 18 -19 34 12 12 38 2 41 -17z m-238 -2 c0 -8 -4 -15 -10 -15 -5 0 -10 4 -10 9 0 6 -17 12 -37 14 -35 3 -34 4 10 5 36 2 47 -2 47 -13z m-1900 -2123 c0 -10 -22 -32 -32 -32 -4 0 -8 9 -8 20 0 13 7 20 20 20 11 0 20 -4 20 -8z m307 -2204 c-9 -27 -12 -29 -15 -13 -2 11 -9 26 -14 33 -8 9 -4 12 15 12 25 0 26 -1 14 -32z"></path>
      <path id="pMnAanzfG" d="M12378 13821 c-12 -11 -18 -33 -18 -61 0 -29 6 -47 18 -56 23 -18 80 -18 98 0 21 21 18 99 -4 119 -24 22 -72 21 -94 -2z"></path>
      <path id="pVErfEozW" d="M9266 13741 c-12 -14 -16 -32 -14 -67 l3 -49 54 -3 c70 -4 96 19 88 80 -3 23 -11 45 -19 49 -25 16 -94 10 -112 -10z"></path>
      <path id="ppmauDugn" d="M8302 13724 c-18 -12 -22 -25 -22 -64 0 -62 11 -68 110 -68 104 0 110 5 110 83 l0 65 -88 0 c-63 0 -94 -4 -110 -16z"></path>
      <path id="p9T2gA5W8" d="M10457 13666 c-14 -11 -17 -25 -15 -63 l3 -48 52 -9 c48 -9 52 -12 58 -42 4 -26 12 -34 35 -39 25 -5 29 -12 32 -43 2 -30 7 -38 26 -40 13 -2 26 -10 29 -18 7 -20 73 -18 103 3 39 27 49 45 50 90 0 33 -6 49 -27 72 -16 16 -36 41 -47 56 -16 23 -24 26 -65 25 -102 -5 -115 -2 -131 33 -12 26 -21 32 -50 34 -19 2 -43 -3 -53 -11z"></path>
      <path id="pur7fNBYp" d="M8600 13615 c-7 -14 -19 -25 -27 -25 -23 0 -16 -64 10 -88 29 -28 87 -29 110 -4 19 21 23 92 7 123 -17 30 -83 26 -100 -6z"></path>
      <path id="p15WDy3q8C" d="M11103 13543 c-20 -13 -23 -24 -23 -81 0 -51 -3 -63 -12 -54 -7 7 -27 12 -45 12 -31 0 -33 2 -33 35 0 50 -25 85 -61 85 -48 0 -69 -31 -69 -100 l0 -60 35 0 c34 0 35 -1 35 -38 0 -62 21 -82 86 -82 53 0 56 2 67 30 6 17 15 30 19 30 3 0 16 -13 28 -30 17 -24 28 -30 60 -30 49 0 70 27 70 89 0 35 -6 51 -27 73 -15 15 -21 28 -15 28 20 0 15 75 -6 93 -23 21 -80 21 -109 0z"></path>
      <path id="pAVsxYm5B" d="M8065 13440 c-3 -5 -15 -10 -26 -10 -17 0 -19 -7 -19 -70 l0 -70 54 0 c35 0 60 5 70 15 8 8 19 15 25 15 23 0 51 35 51 65 0 45 -29 65 -95 65 -29 0 -57 -4 -60 -10z"></path>
      <path id="pNNIStw8z" d="M8628 13409 c-25 -26 -24 -100 0 -122 21 -19 83 -22 113 -7 30 16 27 113 -3 134 -31 22 -89 19 -110 -5z"></path>
      <path id="pPIsbFUqo" d="M7888 13335 c-18 -24 -23 -70 -12 -99 5 -12 20 -16 64 -16 63 0 70 6 70 64 0 65 -86 102 -122 51z"></path>
      <path id="pYLucIdHp" d="M10677 13313 c-9 -8 -9 -80 -1 -110 6 -21 13 -23 65 -23 l59 0 0 70 0 70 -58 0 c-32 0 -62 -3 -65 -7z"></path>
      <path id="p11Y0uGv75" d="M8255 13270 c-3 -11 -5 -55 -3 -97 2 -53 -1 -78 -10 -81 -7 -2 -12 -17 -12 -33 0 -26 -2 -28 -19 -19 -35 18 -88 12 -105 -12 -20 -28 -21 -105 -2 -124 26 -26 74 -17 112 21 45 45 84 48 84 7 0 -16 8 -36 18 -45 23 -21 78 -22 98 -3 17 18 18 89 2 117 -10 17 -10 23 0 26 8 3 12 31 12 91 l0 87 -44 43 c-37 35 -51 42 -85 42 -31 0 -41 -4 -46 -20z"></path>
      <path id="p10dfj34zU" d="M7780 13100 c0 -42 5 -66 17 -80 22 -25 71 -26 89 -2 8 10 13 12 14 5 0 -18 109 -17 133 1 23 18 23 78 -1 99 -12 11 -36 17 -70 17 -29 0 -52 5 -52 10 0 6 -28 10 -65 10 l-65 0 0 -60z"></path>
      <path id="pQccLEAOf" d="M10646 13134 c-22 -56 12 -144 55 -144 10 0 19 -4 19 -10 0 -18 76 -11 93 8 28 31 22 97 -12 132 -25 27 -35 30 -89 30 -45 0 -61 -4 -66 -16z"></path>
      <path id="p1G2m3pgXA" d="M10907 13132 c-19 -21 -22 -64 -7 -93 14 -25 100 -27 124 -3 24 23 20 72 -6 95 -30 24 -90 25 -111 1z"></path>
      <path id="pE2tr579H" d="M7438 13099 c-19 -20 -25 -89 -9 -89 5 0 11 -10 13 -22 5 -36 64 -38 94 -3 l22 26 4 -23 c2 -19 10 -24 39 -26 29 -2 41 2 57 22 11 15 25 26 31 26 19 0 13 68 -9 90 -25 25 -105 28 -114 5 -3 -8 -12 -15 -20 -15 -7 0 -16 7 -20 15 -8 22 -67 18 -88 -6z"></path>
      <path id="p11ZtGRunW" d="M10860 12913 c-50 -6 -70 -28 -70 -78 0 -54 21 -73 91 -81 52 -6 57 -5 77 21 24 30 29 92 12 126 -11 19 -29 21 -110 12z"></path>
      <path id="p1qTGElLc" d="M8717 12871 c-39 -66 -10 -125 59 -119 51 4 70 35 60 101 l-7 47 -47 0 c-42 0 -50 -4 -65 -29z"></path>
      <path id="p15ksApMLt" d="M7816 12831 c-12 -13 -16 -32 -14 -62 l3 -44 52 -3 c39 -2 60 2 78 15 31 23 34 71 5 96 -28 24 -102 23 -124 -2z"></path>
      <path id="pq3jUzTlu" d="M8298 12816 c-13 -10 -18 -27 -18 -66 0 -60 16 -79 67 -80 39 0 63 30 63 80 0 50 -24 80 -63 80 -18 0 -40 -7 -49 -14z"></path>
      <path id="p5HX4yiH7" d="M7673 12633 c-29 -61 -1 -133 50 -133 34 0 97 61 97 94 0 42 -33 66 -87 66 -42 0 -50 -3 -60 -27z"></path>
      <path id="pVzmfCyFp" d="M8264 12635 c-12 -18 -25 -25 -50 -25 -57 0 -84 -18 -84 -58 0 -23 7 -40 23 -53 27 -22 90 -25 107 -4 7 8 28 15 47 15 58 0 73 14 73 68 -1 61 -17 82 -63 82 -28 0 -40 -6 -53 -25z"></path>
      <path id="pnhF2lopg" d="M7937 12592 c-10 -10 -17 -33 -17 -51 0 -37 33 -91 56 -91 10 0 14 -12 14 -38 0 -50 24 -72 78 -72 58 0 84 27 80 83 l-3 42 -49 3 -48 3 33 18 c31 17 34 23 37 70 l3 51 -84 0 c-69 0 -87 -3 -100 -18z"></path>
      <path id="p2AgRmgyC" d="M8702 12498 l3 -63 62 -3 c59 -3 63 -1 68 21 4 13 5 41 3 63 l-3 39 -68 3 -68 3 3 -63z"></path>
      <path id="p4VmIgY9Q" d="M10142 12318 c-15 -15 -16 -82 -2 -109 14 -25 77 -26 96 -1 17 21 18 94 2 110 -7 7 -28 12 -48 12 -20 0 -41 -5 -48 -12z"></path>
      <path id="p10Vc1U3iG" d="M8163 12270 c-24 -22 -33 -38 -33 -61 0 -46 23 -58 108 -59 l72 0 0 41 c0 28 -8 51 -26 75 -34 44 -75 46 -121 4z"></path>
      <path id="pcKwHIzWy" d="M8010 12095 c-8 -10 -30 -15 -64 -15 -61 0 -76 -12 -76 -59 0 -32 -1 -33 -18 -18 -36 32 -122 9 -122 -33 0 -10 -10 -20 -22 -23 -29 -8 -61 -65 -56 -103 3 -28 5 -29 62 -32 63 -3 96 14 96 50 0 14 8 18 35 18 l35 0 0 47 c0 37 3 44 12 35 15 -15 94 -16 104 -1 4 8 9 8 17 0 16 -16 92 -14 107 3 6 8 24 16 38 18 26 3 27 6 30 66 l3 62 -84 0 c-63 0 -88 -4 -97 -15z"></path>
      <path id="p1ABZ7i8uS" d="M9542 12048 c-15 -15 -16 -80 0 -96 13 -13 59 -16 96 -6 21 6 23 12 20 58 l-3 51 -50 3 c-30 2 -55 -2 -63 -10z"></path>
      <path id="pC2zINer8" d="M8208 11959 c-27 -15 -25 -104 1 -119 31 -16 79 -12 101 10 26 26 26 81 2 103 -21 19 -77 22 -104 6z"></path>
      <path id="pwdueNgQF" d="M7697 11780 c-22 -26 -22 -79 1 -96 9 -7 35 -13 57 -13 51 0 75 18 75 57 0 47 -26 72 -75 72 -28 0 -46 -6 -58 -20z"></path>
      <path id="pMkIk3J6u" d="M7940 11015 l0 -65 48 0 c57 0 72 12 72 60 -1 53 -19 70 -74 70 l-46 0 0 -65z"></path>
      <path id="pMzxIn6eT" d="M5796 9874 c-22 -22 -21 -87 2 -107 22 -20 73 -22 90 -5 13 13 16 85 6 112 -8 21 -77 21 -98 0z"></path>
      <path id="p2nZBORkp" d="M5600 9604 c-37 -11 -55 -121 -24 -151 21 -21 85 -12 123 19 61 48 28 139 -50 137 -19 -1 -41 -3 -49 -5z"></path>
      <path id="pJCqnaubu" d="M5378 8145 c-42 -57 -4 -119 70 -113 36 3 37 4 40 45 4 57 -20 93 -62 93 -21 -1 -37 -8 -48 -25z"></path>
      <path id="putGk8ddE" d="M5130 7612 c0 -58 12 -72 60 -72 43 0 70 24 70 62 0 52 -8 58 -71 58 l-59 0 0 -48z"></path>
      <path id="pOlJSnyYX" d="M4670 7000 l0 -60 55 0 55 0 0 60 0 60 -55 0 -55 0 0 -60z"></path>
      <path id="pe1CBsK1e" d="M5342 6688 c-7 -7 -12 -26 -12 -43 0 -44 16 -55 77 -55 l53 0 0 41 c0 28 -6 46 -17 55 -22 17 -85 18 -101 2z"></path>
      <path id="pQrC1Z2az" d="M5906 6638 c-18 -26 -21 -71 -6 -99 14 -26 87 -27 106 -1 20 26 17 86 -4 105 -27 25 -78 22 -96 -5z"></path>
      <path id="pWNqul4bU" d="M5518 6599 c-25 -14 -24 -80 0 -102 25 -22 81 -22 98 1 19 25 18 98 -2 106 -24 9 -77 7 -96 -5z"></path>
      <path id="pCOQKDyRT" d="M5733 6563 c-8 -3 -13 -23 -13 -48 0 -52 16 -65 79 -65 l41 0 0 48 c0 26 -5 53 -12 60 -12 12 -71 15 -95 5z"></path>
      <path id="pgcur9ZAN" d="M6513 6213 c-20 -8 -16 -87 5 -106 25 -22 75 -21 95 1 20 22 22 83 5 100 -12 12 -81 15 -105 5z"></path>
      <path id="pQL1Va2CR" d="M6340 6170 c-18 -18 -20 -31 -17 -122 l2 -103 30 -3 30 -3 -3 -75 c-4 -93 10 -116 73 -114 56 2 57 2 47 -16 -6 -10 -27 -16 -70 -19 -36 -2 -73 -10 -88 -20 -21 -14 -25 -22 -22 -58 2 -34 -1 -44 -17 -52 -15 -8 -21 -22 -23 -57 -3 -43 0 -50 36 -87 28 -29 48 -41 68 -41 22 0 32 -7 42 -27 23 -50 7 -84 -25 -52 -5 5 -37 9 -69 7 l-59 -3 -3 -35 c-2 -27 5 -45 29 -78 26 -35 32 -53 32 -93 0 -27 -3 -53 -7 -56 -13 -14 -5 -64 14 -83 15 -15 33 -20 70 -20 47 0 50 2 50 25 0 23 3 25 50 25 39 0 53 4 62 20 15 23 37 26 63 6 15 -11 18 -24 16 -65 -2 -42 1 -52 16 -57 44 -15 73 -29 73 -36 0 -4 -9 -13 -20 -20 -11 -7 -20 -22 -20 -34 0 -23 -17 -29 -125 -41 -61 -6 -85 -26 -85 -68 0 -49 25 -65 103 -65 38 0 67 4 67 10 0 6 13 10 29 10 16 0 36 7 45 15 8 8 31 15 51 15 l37 0 -51 -52 c-59 -61 -65 -96 -26 -140 24 -28 85 -40 85 -18 0 6 11 10 25 10 22 0 25 -4 25 -34 0 -46 16 -86 35 -86 11 0 15 -11 15 -38 0 -45 29 -78 75 -85 29 -4 28 -4 -5 -6 -49 -2 -60 -16 -60 -78 0 -42 4 -55 20 -65 16 -10 20 -24 20 -68 0 -55 0 -56 65 -118 51 -49 72 -62 98 -63 l32 -1 -37 -10 c-37 -10 -38 -11 -38 -58 0 -39 4 -52 22 -64 30 -21 126 -21 156 0 28 19 29 0 2 -23 -16 -14 -20 -30 -20 -78 1 -52 4 -64 30 -92 27 -30 35 -33 88 -33 64 0 88 17 94 66 3 30 28 46 28 18 0 -10 7 -26 17 -36 15 -17 15 -18 0 -18 -10 0 -17 -4 -17 -10 0 -5 -8 -10 -18 -10 -31 0 -52 -33 -52 -81 0 -41 4 -48 57 -96 33 -31 65 -53 79 -53 15 0 24 -8 28 -25 3 -13 15 -29 26 -35 13 -7 20 -21 20 -40 0 -20 11 -39 35 -63 28 -28 36 -43 41 -90 5 -44 11 -57 24 -57 9 0 27 -11 40 -25 32 -34 85 -34 123 0 l27 26 0 -27 c0 -16 -10 -34 -25 -46 -21 -16 -25 -28 -25 -69 l0 -49 65 0 c37 0 65 4 65 10 0 16 27 11 34 -6 3 -9 6 -28 6 -42 0 -17 15 -43 39 -69 34 -37 45 -43 80 -43 47 0 53 -16 20 -46 -20 -18 -22 -18 -34 -1 -8 11 -26 17 -49 17 -32 0 -36 -3 -36 -25 0 -14 -4 -25 -10 -25 -15 0 -12 -92 4 -112 16 -21 102 -26 108 -6 3 8 20 11 45 10 23 -2 44 2 48 8 5 8 14 1 25 -18 17 -28 69 -62 95 -62 7 0 15 -7 19 -15 7 -20 72 -20 80 0 3 8 13 15 23 15 10 0 27 11 37 25 10 14 25 25 33 25 16 0 51 19 81 44 26 23 31 90 7 100 -8 3 -15 12 -15 21 0 22 -69 20 -85 -2 -12 -17 -14 -17 -34 1 -12 11 -21 26 -21 35 0 18 -33 51 -51 51 -23 0 -39 30 -39 77 0 43 -5 53 -44 96 -39 41 -49 47 -85 47 -38 0 -41 2 -41 28 -1 35 -22 62 -49 62 -19 0 -21 6 -21 50 l0 50 -53 0 -52 0 3 45 c3 28 0 45 -7 45 -6 0 -11 5 -11 10 0 6 7 10 15 10 10 0 15 10 15 31 0 22 -10 40 -36 65 -20 19 -43 34 -50 34 -8 0 -14 5 -14 11 0 7 -17 10 -44 8 -39 -4 -46 -1 -63 23 -16 25 -24 28 -75 28 -32 0 -58 4 -58 10 0 6 -8 10 -18 10 -10 0 -32 15 -49 33 -29 29 -30 34 -17 51 28 39 18 87 -31 143 -25 28 -45 55 -45 61 0 5 9 17 20 27 15 13 20 31 20 64 -1 65 -16 81 -79 81 l-51 0 0 -45 0 -46 -50 51 c-45 44 -52 56 -57 102 -4 33 -13 59 -25 69 -24 22 -23 41 7 85 27 39 33 92 13 112 -16 16 -118 16 -119 0 0 -7 -4 -3 -9 10 -6 12 -18 22 -30 22 -11 0 -20 5 -20 10 0 6 -6 10 -14 10 -12 0 -14 23 -13 127 l2 128 -34 11 c-20 7 -29 14 -22 18 20 13 13 66 -11 87 -13 10 -28 18 -35 19 -7 0 -13 18 -15 43 l-3 42 -55 7 c-30 4 -75 11 -100 15 l-45 8 28 19 c22 15 27 26 27 57 0 21 -4 41 -10 44 -5 3 -10 39 -10 79 0 82 -9 96 -58 96 -22 0 -32 4 -30 13 3 7 29 13 71 15 l67 3 0 47 c0 57 -12 72 -57 72 -28 0 -33 4 -33 23 0 29 -98 127 -127 127 -22 0 -53 24 -53 41 0 5 5 9 10 9 6 0 10 20 10 43 0 31 6 49 20 62 14 13 20 31 20 60 0 54 -22 75 -78 75 -61 0 -52 18 11 22 l52 3 3 52 c3 44 0 53 -17 63 -12 6 -21 19 -21 29 0 31 -43 51 -110 51 l-60 0 0 33 c0 37 -15 57 -42 57 -16 0 -18 11 -18 110 0 98 -2 110 -19 120 -31 16 -79 12 -101 -10z m200 -650 c0 -14 -6 -20 -22 -19 -13 0 -17 3 -10 6 6 2 12 11 12 19 0 8 5 14 10 14 6 0 10 -9 10 -20z m60 -274 c0 -7 -7 -19 -15 -26 -13 -11 -15 -8 -15 14 0 16 5 26 15 26 8 0 15 -6 15 -14z"></path>
      <path id="pNeD9n1nZ" d="M6133 6094 c-8 -3 -13 -24 -13 -48 0 -51 22 -76 67 -76 37 0 56 31 51 86 -3 39 -3 39 -48 41 -25 1 -51 0 -57 -3z"></path>
      <path id="pCQMUDYTg" d="M6176 5874 c-9 -9 -16 -32 -16 -55 l0 -39 70 0 70 0 0 38 c0 20 -7 45 -14 55 -17 22 -88 23 -110 1z"></path>
      <path id="p1GnGXKvYW" d="M6078 5529 c-13 -7 -18 -23 -18 -60 l0 -50 58 3 57 3 0 55 0 55 -40 2 c-22 2 -48 -2 -57 -8z"></path>
      <path id="piWhmJZOa" d="M7053 4881 c-28 -24 -30 -71 -4 -95 14 -13 33 -16 77 -14 l59 3 3 37 c6 73 -79 116 -135 69z"></path>
      <path id="p1ALkGd7Ue" d="M6522 4511 c-9 -5 -12 -26 -10 -67 l3 -59 38 -3 c51 -4 77 19 77 68 0 23 -7 43 -18 53 -20 18 -68 22 -90 8z"></path>
      <path id="p7lnMh0Cm" d="M6782 4090 c-6 -11 -12 -36 -12 -55 l0 -36 63 3 c60 3 62 4 65 32 2 15 1 39 -2 52 -6 21 -12 24 -54 24 -36 0 -50 -5 -60 -20z"></path>
      <path id="pA9SaTvtw" d="M6132 3650 c-52 -50 -69 -60 -97 -60 -28 0 -35 4 -35 20 0 24 -29 33 -91 28 -43 -3 -44 -4 -50 -43 -3 -22 -7 -32 -8 -22 -1 16 -9 18 -63 15 l-63 -3 -3 -44 c-4 -49 17 -81 53 -81 13 0 28 -7 35 -15 8 -10 30 -15 61 -15 46 0 48 1 54 33 4 21 15 36 31 44 18 8 24 8 24 0 1 -18 36 -57 52 -57 7 0 20 -15 28 -33 13 -29 20 -32 63 -35 33 -2 47 -7 47 -18 0 -7 -9 -14 -19 -14 -41 0 -51 -11 -51 -56 0 -52 26 -84 68 -84 35 0 62 31 62 70 0 27 3 30 33 30 20 0 41 8 50 18 22 24 22 70 1 94 -19 20 -16 22 44 32 l32 6 0 -66 c0 -80 19 -114 63 -114 16 0 35 7 42 16 9 13 21 15 58 10 26 -4 47 -11 47 -17 0 -5 16 -9 35 -9 27 0 35 -4 35 -18 0 -32 33 -52 83 -52 l47 0 0 189 c0 159 2 190 15 195 11 4 15 20 15 56 l0 50 -220 0 c-140 0 -220 -4 -220 -10 0 -17 -107 -12 -114 5 -3 10 -19 15 -43 15 -32 -1 -47 -9 -101 -60z"></path>
      <path id="pWEwuAuR1" d="M5407 3542 c-23 -25 -21 -75 3 -97 22 -20 89 -17 115 5 21 17 19 80 -2 96 -27 20 -97 18 -116 -4z"></path>
      <path id="po8krXVuz" d="M6980 3482 c0 -55 23 -82 68 -82 39 0 62 31 62 85 l0 45 -65 0 -65 0 0 -48z"></path>
      <path id="pANVAPa1B" d="M5897 3393 c-4 -3 -7 -35 -7 -70 l0 -63 45 0 c25 0 45 -4 45 -10 0 -14 84 -12 98 2 7 7 12 28 12 48 0 43 -24 70 -62 70 -14 0 -31 7 -38 15 -12 15 -81 21 -93 8z"></path>
      <path id="p17aucVUaC" d="M6460 2938 c1 -66 16 -88 62 -88 42 0 68 25 68 66 0 52 -24 74 -81 74 l-49 0 0 -52z"></path>
      <path id="pqI5pmxdP" d="M6846 2975 c-8 -8 -24 -15 -35 -15 -19 0 -21 -6 -21 -65 l0 -65 64 0 c42 0 66 4 69 13 3 7 6 5 6 -6 1 -10 11 -31 23 -47 19 -26 28 -30 69 -30 54 0 54 0 64 102 7 60 5 67 -13 77 -12 6 -39 11 -61 11 -28 0 -48 7 -61 20 -24 24 -82 27 -104 5z"></path>
      <path id="pVyv1ulkp" d="M5397 2934 c-12 -12 -8 -89 5 -102 16 -16 79 -15 101 2 14 11 17 25 15 58 l-3 43 -55 3 c-31 2 -59 0 -63 -4z"></path>
      <path id="pMpzpEPSK" d="M7290 2836 c0 -43 4 -58 19 -68 11 -8 21 -28 23 -48 l3 -35 59 -3 c67 -3 76 3 76 58 0 24 -8 44 -25 62 -14 15 -25 34 -25 42 0 24 -41 46 -87 46 l-43 0 0 -54z"></path>
      <path id="pyv1CDXgx" d="M6518 2793 c-27 -7 -25 -86 2 -113 25 -25 78 -26 96 -2 18 23 17 68 -2 97 -16 25 -49 31 -96 18z"></path>
      <path id="p4ffJXksc" d="M6187 2783 c-4 -3 -7 -24 -7 -45 0 -30 -4 -38 -18 -38 -28 0 -42 -20 -42 -59 0 -69 8 -81 51 -81 54 0 82 29 77 81 -3 35 -1 39 24 44 25 6 28 11 28 44 0 20 -5 42 -12 49 -13 13 -90 17 -101 5z"></path>
      <path id="p17dc1FSgn" d="M7117 2752 c-22 -24 -22 -85 -1 -103 9 -7 37 -13 62 -13 l47 -1 0 65 0 65 -46 3 c-34 2 -49 -2 -62 -16z"></path>
      <path id="pOc3WcILU" d="M6682 2698 c-7 -7 -12 -34 -12 -60 l0 -48 65 0 65 0 0 50 c0 38 -4 52 -19 60 -27 14 -84 13 -99 -2z"></path>
      <path id="pEAns70d2" d="M7487 2623 c-12 -14 -30 -33 -39 -42 -11 -9 -18 -30 -18 -50 0 -43 22 -60 78 -61 37 0 42 -3 42 -23 0 -13 6 -29 13 -36 10 -10 9 -15 -5 -25 -26 -19 -23 -68 5 -94 48 -45 137 -19 137 40 0 20 8 36 25 50 14 11 25 29 25 41 0 20 1 19 28 -6 15 -15 38 -27 49 -27 12 0 25 -4 28 -10 3 -5 24 -10 45 -10 58 0 83 46 64 116 -6 23 -42 44 -74 44 -10 0 -27 11 -38 25 -15 19 -29 25 -58 25 -39 -1 -84 -27 -84 -49 0 -6 -4 -11 -9 -11 -4 0 -6 23 -3 50 6 68 -9 79 -111 80 -71 0 -79 -2 -100 -27z"></path>
      <path id="p8mhGKCIc" d="M8570 2272 c0 -55 4 -92 12 -100 16 -16 83 -15 96 1 5 6 13 42 17 79 6 57 5 69 -9 74 -9 3 -16 12 -16 20 0 10 -14 14 -50 14 l-50 0 0 -88z"></path>
      <path id="ps55YPZRb" d="M8806 2325 c-3 -9 -18 -15 -34 -15 -37 0 -62 -28 -62 -69 0 -44 38 -81 83 -81 33 0 35 -2 40 -37 3 -21 8 -48 12 -60 6 -20 4 -23 -17 -23 -50 0 -67 -103 -23 -138 16 -13 25 -30 25 -49 0 -16 5 -34 12 -41 9 -9 4 -12 -25 -12 -37 0 -37 0 -37 -42 1 -54 27 -88 69 -88 38 0 61 31 61 82 0 27 4 38 15 38 8 0 15 -9 15 -19 0 -29 11 -51 25 -51 6 0 27 -7 45 -16 18 -9 52 -19 75 -22 43 -4 44 -4 64 39 12 23 21 48 21 55 0 6 7 14 15 18 11 4 15 20 15 56 0 47 -2 50 -25 50 -21 0 -25 5 -25 28 -1 68 -81 97 -134 47 -36 -33 -106 -36 -106 -4 0 11 -5 29 -10 40 -8 15 -7 19 4 19 8 0 18 -4 21 -10 11 -17 77 -12 91 8 7 9 14 38 14 65 0 39 -3 47 -18 47 -10 0 -29 11 -42 25 -15 16 -34 25 -54 25 -23 0 -27 3 -18 12 17 17 15 84 -4 113 -19 29 -78 36 -88 10z"></path>
      <path id="pCS0uEEE6" d="M8067 2272 c-10 -10 -17 -28 -17 -39 0 -11 -10 -25 -25 -31 -21 -10 -25 -19 -25 -51 0 -48 18 -61 84 -61 44 0 46 1 46 30 0 33 1 33 82 30 81 -3 88 3 88 70 0 44 -4 59 -16 64 -25 10 -82 7 -89 -4 -4 -7 -12 -7 -25 0 -30 16 -85 12 -103 -8z"></path>
      <path id="pTjL4eYhv" d="M8348 2056 c-24 -18 -24 -78 0 -99 21 -19 83 -22 113 -7 26 14 27 87 2 106 -23 17 -93 17 -115 0z"></path>
      <path id="pMQXHPLuP" d="M7327 2013 c-9 -8 -9 -56 -1 -77 4 -11 19 -16 44 -16 40 0 50 13 50 73 0 25 -3 27 -43 27 -24 0 -47 -3 -50 -7z"></path>
      <path id="pqM21wbgN" d="M9240 1900 c-6 -11 -10 -46 -8 -78 l3 -57 63 -3 62 -3 0 69 c0 39 -5 73 -12 80 -7 7 -31 12 -55 12 -32 0 -45 -5 -53 -20z"></path>
      <path id="p12ObcwBKq" d="M9406 1745 c-3 -9 -6 -34 -6 -55 0 -45 30 -70 85 -70 19 0 35 -4 35 -8 0 -5 11 -15 25 -22 20 -11 25 -21 25 -51 0 -44 19 -59 74 -59 35 0 36 -1 36 -38 0 -63 21 -82 90 -82 90 0 90 0 90 89 0 68 -3 79 -25 100 -14 13 -25 30 -25 38 0 7 -7 27 -15 43 -21 40 -74 43 -99 5 -25 -39 -44 -32 -48 18 l-3 42 -57 3 c-53 3 -57 5 -60 30 -3 25 -6 27 -59 30 -45 2 -58 0 -63 -13z"></path>
      <path id="pKtbYdADN" d="M8861 1566 c-7 -8 -11 -34 -9 -58 3 -42 4 -43 42 -46 62 -5 86 13 86 64 0 29 -5 44 -16 48 -29 11 -91 6 -103 -8z"></path>
      <path id="pjWgfctol" d="M9956 1535 c-24 -36 -21 -87 7 -113 18 -17 36 -22 74 -22 44 0 51 3 57 23 11 42 6 79 -15 108 -17 24 -27 29 -64 29 -34 0 -46 -5 -59 -25z"></path>
      <path id="pc92DSVel" d="M10976 1478 c-19 -27 -21 -79 -4 -96 13 -13 75 -16 102 -6 20 8 21 81 2 107 -20 26 -81 23 -100 -5z"></path>
      <path id="pM8biYidt" d="M10522 1388 c-6 -6 -12 -24 -12 -40 0 -16 -10 -38 -25 -52 -29 -29 -33 -75 -9 -111 9 -14 24 -25 34 -25 13 0 16 -6 12 -25 -2 -14 -1 -41 2 -60 7 -35 7 -35 62 -35 l54 0 -2 178 -3 177 -50 3 c-30 2 -55 -2 -63 -10z"></path>
      <path id="pwDpMte9j" d="M10245 1366 c-13 -20 -14 -39 -8 -112 l8 -89 56 -3 56 -3 6 92 c9 115 -2 139 -63 139 -31 0 -43 -5 -55 -24z"></path>
      <path id="p7MoI8H8E" d="M9972 1358 c-13 -13 -16 -56 -6 -82 4 -12 20 -16 54 -16 27 0 55 3 64 6 22 9 21 73 -1 90 -22 17 -95 18 -111 2z"></path>
      <path id="pIfLDfdso" d="M10752 1232 c-9 -6 -12 -33 -10 -98 l3 -89 32 -9 c30 -9 32 -13 35 -60 l3 -51 48 -3 c56 -4 76 13 77 64 0 23 5 33 20 37 16 4 20 14 20 46 0 39 2 41 30 41 29 0 30 1 30 49 0 71 -19 81 -162 81 -62 0 -119 -4 -126 -8z"></path>
      <path id="pGtiEOZM3" d="M11267 1102 c-19 -20 -23 -87 -7 -97 7 -4 7 -12 0 -25 -16 -30 -12 -81 8 -96 9 -7 33 -13 52 -13 19 0 43 6 53 13 20 15 23 76 5 94 -9 9 -9 15 0 24 19 19 15 82 -6 101 -25 23 -85 22 -105 -1z"></path>
      <path id="p6Lo3G4YJ" d="M10317 912 c-10 -11 -17 -36 -17 -60 l0 -42 60 0 60 0 0 41 c0 22 -5 49 -10 60 -14 25 -71 26 -93 1z"></path>
    </g>
  </g>
  <g id="l5jNtzzrXmoQq1apAq2BgP" fill="none" style="transform: none;">
    <g>
      <path id="p1AkFm2Bo6" d="M0 8670 l0 -8670 6700 0 6700 0 0 8670 0 8670 -6700 0 -6700 0 0 -8670z m13090 -775 l0 -7765 -5555 0 -5555 0 0 7765 0 7765 5555 0 5555 0 0 -7765z"></path>
      <path id="poF9izmy0" d="M2017 15633 c-4 -3 -7 -245 -7 -537 l0 -531 150 3 c132 3 150 1 150 -13 0 -14 -18 -16 -150 -13 l-150 3 0 -545 0 -545 77 0 c54 0 78 -4 81 -13 3 -11 -13 -13 -77 -10 l-81 3 0 -542 0 -543 150 0 c91 0 150 -4 150 -10 0 -17 -42 -21 -173 -18 l-127 3 0 -542 0 -543 80 0 c98 0 109 -19 13 -21 -38 -1 -74 -1 -80 0 -10 2 -13 -113 -13 -544 0 -431 3 -546 13 -544 49 6 287 -3 287 -11 0 -6 -57 -10 -150 -10 l-150 0 0 -542 0 -543 77 0 c54 0 78 -4 81 -13 3 -11 -13 -13 -77 -10 l-81 3 0 -545 0 -545 150 3 c130 3 150 1 150 -12 0 -14 -21 -16 -150 -16 l-150 0 0 -540 0 -540 81 0 c60 0 80 -3 76 -12 -2 -9 -28 -13 -80 -13 l-77 0 0 -542 0 -543 150 0 c129 0 150 -2 150 -16 0 -13 -20 -15 -150 -12 l-150 3 0 -542 0 -543 80 0 c47 0 80 -4 80 -10 0 -6 -33 -10 -80 -10 l-80 0 0 -543 0 -543 150 2 c124 2 150 0 150 -12 0 -11 -27 -14 -150 -14 l-150 0 0 -542 0 -543 77 0 c52 0 78 -4 80 -12 4 -10 -16 -13 -76 -13 l-81 0 0 -542 0 -543 150 3 c132 3 150 1 150 -13 0 -14 -18 -16 -150 -13 l-150 3 2 -545 3 -545 528 -3 527 -2 0 145 c0 122 2 145 15 145 13 0 15 -23 15 -145 l0 -145 540 0 540 0 0 75 c0 60 3 75 15 75 12 0 15 -15 15 -75 l0 -75 540 0 540 0 0 145 c0 122 2 145 15 145 13 0 15 -23 15 -145 l0 -145 540 0 540 0 0 75 c0 60 3 75 15 75 12 0 15 -15 15 -75 l0 -75 540 0 540 0 0 145 c0 122 2 145 15 145 13 0 15 -23 15 -145 l0 -145 540 0 540 0 0 75 c0 60 3 75 15 75 12 0 15 -15 15 -75 l0 -75 540 0 540 0 0 145 c0 122 2 145 15 145 13 0 15 -23 15 -145 l0 -145 540 0 540 0 0 75 c0 60 3 75 15 75 12 0 15 -15 15 -75 l0 -75 540 0 539 0 3 142 c2 102 6 143 16 146 9 3 12 -30 12 -142 l0 -146 538 2 537 3 3 542 2 542 -142 3 c-190 4 -190 22 0 26 l142 3 0 539 0 540 -76 0 c-56 0 -75 3 -72 13 3 8 30 13 76 15 l72 3 0 539 0 540 -145 0 c-90 0 -145 4 -145 10 0 6 55 10 145 10 l145 0 0 545 0 545 -75 0 c-43 0 -75 4 -75 10 0 6 32 10 75 10 l75 0 0 540 0 539 -142 3 c-102 2 -143 6 -146 16 -3 9 30 12 142 12 l146 0 0 540 0 539 -72 3 c-46 2 -73 7 -76 16 -3 9 16 12 72 12 l76 0 0 540 0 540 -146 0 c-112 0 -145 3 -142 13 3 9 44 13 146 15 l142 3 0 539 0 539 -72 3 c-40 2 -73 8 -73 13 0 6 33 11 73 13 l72 3 0 539 0 540 -145 0 c-90 0 -145 4 -145 10 0 6 55 10 145 10 l145 0 0 546 c0 513 -1 545 -17 543 -10 -1 -44 -1 -76 0 -84 2 -62 21 24 21 l69 0 0 540 0 540 -129 0 c-71 0 -136 3 -145 6 -43 17 -3 24 129 24 l145 0 0 540 0 539 -72 3 c-40 2 -73 8 -73 13 0 6 33 11 73 13 l72 3 0 539 0 539 -142 3 c-87 2 -143 7 -143 13 0 6 56 11 143 13 l142 3 0 534 0 535 -540 0 -540 0 0 -151 c0 -116 -3 -150 -12 -147 -10 4 -14 45 -16 151 l-3 147 -537 -2 -537 -3 -3 -78 c-2 -56 -6 -77 -15 -74 -8 2 -13 32 -15 80 l-3 77 -539 0 -540 0 0 -151 c0 -116 -3 -150 -12 -147 -10 4 -14 45 -16 151 l-3 147 -537 -2 -537 -3 -3 -78 c-2 -56 -6 -77 -15 -74 -8 2 -13 32 -15 80 l-3 77 -539 0 -540 0 0 -150 c0 -127 -2 -150 -15 -150 -13 0 -15 23 -15 150 l0 150 -540 0 -540 0 0 -81 c0 -60 -3 -80 -12 -77 -9 3 -14 31 -16 81 l-3 77 -539 0 -540 0 0 -150 c0 -127 -2 -150 -15 -150 -13 0 -15 23 -15 150 l0 150 -540 0 -540 0 0 -80 c0 -64 -3 -80 -15 -80 -12 0 -15 16 -15 80 l0 80 -540 0 -540 0 0 -150 c0 -127 -2 -150 -15 -150 -13 0 -15 23 -15 150 l0 150 -523 0 c-288 0 -527 -3 -530 -7z m8731 -1065 c4 -20 -35 -61 -51 -55 -7 3 -19 17 -27 31 -12 24 -12 29 0 37 23 15 74 6 78 -13z m-683 -57 c-23 -24 -26 -24 -41 -9 -20 20 -12 45 18 57 17 7 26 5 36 -7 10 -14 8 -20 -13 -41z m-572 -96 c-6 -16 -53 -49 -60 -42 -10 10 -5 67 7 82 12 14 15 13 36 -6 12 -12 20 -27 17 -34z m1775 -13 c2 -6 -9 -18 -23 -28 -25 -16 -27 -16 -46 2 -19 20 -19 20 2 43 19 20 23 21 42 8 11 -7 23 -19 25 -25z m-2130 -120 c2 -13 -3 -25 -12 -28 -9 -3 -16 -14 -16 -23 0 -10 -13 -30 -30 -44 l-29 -26 -16 21 c-17 26 -20 48 -5 48 6 0 10 9 10 20 0 22 55 62 80 58 8 -2 16 -13 18 -26z m2690 -14 c23 -23 14 -48 -17 -48 -38 0 -48 16 -25 41 20 22 26 23 42 7z m-2909 -69 l23 -31 -25 -26 c-26 -25 -27 -25 -47 -7 -24 22 -26 52 -3 77 22 24 25 23 52 -13z m677 1 c49 -34 54 -52 23 -73 -18 -14 -26 -13 -65 5 l-45 19 -35 -22 c-34 -20 -36 -20 -54 -4 -25 22 -25 33 -1 64 19 24 19 24 57 6 36 -17 38 -17 51 1 7 10 13 21 13 26 0 13 9 10 56 -22z m154 -20 c0 -10 -7 -23 -15 -30 -32 -26 -63 38 -33 68 15 15 48 -12 48 -38z m-421 9 c11 -19 10 -24 -6 -41 -19 -18 -20 -18 -37 1 -14 15 -15 24 -6 40 14 27 32 27 49 0z m952 -28 c20 -16 21 -21 10 -35 -26 -31 -81 -8 -81 33 0 27 38 29 71 2z m173 -48 c-8 -12 -14 -29 -14 -38 0 -8 -6 -15 -13 -15 -8 0 -22 -9 -32 -20 -14 -16 -15 -23 -6 -34 10 -12 9 -22 -6 -48 -41 -74 -62 -84 -89 -42 -16 24 -16 26 6 56 12 17 30 51 39 77 10 25 35 65 56 88 l38 42 18 -22 c16 -20 16 -25 3 -44z m2284 -16 l3 -47 -36 0 c-22 0 -34 4 -30 10 3 6 -1 13 -9 16 -16 6 -22 54 -9 68 4 4 23 5 43 4 34 -4 35 -5 38 -51z m-2686 8 c15 -20 25 -24 46 -19 15 4 33 11 40 17 7 5 14 8 15 6 24 -36 28 -58 16 -78 -11 -17 -11 -24 -1 -39 33 -46 24 -77 -24 -77 -24 0 -30 5 -32 26 -2 15 4 34 13 43 10 9 14 23 11 31 -6 17 -22 20 -31 5 -3 -5 -35 -10 -71 -10 l-64 0 0 31 c0 19 10 41 28 59 15 16 29 29 31 30 2 0 12 -11 23 -25z m-352 -46 c0 -10 -4 -21 -10 -24 -5 -3 -10 -23 -10 -44 0 -20 -6 -46 -14 -56 -13 -18 -15 -17 -46 18 -18 20 -36 37 -42 37 -5 0 -20 -12 -33 -27 l-24 -28 -26 28 c-14 15 -21 27 -15 27 5 0 10 15 10 33 0 17 9 43 19 56 15 20 21 22 39 12 28 -15 71 -14 102 3 21 11 27 11 38 -2 6 -9 12 -24 12 -33z m2780 -7 c-1 -26 -27 -54 -47 -50 -12 2 -19 14 -21 35 -3 28 0 32 25 35 35 5 43 1 43 -20z m-3907 -7 c17 -23 17 -25 -2 -35 -27 -14 -40 -13 -58 5 -14 14 -14 18 2 35 23 26 36 25 58 -5z m1967 -38 c0 -5 13 -26 29 -46 22 -28 27 -41 20 -54 -17 -30 -45 -20 -64 24 -10 22 -27 45 -37 50 -23 12 -23 38 0 55 14 10 20 10 35 -3 9 -9 17 -20 17 -26z m1122 -5 c19 -19 19 -19 -23 -36 -34 -14 -44 -15 -50 -4 -10 15 -12 52 -4 60 11 11 59 -1 77 -20z m133 -13 c10 -14 -3 -59 -17 -59 -16 0 -59 50 -53 61 8 12 62 11 70 -2z m-629 -26 c18 -25 17 -36 -6 -61 -17 -18 -24 -20 -45 -10 -32 15 -32 37 2 65 31 28 32 28 49 6z m206 0 c17 -15 17 -17 2 -35 -23 -24 -51 -23 -59 2 -7 22 9 50 28 50 6 0 19 -7 29 -17z m-537 -30 c-4 -16 -9 -54 -12 -85 l-5 -58 -34 0 c-32 0 -34 2 -34 34 0 18 7 39 15 46 9 7 13 23 10 38 -6 32 10 52 42 52 23 0 25 -3 18 -27z m869 5 c14 -20 14 -24 -1 -40 -20 -22 -61 -24 -70 -2 -5 14 32 64 48 64 4 0 15 -10 23 -22z m234 -42 c2 -16 12 -38 23 -49 23 -25 24 -45 3 -72 -14 -19 -16 -19 -25 -2 -6 9 -18 25 -28 35 -10 9 -21 25 -24 35 -4 10 -17 17 -33 17 -15 0 -33 8 -40 18 -10 14 -10 20 4 35 12 14 28 17 66 15 48 -3 51 -5 54 -32z m-2118 -33 c0 -12 11 -35 25 -52 l26 -30 -35 -16 c-40 -19 -56 -14 -56 18 0 12 -9 36 -19 52 -19 30 -18 30 7 57 23 25 26 26 38 10 7 -9 14 -27 14 -39z m-310 32 c11 -13 11 -20 0 -40 -11 -20 -16 -22 -36 -13 -30 14 -37 34 -18 53 20 19 38 19 54 0z m1798 -27 c16 -16 15 -39 -3 -62 -14 -19 -15 -19 -35 -1 -25 22 -26 44 -2 61 21 17 25 17 40 2z m-837 -20 c10 -13 18 -29 19 -36 0 -7 7 -21 16 -30 15 -15 14 -18 -12 -39 -37 -29 -42 -29 -50 2 -3 14 -10 25 -14 25 -13 0 -20 61 -10 81 14 25 28 24 51 -3z m629 -34 c0 -5 -7 -19 -15 -30 -15 -19 -15 -19 -30 0 -18 24 -19 58 -3 74 10 10 16 8 30 -10 10 -13 18 -28 18 -34z m1360 -51 c0 -8 -7 -21 -15 -29 -12 -12 -18 -12 -35 -2 -25 16 -26 36 -2 58 15 16 19 16 35 2 9 -8 17 -21 17 -29z m-3512 25 c7 -7 12 -15 12 -19 0 -16 -33 -39 -56 -39 -21 0 -24 5 -24 35 0 32 3 35 28 35 15 0 33 -5 40 -12z m715 -6 c24 -26 2 -55 -38 -50 -30 3 -42 24 -31 54 8 20 50 18 69 -4z m-549 -68 c4 -11 -10 -31 -44 -63 -37 -35 -50 -54 -50 -76 0 -16 -7 -36 -16 -46 -15 -16 -17 -16 -35 -1 -20 17 -26 62 -9 62 6 0 10 20 10 45 0 40 2 45 23 45 15 0 29 9 37 25 16 30 74 36 84 9z m230 10 c9 -3 14 -10 11 -14 -3 -5 -1 -11 5 -15 17 -11 -26 -47 -51 -43 -30 4 -36 33 -13 59 19 21 24 22 48 13z m205 -23 l20 -28 -24 -23 c-23 -22 -24 -22 -49 -4 -31 23 -31 26 -3 58 28 32 31 32 56 -3z m-1167 -8 c17 -15 19 -15 36 0 32 29 52 22 52 -18 0 -40 -24 -59 -52 -42 -13 9 -25 9 -46 1 -55 -21 -86 28 -40 60 28 20 27 20 50 -1z m1448 -18 c23 -24 23 -25 5 -45 -25 -27 -53 -25 -67 5 -9 21 -8 28 7 45 23 25 27 25 55 -5z m-125 -15 c17 -19 17 -21 -20 -62 -21 -24 -43 -46 -47 -49 -5 -3 -8 -12 -6 -19 4 -17 -62 -32 -79 -18 -21 17 -15 34 21 65 18 17 36 42 40 56 4 16 11 24 19 21 8 -3 20 2 27 11 16 20 23 19 45 -5z m301 -11 c9 -10 26 -19 36 -19 10 0 21 -7 24 -15 4 -9 19 -15 36 -15 32 0 57 -23 58 -52 0 -10 5 -18 10 -18 6 0 10 -7 10 -15 0 -8 5 -24 12 -35 10 -15 9 -24 -2 -44 -7 -14 -19 -26 -26 -26 -7 0 -41 28 -77 63 -57 55 -97 74 -97 46 0 -5 -16 -9 -35 -9 -38 0 -45 15 -23 50 10 16 10 24 0 40 -16 26 -15 37 6 58 20 21 44 18 68 -9z m519 -23 c22 -33 11 -56 -23 -47 -33 9 -40 37 -15 56 23 18 20 19 38 -9z m-1850 -50 c7 -22 5 -30 -13 -48 l-22 -22 -27 27 c-20 19 -23 27 -12 27 9 0 22 11 29 25 16 31 32 28 45 -9z m1957 -15 c25 -13 30 -12 49 5 21 19 21 18 45 -11 13 -17 35 -43 49 -58 37 -41 30 -64 -28 -102 -25 -16 -29 -16 -40 -2 -7 8 -21 17 -32 19 -26 4 -32 44 -10 68 19 21 4 36 -21 22 -25 -14 -52 -3 -58 23 -6 25 2 58 13 53 3 -2 18 -10 33 -17z m-1350 -18 c9 -10 19 -28 22 -40 4 -13 12 -23 17 -23 6 0 9 -14 7 -32 -2 -26 -8 -32 -31 -35 -18 -2 -29 2 -33 12 -3 8 -14 15 -23 15 -18 0 -61 35 -61 49 0 9 70 70 81 71 3 0 13 -8 21 -17z m573 -3 c4 -6 13 -9 22 -8 16 3 53 -55 53 -83 0 -24 -44 -61 -63 -53 -10 3 -17 10 -17 16 0 5 -4 7 -9 4 -5 -4 -17 14 -27 39 -13 36 -15 51 -6 70 12 26 36 33 47 15z m1330 -30 c16 -18 16 -20 1 -35 -24 -24 -20 -48 14 -80 35 -33 37 -54 11 -86 l-19 -24 -41 43 c-40 41 -51 62 -31 62 6 0 10 11 10 24 0 14 -4 28 -10 31 -18 11 -10 52 13 68 29 21 31 21 52 -3z m-2087 -12 c7 -7 12 -27 12 -45 0 -30 3 -33 31 -33 37 0 68 -33 69 -72 0 -14 6 -29 13 -31 23 -10 -35 -48 -64 -43 -18 3 -35 -2 -50 -14 -30 -27 -40 -25 -74 10 -19 19 -31 26 -36 19 -4 -6 -20 -13 -37 -15 -25 -3 -36 4 -71 46 -50 59 -52 93 -7 98 20 3 32 -3 43 -17 16 -24 43 -27 62 -8 10 10 15 9 25 -5 7 -10 16 -18 20 -18 10 0 7 68 -4 75 -12 7 28 65 45 65 6 0 16 -5 23 -12z m1862 -41 c0 -23 -23 -47 -45 -47 -21 0 -25 5 -25 30 0 17 8 38 18 49 17 18 17 17 34 -3 10 -12 18 -25 18 -29z m-1230 -29 c0 -16 7 -36 15 -44 20 -21 4 -49 -36 -63 -21 -7 -30 -16 -27 -28 3 -19 48 -32 48 -15 0 20 31 21 50 2 24 -24 25 -38 5 -64 -12 -16 -18 -17 -27 -8 -22 22 -71 14 -94 -15 l-21 -26 -26 19 c-21 15 -26 27 -27 62 l0 42 -75 0 c-41 0 -75 -4 -75 -9 0 -12 -42 -8 -66 8 l-21 14 24 25 c22 24 24 24 42 8 14 -13 24 -14 45 -6 15 5 29 17 32 25 8 19 34 19 48 -1 12 -15 46 -10 46 7 0 15 40 10 46 -6 10 -25 24 -6 24 31 0 46 25 84 50 77 14 -4 20 -14 20 -35z m-1560 -25 c19 -17 19 -17 0 -35 -10 -10 -26 -18 -34 -18 -8 0 -16 -5 -18 -10 -2 -6 -18 -13 -36 -15 -31 -4 -32 -3 -32 37 0 31 3 39 14 35 8 -3 20 1 26 9 17 19 55 18 80 -3z m1845 -3 c3 -5 1 -18 -4 -27 -6 -10 -11 -14 -11 -10 0 5 -10 1 -22 -7 -16 -11 -25 -13 -35 -4 -17 13 -17 45 0 51 22 9 66 7 72 -3z m250 -14 c30 -45 -15 -91 -56 -57 -21 17 -22 21 -10 50 16 37 44 41 66 7z m-1557 -2 c31 -21 29 -61 -3 -76 -21 -9 -28 -8 -45 7 -25 22 -25 39 -2 64 21 24 23 24 50 5z m2338 -19 c14 -21 15 -31 6 -50 -15 -33 -56 -33 -77 -1 -18 28 -12 49 18 64 32 15 35 15 53 -13z m-1141 -22 c15 -15 14 -18 -14 -46 l-30 -31 -21 24 c-22 25 -23 30 -12 46 17 26 55 29 77 7z m-1931 -76 c-8 -22 -60 -23 -68 -1 -3 8 2 26 11 38 l17 23 24 -22 c14 -14 20 -27 16 -38z m2229 12 c15 -17 27 -33 27 -36 0 -3 -12 -17 -26 -30 -23 -21 -26 -30 -21 -66 4 -29 1 -48 -10 -62 -15 -20 -15 -20 -31 4 -10 15 -15 39 -13 67 1 26 -2 44 -8 44 -6 0 -11 16 -11 35 0 21 5 35 13 35 7 0 18 9 25 20 16 27 23 25 55 -11z m567 -29 c0 -38 -2 -40 -29 -40 -24 0 -31 5 -36 30 -8 39 0 50 36 50 27 0 29 -2 29 -40z m-2412 -35 c35 -35 43 -48 34 -57 -15 -15 -16 -48 -2 -48 6 0 10 -10 10 -22 0 -30 -78 -98 -112 -98 -43 0 -39 50 7 98 l35 37 -25 20 c-25 21 -33 63 -19 99 10 25 22 20 72 -29z m928 18 c19 -25 17 -47 -6 -68 -25 -22 -26 -35 -2 -35 9 0 27 -15 40 -34 l23 -34 -26 -26 -27 -27 -20 26 c-10 14 -27 25 -35 25 -20 0 -53 28 -53 45 0 6 11 22 25 35 19 18 25 34 25 67 0 37 3 43 21 43 12 0 28 -8 35 -17z m1167 -46 c23 -9 22 -19 -8 -47 -23 -21 -26 -22 -42 -7 -19 16 -67 13 -91 -6 -9 -7 -20 -3 -37 13 -31 29 -31 38 -2 49 15 6 30 4 49 -7 24 -14 29 -14 52 2 14 9 26 22 26 28 0 7 7 5 18 -4 9 -8 25 -18 35 -21z m-1413 -83 c0 -55 -13 -62 -46 -25 -15 17 -31 28 -35 25 -5 -3 -9 13 -9 35 0 30 4 41 15 41 8 0 15 5 15 12 0 6 14 -1 30 -17 24 -23 30 -37 30 -71z m516 26 c18 0 34 5 36 12 3 7 14 9 31 4 20 -5 27 -13 27 -30 0 -27 -16 -36 -69 -36 -30 0 -40 -5 -51 -26 -11 -20 -12 -29 -2 -44 15 -25 15 -47 0 -52 -9 -3 -7 -15 6 -42 10 -21 15 -43 13 -51 -7 -17 21 -55 36 -49 20 7 56 -32 50 -55 -3 -11 -8 -19 -12 -19 -3 1 -16 -3 -29 -10 -19 -11 -23 -10 -28 3 -4 9 -12 14 -20 11 -7 -3 -18 1 -24 9 -19 22 -50 88 -50 104 0 22 -40 60 -56 54 -22 -8 -17 41 5 61 11 10 24 15 29 12 4 -3 16 4 25 15 19 21 23 59 7 59 -5 0 -10 12 -10 27 0 33 29 68 44 53 5 -5 24 -10 42 -10z m-1676 -26 c0 -14 -8 -36 -18 -49 -18 -23 -19 -23 -35 -4 -10 10 -17 33 -17 49 0 28 3 30 35 30 31 0 35 -3 35 -26z m1006 9 c7 -10 14 -30 14 -45 0 -15 5 -30 10 -33 15 -9 11 -57 -6 -80 -15 -20 -15 -20 -34 5 -11 14 -20 41 -20 63 0 20 -4 37 -10 37 -13 0 -13 26 0 51 13 24 29 24 46 2z m1885 -23 c34 -35 36 -51 8 -76 -17 -15 -22 -16 -29 -4 -5 8 -17 15 -26 15 -9 0 -26 12 -36 26 -48 64 27 98 83 39z m215 11 c22 -18 23 -21 8 -35 -35 -36 -90 0 -57 36 20 22 20 22 49 -1z m-2981 -11 c18 -20 18 -21 -1 -35 -10 -8 -31 -15 -46 -15 -25 0 -28 3 -28 35 0 32 3 35 28 35 16 0 37 -9 47 -20z m633 -14 c4 -36 -6 -46 -40 -39 -24 5 -28 10 -28 40 0 33 2 34 33 31 27 -3 33 -7 35 -32z m-1118 -35 c0 -16 -32 -51 -42 -45 -5 3 -5 10 -2 16 4 6 -1 17 -10 24 -17 12 -17 13 1 32 17 18 19 18 36 1 9 -10 17 -23 17 -28z m130 29 c23 -23 25 -30 9 -30 -6 0 -20 -11 -31 -25 -20 -25 -44 -25 -34 1 3 7 -2 17 -11 22 -14 8 -14 11 3 30 24 26 39 27 64 2z m1110 0 c24 -24 25 -38 3 -62 -23 -26 -39 -22 -58 14 -15 31 -15 33 7 50 28 22 24 22 48 -2z m390 -54 c-5 -5 -10 -24 -10 -40 -1 -49 -33 -134 -58 -152 -22 -15 -22 -17 -6 -35 9 -10 30 -19 46 -19 20 0 37 -9 54 -29 27 -33 95 -71 125 -71 24 0 33 21 25 55 -7 28 -27 33 -46 10 -11 -13 -15 -11 -32 10 -28 35 -21 69 15 73 18 2 33 -3 41 -14 9 -12 23 -15 49 -12 41 4 47 -3 47 -57 0 -38 14 -52 35 -35 18 15 55 -4 55 -29 0 -25 -58 -50 -70 -31 -11 18 -36 -1 -44 -34 -3 -13 -18 -32 -33 -41 -27 -18 -27 -18 -54 15 -24 28 -31 31 -44 20 -8 -7 -15 -17 -15 -23 0 -6 -12 -21 -27 -33 l-28 -22 29 -31 c16 -16 38 -31 50 -33 16 -2 22 -13 28 -47 9 -55 -2 -71 -50 -71 -19 0 -43 -6 -51 -14 -9 -8 -35 -19 -58 -24 -35 -8 -45 -7 -62 9 -26 25 -19 40 29 63 30 14 40 25 40 43 0 12 -3 23 -7 23 -13 0 -63 -36 -76 -54 -13 -17 -15 -17 -41 7 -17 16 -34 23 -47 20 -18 -5 -19 -7 -4 -29 8 -13 15 -45 15 -75 0 -57 19 -89 52 -89 10 0 26 -4 36 -9 9 -5 29 -14 44 -21 15 -7 30 -23 33 -34 4 -12 11 -31 17 -43 9 -19 7 -25 -13 -42 -27 -22 -39 -18 -84 28 -31 31 -63 39 -82 20 -20 -20 -53 7 -53 46 0 18 -9 53 -19 78 -14 32 -16 48 -8 56 7 7 7 17 0 34 -9 18 -7 27 8 46 18 22 18 25 4 41 -15 17 -15 20 6 39 26 24 32 25 59 9 16 -11 22 -9 34 7 17 24 12 35 -16 35 -22 0 -88 45 -88 59 0 5 16 16 35 25 19 9 37 21 40 26 3 6 33 10 66 10 44 0 61 -4 65 -15 7 -16 39 -20 48 -6 4 5 -5 23 -19 39 -14 16 -25 33 -25 37 0 14 -35 34 -58 35 -12 0 -25 7 -28 15 -7 17 -69 21 -79 5 -10 -17 -25 -11 -37 15 -9 21 -8 28 7 45 17 19 20 19 36 4 9 -8 28 -14 41 -12 29 4 35 36 14 76 -14 26 -14 31 -1 42 8 7 15 20 15 29 0 10 11 28 25 41 16 15 23 30 20 41 -4 11 3 27 15 39 l22 22 29 -28 c20 -19 26 -31 19 -38z m675 44 c15 -16 16 -22 5 -35 -18 -21 0 -58 39 -81 16 -9 35 -28 42 -41 10 -19 9 -26 -6 -43 -24 -27 -44 -25 -55 5 -6 16 -17 25 -31 25 -16 0 -19 -4 -14 -17 16 -39 15 -50 -4 -67 -17 -15 -23 -16 -36 -6 -8 7 -15 22 -15 34 0 15 -10 27 -32 37 -22 9 -40 30 -56 63 -21 42 -22 51 -11 73 18 34 48 26 72 -19 14 -28 25 -38 42 -38 36 0 39 17 10 52 l-26 31 22 23 c27 29 31 29 54 4z m165 -77 c0 -20 -40 -55 -56 -49 -19 7 -18 46 2 74 15 22 17 22 35 6 10 -9 19 -23 19 -31z m-1799 18 l24 -20 -33 -30 c-29 -27 -35 -29 -48 -17 -18 19 -18 36 2 64 19 27 25 27 55 3z m209 -58 c0 -8 -7 -21 -15 -30 -14 -14 -18 -14 -35 2 -24 22 -24 25 -3 52 16 20 19 21 35 6 10 -9 18 -22 18 -30z m154 21 c18 -26 18 -26 -2 -47 -17 -17 -23 -18 -36 -7 -19 15 -20 34 -4 60 16 25 19 25 42 -6z m119 -3 c15 -25 15 -30 2 -41 -8 -7 -15 -25 -15 -40 0 -34 -4 -37 -40 -32 -25 4 -30 9 -30 32 0 16 3 30 8 32 4 2 16 20 26 41 11 20 22 37 25 37 4 0 14 -13 24 -29z m677 -45 c0 -6 -12 -21 -27 -34 l-28 -23 -18 22 c-17 22 -17 23 9 50 26 27 29 28 46 12 10 -9 18 -21 18 -27z m884 -25 c11 -12 14 -21 7 -26 -6 -3 -11 -15 -11 -27 0 -27 -57 -98 -80 -98 -10 0 -20 -6 -23 -13 -3 -8 -16 -13 -29 -11 -12 1 -26 3 -30 3 -5 1 -8 13 -8 28 0 31 26 63 52 63 10 0 18 5 18 11 0 17 60 89 74 89 7 0 21 -9 30 -19z m208 2 c24 -21 23 -46 -3 -69 -21 -19 -21 -18 -46 10 l-24 28 22 24 c27 29 27 29 51 7z m508 -49 c0 -7 -11 -26 -24 -41 -22 -25 -25 -26 -31 -10 -6 14 -10 15 -21 6 -11 -9 -19 -8 -34 6 -25 22 -25 37 -2 58 38 34 112 21 112 -19z m-2147 1 c3 -16 -2 -34 -13 -48 -18 -21 -18 -21 -39 -3 -20 18 -20 20 -4 47 22 36 49 38 56 4z m-894 -42 c19 -16 19 -17 -4 -35 -47 -37 -98 -9 -60 32 22 24 39 25 64 3z m2415 -36 c-2 -57 -18 -66 -51 -30 -24 25 -27 35 -19 52 7 17 17 21 40 19 29 -3 31 -6 30 -41z m-1958 8 c15 -23 15 -27 0 -50 -14 -22 -19 -23 -36 -13 -25 16 -26 56 -2 74 22 17 19 18 38 -11z m242 -28 c-2 -24 -8 -33 -25 -35 -33 -5 -49 32 -28 64 13 20 19 23 36 14 15 -9 19 -19 17 -43z m1343 22 c13 -13 19 -30 17 -47 -2 -22 -9 -28 -34 -30 -25 -2 -33 1 -37 19 -5 18 18 79 30 79 2 0 12 -9 24 -21z m-103 -88 c22 -19 31 -61 13 -61 -5 0 -17 -8 -26 -17 -16 -15 -14 -19 29 -59 25 -23 46 -46 46 -51 0 -6 -9 -18 -20 -28 -11 -10 -20 -30 -20 -45 0 -27 -15 -40 -45 -40 -21 0 -45 58 -45 109 0 25 -7 55 -15 65 -23 31 -18 64 17 107 17 21 34 39 37 39 3 -1 16 -9 29 -19z m-234 3 c9 -3 19 -23 22 -45 4 -21 15 -46 25 -55 15 -13 16 -20 7 -31 -8 -10 -8 -17 0 -25 21 -21 13 -63 -18 -93 -26 -25 -33 -27 -55 -17 -34 16 -41 38 -20 62 18 20 17 21 -6 46 -18 20 -24 37 -25 82 -3 75 17 96 70 76z m426 -54 c11 -21 8 -32 -18 -63 -14 -16 -16 -16 -34 -1 -22 21 -22 28 -2 59 20 30 40 32 54 5z m-2272 -18 c17 -17 16 -19 -14 -47 l-31 -30 -16 21 c-13 18 -14 26 -4 48 14 30 40 33 65 8z m568 1 c19 -25 17 -51 -5 -62 -14 -8 -23 -6 -36 9 -16 18 -17 21 -1 45 20 30 25 31 42 8z m1179 -51 c7 -20 -55 -76 -69 -62 -5 5 -18 10 -28 10 -13 0 -18 8 -18 28 1 51 96 72 115 24z m-1427 -3 c-2 -12 -17 -29 -35 -39 -18 -10 -39 -23 -47 -29 -11 -10 -18 -6 -36 19 -21 30 -21 32 -5 51 14 14 31 19 72 19 50 0 54 -2 51 -21z m153 5 c18 -16 17 -17 -6 -36 -24 -19 -25 -19 -50 -1 -30 22 -31 27 -2 41 31 15 38 14 58 -4z m565 -58 c5 -34 -7 -47 -40 -44 -27 3 -31 7 -34 36 -3 33 -3 33 34 30 27 -2 38 -8 40 -22z m598 -45 c16 -18 16 -20 -6 -35 -49 -35 -98 -6 -56 34 27 25 40 25 62 1z m-1289 -31 c9 -15 -12 -48 -36 -55 -15 -5 -28 -1 -42 14 -21 21 -21 21 -2 36 23 16 71 20 80 5z m639 -64 c8 -33 0 -51 -28 -64 -20 -9 -27 -7 -46 13 -22 23 -22 24 -4 49 26 34 69 35 78 2z m770 -24 c15 -18 15 -20 -3 -36 -20 -18 -31 -16 -63 12 -14 11 -15 18 -7 29 16 19 53 16 73 -5z m249 -14 c7 -23 -5 -48 -23 -48 -25 0 -51 27 -44 45 7 18 61 20 67 3z m-425 -27 c32 -28 27 -51 -22 -93 l-43 -37 -14 27 c-7 15 -14 30 -16 33 -4 9 55 89 65 89 4 -1 17 -9 30 -19z m862 -16 c11 -13 11 -20 0 -40 -17 -32 -27 -31 -42 0 -8 19 -8 28 2 40 16 19 24 19 40 0z m-1803 -12 c9 -25 24 -33 51 -26 16 4 27 0 37 -13 12 -17 17 -17 36 -6 15 10 24 11 32 3 6 -6 19 -11 29 -11 23 0 23 -27 1 -52 -10 -11 -30 -18 -53 -18 -20 0 -40 -4 -46 -10 -6 -6 -22 2 -44 24 -20 18 -44 35 -55 37 -26 6 -43 52 -25 73 16 21 29 20 37 -1z m-127 -80 c0 -18 -80 -16 -103 2 -18 13 -17 15 15 44 l33 30 27 -32 c15 -18 28 -38 28 -44z m1380 58 c5 -11 7 -27 4 -35 -7 -18 -47 -31 -63 -21 -12 7 -15 58 -4 68 13 14 53 6 63 -12z m-819 -14 c31 -28 41 -60 25 -83 -16 -21 -48 -15 -61 13 -6 11 -16 27 -23 35 -9 11 -8 19 6 36 21 27 21 27 53 -1z m-108 -32 c26 -24 47 -51 47 -59 0 -9 16 -32 37 -52 47 -47 37 -71 -28 -66 l-42 4 17 -27 18 -27 -51 -52 c-43 -43 -51 -58 -51 -88 0 -30 8 -45 37 -74 l37 -37 -23 -18 c-13 -11 -29 -19 -37 -19 -19 0 -18 -46 1 -54 24 -9 18 -23 -17 -40 -21 -11 -35 -13 -42 -6 -15 15 -53 12 -80 -5 -21 -14 -25 -14 -36 -1 -10 14 -16 13 -48 -3 -21 -11 -50 -33 -66 -50 -44 -46 -85 -43 -126 9 -25 32 -31 47 -27 69 8 37 0 44 -27 26 -31 -22 -55 -18 -68 11 -10 21 -17 25 -40 20 -23 -4 -34 1 -58 25 -16 17 -34 28 -39 24 -16 -9 -13 -42 5 -71 16 -23 15 -26 -1 -44 -10 -11 -26 -20 -37 -20 -16 0 -18 9 -18 69 0 46 -4 71 -12 74 -10 4 -10 7 -1 18 10 10 7 20 -14 47 l-26 35 27 24 c38 33 46 29 46 -21 0 -36 6 -50 31 -75 29 -29 31 -30 54 -15 24 16 65 11 65 -7 0 -5 9 -9 20 -9 11 0 20 -4 20 -10 0 -5 21 -10 46 -10 38 0 51 6 82 35 20 19 44 35 53 35 22 0 43 -26 36 -44 -8 -21 118 -83 137 -67 10 8 16 9 21 1 3 -5 13 -10 21 -10 20 0 18 49 -3 72 -15 17 -15 19 0 36 34 37 16 62 -42 62 -23 0 -31 7 -45 39 -23 50 -18 76 14 75 14 -1 32 -4 40 -8 9 -3 24 0 35 8 16 11 17 18 8 38 -10 22 -6 30 43 81 30 31 54 63 54 70 0 6 -9 23 -20 37 -11 14 -20 31 -20 39 0 15 28 51 39 51 3 0 27 -20 54 -45z m-575 -157 c-2 -27 -8 -34 -30 -36 -14 -2 -32 -10 -38 -18 -16 -18 -34 -18 -49 0 -12 15 -40 12 -79 -7 -19 -9 -26 -7 -44 11 -18 17 -19 23 -8 36 14 18 61 21 77 5 7 -7 19 -3 39 15 23 20 40 25 82 26 l53 0 -3 -32z m838 -33 c4 -9 19 -15 41 -15 19 0 42 -7 50 -16 15 -14 14 -18 -9 -41 -22 -21 -29 -23 -47 -14 -18 10 -27 6 -65 -29 -24 -22 -47 -40 -51 -40 -5 0 -16 -7 -26 -16 -16 -14 -19 -14 -38 5 -23 23 -28 61 -8 61 23 0 49 26 52 52 5 44 27 68 63 68 20 0 35 -6 38 -15z m632 -11 c4 -27 -36 -40 -57 -19 -12 12 -12 17 -1 30 18 22 54 15 58 -11z m-1138 -19 c0 -24 -25 -45 -54 -45 -12 0 -16 10 -16 35 0 33 2 35 35 35 31 0 35 -3 35 -25z m-640 -51 c0 -28 -45 -29 -74 -2 l-21 19 24 19 c23 17 26 17 48 2 12 -10 23 -27 23 -38z m1358 28 l24 -18 -26 -17 c-14 -9 -32 -14 -40 -11 -24 9 -29 37 -10 51 23 16 24 16 52 -5z m-924 -41 c17 -18 17 -20 -3 -40 -17 -17 -25 -19 -41 -11 -25 13 -26 46 -2 59 24 14 26 14 46 -8z m-521 -63 c-15 -17 -63 -25 -76 -12 -6 7 21 54 38 66 5 4 20 -2 32 -14 22 -20 22 -23 6 -40z m696 -27 c33 -31 39 -52 19 -69 -18 -14 -41 -2 -74 37 -27 32 -27 34 -9 47 26 19 28 18 64 -15z m-676 -82 c18 -20 18 -21 0 -35 -10 -7 -22 -13 -28 -13 -5 0 -18 6 -28 13 -18 14 -18 15 0 35 9 12 22 21 28 21 6 0 19 -9 28 -21z m81 -168 c14 -15 15 -24 6 -40 -14 -27 -42 -27 -58 0 -11 18 -11 24 4 40 21 24 27 24 48 0z m351 -62 c-7 -38 -6 -39 24 -39 16 0 33 -5 36 -11 10 -15 -35 -59 -61 -59 -12 0 -27 -7 -34 -15 -7 -8 -18 -15 -24 -15 -18 -1 -78 -57 -68 -64 6 -3 19 -24 31 -46 l21 -40 -26 -16 c-20 -14 -30 -15 -50 -5 -38 17 -60 13 -85 -14 -30 -31 -40 -31 -69 0 -13 14 -20 25 -15 25 4 0 0 9 -9 19 -13 14 -17 33 -15 65 2 26 -2 51 -9 58 -7 7 -12 24 -12 39 0 15 -4 31 -10 34 -16 10 -12 18 31 53 33 28 42 32 55 22 10 -9 34 -11 78 -6 51 5 67 3 79 -9 17 -16 77 -21 77 -5 0 5 -7 13 -15 18 -13 6 -14 14 -6 34 11 29 36 39 64 25 15 -7 17 -16 12 -48z m380 -23 c24 -17 13 -46 -18 -46 -35 0 -52 23 -32 44 20 19 26 20 50 2z m-811 -58 c22 -30 20 -45 -5 -51 -41 -11 -67 21 -47 57 13 22 34 20 52 -6z m-230 -54 c10 -4 16 -18 16 -40 0 -37 18 -45 40 -19 12 14 15 14 31 -1 11 -10 33 -15 66 -14 68 2 73 2 73 -14 0 -7 7 -19 15 -26 14 -11 13 -14 -4 -27 -16 -10 -19 -21 -15 -43 8 -40 -25 -84 -87 -115 -45 -23 -66 -52 -58 -81 2 -5 -14 -26 -34 -48 -33 -34 -37 -43 -32 -74 8 -50 -2 -72 -31 -72 -13 0 -24 -4 -24 -9 0 -19 -32 -41 -61 -41 -18 0 -29 -5 -29 -14 0 -13 -54 -65 -98 -96 -12 -8 -22 -18 -22 -22 0 -15 29 -8 76 17 44 24 48 24 66 9 10 -10 18 -13 18 -9 0 5 3 5 7 2 4 -4 -11 -23 -31 -42 -30 -28 -47 -35 -78 -35 -22 0 -46 7 -55 15 -14 14 -17 14 -32 0 -36 -32 -61 -14 -61 44 0 17 -12 39 -32 60 l-32 32 30 24 c16 14 50 35 76 47 50 24 58 35 33 44 -10 4 -13 13 -10 24 3 11 0 20 -10 24 -10 4 -15 19 -15 49 0 37 4 45 30 61 17 9 28 21 25 26 -2 4 2 13 10 20 8 7 13 16 10 20 -3 4 7 11 22 15 19 4 31 2 39 -9 7 -10 26 -16 48 -16 33 0 37 3 34 23 -2 17 -11 23 -34 25 -18 2 -40 12 -50 23 -17 19 -17 21 -1 49 9 15 14 35 11 44 -4 10 0 18 10 22 10 4 16 18 16 37 0 24 10 40 48 74 48 43 58 48 86 37z m314 -271 c2 -24 -4 -36 -33 -62 -30 -26 -39 -29 -56 -20 -46 24 -36 61 27 95 49 27 58 25 62 -13z m300 -29 c-19 -19 -45 -13 -55 12 -4 11 1 22 12 31 17 11 22 11 39 -7 19 -18 19 -21 4 -36z m-150 -55 c16 -25 1 -49 -29 -49 -15 0 -19 7 -19 35 0 27 4 35 18 35 9 0 23 -9 30 -21z m-293 -79 c10 -11 23 -20 29 -20 6 0 19 -12 29 -26 18 -24 18 -26 2 -44 -17 -19 -19 -19 -44 -2 -14 10 -38 23 -53 30 -28 11 -35 33 -22 66 8 22 37 20 59 -4z m-535 -110 c25 -25 25 -24 -5 -56 -27 -29 -55 -27 -55 5 0 11 -5 23 -11 26 -13 8 18 45 38 45 7 0 22 -9 33 -20z m-158 -142 c12 -7 35 -28 51 -45 16 -18 36 -33 45 -33 8 0 35 -20 58 -44 l42 -45 -33 -25 c-27 -21 -45 -26 -89 -26 -53 0 -78 -11 -55 -26 6 -3 9 -19 5 -35 -6 -34 6 -44 33 -28 16 10 24 9 47 -6 21 -14 25 -20 14 -23 -8 -3 -19 -11 -23 -18 -5 -9 -27 -14 -62 -14 -30 0 -55 -4 -55 -10 0 -16 -38 -12 -48 5 -13 25 -40 7 -44 -28 -3 -31 -5 -32 -53 -35 -27 -1 -65 -10 -82 -20 -32 -16 -43 -44 -23 -57 29 -18 -23 -65 -71 -65 -35 0 -53 -76 -24 -100 13 -11 11 -15 -11 -33 -24 -19 -27 -19 -36 -4 -5 10 -16 17 -25 17 -11 0 -14 -8 -11 -30 3 -22 -2 -35 -18 -51 -23 -21 -33 -21 -65 2 -12 9 -23 8 -45 -2 -23 -12 -30 -22 -35 -57 -3 -27 -15 -52 -33 -71 -26 -27 -43 -34 -123 -48 -18 -3 -38 -11 -44 -19 -6 -8 -18 -14 -25 -14 -18 0 -18 -14 1 -30 12 -10 21 -10 41 -1 14 6 38 11 54 11 28 0 30 -3 30 -35 0 -29 -5 -38 -27 -48 -16 -6 -31 -15 -34 -19 -9 -13 -82 -48 -100 -48 -21 0 -74 -27 -90 -46 -10 -12 -10 -20 -1 -35 38 -60 -34 -147 -78 -94 -8 9 -30 15 -59 15 -34 0 -54 6 -70 21 -12 12 -29 22 -37 23 -15 2 -54 40 -54 52 0 4 7 15 16 25 16 18 12 59 -7 59 -17 0 -9 39 10 50 30 16 91 13 98 -5 6 -18 -22 -54 -52 -65 -18 -7 -16 -10 18 -30 20 -12 37 -26 37 -31 0 -5 11 -9 24 -9 13 0 26 -6 29 -12 3 -10 11 -10 33 2 23 12 30 24 32 53 2 23 12 47 28 62 15 15 24 36 24 55 0 16 5 30 10 30 15 0 12 26 -5 40 -12 10 -20 7 -46 -15 -32 -26 -32 -26 -51 -7 -17 16 -18 22 -7 48 18 41 47 67 78 68 22 1 26 6 26 30 1 33 65 99 89 90 27 -10 27 -36 0 -65 -32 -33 -29 -63 7 -67 20 -2 37 8 72 45 29 29 45 54 42 64 -3 9 3 23 14 33 11 10 17 25 14 37 -7 27 19 53 68 69 25 9 52 28 70 52 27 33 36 38 72 38 41 0 77 21 77 47 0 7 4 21 9 31 5 9 15 31 22 47 8 17 20 34 26 38 7 4 13 14 13 21 0 8 7 19 15 26 14 12 14 15 -1 31 -15 16 -14 20 11 53 34 44 70 48 106 10 26 -28 42 -28 114 -1 33 12 41 20 43 45 2 16 12 38 23 48 25 22 24 35 -3 69 -15 20 -18 30 -10 33 7 2 12 17 12 33 0 29 16 58 33 59 4 0 17 -6 29 -12z m531 -28 c3 -13 -3 -24 -19 -35 -43 -28 -69 -12 -57 34 7 29 68 30 76 1z m-675 -553 c-2 -16 -11 -23 -31 -25 -34 -4 -46 21 -22 48 23 25 58 10 53 -23z m-1022 -282 c4 -15 1 -32 -6 -40 -11 -14 -15 -14 -31 1 -23 21 -24 28 -3 48 22 22 33 20 40 -9z m552 -220 c4 -32 -13 -49 -42 -41 -30 7 -34 33 -8 52 23 18 46 13 50 -11z m-738 -60 l23 -25 -28 -22 c-33 -26 -69 -43 -60 -28 3 6 -1 10 -9 10 -19 0 -20 17 -3 53 10 23 20 30 48 36 3 0 16 -10 29 -24z m351 -286 c7 -15 6 -21 -6 -25 -8 -3 -15 -12 -15 -20 0 -19 -29 -18 -52 3 -17 15 -20 15 -43 -7 -14 -13 -25 -34 -25 -46 0 -13 -4 -26 -10 -29 -13 -8 -13 -68 1 -82 7 -7 -7 -27 -50 -68 -64 -61 -71 -75 -46 -95 19 -16 19 -50 1 -76 -13 -16 -18 -17 -35 -6 -25 15 -57 16 -66 2 -3 -5 -14 -10 -23 -10 -9 0 -28 -12 -44 -27 -25 -24 -33 -26 -103 -24 -41 1 -75 -1 -75 -4 0 -3 5 -15 10 -26 8 -15 22 -19 60 -19 55 0 65 -16 33 -52 -20 -22 -36 -23 -53 -3 -8 10 -24 13 -47 11 -23 -3 -36 0 -40 10 -6 17 -44 18 -62 2 -11 -10 -14 -10 -18 0 -3 6 -20 12 -39 12 -32 0 -34 2 -34 35 0 29 4 35 20 35 11 0 23 7 27 15 3 9 15 15 27 13 17 -2 22 3 24 30 2 23 8 32 21 32 25 0 49 29 53 65 3 26 9 31 56 45 37 12 63 28 88 55 38 44 37 40 25 64 -12 21 -3 36 27 45 28 9 40 -16 25 -55 -9 -24 -8 -33 9 -54 24 -30 37 -31 72 -4 20 16 26 29 26 60 0 28 -4 39 -15 39 -8 0 -28 15 -44 33 -29 32 -29 32 -10 53 10 11 19 30 19 43 0 31 18 61 36 61 8 0 24 -16 35 -35 21 -36 33 -43 44 -25 3 5 30 21 58 34 29 13 58 31 65 39 12 14 17 13 48 -5 19 -11 39 -29 45 -39z m-283 -501 c19 -19 13 -41 -19 -67 l-31 -24 -24 26 c-39 43 -26 77 31 77 17 0 36 -5 43 -12z m-335 -145 c4 -7 17 -13 27 -13 27 0 26 -28 -2 -57 -16 -17 -21 -34 -20 -59 2 -31 -1 -36 -28 -45 -37 -13 -53 -40 -44 -75 5 -20 0 -32 -27 -60 -39 -40 -66 -43 -103 -9 -24 23 -29 24 -42 10 -14 -14 -19 -13 -43 4 -41 29 -53 48 -47 68 7 20 86 83 104 83 15 0 16 66 2 75 -5 3 -10 15 -10 26 0 11 -6 22 -14 25 -21 8 -7 41 20 47 16 3 28 -2 37 -16 13 -19 14 -19 39 -3 25 16 27 16 38 -1 8 -13 13 -14 16 -5 3 6 11 12 19 12 7 0 18 7 25 15 10 12 16 13 29 3 9 -7 20 -19 24 -25z m-421 -305 c3 -8 26 -13 65 -14 51 0 64 -4 89 -27 16 -15 36 -26 45 -25 18 3 59 -28 59 -44 0 -5 -7 -16 -15 -24 -8 -9 -15 -19 -15 -23 0 -15 37 -51 52 -51 8 0 22 -8 32 -18 15 -18 15 -20 -2 -36 -11 -9 -26 -14 -36 -10 -29 11 -47 -3 -37 -29 18 -47 -28 -64 -61 -22 -16 20 -23 23 -39 15 -27 -15 -24 -37 11 -67 37 -31 37 -41 0 -78 -64 -63 -130 -154 -130 -180 0 -34 28 -75 51 -75 15 0 19 -7 19 -40 0 -29 -3 -38 -14 -34 -8 3 -29 -11 -49 -33 l-36 -38 26 -27 c22 -23 24 -30 13 -43 -11 -13 -11 -20 0 -39 7 -14 9 -36 6 -53 -5 -23 -1 -34 24 -58 16 -16 30 -25 30 -22 0 4 10 2 23 -5 12 -7 28 -11 35 -10 7 2 12 -9 12 -28 0 -24 -4 -30 -21 -30 -11 0 -28 -7 -37 -16 -13 -13 -14 -21 -4 -46 8 -22 8 -36 0 -51 -6 -11 -8 -41 -5 -68 5 -38 2 -53 -14 -73 -33 -41 -56 -50 -85 -31 -33 22 -30 36 16 75 38 32 44 50 14 50 -8 0 -14 -7 -14 -16 0 -15 -2 -15 -25 0 -13 9 -39 16 -56 16 -18 0 -41 7 -51 17 -17 15 -17 17 -2 35 21 22 32 23 56 1 16 -15 20 -15 36 -1 9 9 25 18 36 19 10 2 25 14 33 26 14 20 12 25 -26 66 -40 43 -52 79 -31 92 16 10 12 35 -6 35 -9 0 -25 11 -36 25 -13 16 -29 25 -48 25 -36 0 -47 16 -26 39 22 24 20 34 -9 61 -14 14 -25 35 -25 50 0 15 11 36 25 50 29 28 31 37 8 62 -15 17 -15 19 0 36 10 10 17 25 17 33 0 8 5 20 11 26 8 8 7 16 -1 30 -11 17 -9 23 14 46 39 39 33 81 -10 85 -32 3 -47 28 -36 60 5 17 37 15 52 -3 18 -22 24 -19 43 23 22 49 21 55 -3 77 -23 21 -26 70 -6 91 10 10 38 14 90 14 41 0 78 4 81 10 9 14 -27 71 -41 66 -7 -3 -22 6 -35 20 -12 13 -31 24 -41 24 -9 0 -25 11 -34 25 -15 23 -15 27 0 50 18 27 32 32 38 13z m468 -235 c0 -22 -19 -24 -44 -6 -22 17 -22 19 -7 40 l16 22 17 -22 c10 -12 18 -27 18 -34z m-237 -467 c3 -8 -3 -22 -13 -31 -16 -15 -22 -15 -35 -5 -8 7 -15 21 -15 31 0 14 7 19 29 19 16 0 31 -6 34 -14z m110 -446 c14 -16 28 -38 31 -48 8 -25 86 -66 100 -52 5 5 27 10 48 10 25 0 41 5 44 15 4 10 20 15 45 15 26 0 42 -5 45 -15 4 -8 14 -15 24 -15 10 0 23 -7 30 -15 7 -8 23 -15 35 -15 12 0 28 7 35 15 18 22 37 18 56 -10 15 -23 22 -25 90 -25 40 0 76 5 79 10 4 7 12 7 25 0 32 -17 58 -12 62 13 2 18 10 23 42 25 28 2 42 -1 48 -12 5 -9 19 -16 32 -16 12 0 33 -11 46 -25 23 -24 23 -26 5 -39 -19 -13 -13 -36 9 -36 7 0 25 13 41 30 15 16 31 28 34 27 3 -1 15 4 26 10 17 9 25 8 45 -7 20 -15 22 -20 11 -34 -19 -22 -6 -46 24 -46 37 0 42 -26 12 -58 -17 -18 -27 -41 -29 -67 -2 -32 -8 -42 -33 -55 -16 -8 -32 -16 -34 -18 -3 -1 1 -8 7 -14 25 -25 2 -98 -30 -98 -21 0 -98 84 -98 108 0 13 -11 37 -25 54 -14 16 -25 36 -25 44 0 30 -40 12 -83 -37 l-44 -50 -16 25 c-15 23 -15 27 9 72 14 26 24 56 22 68 -3 18 -11 21 -67 24 -35 2 -68 -1 -73 -6 -5 -5 2 -24 17 -46 23 -33 24 -39 11 -58 -28 -40 -90 -60 -114 -36 -8 8 -21 5 -50 -16 -33 -23 -45 -26 -72 -19 -33 9 -33 9 -34 73 l-1 65 -41 3 c-52 4 -83 -24 -63 -56 11 -18 10 -24 -5 -41 -11 -12 -25 -21 -31 -21 -18 0 -25 38 -13 66 13 27 -3 54 -31 54 -10 0 -28 11 -41 25 -27 28 -48 32 -56 10 -4 -10 -20 -15 -49 -15 -52 0 -72 -18 -55 -50 9 -18 8 -25 -6 -41 -18 -20 -18 -20 -38 1 -17 17 -19 24 -9 39 14 22 8 31 -22 31 -12 0 -30 10 -41 21 -10 12 -29 25 -41 30 -24 9 -31 33 -13 44 6 4 10 21 8 39 -2 41 29 85 60 86 39 0 62 18 62 49 0 51 26 55 63 11z m-583 -170 c0 -25 -4 -30 -25 -30 -21 0 -25 5 -25 30 0 25 4 30 25 30 21 0 25 -5 25 -30z m1781 -278 c13 -15 14 -22 4 -35 -16 -23 -47 -21 -62 3 -10 15 -10 22 3 35 20 20 36 19 55 -3z m-781 -52 c26 -26 25 -34 -4 -48 -18 -8 -27 -7 -39 5 -14 14 -14 18 0 39 19 29 18 29 43 4z m-337 -14 c24 -19 21 -36 -7 -36 -31 0 -50 22 -34 38 15 15 19 15 41 -2z m788 -32 c11 -14 10 -18 -6 -30 -24 -18 -30 -18 -50 2 -12 12 -13 19 -4 30 15 19 43 18 60 -2z m-222 -53 c-17 -26 -35 -27 -48 -3 -7 14 -6 25 6 41 15 23 16 23 35 3 17 -17 18 -22 7 -41z m605 30 c15 -16 15 -19 1 -31 -8 -7 -15 -19 -15 -28 0 -21 -30 -41 -61 -42 -31 0 -44 23 -23 40 8 7 14 19 14 26 0 18 36 54 53 54 8 0 21 -8 31 -19z m-994 -31 c12 -7 12 -12 0 -34 -16 -31 -22 -32 -46 -5 -18 20 -18 21 1 35 22 16 25 17 45 4z m660 -22 c21 -27 10 -48 -25 -48 -25 0 -39 23 -30 51 8 26 33 24 55 -3z m-452 -20 c15 -15 16 -48 1 -48 -36 0 -65 42 -36 53 19 8 22 8 35 -5z m560 -40 c7 -7 9 -27 5 -54 -5 -39 -3 -44 19 -53 13 -5 30 -16 37 -25 8 -9 29 -24 48 -33 27 -12 39 -13 59 -4 56 25 92 -1 54 -39 -23 -23 -33 -24 -60 -8 -15 10 -24 9 -44 -2 -23 -12 -28 -11 -44 3 -12 11 -36 17 -70 17 -48 0 -52 2 -52 23 0 13 -5 28 -12 35 -9 9 -6 18 15 40 25 26 26 30 12 42 -15 13 -21 51 -8 63 10 10 28 8 41 -5z m343 -104 c16 -15 16 -17 -2 -35 -27 -27 -54 -21 -55 11 0 14 1 28 3 33 7 12 36 8 54 -9z m-111 -209 c10 -13 9 -19 -5 -35 -17 -19 -19 -19 -37 -4 -21 20 -23 40 -5 47 22 9 34 7 47 -8z m-160 -70 c0 -32 -21 -65 -40 -65 -12 0 -33 39 -35 64 -1 11 7 28 17 38 27 27 58 8 58 -37z m-224 -46 c3 -6 1 -22 -7 -35 -12 -23 -14 -23 -31 -7 -10 9 -18 22 -18 29 0 21 44 32 56 13z m219 -59 c0 -21 -5 -26 -33 -28 -40 -4 -56 23 -26 45 29 21 59 13 59 -17z m55 -95 c10 -12 10 -18 0 -30 -10 -12 -10 -22 -2 -39 9 -20 7 -27 -9 -42 -19 -17 -21 -17 -41 4 -19 18 -20 25 -10 48 9 18 9 30 3 38 -7 9 -7 16 1 24 16 16 43 15 58 -3z m-224 -62 c21 -28 17 -33 -26 -33 -43 0 -49 9 -24 34 20 21 34 20 50 -1z m385 -35 c21 -15 22 -19 9 -28 -8 -6 -27 -13 -43 -17 -36 -7 -41 -18 -27 -54 10 -22 10 -32 1 -43 -9 -11 -9 -19 0 -35 11 -17 10 -23 -6 -41 l-18 -20 -22 20 c-30 28 -59 17 -52 -19 4 -20 0 -30 -15 -40 -19 -12 -24 -10 -47 18 -73 88 -75 91 -59 107 8 9 31 19 51 24 30 6 42 4 69 -16 38 -29 63 -32 53 -6 -10 23 -9 31 6 69 11 28 11 34 -3 50 -12 13 -14 23 -7 35 12 22 76 20 110 -4z m40 -58 c29 -16 19 -54 -15 -58 -24 -3 -26 -1 -22 25 2 15 5 31 5 36 1 10 9 9 32 -3z m11 -157 c25 -23 23 -32 -19 -75 -36 -37 -37 -38 -17 -59 10 -12 15 -24 9 -26 -29 -10 -36 -21 -30 -45 9 -36 41 -68 68 -68 14 0 43 -21 77 -55 44 -44 50 -55 37 -61 -9 -3 -17 -9 -17 -13 0 -14 52 -32 72 -25 23 7 48 -12 48 -37 0 -15 -7 -19 -34 -19 -19 0 -36 5 -38 10 -4 14 -58 -12 -83 -40 -18 -20 -18 -21 6 -46 15 -16 32 -24 49 -22 43 4 50 -8 50 -86 0 -39 5 -77 11 -83 7 -7 -4 -25 -41 -62 -58 -58 -90 -67 -90 -23 0 15 -5 33 -11 39 -9 9 -2 20 25 43 20 18 36 38 36 46 0 12 -50 40 -102 57 -14 5 -16 14 -11 55 5 44 3 51 -18 66 -13 9 -31 16 -41 16 -25 0 -70 48 -61 64 5 8 23 26 41 41 51 43 39 98 -31 136 -14 8 -19 5 -27 -16 -5 -14 -15 -25 -21 -25 -11 0 -9 -17 6 -66 5 -18 0 -25 -26 -38 -17 -9 -38 -16 -44 -16 -27 0 -38 -31 -36 -100 2 -65 0 -70 -18 -70 -26 0 -65 36 -49 46 6 4 8 25 5 50 -2 25 -1 47 4 50 19 11 7 47 -31 95 -22 28 -38 55 -34 60 7 12 61 11 69 -1 3 -5 14 -10 24 -10 10 0 26 -11 35 -25 20 -30 27 -31 44 -4 10 15 11 24 3 32 -6 6 -11 32 -11 57 0 25 -5 51 -10 56 -7 7 -5 21 6 42 14 29 20 32 60 32 43 0 44 1 44 32 0 26 9 40 43 70 48 43 54 44 79 21z m-327 -45 c14 -6 25 -17 25 -23 0 -7 9 -20 20 -30 25 -23 25 -37 -1 -53 -18 -12 -24 -9 -60 28 -41 42 -47 58 -27 78 15 15 12 15 43 0z m-220 -69 c0 -19 -6 -25 -27 -27 -22 -3 -28 1 -28 17 0 20 27 43 45 37 6 -1 10 -14 10 -27z m383 -397 c25 -22 13 -42 -25 -42 -31 0 -42 29 -18 46 23 17 18 18 43 -4z m621 -251 c6 -10 7 -21 4 -25 -12 -12 -57 -6 -74 10 -17 16 -17 17 4 34 24 20 49 13 66 -19z m-453 -87 c15 -22 15 -27 3 -35 -8 -5 -26 -9 -41 -9 -16 0 -28 -4 -28 -10 0 -16 -72 -11 -92 7 -17 15 -17 17 -2 35 12 12 31 18 63 18 25 0 53 5 61 10 20 13 17 14 36 -16z m283 -43 c58 -6 72 -19 46 -41 -14 -11 -21 -11 -46 4 -25 15 -35 16 -59 6 -22 -9 -32 -9 -49 2 -12 7 -21 16 -21 20 0 14 35 28 55 22 11 -4 44 -9 74 -13z m-123 -56 c4 -11 21 -15 58 -15 29 0 57 -5 62 -10 6 -6 28 -11 50 -13 21 -1 49 -9 61 -18 l23 -16 -35 -33 c-19 -19 -35 -30 -35 -25 0 5 -11 -2 -25 -15 -14 -13 -25 -28 -25 -34 0 -12 -40 -56 -52 -56 -5 0 -13 12 -18 26 -8 20 -6 31 9 50 32 40 19 50 -57 46 -37 -3 -68 -8 -70 -13 -2 -5 -14 4 -27 19 l-23 27 41 46 c46 52 55 56 63 34z m-273 -216 c-26 -26 -43 -18 -43 21 0 35 19 43 45 19 19 -19 19 -19 -2 -40z m577 30 c0 -5 -7 -12 -15 -15 -19 -8 -19 -38 0 -68 14 -21 14 -24 0 -29 -17 -7 -20 -42 -5 -52 6 -3 10 -15 10 -26 0 -30 -57 -26 -82 7 -13 16 -28 24 -43 22 -22 -3 -65 26 -65 43 0 18 60 72 82 73 17 1 22 6 20 22 -4 27 53 58 80 43 10 -5 18 -14 18 -20z m-126 -266 c-10 -41 -34 -66 -51 -52 -16 14 -17 51 -1 67 7 7 22 12 35 12 20 0 23 -4 17 -27z m146 18 c0 -5 10 -11 23 -13 14 -2 23 -11 25 -25 3 -18 10 -23 33 -23 16 0 32 6 35 14 6 16 42 18 61 3 17 -12 -7 -58 -44 -85 -27 -19 -27 -21 -10 -39 20 -23 22 -44 5 -61 -6 -6 -8 -15 -4 -19 4 -4 11 -1 16 6 15 26 39 -12 42 -69 3 -47 7 -55 41 -82 21 -17 36 -33 33 -35 -7 -7 59 -63 75 -63 7 0 21 -7 30 -16 18 -16 17 -18 -12 -45 -33 -31 -49 -36 -49 -17 0 6 -11 1 -24 -11 -14 -13 -22 -30 -19 -41 7 -26 -27 -60 -59 -60 -19 0 -38 11 -58 33 -37 41 -39 83 -5 116 24 22 27 23 44 7 18 -16 20 -16 29 0 7 13 0 26 -37 62 -50 50 -64 52 -98 16 -26 -28 -68 -31 -101 -8 -26 18 -29 54 -4 55 9 1 22 2 28 3 17 2 112 93 118 114 8 24 -58 87 -81 78 -14 -6 -14 -9 2 -26 16 -18 16 -20 2 -20 -13 0 -17 -9 -17 -35 0 -32 -2 -35 -30 -35 -23 0 -45 14 -95 62 -60 58 -63 63 -48 80 14 16 14 18 -1 24 -21 8 -21 24 0 24 9 0 14 6 11 13 -6 18 71 107 93 107 11 0 22 5 25 10 8 13 25 13 25 1z m-316 -147 c9 -23 -2 -34 -35 -34 -33 0 -34 2 -17 30 15 24 43 26 52 4z m722 -241 c19 -25 17 -47 -4 -66 -17 -15 -19 -15 -35 3 -9 11 -17 34 -17 50 0 24 4 30 21 30 12 0 28 -8 35 -17z m-1340 -158 c5 -12 25 -15 90 -15 49 0 84 4 84 10 0 6 13 10 29 10 17 0 33 -4 36 -10 3 -5 17 -10 31 -10 13 0 24 5 24 10 0 6 13 10 29 10 17 0 33 -4 36 -10 3 -5 17 -10 31 -10 13 0 24 5 24 10 0 6 30 10 70 10 64 0 70 -2 70 -20 0 -11 -7 -23 -15 -26 -12 -5 -15 -27 -15 -115 0 -70 -5 -116 -12 -129 -10 -16 -10 -24 0 -40 6 -11 12 -38 12 -60 0 -32 -4 -40 -18 -40 -22 0 -48 27 -54 55 -3 16 -10 19 -36 17 -25 -3 -32 0 -32 13 0 12 -5 15 -16 11 -10 -4 -22 1 -31 11 -10 13 -16 15 -19 6 -4 -8 -24 -13 -50 -13 -32 0 -46 -5 -51 -16 -5 -14 -9 -13 -24 7 -20 26 -26 94 -9 104 18 11 11 44 -12 57 -25 13 -57 12 -72 -3 -6 -5 -21 -9 -35 -9 -59 -1 -81 -55 -35 -85 25 -16 25 -17 8 -36 -9 -10 -23 -19 -31 -19 -22 0 -53 38 -53 65 0 31 -28 45 -42 22 -13 -25 -45 -21 -64 8 -16 24 -15 27 1 45 17 18 17 20 1 26 -10 4 -24 0 -33 -9 -15 -14 -18 -14 -36 9 -25 32 -9 54 39 54 27 0 45 11 96 60 68 64 76 68 84 45z m1363 -62 c23 -27 41 -51 41 -54 0 -4 -8 -17 -18 -29 l-17 -22 -44 52 c-39 46 -42 54 -32 76 6 13 15 24 20 24 5 0 28 -21 50 -47z m-1649 -3 c13 -8 12 -13 -6 -36 -11 -15 -26 -30 -32 -32 -15 -5 -37 42 -29 62 7 18 44 21 67 6z m-140 -64 c0 -13 -7 -29 -16 -36 -13 -11 -19 -10 -36 7 -28 28 -17 53 22 53 25 0 30 -4 30 -24z m76 -41 c-8 -41 -32 -47 -62 -14 -18 20 -18 21 1 32 23 14 58 25 64 21 2 -2 0 -19 -3 -39z m-402 20 c20 -16 14 -33 -18 -45 -14 -5 -27 -3 -39 8 -16 14 -16 16 -1 34 20 21 33 22 58 3z m1586 -30 c0 -8 -7 -23 -16 -34 -15 -17 -18 -17 -35 -3 -32 28 -24 52 16 52 24 0 35 -5 35 -15z m547 -45 c31 -33 64 -60 74 -60 11 0 19 -4 19 -10 0 -5 26 -10 58 -10 49 -1 59 -4 76 -26 20 -28 28 -83 14 -100 -12 -17 1 -44 22 -44 10 0 27 -11 38 -25 29 -37 52 -33 52 10 0 27 -4 35 -17 35 -10 0 -26 12 -36 26 -17 23 -18 27 -3 49 19 29 31 32 40 9 3 -8 10 -13 15 -10 5 3 25 -10 45 -29 25 -23 32 -35 22 -35 -20 0 -23 -76 -4 -82 8 -3 -2 -18 -25 -40 -20 -19 -37 -42 -37 -50 0 -8 -9 -23 -20 -33 -17 -15 -20 -16 -25 -3 -4 10 -17 15 -35 14 -36 -2 -44 -10 -25 -26 13 -11 12 -15 -11 -32 l-25 -20 -28 26 c-15 14 -34 26 -43 26 -11 0 -17 12 -20 42 -3 35 0 47 19 66 28 28 28 30 6 34 -10 2 -23 -3 -29 -10 -16 -22 -77 43 -70 74 5 18 0 27 -19 40 -14 9 -28 27 -31 40 -8 30 -32 50 -45 37 -11 -11 -119 84 -119 106 0 21 30 51 52 51 10 0 18 5 18 10 0 6 10 10 21 10 13 0 42 -23 76 -60z m-1667 -85 c7 -8 25 -15 40 -15 36 0 68 -34 50 -55 -14 -17 -40 -20 -40 -5 0 6 -20 10 -45 10 -44 0 -45 0 -45 33 0 48 16 61 40 32z m240 -55 c0 -11 -7 -28 -16 -39 -16 -18 -17 -18 -35 0 -34 34 -22 56 29 58 16 1 22 -5 22 -19z m1950 -285 c0 -22 -6 -38 -15 -41 -24 -9 -7 -24 27 -24 61 0 77 -59 23 -84 -39 -19 -46 -36 -15 -36 11 0 20 6 20 13 0 9 17 14 56 15 55 1 58 0 101 -46 41 -44 44 -50 40 -94 -3 -36 0 -50 15 -62 10 -9 23 -16 28 -16 17 0 50 -34 50 -50 0 -9 13 -28 28 -43 28 -26 29 -27 60 -11 18 8 32 20 32 25 0 5 5 9 10 9 6 0 10 -7 10 -15 0 -7 8 -18 17 -24 17 -9 16 -11 -1 -30 -21 -23 -71 -51 -91 -51 -7 0 -21 -11 -31 -25 -10 -14 -26 -25 -36 -25 -9 0 -21 -8 -27 -17 -9 -17 -10 -17 -16 0 -4 9 -16 17 -26 17 -11 0 -22 6 -25 14 -3 8 -11 12 -19 10 -17 -7 -57 45 -53 70 2 16 12 22 36 24 35 4 42 23 18 55 -12 16 -18 13 -76 -43 -55 -52 -65 -57 -75 -44 -10 15 -14 15 -43 0 -18 -9 -32 -21 -32 -26 0 -17 -32 -11 -46 8 -16 20 -18 52 -4 52 6 0 10 11 10 25 0 14 5 25 10 25 6 0 10 -4 10 -10 0 -5 16 -16 35 -26 34 -16 35 -16 59 13 14 15 26 36 26 45 0 9 8 21 18 27 16 9 16 10 0 16 -10 4 -18 15 -18 25 0 28 -17 33 -49 14 l-30 -18 -38 43 c-41 47 -61 118 -36 128 7 3 13 20 13 39 0 30 -3 34 -25 34 -17 0 -25 -5 -25 -18 0 -20 -33 -52 -55 -52 -8 0 -15 -4 -15 -10 0 -5 -16 -10 -35 -10 -28 0 -35 4 -35 19 0 11 11 28 25 39 19 15 25 29 25 58 0 46 23 74 61 74 18 0 34 9 46 25 13 17 28 24 51 25 30 0 32 -2 32 -35z m-1606 -77 c15 -21 14 -24 -4 -42 -20 -20 -20 -20 -35 -1 -8 11 -15 30 -15 43 0 29 34 30 54 0z m391 -18 c8 -26 -1 -40 -26 -40 -10 0 -19 -4 -19 -10 0 -5 -16 -10 -35 -10 -33 0 -35 2 -35 35 0 29 4 35 21 35 11 0 27 7 35 15 19 18 49 5 59 -25z m107 -11 c21 -11 21 -12 3 -26 -17 -11 -18 -16 -7 -34 16 -25 6 -59 -17 -59 -23 0 -61 53 -61 84 0 39 41 57 82 35z m-1554 -19 c1 -8 -7 -21 -19 -28 -18 -12 -24 -11 -37 1 -22 23 -8 49 25 45 15 -2 29 -10 31 -18z m1880 -46 c27 -19 28 -26 1 -42 -26 -17 -49 0 -49 34 0 28 16 31 48 8z m66 -118 c-8 -21 -63 -21 -71 0 -3 8 4 25 17 39 l23 24 18 -24 c11 -13 16 -30 13 -39z m-851 21 c12 -19 13 -26 2 -41 -13 -17 -14 -17 -34 3 -26 26 -27 48 -3 54 9 3 18 5 18 6 1 0 8 -9 17 -22z m-323 -2 c15 -18 13 -21 -23 -30 -22 -6 -27 -4 -27 12 0 35 28 45 50 18z m935 -45 c0 -29 -3 -34 -20 -32 -11 2 -26 10 -34 17 -13 13 -12 17 4 35 28 31 50 22 50 -20z m-444 -30 c10 -6 19 -20 19 -30 0 -16 -7 -20 -35 -20 -27 0 -35 4 -35 18 0 16 17 42 28 42 2 0 12 -5 23 -10z m-547 -19 c17 -18 17 -20 -3 -40 -12 -12 -25 -21 -30 -21 -15 0 -23 51 -10 66 15 19 23 18 43 -5z m1449 -46 c21 -15 15 -55 -8 -55 -7 0 -15 -6 -18 -12 -6 -19 3 -38 19 -38 8 0 28 -14 46 -30 l32 -31 -21 -21 c-20 -19 -25 -20 -55 -8 -18 7 -41 20 -50 28 -22 18 -24 58 -4 65 9 4 12 14 9 27 -5 19 -7 19 -23 5 -9 -8 -24 -15 -33 -15 -9 0 -17 -4 -17 -10 0 -15 -32 -12 -54 5 -20 15 -20 15 0 34 10 10 29 30 41 45 19 21 31 26 70 26 27 0 56 -7 66 -15z m174 -85 c13 -17 29 -27 35 -24 15 10 66 -16 71 -37 3 -10 -3 -29 -13 -41 -16 -20 -20 -21 -35 -8 -10 8 -26 15 -35 15 -10 0 -38 19 -64 43 l-47 43 23 19 c31 26 35 25 65 -10z m-179 -156 c28 -20 28 -30 -3 -50 -25 -16 -27 -16 -50 6 l-24 23 22 18 c27 23 27 23 55 3z m992 -48 c0 -8 8 -17 18 -21 16 -6 16 -7 -1 -20 -16 -11 -17 -17 -7 -35 10 -18 9 -25 -4 -38 -27 -27 -46 1 -46 69 0 52 2 59 20 59 11 0 20 -6 20 -14z m240 -62 c0 -12 -22 -32 -58 -52 -26 -14 -55 -3 -71 27 -13 24 15 51 53 51 15 0 29 7 33 16 5 14 9 13 24 -7 10 -13 19 -29 19 -35z m-703 -14 c22 -5 35 -3 45 7 21 21 48 6 48 -27 0 -40 -47 -55 -80 -25 -14 13 -19 12 -45 -1 -27 -14 -30 -13 -49 5 -19 20 -19 21 -1 41 11 13 25 18 34 14 9 -3 30 -10 48 -14z m-79 -93 c3 -21 -1 -27 -15 -27 -11 0 -28 7 -39 15 -19 15 -19 15 1 30 28 22 49 15 53 -18z m842 -12 c13 -14 32 -25 42 -25 22 0 23 -27 3 -54 -11 -15 -17 -17 -29 -7 -8 7 -26 13 -41 14 -37 3 -60 53 -37 80 20 23 34 22 62 -8z m-507 -109 c24 -18 21 -34 -8 -48 -22 -10 -29 -9 -48 10 -21 21 -21 22 -2 37 25 18 35 18 58 1z m435 -41 c9 -20 9 -30 0 -45 -16 -25 -21 -25 -42 -1 -14 15 -15 23 -5 45 15 33 32 33 47 1z m-1485 -15 c-6 -23 -19 -26 -26 -6 -6 16 1 26 19 26 7 0 10 -8 7 -20z m1718 -22 c24 -29 24 -45 0 -58 -31 -16 -45 -12 -59 17 -11 25 -10 29 10 45 29 22 26 22 49 -4z m-120 -50 c11 -11 19 -25 19 -30 0 -19 -42 -48 -69 -48 -16 0 -39 9 -52 20 l-24 20 24 20 c12 11 27 18 31 15 4 -3 13 2 20 10 17 20 29 19 51 -7z m337 -20 c7 -7 12 -29 12 -51 0 -37 -1 -38 -32 -35 -27 2 -34 8 -36 30 -6 51 27 85 56 56z m-148 -28 c0 -11 -7 -23 -15 -26 -8 -4 -15 -12 -15 -18 0 -7 -9 -31 -20 -54 -20 -40 -21 -41 -52 -30 -18 6 -40 16 -48 23 -8 7 -20 11 -26 8 -6 -2 -14 3 -17 12 -8 20 30 55 61 55 13 0 37 11 54 25 37 31 78 34 78 5z m-290 -93 c0 -7 -7 -23 -16 -35 l-16 -23 -19 25 c-27 35 -24 46 16 46 22 0 35 -5 35 -13z m616 -42 c7 -18 -3 -65 -14 -65 -4 0 -18 9 -31 19 -17 13 -22 23 -16 39 8 26 52 31 61 7z m119 -56 c4 -5 -1 -19 -10 -29 -14 -15 -20 -17 -36 -7 -30 19 -24 47 10 47 17 0 33 -5 36 -11z m162 -92 c3 -15 16 -37 29 -50 29 -27 35 -111 8 -121 -59 -23 -120 19 -92 63 10 16 10 23 0 33 -17 17 -15 84 5 114 16 25 17 25 30 8 8 -11 17 -31 20 -47z m-119 -16 c5 -32 -11 -46 -37 -32 -26 14 -27 36 -3 50 24 14 36 8 40 -18z m-724 -7 c23 -9 20 -29 -8 -43 -38 -21 -63 8 -34 37 14 14 20 14 42 6z m1115 -42 c41 -59 -9 -100 -58 -48 -22 23 -22 25 -6 50 22 33 39 33 64 -2z m1001 -58 c12 -22 12 -27 0 -34 -37 -24 -68 4 -44 38 20 28 28 28 44 -4z m-442 -106 c3 -22 -1 -28 -17 -28 -46 0 -65 22 -39 48 22 22 53 10 56 -20z m-286 3 c9 -12 12 -41 10 -85 -4 -66 -4 -67 -30 -64 -25 3 -27 7 -32 67 -7 85 20 128 52 82z m-267 -17 c17 -13 18 -16 5 -24 -37 -23 -85 1 -57 29 15 15 28 14 52 -5z m531 -58 c14 -2 20 -12 22 -39 l3 -37 -44 0 c-36 0 -48 5 -60 24 -14 21 -14 26 -1 45 11 15 22 19 38 15 12 -3 31 -6 42 -8z m264 -68 c16 -10 24 -10 40 0 27 17 66 15 95 -4 37 -24 33 -52 -7 -56 -31 -3 -33 -5 -33 -43 0 -38 -1 -40 -30 -37 -16 1 -50 4 -75 5 -64 3 -70 10 -70 77 0 37 4 60 13 63 22 9 47 7 67 -5z m-240 -88 c0 -35 -3 -40 -24 -40 -31 0 -42 37 -19 62 27 30 43 22 43 -22z m736 -41 c18 -20 18 -21 -1 -35 -10 -8 -22 -14 -25 -14 -3 0 -15 6 -25 14 -19 14 -19 15 -1 35 11 12 22 21 26 21 4 0 15 -9 26 -21z m-450 -67 c9 -14 8 -22 -1 -36 -18 -24 -49 -16 -53 13 -6 38 34 55 54 23z m452 -53 c11 -18 11 -23 -5 -35 -22 -17 -24 -17 -46 0 -15 12 -16 18 -7 35 14 27 42 27 58 0z m-958 -96 c0 -8 -12 -13 -30 -13 -34 0 -38 14 -13 42 16 18 18 18 30 2 7 -10 13 -24 13 -31z"></path>
      <path id="pXgRG05DD" d="M7943 11329 c-14 -14 -6 -39 12 -39 18 0 26 15 19 34 -7 19 -16 20 -31 5z"></path>
      <path id="poDXKrYGv" d="M7482 11270 c-30 -49 -1 -100 57 -100 18 0 30 -4 27 -9 -8 -13 9 -17 55 -13 31 3 39 8 35 19 -4 8 3 22 16 32 33 27 14 41 -57 41 -61 0 -95 14 -95 41 0 16 -25 9 -38 -11z"></path>
      <path id="pX3Sk6Yz1" d="M7370 10962 c0 -10 -5 -23 -12 -30 -8 -8 -8 -15 2 -27 17 -20 40 -19 40 3 0 9 7 26 15 36 18 24 11 36 -21 36 -16 0 -24 -6 -24 -18z"></path>
      <path id="pvXlEkWCU" d="M6107 6984 c-16 -16 -6 -34 19 -34 19 0 25 5 22 17 -3 19 -29 29 -41 17z"></path>
      <path id="p19SncApdM" d="M5805 6932 c-13 -9 -35 -49 -35 -62 0 -5 8 -10 18 -10 22 1 76 55 67 69 -7 13 -35 14 -50 3z"></path>
      <path id="pzCifsP8c" d="M6275 6860 c-19 -21 -13 -36 24 -67 21 -18 61 21 61 59 0 25 -3 28 -33 28 -21 0 -41 -8 -52 -20z"></path>
      <path id="p1FCzD2pUA" d="M6490 3455 c0 -23 4 -25 45 -25 25 0 45 3 45 8 -1 21 -30 42 -59 42 -26 0 -31 -4 -31 -25z"></path>
      <path id="p9EqGz7bf" d="M10850 1140 c0 -16 26 -40 43 -40 9 0 16 30 11 45 -9 23 -54 19 -54 -5z"></path>
    </g>
  </g>
  <g id="texts">
    <g>
      <text fill="#ffffff" x="10.87523%" y="7.271756%" text-anchor="middle" dominant-baseline="central" font-size="500">12</text>
      <text fill="#ffffff" x="11.027764%" y="20.04553%" text-anchor="middle" dominant-baseline="central" font-size="500">14</text>
      <text fill="#ffffff" x="10.836275%" y="32.894093%" text-anchor="middle" dominant-baseline="central" font-size="500">16</text>
      <text fill="#ffffff" x="10.919987%" y="45.573307%" text-anchor="middle" dominant-baseline="central" font-size="500">18</text>
      <text fill="#ffffff" x="10.905888%" y="58.37844%" text-anchor="middle" dominant-baseline="central" font-size="500">20</text>
      <text fill="#ffffff" x="10.855782%" y="71.11636%" text-anchor="middle" dominant-baseline="central" font-size="500">22</text>
      <text fill="#ffffff" x="10.8918705%" y="83.94681%" text-anchor="middle" dominant-baseline="central" font-size="500">24</text>
      <text fill="#ffffff" x="22.919273%" y="92.86271%" text-anchor="middle" dominant-baseline="central" font-size="500">0.2</text>
      <text fill="#ffffff" x="39.602295%" y="92.7531%" text-anchor="middle" dominant-baseline="central" font-size="500">0.6</text>
      <text fill="#ffffff" x="56.312664%" y="92.86199%" text-anchor="middle" dominant-baseline="central" font-size="500">1.0</text>
      <text fill="#ffffff" x="72.6642%" y="92.82126%" text-anchor="middle" dominant-baseline="central" font-size="500">1.4</text>
      <text fill="#ffffff" x="89.09304%" y="92.870094%" text-anchor="middle" dominant-baseline="central" font-size="500">1.8</text>
      <text fill="#ffffff" x="65.175385%" y="53.16409%" text-anchor="middle" dominant-baseline="central" font-size="550">main sequence</text>
      <text fill="#ffffff" x="40.43081%" y="6.221171%" text-anchor="middle" dominant-baseline="central" font-size="550">asymptotic giant</text>
      <text fill="#ffffff" x="38.539265%" y="10.13663%" text-anchor="middle" dominant-baseline="central" font-size="550">branch (AGB).</text>
      <text fill="#ffffff" x="28.96442%" y="22.234022%" text-anchor="middle" dominant-baseline="central" font-size="550">horizontal</text>
      <text fill="#ffffff" x="28.758919%" y="26.358715%" text-anchor="middle" dominant-baseline="central" font-size="550">branch</text>
      <text fill="#ffffff" x="64.45807%" y="31.115786%" text-anchor="middle" dominant-baseline="central" font-size="550">red giants</text>
      <text fill="#ffffff" x="28.361355%" y="36.664597%" text-anchor="middle" dominant-baseline="central" font-size="550">subgiants</text>
      <text fill="#ffffff" x="33.026134%" y="69.07085%" text-anchor="middle" dominant-baseline="central" font-size="600">47 Tuc</text>
      <text fill="#ffffff" x="55.517605%" y="97.71729%" text-anchor="middle" dominant-baseline="central" font-size="600">B - V</text>
      <text fill="#ffffff" x="5.0616326%" y="40.36024%" text-anchor="middle" dominant-baseline="central" font-size="641">m</text>
      <text fill="#ffffff" x="8%" y="41%" text-anchor="middle" dominant-baseline="central" font-size="575">v</text>
    </g>
  </g>
</svg>