<?xml version="1.0" encoding="UTF-8"?>
<svg width="600" height="320" version="1.1" xmlns="http://www.w3.org/2000/svg" xmlns:xlink="http://www.w3.org/1999/xlink">
 <defs>
  <radialGradient id="i" cx="75.134" cy="151.27" r="67.5" gradientTransform="matrix(.9012 0 0 .9012 9.33 11.36)" gradientUnits="userSpaceOnUse">
   <stop stop-color="#fff" offset="0"/>
   <stop stop-color="#f00" offset="1"/>
  </radialGradient>
  <radialGradient id="h" cx="250.2" cy="151.72" r="98.233" gradientTransform="matrix(.9012 0 0 .9012 9.33 10.95)" gradientUnits="userSpaceOnUse">
   <stop stop-color="#fff" offset="0"/>
   <stop stop-color="#FFFEF9" offset=".0973"/>
   <stop stop-color="#FFFBEA" offset=".2213"/>
   <stop stop-color="#FFF5CF" offset=".3599"/>
   <stop stop-color="#FFEEAB" offset=".5091"/>
   <stop stop-color="#FFE57C" offset=".6668"/>
   <stop stop-color="#FFD943" offset=".8317"/>
   <stop stop-color="#fc0" offset="1"/>
  </radialGradient>
  <radialGradient id="a" cx="752.97" cy="155.19" r="126.35" gradientTransform="translate(-295.11 -7.5095)" gradientUnits="userSpaceOnUse">
   <stop stop-color="#fff" offset=".2849"/>
   <stop stop-color="#A0A0BD" offset=".6099"/>
   <stop stop-color="#58588B" offset=".8767"/>
   <stop stop-color="#3C3C77" offset="1"/>
  </radialGradient>
 </defs>
 <g stroke="#000">
  <circle cx="457.86" cy="147.68" r="125" fill="url(#a)" stroke-width="2.7"/>
  <g stroke-width="2">
   <circle cx="457.86" cy="147.68" r="50" fill="none"/>
   <circle cx="234.81" cy="147.68" r="90" fill="url(#h)"/>
   <circle cx="234.81" cy="147.68" r="30" fill="none"/>
  </g>
  <circle cx="77.041" cy="147.68" r="60" fill="url(#i)" stroke-width="1.4"/>
 </g>
 <g id="c">
  <g id="d">
   <g transform="translate(.39005 -52.707)">
    <ellipse cx="457.49" cy="175.34" rx="13.209" ry="18.099" fill="none" stroke="#000" stroke-width="2"/>
    <path id="b" d="m464.6 182.89 4.8201-15.325 6.2562 14.797c-1.6922-1.1251-3.6566-1.6308-5.6002-1.5364s-3.8666 0.78897-5.4761 2.0645z" stroke="#000" stroke-linejoin="round"/>
    <use transform="matrix(.99512 -.098703 -.098703 -.99512 -5.0291 396.19)" stroke-linejoin="round" xlink:href="#b"/>
   </g>
   <g id="e">
    <path d="m450.21 48.656 7.6101-15.078 7.6101 15.078c-4.493-2.4088-10.64-2.3949-15.22 0z" fill="#f74848" stroke="#f74848" stroke-linejoin="round"/>
    <path d="m457.86 85.093v-7.2006l-13.473-5.7433 25.18-10.603-11.707-5.7424v-11.02" fill="none" stroke="#f74848" stroke-linecap="round" stroke-linejoin="round" stroke-width="5"/>
   </g>
   <use transform="rotate(45,457.86,147.68)" xlink:href="#e"/>
  </g>
  <use transform="rotate(90,457.86,147.68)" xlink:href="#d"/>
 </g>
 <use transform="rotate(180,457.86,147.68)" xlink:href="#c"/>
 <g id="j">
  <g id="k">
   <g id="l">
    <ellipse cx="234.81" cy="89.798" rx="16.981" ry="21.691" fill="none" stroke="#000" stroke-width="2"/>
    <path d="m212.73 82.793 6.3092 14.774 4.7652-15.342c-1.5729 1.2866-3.4777 1.9838-5.4212 2.0817-1.9435 0.09791-3.9256-0.40347-5.6532-1.5139z" stroke="#000" stroke-linejoin="round"/>
    <path d="m246.25 97.618 4.4637-15.432 6.5974 14.648c-1.7178-1.0856-3.6934-1.5457-5.6343-1.4063-1.941 0.13941-3.8473 0.87835-5.4268 2.1909z" stroke="#000" stroke-linejoin="round"/>
   </g>
   <path d="m231.73 126.36 3.0701-6.0828 3.0701 6.0828c-1.8126-0.97177-4.2926-0.96617-6.1402 0z" fill="#ea3333" stroke="#ea3333" stroke-linejoin="round" stroke-width=".5"/>
   <path d="m234.81 141.06v-2.9049l-5.4354-2.317 10.158-4.2774-4.7228-2.3167v-4.4457" fill="none" stroke="#ea3333" stroke-linecap="round" stroke-linejoin="round" stroke-width="2"/>
   <use transform="rotate(45,234.81,147.68)" xlink:href="#l"/>
  </g>
  <use transform="rotate(90,234.81,147.68)" xlink:href="#k"/>
 </g>
 <use transform="rotate(180,234.81,147.68)" xlink:href="#j"/>
 <g id="f">
  <g id="g">
   <g transform="translate(0,136.22)">
    <path d="m87.967-31.018c1.1562 5.2855-0.81919 12.779-2.2467 16.912-1.4275 4.133-3.5976 8.8885-5.4108 11.26-1.8064 2.3622-2.8795 2.3575-3.2686 2.3575s-1.4622 0.0047-3.2686-2.3575c-1.8132-2.3715-3.9833-7.127-5.4108-11.26s-3.4029-11.626-2.2467-16.912c0.77274-6.0682 3.5923-14.224 10.926-14.224s10.153 8.1557 10.926 14.224z" fill="none" stroke="#000" stroke-width="1.4"/>
    <path d="m61.266-20.28 5.3296-13.516 4.6963 13.749c-1.4545-1.1233-3.1942-1.7053-4.9536-1.7446-1.7594-0.03933-3.5387 0.46414-5.0723 1.5118z" stroke="#000" stroke-linejoin="round"/>
    <path d="m82.869-33.622 4.4771 13.822 5.5438-13.429c-1.5217 1.0305-3.2942 1.503-5.0527 1.4326-1.7585-0.07038-3.5029-0.68371-4.9682-1.8249z" stroke="#000" stroke-linejoin="round"/>
   </g>
   <g transform="matrix(-.70711 -.70711 -.70711 .70711 235.9 97.693)">
    <ellipse cx="77.041" cy="108.93" rx="10.892" ry="18.614" fill="none" stroke="#000" stroke-width="1.4"/>
    <path d="m62.797 103.12 3.7273 9.9652 3.6165-10.006c-1.0795 0.80368-2.3608 1.2073-3.6496 1.2133-1.2887 9e-3 -2.585-0.38564-3.6943-1.1725z" stroke="#000" stroke-linejoin="round" stroke-width=".7"/>
    <path d="m83.905 114.76 3.6524-9.9929 3.6916 9.9785c-1.0855-0.79555-2.3698-1.1895-3.6586-1.1859-1.2888 6e-3 -2.582 0.40503-3.6854 1.2002z" stroke="#000" stroke-linejoin="round" stroke-width=".7"/>
   </g>
  </g>
  <use transform="rotate(90,77.041,147.68)" xlink:href="#g"/>
 </g>
 <use transform="rotate(180,77.041,147.68)" xlink:href="#f"/>
</svg>
