<?xml version="1.0" encoding="UTF-8"?>
<svg width="800" height="500" version="1.1" xmlns="http://www.w3.org/2000/svg" xmlns:xlink="http://www.w3.org/1999/xlink">
	<defs>
		<radialGradient id="o" cx="-228" cy="236" r="25" gradientTransform="matrix(1.76 0 0 1.76 472 31.4)" gradientUnits="userSpaceOnUse">
			<stop stop-color="#fff" offset="0"/>
			<stop offset="1"/>
		</radialGradient>
		<radialGradient id="m" cx="-228" cy="236" r="25" gradientTransform="matrix(1.76 0 0 1.76 472 -21.1)" gradientUnits="userSpaceOnUse">
			<stop stop-color="#fff" offset="0"/>
			<stop stop-color="#e00000" offset="1"/>
		</radialGradient>
		<marker id="c" overflow="visible" orient="auto">
			<path transform="scale(-.6)" d="m8.72 4.03-10.9-4.02 10.9-4.02c-1.75 2.37-1.74 5.62 0 8.04z" stroke="#fff" fill="#fff"/>
		</marker>
		<filter id="h" x="-.3" y="-.3" width="1.6" height="1.6" color-interpolation-filters="sRGB">
			<feGaussianBlur stdDeviation="5"/>
		</filter>
	</defs>
	<circle id="a" cx="78.5" cy="401" r="25" fill="url(#m)"/>
	<circle id="b" cx="78.5" cy="453" r="25" fill="url(#o)"/>
	<use transform="translate(-8.61,173)" xlink:href="#e"/>
	<use transform="translate(545)" xlink:href="#e"/>
	<g transform="rotate(7.87 1450 1647)">
		<use transform="translate(469,-24.9)" xlink:href="#a"/>
		<use transform="translate(374,-55.4)" xlink:href="#b"/>
		<use transform="translate(389,33.1)" xlink:href="#a"/>
		<use transform="translate(434,40.1)" xlink:href="#a"/>
		<use transform="translate(468,-34.4)" xlink:href="#b"/>
		<use transform="translate(434,-103)" xlink:href="#b"/>
		<use transform="translate(391,-44.9)" xlink:href="#a"/>
	</g>
	<use transform="rotate(7.87 1757 4550)" xlink:href="#b"/>
	<use transform="rotate(7.87 1489 4897)" xlink:href="#a"/>
	<use transform="rotate(7.87 1495 4642)" xlink:href="#b"/>
	<use transform="rotate(7.87 1605 4956)" xlink:href="#b"/>
	<use transform="rotate(7.87 1351 4675)" xlink:href="#a"/>
	<use transform="rotate(93 918 -523)" xlink:href="#d"/>
	<use transform="rotate(90,397,396)" xlink:href="#a"/>
	<use transform="rotate(110 912 -408)" xlink:href="#d"/>
	<use transform="rotate(90,384,444)" xlink:href="#b"/>
	<use transform="rotate(90,396,426)" xlink:href="#b"/>
	<use transform="rotate(90,384,416)" xlink:href="#a"/>
	<g id="e" transform="translate(-1468,134)">
		<g id="d" transform="translate(-114,-567)">
			<use transform="translate(1597,60.3)" xlink:href="#b"/>
			<use transform="translate(1632,114)" xlink:href="#a"/>
		</g>
		<use transform="translate(-6.7,30.5)" xlink:href="#d"/>
	</g>
	<use transform="translate(392)" xlink:href="#f"/>
	<g id="g" transform="translate(-1094,-456)">
		<circle cx="1330" cy="643" r="17" fill="#f99" filter="url(#h)"/>
		<path d="m1339 665-9-17-9 17 6-19-19 6 17-9-17-9 19 6-6-19 9 17 9-17-6 19 19-6-17 9 17 9-19-6z" fill="#f2f200" stroke="#c7c700" stroke-width=".5"/>
	</g>
	<g stroke="#fff" stroke-linecap="round" stroke-width="3">
		<path d="m157 127 57.3 44.6" marker-end="url(#c)"/>
		<path d="m256 174 62.9-36.3" marker-end="url(#c)"/>
		<path d="m150 236 62.9-36.3" marker-end="url(#c)"/>
		<path d="m255 203 57.3 44.6" marker-end="url(#c)"/>
		<path d="m606 127-57.3 44.6" marker-end="url(#c)"/>
		<path d="m444 138 62.9 36.3" marker-end="url(#c)"/>
		<path d="m551 200 62.9 36.3" marker-end="url(#c)"/>
		<path d="m509 202-57.3 44.6" marker-end="url(#c)"/>
	</g>
	<use transform="translate(291)" xlink:href="#g"/>
	<use transform="translate(-416 -196)" xlink:href="#i"/>
	<use transform="translate(-314 -196)" xlink:href="#i"/>
	<text id="i" x="737" y="458" font-family="FreeSerif" font-size="40" fill="#fff">γ</text>
	<g font-family="DejaVu Sans" fill="#fff">
		<g font-size="40px">
			<text><tspan x="596" y="373"><tspan baseline-shift="super" font-size="65%">12</tspan>C</tspan></text>
			<text id="f" font-family="'DejaVu Sans'" font-size="40px" fill="#fff"><tspan x="147" y="82"><tspan baseline-shift="super" font-size="65%">4</tspan>He</tspan></text>
			<text><tspan x="404" y="62"><tspan baseline-shift="super" font-size="65%">8</tspan>Be</tspan></text>
			<text><tspan x="144" y="303"><tspan baseline-shift="super" font-size="65%">4</tspan>He</tspan></text>
		</g>
		<g font-size="30px">
			<switch transform="translate(111 412)">
				<text systemLanguage="ca">Protó</text>
				<text systemLanguage="de, en, fr, no, sv">Proton</text>
				<text systemLanguage="el">Πρωτόνιο</text>
				<text systemLanguage="es">Protón</text>
				<text systemLanguage="fa">پروتون</text>
				<text systemLanguage="hu">proton</text>
				<text systemLanguage="it">Protone</text>
				<text systemLanguage="ja">陽子</text>
				<text systemLanguage="mk, ru, uk">Протон</text>
				<text systemLanguage="tr">Önelcik</text>
				<text systemLanguage="zh">質子</text>
				<text>Proton</text>
			</switch>
			<switch transform="translate(111 464)">
				<text systemLanguage="ca">Neutró</text>
				<text systemLanguage="de, en, fr, sv">Neutron</text>
				<text systemLanguage="el">Νετρόνιο</text>
				<text systemLanguage="es">Neutrón</text>
				<text systemLanguage="fa">نوترون</text>
				<text systemLanguage="hu">neutron</text>
				<text systemLanguage="it">Neutrone</text>
				<text systemLanguage="ja">中性子</text>
				<text systemLanguage="mk">Неутрон</text>
				<text systemLanguage="no">Nøytron</text>
				<text systemLanguage="ru, uk">Нейтрон</text>
				<text systemLanguage="tr">Ilıncık</text>
				<text systemLanguage="zh">中子</text>
				<text>Neutron</text>
			</switch>
			<switch transform="translate(725,461)" text-anchor="end">
				<text systemLanguage="ca">Raig gamma</text>
				<text systemLanguage="de">Gammastrahlung</text>
				<text systemLanguage="en">Gamma ray</text>
				<text systemLanguage="el">Ακτίνες γάμμα</text>
				<text systemLanguage="es">Rayos Gamma</text>
				<text systemLanguage="fa">پرتو گاما</text>
				<text systemLanguage="fr">Rayon gamma</text>
				<text systemLanguage="hu">foton</text>
				<text systemLanguage="it">Raggio Gamma</text>
				<text systemLanguage="ja">ガンマ線</text>
				<text systemLanguage="mk">Гама-Зрачєњє</text>
				<text systemLanguage="no">Gammastråling</text>
				<text systemLanguage="ru">Гамма-квант</text>
				<text systemLanguage="sv">Gammafoton</text>
				<text systemLanguage="tr">Gama Işını</text>
				<text systemLanguage="uk">Гамма-промені</text>
				<text systemLanguage="zh">伽马射线</text>
				<text>Gamma ray</text>
			</switch>
		</g>
	</g>
</svg>
