<?xml version='1.0' ?><svg xmlns:dc="http://purl.org/dc/elements/1.1/" xmlns:cc="http://creativecommons.org/ns#" xmlns:rdf="http://www.w3.org/1999/02/22-rdf-syntax-ns#" xmlns:svg="http://www.w3.org/2000/svg" xmlns="http://www.w3.org/2000/svg" version="1.1" id="svg2" width="199.50275" height="201.12346" viewBox="291.26984 55.117893 199.50275 201.12346" preserveAspectRatio="none">
  <defs id="defs4" />
  <metadata id="metadata7">
    <rdf:RDF>
      <cc:Work rdf:about="">
        <dc:format>image/svg+xml</dc:format>
        <dc:type rdf:resource="http://purl.org/dc/dcmitype/StillImage" />
        <dc:title />
      </cc:Work>
    </rdf:RDF>
  </metadata>
  <g id="layer1">
    <text xml:space="preserve" style="font-style:normal;font-weight:normal;font-size:18.61167717px;line-height:125%;font-family:Sans;letter-spacing:0px;word-spacing:0px;fill:#000000;fill-opacity:1;stroke:none" x="11.702661" y="153.4223" id="text4845"><tspan id="tspan4847" x="11.702661" y="153.4223" /></text>
    <g id="g5132" transform="matrix(1.620994,0,0,1.620994,389.26291,95.137096)">
      <g id="g5134" transform="matrix(1.0629921,0,0,-1.0629921,-186.02362,789.27165)" xml:space="preserve" stroke-miterlimit="10.433" font-style="normal" font-variant="normal" font-weight="normal" font-stretch="normal" font-size-adjust="none" letter-spacing="normal" word-spacing="normal" style="font-style:normal;font-variant:normal;font-weight:normal;font-stretch:normal;letter-spacing:normal;word-spacing:normal;text-anchor:start;fill:none;stroke:#000000;stroke-linecap:butt;stroke-linejoin:miter;stroke-miterlimit:10.43299961;stroke-dasharray:none;stroke-dashoffset:0;stroke-opacity:1"><path d="m 150.74,660.33 0.53,2.03 -1.81,-0.27 0.02,-0.17 c 0.07,0 0.23,0.03 0.31,0.03 0.25,0 0.39,-0.07 0.39,-0.22 0,-0.06 -0.02,-0.14 -0.05,-0.26 l -1.08,-4.24 0.91,0 0.24,0.88 c 0.06,0.2 1.07,3.17 1.78,3.17 0.2,0 0.09,-0.44 0.54,-0.44 0.47,0 0.75,0.52 0.75,0.96 0,0.31 -0.17,0.56 -0.51,0.56 -0.63,0 -1.19,-0.77 -1.58,-1.39 -0.14,-0.2 -0.28,-0.44 -0.38,-0.64 z" id="path5136" style="fill:#000000;stroke-width:0" /></g>    </g>
    <g id="g5352" transform="matrix(1.4867708,0,0,1.4867708,418.75705,-39.141604)">
      <g word-spacing="normal" letter-spacing="normal" font-size-adjust="none" font-stretch="normal" font-weight="normal" font-variant="normal" font-style="normal" stroke-miterlimit="10.433" xml:space="preserve" transform="matrix(1.0629921,0,0,-1.0629921,-186.02362,789.27165)" id="g5354" style="font-style:normal;font-variant:normal;font-weight:normal;font-stretch:normal;letter-spacing:normal;word-spacing:normal;text-anchor:start;fill:none;stroke:#000000;stroke-linecap:butt;stroke-linejoin:miter;stroke-miterlimit:10.43299961;stroke-dasharray:none;stroke-dashoffset:0;stroke-opacity:1"><path id="path5356" d="m 154.21,662.72 0,0.14 -0.01,0.14 -0.01,0.13 -0.01,0.13 -0.01,0.12 -0.02,0.12 -0.03,0.12 -0.02,0.11 -0.03,0.1 -0.03,0.1 -0.04,0.1 -0.04,0.09 -0.04,0.09 -0.04,0.08 -0.05,0.08 -0.04,0.07 -0.06,0.07 -0.05,0.06 -0.06,0.06 -0.05,0.06 -0.06,0.05 -0.07,0.04 -0.06,0.04 -0.07,0.04 -0.06,0.03 -0.07,0.03 -0.07,0.03 -0.08,0.02 -0.07,0.01 -0.08,0.01 -0.07,0.01 -0.08,0 -0.08,-0.34 c 0.47,0 0.59,-0.66 0.59,-1.5 0,-0.47 -0.12,-1.11 -0.29,-1.93 l -2.4,0 c 0.32,1.38 1.25,3.43 2.1,3.43 l 0.08,0.34 c -2.21,0 -3.55,-3.8 -3.55,-5.81 0,-1.39 0.48,-2.08 1.59,-2.08 l 0.05,0.33 c -0.5,0 -0.67,0.65 -0.67,1.45 0,0.56 0.11,1.34 0.3,1.92 l 2.4,0 c -0.05,-0.11 -0.11,-0.43 -0.19,-0.7 -0.36,-1.14 -1.06,-2.67 -1.84,-2.67 l -0.05,-0.33 c 1.78,0 3.44,3.33 3.44,5.61 z" style="fill:#000000;stroke-width:0" /></g>    </g>
    <g id="g5810" transform="matrix(1.5679643,0,0,1.5679643,439.2277,12.283283)">
      <g word-spacing="normal" letter-spacing="normal" font-size-adjust="none" font-stretch="normal" font-weight="normal" font-variant="normal" font-style="normal" stroke-miterlimit="10.433" xml:space="preserve" transform="matrix(1.0629921,0,0,-1.0629921,-186.02362,789.27165)" id="g5812" style="font-style:normal;font-variant:normal;font-weight:normal;font-stretch:normal;letter-spacing:normal;word-spacing:normal;text-anchor:start;fill:none;stroke:#000000;stroke-linecap:butt;stroke-linejoin:miter;stroke-miterlimit:10.43299961;stroke-dasharray:none;stroke-dashoffset:0;stroke-opacity:1"><path id="path5814" d="m 154.9,658.59 -0.05,-0.06 -0.05,-0.06 -0.05,-0.05 -0.05,-0.05 -0.04,-0.05 -0.05,-0.05 -0.04,-0.04 -0.04,-0.04 -0.04,-0.04 -0.04,-0.03 -0.04,-0.04 -0.03,-0.03 -0.04,-0.03 -0.03,-0.02 -0.03,-0.03 -0.03,-0.02 -0.03,-0.02 -0.03,-0.02 -0.03,-0.01 -0.03,-0.02 -0.02,-0.01 -0.03,-0.01 -0.02,-0.01 -0.03,-0.01 -0.02,-0.01 -0.02,0 -0.02,-0.01 -0.02,0 -0.02,0 -0.02,-0.01 -0.04,0 c -0.11,0 -0.16,0.08 -0.16,0.21 0,0.15 0.08,0.43 0.14,0.64 l 0.58,2.07 c 0.09,0.32 0.14,0.6 0.14,0.83 0,0.67 -0.33,1.02 -1.03,1.02 -0.69,0 -1.56,-0.6 -2.55,-2.49 l 0,0 1.39,5.05 -0.09,0.03 c -0.44,-0.17 -0.84,-0.31 -1.81,-0.51 l 0,-0.18 c 0.34,0 0.65,-0.03 0.65,-0.26 0,-0.08 0,-0.19 -0.04,-0.33 l -1.83,-6.66 0.97,0 c 0.51,1.82 0.76,2.43 1.28,3.18 0.64,0.93 1.25,1.54 1.62,1.54 0.35,0 0.44,-0.22 0.44,-0.51 0,-0.22 -0.06,-0.55 -0.11,-0.72 l -0.47,-1.67 c -0.14,-0.5 -0.28,-1.05 -0.28,-1.28 0,-0.43 0.24,-0.64 0.63,-0.64 0.42,0 1.01,0.31 1.7,1.34 z" style="fill:#000000;stroke-width:0" /></g>    </g>
    <path style="fill:none;stroke:#000000;stroke-width:0.99750477;stroke-miterlimit:4;stroke-dasharray:none;stroke-dashoffset:0;stroke-opacity:1" id="path2985-6" d="m 489.88339,229.11715 a 99.255516,24.442659 0 0 1 -44.87157,22.69214 99.255516,24.442659 0 0 1 -102.4373,0.82225 99.255516,24.442659 0 0 1 -50.77698,-21.9244" />
    <path style="fill:none;stroke:#000000;stroke-width:1.00395155;stroke-linecap:butt;stroke-linejoin:miter;stroke-miterlimit:4;stroke-dasharray:none;stroke-opacity:1" d="M 291.76658,230.19644 391.10083,55.450588" id="path3755-3" />
    <path style="fill:none;stroke:#000000;stroke-width:1.00133932;stroke-linecap:butt;stroke-linejoin:miter;stroke-miterlimit:4;stroke-dasharray:none;stroke-opacity:1" d="M 490.18517,229.77728 390.91482,55.365554" id="path3755-1-6" />
    <path style="fill:none;stroke:#000000;stroke-width:0.99750477;stroke-linecap:butt;stroke-linejoin:miter;stroke-miterlimit:4;stroke-dasharray:none;stroke-opacity:1" d="m 391.02398,55.664519 0,174.610321" id="path3775-1" />
    <path style="fill:none;stroke:#000000;stroke-width:0.99667728;stroke-linecap:butt;stroke-linejoin:miter;stroke-miterlimit:4;stroke-dasharray:none;stroke-opacity:1" d="m 291.28282,230.35676 100.10463,0" id="path3777-5" />
    <path style="fill:none;stroke:#000000;stroke-width:0.99750477;stroke-miterlimit:4;stroke-dasharray:1.99500953, 5.98502858;stroke-dashoffset:0;stroke-opacity:1" id="path2985-7-4" d="m 291.95078,229.99307 a 99.255516,24.442659 0 0 1 94.24202,-22.93922 99.255516,24.442659 0 0 1 102.8554,20.57314" />
    <path style="fill:none;stroke:#000000;stroke-width:1.26921225;stroke-miterlimit:4;stroke-dasharray:none;stroke-dashoffset:0;stroke-opacity:1" id="path3811-2" d="m -390.69345,-78.801245 a 21.757925,21.757925 0 0 1 10.7315,2.830636" transform="scale(-1,-1)" />
    <text xml:space="preserve" style="font-style:normal;font-weight:normal;font-size:18.62008858px;line-height:125%;font-family:Sans;letter-spacing:0px;word-spacing:0px;fill:#000000;fill-opacity:1;stroke:none" x="279.39844" y="212.06108" id="text4845-0"><tspan id="tspan4847-9" x="279.39844" y="212.06108" /></text>
    <rect style="fill:none;stroke:#000000;stroke-width:0.63233238;stroke-miterlimit:4;stroke-dasharray:none;stroke-dashoffset:0;stroke-opacity:1" id="rect4857-7" width="10.060347" height="10.060347" x="381.12283" y="220.43002" />
    <g transform="matrix(1.6830574,0,0,1.6830574,376.6843,-9.4437988)" id="g6186">
      <g style="font-style:normal;font-variant:normal;font-weight:normal;font-stretch:normal;letter-spacing:normal;word-spacing:normal;text-anchor:start;fill:none;stroke:#000000;stroke-linecap:butt;stroke-linejoin:miter;stroke-miterlimit:10.43299961;stroke-dasharray:none;stroke-dashoffset:0;stroke-opacity:1" id="g6188" transform="matrix(1.0629921,0,0,-1.0629921,-186.02362,789.27165)" xml:space="preserve" stroke-miterlimit="10.433" font-style="normal" font-variant="normal" font-weight="normal" font-stretch="normal" font-size-adjust="none" letter-spacing="normal" word-spacing="normal"><path style="fill:#000000;stroke-width:0" d="m 151.95,665 -1.83,-0.28 0.03,-0.17 c 0.09,0.01 0.23,0.04 0.31,0.04 0.27,0 0.36,-0.12 0.36,-0.26 0,-0.03 0,-0.13 -0.03,-0.28 l -1.49,-5.92 c -0.03,-0.11 -0.07,-0.29 -0.07,-0.43 0,-0.28 0.11,-0.57 0.45,-0.57 0.69,0 1.19,0.76 1.58,1.21 l -0.19,0.14 c -0.11,-0.18 -0.45,-0.64 -0.72,-0.64 -0.09,0 -0.14,0.08 -0.14,0.16 0,0.08 0.02,0.13 0.02,0.13 z" id="path6190" /></g>    </g>
  </g>
</svg>