<svg viewBox="0 0 153 80" fill="none" xmlns="http://www.w3.org/2000/svg">
	<path d="M147.772 36.8388L129.996 38.8995" stroke="#2F9E32" stroke-width="0.194218" stroke-miterlimit="10" stroke-linecap="round"/>
	<path d="M143.511 43.352H144.74" stroke="black" stroke-width="0.221956" stroke-miterlimit="10" stroke-linecap="round" stroke-dasharray="0.22 0.44"/>
	<path d="M143.511 34.5136H144.74" stroke="black" stroke-width="0.221956" stroke-miterlimit="10" stroke-linecap="round" stroke-dasharray="0.22 0.44"/>
	<path d="M144.126 43.352C144.22 40.4076 144.22 37.458 144.126 34.5136" stroke="black" stroke-width="0.221956" stroke-miterlimit="10" stroke-linecap="round" stroke-dasharray="0.22 0.44"/>
	<path d="M143.111 37.7939L145.283 40.0723" stroke="black" stroke-width="0.221956" stroke-miterlimit="10" stroke-linecap="round" stroke-dasharray="0.22 0.44"/>
	<path d="M145.282 37.7939L143.11 40.0723" stroke="black" stroke-width="0.221956" stroke-miterlimit="10" stroke-linecap="round" stroke-dasharray="0.22 0.44"/>
	<path d="M134.204 27.0698H119.918V4.9909H10.9089" stroke="black" stroke-width="0.582655" stroke-miterlimit="10" stroke-linecap="round" stroke-linejoin="round"/>
	<path d="M134.277 50.7262H119.821V74.0502H10.9986" stroke="black" stroke-width="0.582655" stroke-miterlimit="10" stroke-linecap="round" stroke-linejoin="round"/>
	<path d="M127.903 42.377L14.5118 67.599L4.52856 67.6014" stroke="#7e6bff" stroke-width="0.271906" stroke-miterlimit="10" stroke-linecap="round"/>
	<path d="M127.916 39.1114L15.7931 71.3124L4.58444 71.2544" stroke="#2F9E32" stroke-width="0.194218" stroke-miterlimit="10" stroke-linecap="round"/>
	<path d="M127.789 35.4512L14.7429 10.181L4.52856 10.1143" stroke="#7e6bff" stroke-width="0.271906" stroke-miterlimit="10" stroke-linecap="round"/>
	<path d="M127.919 31.841L13.8677 13.5296L4.52856 13.522" stroke="#2F9E32" stroke-width="0.194218" stroke-miterlimit="10" stroke-linecap="round"/>
	<path d="M149.901 39.0815H5.95251" stroke="black" stroke-width="0.201667" stroke-miterlimit="10" stroke-linecap="round" stroke-dasharray="4.03 1.61 1.61 1.61"/>
	<path d="M5.15787 8.67409L8.38085 10.1202L5.15787 11.5662" stroke="#7e6bff" stroke-width="0.210754" stroke-linecap="round" stroke-linejoin="round"/>
	<path d="M5.50095 66.1698L8.72079 67.6159L5.50095 69.0621" stroke="#7e6bff" stroke-width="0.210655" stroke-linecap="round" stroke-linejoin="round"/>
	<path fill-rule="evenodd" clip-rule="evenodd" d="M18.4506 73.4258C16.6246 73.4258 14.8733 69.8461 13.5822 63.4743C12.291 57.1024 11.5656 48.4604 11.5656 39.4492C11.5656 30.4381 12.291 21.796 13.5822 15.4241C14.8733 9.0523 16.6246 5.47263 18.4506 5.47263" fill="rgba(15,255,255,0.5)"/>
	<path d="M18.4506 73.4258C16.6246 73.4258 14.8733 69.8461 13.5822 63.4743C12.291 57.1024 11.5656 48.4604 11.5656 39.4492C11.5656 30.4381 12.291 21.796 13.5822 15.4241C14.8733 9.0523 16.6246 5.47263 18.4506 5.47263" stroke="black" stroke-width="1.25791"/>
	<path d="M18.3912 5.16485V73.8466" stroke="black" stroke-width="1.28766"/>
	<path d="M147.715 35.7629L130.074 35.6962" stroke="#7e6bff" stroke-width="0.271906" stroke-miterlimit="10" stroke-linecap="round"/>
	<path d="M147.689 42.6372L130.034 42.5705" stroke="#7e6bff" stroke-width="0.271906" stroke-miterlimit="10" stroke-linecap="round"/>
	<path d="M147.756 30.1881L131.809 31.7946" stroke="#2F9E32" stroke-width="0.194218" stroke-miterlimit="10" stroke-linecap="round"/>
	<path d="M144.107 34.6181L131.4 32.4774" stroke="#2F9E32" stroke-width="0.194218" stroke-miterlimit="10" stroke-linecap="round" stroke-dasharray="0.19 0.58"/>
	<path d="M144.164 34.5583L129.954 38.5717" stroke="#2F9E32" stroke-width="0.194218" stroke-miterlimit="10" stroke-linecap="round" stroke-dasharray="0.19 0.58"/>
	<path d="M144.101 38.9285L130.48 41.9089" stroke="#7e6bff" stroke-width="0.271906" stroke-miterlimit="10" stroke-linecap="round" stroke-dasharray="0.27 0.82"/>
	<path d="M144.101 38.9285L130.191 36.0536" stroke="#7e6bff" stroke-width="0.271906" stroke-miterlimit="10" stroke-linecap="round" stroke-dasharray="0.27 0.82"/>
	<path fill-rule="evenodd" clip-rule="evenodd" d="M127.963 27.7516H132.816V29.8606C132.816 29.8606 129.923 34.3655 129.923 39.0198C129.923 43.674 132.816 48.4777 132.816 48.4777V50.2879H127.963V27.7516Z" fill="rgba(15,255,255,0.5)" stroke="black" stroke-width="0.528439"/>
</svg>