<svg viewBox="0 0 324 127" fill="none" xmlns="http://www.w3.org/2000/svg">
<path d="M87.8005 68.1583C87.8005 70.6909 87.576 73.1697 87.1465 75.5748" stroke="#7e6bff" stroke-width="0.264583" stroke-miterlimit="10" stroke-linecap="round" stroke-linejoin="round"/>
<path d="M32.4357 17.7189C31.7038 28.6241 30.2735 46.067 30.2735 66.059C30.2735 87.7602 31.6576 106.795 32.5566 116.972L34.2829 116.99C35.1763 106.915 36.2894 87.8566 36.2894 66.0575C36.2894 46.2167 35.069 28.6467 34.3001 17.5966L32.4357 17.7189Z" fill="#ECFDFF" stroke="black" stroke-width="0.264583" stroke-miterlimit="10" stroke-linecap="round" stroke-linejoin="round"/>
<path d="M216.363 67.9022C216.363 70.4348 216.588 72.9135 217.017 75.3186" stroke="#00A000" stroke-width="0.264583" stroke-miterlimit="10" stroke-linecap="round" stroke-linejoin="round"/>
<path d="M269.262 67.8018C269.262 73.1139 272.053 77.6883 276.048 79.7414C280.121 87.8237 288.243 93.3349 297.594 93.3349C311.062 93.3349 321.98 81.9033 321.98 67.8018C321.98 53.7002 311.062 42.2686 297.594 42.2686C288.279 42.2686 280.184 47.7376 276.013 55.8459C271.999 58.0039 269.262 62.541 269.262 67.8018V67.8018Z" fill="#ECFDFF" stroke="black" stroke-width="0.264583" stroke-miterlimit="10" stroke-linecap="round" stroke-linejoin="round"/>
<path d="M279.037 56.5784C280.702 56.5784 282.052 61.6033 282.052 67.8018C282.052 74.0002 280.702 79.0251 279.037 79.0251C277.372 79.0251 276.023 74.0002 276.023 67.8018C276.023 61.6033 277.372 56.5784 279.037 56.5784Z" fill="#8EFDFF" stroke="black" stroke-width="0.264583" stroke-miterlimit="10" stroke-linecap="round" stroke-linejoin="round"/>
<path d="M322.939 67.8145C322.852 63.2301 322.074 59.2957 319.792 55.5203" stroke="#00A000" stroke-width="0.264583" stroke-miterlimit="10" stroke-linejoin="round"/>
<path d="M213.777 71.7718H214.122L214.038 72.2089H213.692L213.777 71.7718ZM213.619 72.5897H213.964L213.554 74.6906H213.208L213.619 72.5897Z" fill="#00A000"/>
<path d="M212.014 70.8965L212.017 70.2465C212.019 69.8038 211.853 69.5815 211.519 69.5796C211.269 69.5778 211.067 69.681 210.911 69.8892C210.716 70.1461 210.586 70.4463 210.52 70.7896C210.439 71.2022 210.45 71.5071 210.551 71.7041C210.656 71.9048 210.822 72.0051 211.049 72.0051C211.3 72.0051 211.532 71.8053 211.744 71.4058L212.014 70.8965ZM211.606 69.1407C212.191 69.1313 212.48 69.4296 212.473 70.0355C212.473 70.0355 212.619 69.7607 212.912 69.211H213.373L212.464 70.919L212.456 71.5352C212.456 71.6271 212.481 71.7116 212.532 71.7885C212.59 71.8785 212.649 71.9235 212.709 71.9235H212.96L212.875 72.3625H212.563C212.387 72.3625 212.235 72.2837 212.107 72.1261C212.047 72.0473 212.016 71.9254 212.014 71.7603C211.892 71.961 211.726 72.1467 211.516 72.3175C211.417 72.3962 211.233 72.4347 210.965 72.4328C210.526 72.4292 210.227 72.2866 210.067 72.0051C209.904 71.7125 209.873 71.3073 209.974 70.7896C210.083 70.2324 210.28 69.8273 210.565 69.574C210.886 69.2908 211.233 69.1463 211.606 69.1407V69.1407Z" fill="#00A000"/>
<path d="M92.3456 71.7724L92.3484 71.1225C92.3503 70.6798 92.1843 70.4575 91.8504 70.4556C91.6009 70.4538 91.3983 70.5569 91.2426 70.7651C91.0475 71.0221 90.9171 71.3222 90.8515 71.6655C90.7708 72.0782 90.7811 72.383 90.8824 72.58C90.9875 72.7807 91.1535 72.8811 91.3805 72.8811C91.6318 72.8811 91.8635 72.6813 92.0755 72.2817L92.3456 71.7724ZM91.9376 70.0166C92.5229 70.0072 92.8118 70.3055 92.8043 70.9114C92.8043 70.9114 92.9506 70.6366 93.2432 70.087H93.7047L92.7958 71.7949L92.7874 72.4112C92.7874 72.5031 92.8127 72.5875 92.8634 72.6644C92.9215 72.7544 92.9806 72.7995 93.0406 72.7995H93.2911L93.2066 73.2384H92.8943C92.718 73.2384 92.566 73.1596 92.4385 73.0021C92.3784 72.9233 92.3475 72.8013 92.3456 72.6363C92.2237 72.837 92.0577 73.0227 91.8476 73.1934C91.7482 73.2722 91.5643 73.3106 91.2961 73.3088C90.8571 73.3051 90.5579 73.1626 90.3985 72.8811C90.2353 72.5884 90.2043 72.1832 90.3056 71.6655C90.4144 71.1084 90.6114 70.7032 90.8965 70.45C91.2173 70.1667 91.5643 70.0223 91.9376 70.0166V70.0166Z" fill="#7e6bff"/>
<path d="M94.1585 75.3506C93.9121 75.3506 93.717 75.275 93.5732 75.1237C93.4306 74.9711 93.3593 74.7635 93.3593 74.5009C93.3593 74.3483 93.3837 74.1932 93.4325 74.0357C93.4825 73.8768 93.5469 73.7436 93.6257 73.6361C93.7495 73.4685 93.8877 73.3447 94.0403 73.2647C94.1929 73.1846 94.3654 73.1446 94.558 73.1446C94.7969 73.1446 94.9895 73.219 95.1358 73.3678C95.2833 73.5167 95.3571 73.7111 95.3571 73.9512C95.3571 74.1176 95.3327 74.2833 95.284 74.4483C95.2352 74.6134 95.1714 74.7504 95.0926 74.8592C94.9701 75.0267 94.8325 75.1505 94.6799 75.2306C94.5274 75.3106 94.3535 75.3506 94.1585 75.3506V75.3506ZM93.7176 74.4896C93.7176 74.6797 93.757 74.8223 93.8358 74.9173C93.9158 75.0111 94.0365 75.058 94.1979 75.058C94.4292 75.058 94.6205 74.9573 94.7719 74.756C94.9244 74.5534 95.0007 74.297 95.0007 73.9869C95.0007 73.8056 94.9601 73.6686 94.8788 73.5761C94.7975 73.4835 94.6781 73.4373 94.5205 73.4373C94.3904 73.4373 94.2748 73.4679 94.1735 73.5292C94.0722 73.5892 93.9815 73.6811 93.9015 73.8049C93.8427 73.8975 93.797 74.0031 93.7645 74.122C93.7333 74.2408 93.7176 74.3633 93.7176 74.4896V74.4896Z" fill="#7e6bff"/>
<path d="M33.2815 126.002V10.617" stroke="black" stroke-width="0.264583"/>
<path d="M242.412 43.0143C241.671 48.4669 240.221 57.1883 240.221 67.1843C240.221 78.0349 241.624 87.5525 242.535 92.6407L244.284 92.6497C245.189 87.6121 246.317 78.0831 246.317 67.1836C246.317 57.2632 245.08 48.4782 244.301 42.9532L242.412 43.0143Z" fill="#ECFDFF" stroke="black" stroke-width="0.185208" stroke-miterlimit="10" stroke-linecap="round" stroke-linejoin="round"/>
<path d="M243.269 103.793V38.9249" stroke="black" stroke-width="0.264583"/>
<path d="M319.082 55.9569L243.189 78.71" stroke="#00A000" stroke-width="0.265"/>
<path d="M267.897 60.1615L174.576 88.4194" stroke="#00A000" stroke-width="0.265"/>
<path d="M322.02 67.8218H234.168M0 68.3048L87.8005 68.1583L0 68.3048ZM112.506 68.1148L189.41 67.9683L112.506 68.1148ZM87.8005 68.1583L112.506 68.1147L87.8005 68.1583ZM189.41 67.9683L234.168 67.8218L189.41 67.9683Z" stroke="black" stroke-width="0.251719"/>
<path d="M174.576 88.4194L0.0703125 63.2292" stroke="#7e6bff" stroke-width="0.264583"/>
<path d="M322.954 67.8314C322.926 70.0415 322.786 71.8688 322.198 73.7812" stroke="#7e6bff" stroke-width="0.264583" stroke-miterlimit="10" stroke-linejoin="round"/>
<path d="M146.671 48.5824L0.523071 27.4857" stroke="#7e6bff" stroke-width="0.265" stroke-dasharray="1.06 2.12"/>
<path d="M321.177 73.7725L146.671 48.5824" stroke="#7e6bff" stroke-width="0.265" stroke-dasharray="1.06 2.12"/>
<path d="M33.1019 89.9943L0.0919189 85.2292" stroke="#7e6bff" stroke-width="0.264583"/>
<path d="M174.576 88.4194L33.2594 46.017" stroke="#7e6bff" stroke-width="0.264583"/>
<path d="M33.2594 46.017L0.0919189 41.2292" stroke="#7e6bff" stroke-width="0.264583"/>
<path d="M174.576 88.4194L33.1019 89.9943" stroke="#7e6bff" stroke-width="0.264583"/>
<path d="M243.189 78.71L105.367 119.882" stroke="#00A000" stroke-width="0.265" stroke-dasharray="1.06 2.12"/>
<path d="M243.189 78.71L174.707 88.5772" stroke="#00A000" stroke-width="0.265"/>
<path d="M174.707 88.5772L33.243 108.96" stroke="#7e6bff" stroke-width="0.265"/>
<path d="M33.243 108.96L0.233032 104.195" stroke="#7e6bff" stroke-width="0.264583"/>
</svg>
