<svg class="img-fluid" xmlns="http://www.w3.org/2000/svg"  width="1172" height="888" viewBox="0 0 11720 8880">
	<g id="l31CJUo1X5NNWLlmUQcEGQ9" fill="rgb(0,69,134)" style="transform: none;">
		<g>
			<path id="pS6EdDLL1" d="M2190 7755 c0 -8 6 -15 14 -15 16 0 15 5 56 -395 16 -159 34 -335 40 -390 6 -55 15 -145 20 -200 6 -55 15 -143 20 -195 12 -111 26 -245 41 -385 5 -55 14 -138 19 -185 5 -47 14 -132 20 -190 14 -135 28 -273 40 -380 5 -47 14 -132 20 -190 20 -191 39 -360 59 -540 6 -47 15 -128 21 -180 5 -52 14 -131 19 -175 6 -44 14 -120 20 -170 6 -49 15 -127 21 -172 5 -46 14 -118 20 -160 43 -348 76 -599 111 -842 22 -157 45 -315 50 -351 9 -66 22 -147 39 -252 6 -32 14 -84 20 -115 9 -57 20 -125 40 -240 9 -59 25 -143 41 -223 9 -46 21 -107 40 -207 23 -127 28 -150 38 -188 6 -22 13 -53 16 -70 4 -16 15 -68 26 -115 11 -47 25 -105 30 -130 6 -25 19 -74 29 -110 10 -36 32 -117 50 -180 41 -146 124 -347 158 -383 l26 -27 -28 0 c-24 0 -27 -2 -16 -15 18 -22 275 -22 284 0 4 10 -1 15 -15 15 -27 0 -22 13 34 87 42 55 132 253 142 311 3 15 19 113 35 217 17 105 34 215 39 245 21 119 31 199 36 280 3 47 10 135 15 195 10 108 20 224 40 467 6 68 15 175 21 238 5 63 14 187 19 275 13 208 27 429 40 640 22 345 29 464 39 659 6 110 13 201 14 203 5 4 22 -291 57 -1007 10 -209 22 -435 40 -775 5 -104 14 -280 20 -390 5 -110 13 -252 16 -315 6 -109 16 -196 64 -547 12 -82 25 -180 30 -218 11 -83 100 -360 137 -425 14 -25 36 -64 49 -87 29 -51 29 -53 4 -53 -13 0 -18 -5 -14 -15 8 -21 310 -21 369 -1 l40 14 -50 4 c-49 4 -49 4 -17 12 23 6 64 39 127 102 80 81 101 108 151 206 71 137 109 223 175 393 59 150 68 174 80 197 5 10 9 27 9 37 0 11 5 23 10 26 6 3 10 16 10 29 0 12 4 26 8 31 5 6 14 30 21 55 7 25 17 53 22 62 5 10 9 27 9 37 0 11 4 23 10 26 6 3 10 19 10 35 0 16 4 32 10 35 5 3 10 17 10 31 0 13 4 32 9 42 5 9 15 37 21 62 7 25 16 56 20 70 4 14 13 45 20 70 7 25 16 56 20 70 8 24 31 107 63 220 46 163 153 585 208 820 11 47 24 102 29 123 6 20 14 54 19 75 18 71 32 127 42 158 5 17 9 42 9 57 0 14 5 29 10 32 5 3 10 18 10 32 0 15 4 40 9 57 5 17 14 49 19 71 6 22 15 58 20 80 6 22 15 58 20 80 6 22 15 58 21 80 6 22 19 78 30 125 46 202 67 291 132 555 38 154 73 289 77 300 6 13 11 -19 16 -95 3 -63 11 -171 16 -240 6 -69 15 -188 20 -265 40 -527 60 -780 100 -1240 6 -66 15 -172 20 -235 18 -216 30 -345 40 -435 5 -49 14 -133 20 -185 5 -52 12 -117 15 -145 3 -27 10 -95 16 -150 23 -232 30 -283 79 -590 5 -33 19 -121 31 -195 12 -74 44 -227 71 -340 41 -166 59 -221 94 -288 24 -45 44 -84 44 -87 0 -3 -9 -5 -20 -5 -13 0 -18 -5 -14 -15 5 -12 29 -15 129 -15 100 0 124 3 129 15 4 10 -1 15 -14 15 -27 0 -25 5 13 51 58 67 202 426 277 689 29 101 33 116 40 135 4 11 13 40 20 65 7 25 16 56 20 70 4 14 13 45 20 70 24 87 33 115 41 135 7 19 30 103 49 185 5 19 40 159 79 310 39 151 100 394 136 540 71 289 82 330 96 376 5 17 9 39 9 49 0 10 4 32 9 49 5 17 14 50 20 74 20 77 31 122 40 160 5 20 14 56 20 80 6 23 16 61 22 85 16 64 27 107 39 162 6 28 15 66 20 85 5 19 48 190 95 380 47 190 99 397 116 460 17 63 33 126 36 140 2 14 8 34 13 45 10 24 20 65 27 118 3 20 9 40 14 43 5 3 9 20 9 39 0 19 4 36 9 39 5 3 11 20 14 38 4 18 9 49 12 68 4 19 10 44 15 55 5 11 11 31 14 45 2 14 10 43 16 65 6 22 14 51 16 65 3 14 9 34 14 45 5 11 11 31 14 45 2 14 9 41 15 60 11 37 25 90 40 143 63 225 266 849 301 924 11 24 20 47 20 53 0 6 4 18 9 28 9 18 22 50 60 145 5 12 23 53 40 90 17 37 31 70 31 72 0 3 29 53 65 111 160 261 259 342 470 383 33 7 69 16 80 20 11 5 33 14 48 20 15 6 42 11 60 11 32 0 101 20 113 33 4 4 18 7 30 7 13 0 26 5 29 10 3 6 19 10 35 10 16 0 32 5 35 10 3 6 21 10 39 10 17 0 36 4 42 9 5 5 36 11 69 15 33 3 77 8 98 12 30 5 37 3 37 -10 0 -23 27 -20 33 4 3 10 15 21 28 24 162 33 151 28 147 58 -4 22 -1 28 15 28 10 0 17 5 14 13 -4 13 -50 13 -137 -1 l-55 -9 74 -2 c85 -1 87 -11 3 -22 -31 -4 -65 -10 -74 -14 -14 -5 -18 -2 -18 14 0 14 -5 19 -15 15 -8 -4 -15 -12 -15 -20 0 -14 -58 -34 -99 -34 -35 0 -143 -21 -163 -31 -10 -5 -25 -9 -35 -9 -16 0 -63 -13 -108 -30 -48 -19 -84 -29 -140 -39 -33 -7 -69 -16 -80 -20 -11 -5 -33 -14 -48 -20 -15 -6 -43 -11 -62 -11 -19 0 -47 -5 -62 -11 -15 -6 -37 -15 -48 -19 -11 -3 -50 -21 -87 -40 -69 -34 -124 -88 -220 -215 -66 -89 -178 -283 -178 -310 0 -2 -11 -28 -24 -57 -97 -211 -267 -698 -366 -1048 -11 -36 -28 -96 -40 -135 -25 -82 -38 -127 -50 -175 -5 -19 -13 -51 -19 -70 -15 -52 -51 -190 -62 -232 -5 -21 -13 -55 -18 -75 -12 -48 -53 -206 -131 -503 -83 -316 -139 -536 -150 -585 -4 -22 -16 -69 -25 -105 -9 -36 -25 -103 -36 -150 -11 -47 -25 -103 -30 -125 -6 -22 -15 -58 -21 -80 -5 -22 -14 -54 -19 -71 -5 -17 -9 -39 -9 -49 0 -10 -4 -32 -9 -49 -5 -17 -14 -50 -20 -73 -6 -24 -15 -60 -21 -80 -5 -21 -27 -112 -49 -203 -54 -220 -214 -860 -247 -985 -14 -55 -30 -116 -34 -135 -5 -19 -18 -71 -30 -115 -12 -44 -25 -96 -30 -115 -5 -19 -13 -51 -19 -70 -26 -92 -33 -117 -38 -143 -3 -15 -9 -30 -14 -33 -5 -3 -9 -16 -9 -30 0 -13 -4 -32 -9 -42 -5 -9 -15 -37 -21 -62 -7 -25 -16 -56 -21 -70 -4 -14 -22 -72 -39 -130 -36 -119 -32 -107 -100 -297 -70 -194 -129 -319 -178 -374 -36 -40 -45 -45 -76 -41 -33 4 -37 9 -85 106 -28 56 -51 110 -51 121 0 10 -4 32 -10 49 -57 177 -156 756 -200 1166 -20 184 -27 255 -51 480 -19 188 -30 297 -39 405 -5 61 -14 169 -20 240 -13 156 -26 313 -40 473 -13 149 -28 330 -40 500 -17 225 -30 402 -40 532 -5 69 -15 195 -22 280 -15 187 -15 361 0 415 6 22 16 58 22 80 15 53 28 104 35 140 4 17 10 39 15 50 5 11 11 34 15 50 3 17 11 48 16 70 6 22 13 55 16 73 3 18 9 35 14 38 5 3 9 16 9 29 0 13 4 34 9 47 5 13 14 41 20 63 38 147 206 692 256 835 53 154 107 295 126 332 5 10 9 22 9 28 0 34 194 413 251 491 80 109 143 160 229 188 108 34 130 44 130 58 0 19 -193 17 -245 -2 -28 -10 -33 -14 -17 -15 34 0 27 -18 -24 -64 -117 -104 -270 -367 -381 -656 -14 -36 -30 -76 -35 -90 -58 -139 -151 -412 -236 -695 -65 -215 -63 -208 -91 -307 -6 -21 -15 -54 -21 -73 -27 -94 -32 -113 -40 -145 -5 -19 -18 -71 -30 -115 -12 -44 -25 -96 -30 -115 -5 -19 -19 -75 -31 -125 l-23 -90 -7 42 c-4 23 -13 102 -18 175 -6 73 -16 183 -21 243 -5 61 -17 193 -25 295 -9 102 -39 372 -66 600 -39 334 -58 455 -95 620 -26 113 -49 215 -51 227 -3 12 -13 30 -22 40 -9 10 -33 38 -53 63 -20 25 -53 52 -73 60 -19 7 -35 17 -35 22 0 4 -9 8 -19 8 -11 0 -23 5 -26 10 -3 6 -17 10 -31 10 -13 0 -32 4 -42 9 -9 5 -44 15 -77 22 -88 18 -99 28 -35 30 55 1 55 1 20 12 -19 6 -131 12 -247 14 -176 3 -213 1 -213 -10 0 -14 61 -37 99 -37 14 0 21 -6 21 -19 0 -10 7 -21 15 -25 10 -3 15 1 15 12 0 15 10 17 87 14 49 -2 97 -7 108 -11 29 -12 201 -58 258 -68 15 -3 27 -9 27 -14 0 -5 9 -9 20 -9 11 0 20 -4 20 -10 0 -5 7 -10 15 -10 20 0 114 -115 120 -148 3 -15 10 -43 15 -62 4 -19 13 -60 20 -90 13 -65 28 -131 40 -180 11 -45 26 -150 40 -275 6 -55 16 -134 21 -175 51 -423 57 -482 79 -750 13 -158 45 -526 60 -690 l11 -115 -86 -345 c-97 -391 -153 -624 -186 -770 -6 -25 -14 -62 -20 -82 -5 -21 -13 -56 -19 -78 -5 -22 -14 -57 -19 -77 -5 -21 -14 -57 -20 -80 -21 -84 -30 -119 -41 -168 -11 -49 -20 -84 -41 -167 -6 -24 -15 -59 -20 -78 -4 -19 -26 -109 -48 -200 -75 -311 -89 -365 -124 -500 -38 -140 -62 -232 -78 -287 -23 -82 -31 -110 -40 -140 -5 -18 -13 -49 -19 -68 -5 -19 -14 -50 -19 -67 -6 -18 -15 -50 -20 -70 -6 -21 -15 -53 -20 -70 -6 -18 -15 -51 -21 -73 -6 -22 -16 -56 -21 -75 -6 -19 -13 -46 -16 -60 -3 -14 -9 -29 -13 -35 -3 -5 -12 -30 -19 -55 -7 -25 -17 -53 -22 -62 -5 -10 -9 -25 -9 -33 0 -8 -4 -23 -10 -33 -5 -9 -21 -53 -36 -97 -25 -74 -79 -212 -135 -345 -54 -128 -161 -329 -201 -376 -71 -84 -135 -129 -223 -158 -87 -28 -121 -32 -157 -15 -23 10 -118 164 -118 191 0 8 -4 18 -8 24 -20 22 -92 277 -102 359 -6 50 -15 117 -20 150 -5 33 -14 94 -19 135 -6 41 -18 122 -26 180 -18 123 -38 481 -135 2460 -6 113 -15 297 -21 410 -15 262 -15 555 -1 695 6 61 16 187 22 280 11 159 72 853 105 1189 8 83 26 220 40 305 13 86 29 188 35 226 6 39 15 92 20 118 6 27 10 60 10 75 0 14 8 51 19 81 10 31 24 76 31 101 6 25 16 53 21 62 5 10 9 28 10 40 1 37 95 187 117 188 7 0 20 4 30 9 9 5 32 16 50 23 17 7 32 19 32 26 0 17 -191 13 -197 -5 -2 -6 6 -13 17 -15 20 -3 18 -8 -28 -71 -30 -40 -57 -91 -67 -125 -9 -31 -21 -68 -25 -82 -33 -96 -61 -205 -69 -260 -5 -36 -28 -182 -50 -325 -22 -143 -49 -359 -61 -480 -11 -121 -25 -267 -30 -325 -6 -58 -15 -157 -21 -220 -6 -63 -15 -155 -20 -205 -5 -49 -12 -152 -15 -229 -4 -76 -10 -132 -14 -125 -4 8 -10 79 -14 159 -4 80 -11 199 -16 265 -22 265 -31 375 -40 490 -19 236 -31 382 -40 500 -5 66 -14 149 -20 185 -6 36 -16 94 -21 130 -6 36 -14 88 -19 115 -19 114 -32 193 -39 240 -8 54 -95 280 -118 307 -8 9 -31 25 -51 35 l-37 18 39 3 39 3 -28 15 c-36 19 -215 20 -215 2 0 -12 43 -38 62 -38 10 0 101 -42 108 -49 3 -3 14 -11 25 -17 21 -12 107 -213 119 -279 4 -22 11 -67 17 -100 16 -100 28 -172 40 -237 6 -35 15 -88 20 -118 13 -79 28 -235 59 -635 14 -183 29 -361 40 -495 6 -63 14 -200 19 -305 5 -104 15 -298 22 -430 15 -290 15 -315 0 -530 -20 -274 -42 -627 -101 -1588 -13 -215 -27 -415 -40 -562 -68 -823 -85 -1005 -100 -1085 -6 -30 -14 -82 -19 -115 -48 -314 -63 -390 -97 -473 -50 -121 -70 -160 -115 -213 -64 -77 -118 -87 -173 -32 -69 70 -183 422 -275 848 -12 55 -26 116 -31 135 -9 36 -20 90 -40 195 -7 33 -15 78 -20 100 -9 44 -25 128 -39 208 -6 28 -14 77 -20 107 -5 30 -15 89 -21 130 -6 41 -15 98 -20 125 -12 66 -26 153 -40 245 -6 41 -16 102 -21 135 -40 251 -154 1121 -204 1560 -9 77 -21 176 -26 220 -5 44 -14 123 -19 175 -6 52 -15 136 -21 185 -11 95 -22 199 -39 355 -6 52 -15 136 -20 185 -22 198 -45 423 -80 768 -6 56 -15 144 -20 195 -6 50 -14 134 -20 185 -20 195 -30 301 -40 395 -5 53 -14 138 -19 187 -10 91 -17 162 -46 445 -8 85 -18 165 -20 178 -4 17 -1 22 14 22 14 0 19 5 15 15 -5 11 -21 15 -60 15 -41 0 -54 -4 -54 -15z"></path>
		</g>
	</g>
	<g id="l3a2TVIWJ90P1TPJ6qYvc15" style="transform: none;">
		<g>
			<path id="pTp8Z27Qr" d="M1340 4076 l0 -3706 4953 2 4952 3 1 3698 1 3697 -4938 0 c-2715 0 -4944 3 -4953 6 -15 6 -16 -325 -16 -3700z m992 3582 c2 -47 7 -83 13 -83 6 0 11 36 13 83 l3 82 479 0 480 0 0 -45 c0 -45 12 -60 24 -29 3 9 6 29 6 45 l0 29 480 0 479 0 3 -80 c4 -104 22 -104 26 0 l3 80 472 -2 472 -3 5 -38 c7 -50 24 -48 28 3 l3 40 480 0 479 0 0 -85 c0 -47 4 -85 9 -85 15 0 21 29 21 101 l0 69 481 0 481 0 -6 -25 c-4 -16 -2 -25 5 -25 6 0 9 -9 6 -19 -3 -14 -1 -18 9 -14 9 3 14 20 14 44 l0 38 475 1 474 0 3 -82 c4 -108 22 -108 26 0 l3 82 479 0 480 0 0 -45 c0 -45 12 -60 24 -29 3 9 6 29 6 45 l0 29 480 0 479 0 3 -82 c2 -47 7 -83 13 -83 6 0 11 36 13 83 l3 82 479 0 480 0 0 -3670 0 -3670 -4925 0 -4925 0 -1 98 c-1 53 -1 210 -1 347 l0 250 48 5 c67 7 71 30 5 30 l-51 0 -1 90 c0 50 -1 173 -1 275 0 102 1 223 1 270 l1 85 91 0 c68 0 90 3 87 13 -3 8 -33 13 -91 15 l-87 3 -1 97 c-1 53 -1 210 -1 347 l0 250 52 3 c66 4 63 27 -3 27 l-47 0 -1 95 c-1 52 -1 212 -1 355 l1 260 91 3 c66 2 90 6 87 15 -2 8 -34 13 -90 15 l-87 3 -1 99 c0 55 -1 174 -1 265 0 91 1 205 1 254 l1 88 25 -5 c31 -5 75 5 75 18 0 6 -22 10 -50 10 l-50 0 -1 95 c0 52 -1 169 -1 260 0 91 1 210 1 265 l1 100 90 0 c118 0 117 18 -1 22 l-91 3 0 265 c0 146 0 304 1 353 l1 87 51 0 c66 0 62 24 -4 28 l-47 3 -1 95 c0 51 -1 168 -1 259 0 91 1 208 1 260 l1 94 88 3 c112 4 110 21 -4 28 l-86 5 0 265 c0 146 0 304 1 352 l1 87 47 3 c66 4 68 26 3 30 l-52 3 0 300 c1 165 1 321 1 348 l1 47 480 0 479 0 3 -82z"></path>
		</g>
	</g>
	<g id="texts">
		<g>
			<text fill="#000000" font-family="Arial" x="9.668623%" y="4.314319%" text-anchor="middle" dominant-baseline="central" font-size="256">1</text>
			<text fill="#000000" font-family="Arial" x="8.610719%" y="20.883411%" text-anchor="middle" dominant-baseline="central" font-size="256">0.8</text>
			<text fill="#000000" font-family="Arial" x="8.679185%" y="37.619835%" text-anchor="middle" dominant-baseline="central" font-size="256">0.6</text>
			<text fill="#000000" font-family="Arial" x="8.635736%" y="54.205494%" text-anchor="middle" dominant-baseline="central" font-size="256">0.4</text>
			<text fill="#000000" font-family="Arial" x="8.651484%" y="70.87346%" text-anchor="middle" dominant-baseline="central" font-size="256">0.2</text>
			<text fill="#000000" font-family="Arial" x="9.706949%" y="87.368126%" text-anchor="middle" dominant-baseline="central" font-size="256">0</text>
			<text fill="#000000" font-family="Arial" x="19.982998%" y="90.49025%" text-anchor="middle" dominant-baseline="central" font-size="256">300</text>
			<text fill="#000000" font-family="Arial" x="36.762287%" y="90.49802%" text-anchor="middle" dominant-baseline="central" font-size="256">400</text>
			<text fill="#000000" font-family="Arial" x="53.66745%" y="90.47955%" text-anchor="middle" dominant-baseline="central" font-size="256">500</text>
			<text fill="#000000" font-family="Arial" x="70.510155%" y="90.46651%" text-anchor="middle" dominant-baseline="central" font-size="256">600</text>
			<text fill="#000000" font-family="Arial" x="87.388176%" y="90.50242%" text-anchor="middle" dominant-baseline="central" font-size="256">700</text>
			<text fill="#000000" font-family="Arial" x="53.658386%" y="96.13159%" text-anchor="middle" dominant-baseline="central" font-size="300">Wavelength / nm</text>
			<text fill="#000000" font-family="Arial" x="28.251804%" y="57.35575%" text-anchor="middle" dominant-baseline="central" font-size="565">U</text>
			<text fill="#000000" font-family="Arial" x="44.17252%" y="57.47919%" text-anchor="middle" dominant-baseline="central" font-size="565">B</text>
			<text fill="#000000" font-family="Arial" x="62.17252%" y="57.47919%" text-anchor="middle" dominant-baseline="central" font-size="565">V</text>
		</g>
	</g>
</svg>